<?xml version="1.0" encoding="utf-8"?>
<!-- Generator: Adobe Illustrator 26.0.1, SVG Export Plug-In . SVG Version: 6.00 Build 0)  -->
<svg version="1.1" xmlns="http://www.w3.org/2000/svg" xmlns:xlink="http://www.w3.org/1999/xlink" x="0px" y="0px"
	 viewBox="0 0 3710 3710" style="enable-background:new 0 0 3710 3710;" xml:space="preserve">
<style type="text/css">
	.st0{fill:#FFFFFF;}
	.st1{fill:#B3C0C6;}
	.st2{fill:#4D5F7A;}
	.st3{fill:url(#SVGID_1_);}
	.st4{fill:url(#SVGID_00000176742003091365481400000008503937995012680867_);}
	.st5{fill:url(#SVGID_00000102505933882020071690000011332495682983154089_);}
	.st6{fill:url(#SVGID_00000033350407333136023720000016986343339307934354_);}
	.st7{fill:url(#SVGID_00000069390799107475241530000008749080551164669339_);}
	.st8{fill:url(#SVGID_00000005235684827866151200000016787413126126141586_);}
	.st9{fill:url(#SVGID_00000150072469348828303960000015584887040768961190_);}
	.st10{fill:url(#SVGID_00000036234529256067383160000005286150023542180506_);}
	.st11{fill:url(#SVGID_00000049199902994865696250000001894239949543331748_);}
	.st12{fill:url(#SVGID_00000037665067819685442260000017790132114656835969_);}
	.st13{fill:url(#SVGID_00000060009924351323933440000007799036893941276846_);}
	.st14{fill:url(#SVGID_00000129168951326563628150000017231498635748756374_);}
	.st15{fill:url(#SVGID_00000183241691202502794140000004832733173537159100_);}
	.st16{fill:url(#SVGID_00000024701282905442951800000010158371834651611317_);}
	.st17{fill:url(#SVGID_00000057135082526405083270000004281946661204506528_);}
	.st18{fill:url(#SVGID_00000183958981116854783590000006662082719313854884_);}
	.st19{fill:url(#SVGID_00000026850983269057007520000004896250261377646487_);}
	.st20{fill:url(#SVGID_00000114774880287081871770000003106209420471685270_);}
	.st21{fill:url(#SVGID_00000054250731257822563800000017775505141742920076_);}
	.st22{fill:#1342A3;}
	.st23{fill:url(#SVGID_00000070809484154287034570000017741931316566472321_);}
	.st24{fill:url(#SVGID_00000109721791653709980230000002561357454325529534_);}
	.st25{fill:url(#SVGID_00000183220494844355362430000015374662263646878646_);}
	.st26{fill:url(#SVGID_00000136406808865397163170000002451161546510642833_);}
	.st27{fill:url(#SVGID_00000163062165229330192700000018220244202871140772_);}
	.st28{fill:url(#SVGID_00000134937359261357391750000009732214442730592938_);}
	.st29{fill:url(#SVGID_00000079486737139008035270000017677401229206934680_);}
	.st30{fill:url(#SVGID_00000178163550107675591140000013771639150966361226_);}
	.st31{fill:url(#SVGID_00000068648010339668269940000001429468641875288994_);}
	.st32{fill:url(#SVGID_00000160176870790808313820000017284941747694027962_);}
	.st33{opacity:0.3;fill:url(#SVGID_00000036947611985354617240000015458420818488658830_);}
	.st34{opacity:0.3;fill:url(#SVGID_00000008830061103355126400000012522346397084301444_);}
	.st35{fill:url(#SVGID_00000018224776735489408690000009474668554946176397_);}
	.st36{fill:url(#SVGID_00000124133561395519059160000011234646568497942191_);}
	.st37{fill:url(#SVGID_00000152986132294768902400000016818685050828192137_);}
	.st38{opacity:0.3;fill:url(#SVGID_00000036966288825001686280000015576221391369844414_);}
	.st39{opacity:0.3;fill:url(#SVGID_00000058588386454063898870000013611097031957041026_);}
	.st40{opacity:0.3;fill:url(#SVGID_00000168815713814740261440000016895473359255680643_);}
	.st41{fill:url(#SVGID_00000057868997411124047720000008914829686590472887_);}
	.st42{fill:url(#SVGID_00000096778209735895229300000000976915343641402757_);}
	.st43{fill:url(#SVGID_00000061440006593853941240000005644829873491854003_);}
	.st44{fill:url(#SVGID_00000133517804382097276530000003333584002387792018_);}
	.st45{fill:url(#SVGID_00000092423555321644203880000014228643757893729214_);}
	.st46{fill:url(#SVGID_00000017516069158281672920000017133798225602672018_);}
	.st47{fill:url(#SVGID_00000155144486266417056430000017675604343528587178_);}
	.st48{fill:url(#SVGID_00000107589156477762851580000002537991738281448631_);}
	.st49{fill:url(#SVGID_00000044860057389232683810000005330589288108373161_);}
	.st50{fill:url(#SVGID_00000077289445026228328470000007054923422722752671_);}
	.st51{fill:url(#SVGID_00000051362813933783868340000001720983474026320831_);}
	.st52{fill:url(#SVGID_00000018946868352967596270000006622430721332978059_);}
	.st53{fill:url(#SVGID_00000056397828186120214780000017138466765630182836_);}
	.st54{fill:url(#SVGID_00000161600657441975643380000000345725225653575329_);}
	.st55{fill:url(#SVGID_00000015335070051171221100000007897636048476597669_);}
	.st56{fill:url(#SVGID_00000041983506188064903360000009561183322084808088_);}
	.st57{fill:url(#SVGID_00000101811589885293187920000010912401218186758039_);}
</style>
<g id="Background">
	<g>
		<g>
			<rect class="st0" width="3710" height="3710"/>
		</g>
	</g>
</g>
<g id="Illustration">
	<g>
		<path class="st1" d="M3213.8,2061.7c-75.9-369.2-387.1-822.8-1001.8-870.2c0,0-466.7-42.2-926.8,21.8
			c-273.1,38-512.5,150.9-664,313.3c-151.5,162.4-202.1,360.4-140.7,549.1c39.9,122.6,66.8,249.5,59.5,375.5
			c-12.9,219.3-5.5,423.9,280.8,554.7c255.6,116.8,577.4,219.7,884.3,237.8c208.6,12.3,442.5-7.6,643.6-47.9
			C3373.2,2990,3289.7,2430.9,3213.8,2061.7z"/>
		<path class="st2" d="M3146.8,2348.6c-97.8-63.4-238.5-48.4-355.1-57.9c-120.8-9.8-256.4-25-348.4-93.4
			c-226.3-168.4-432.9-174.5-870.1-180.4c-437.2-5.8-328.5-208.4-867.4-214.7c-62.3-0.7-145.6,26.2-185.5,64.1
			c-91.7,87.3-55.1,245.5-33.9,347c35.1,168.3,108.9,334.5,190.4,491.9c8.6,16.7,18.3,32.1,28.8,46.2
			c79.1,105.6,211.1,138.7,375.6,101.7c233.7-52.6,436.1-165.6,680.5-194.7c359.7-42.8,721,87.8,1081.6,91.6
			c167.1,1.8,314.7-35.7,367.3-173.1C3239.4,2501.7,3227.2,2400.6,3146.8,2348.6z"/>
		<g>
			<linearGradient id="SVGID_1_" gradientUnits="userSpaceOnUse" x1="2895.8394" y1="2610.6482" x2="3112.4585" y2="2610.6482">
				<stop  offset="0" style="stop-color:#311944"/>
				<stop  offset="1" style="stop-color:#893976"/>
			</linearGradient>
			<path class="st3" d="M2895.8,2479.2c0,0,113.8-55.6,162.5,0s63.2,236.8,48.7,286l-59.4,1.6L2895.8,2479.2z"/>
			<g>
				
					<linearGradient id="SVGID_00000003805312982300313080000012213431004377165740_" gradientUnits="userSpaceOnUse" x1="-2302.2722" y1="2757.0906" x2="-2131.8831" y2="2757.0906" gradientTransform="matrix(1 0 0 1 5146.314 0)">
					<stop  offset="0" style="stop-color:#444B8C"/>
					<stop  offset="0.9964" style="stop-color:#3E4177"/>
				</linearGradient>
				<path style="fill:url(#SVGID_00000003805312982300313080000012213431004377165740_);" d="M2907,2591.3
					C2907,2591.3,2907,2591.3,2907,2591.3c-6.1,0.9-11.7,4.3-17.2,9.1c-5.3,3.9-11.7,8.4-11.7,14.2v0.1c-20.5,30.5-34,86.7-34,149.7
					c-0.1,83.9,23.8,151.8,55.3,159.6c0,0-0.1,0.1-0.1,0.1c2.1,0.4,28.5,14.1,111.7,0.6c2.2-51.1,3.5-340.2,3.5-340.2
					S2948,2579.6,2907,2591.3z"/>
				<g>
					
						<linearGradient id="SVGID_00000052793264313151743460000017029408394471800253_" gradientUnits="userSpaceOnUse" x1="-1992.6921" y1="2464.9617" x2="-2235.1621" y2="2940.3125" gradientTransform="matrix(1 0 0 1 5146.314 0)">
						<stop  offset="0" style="stop-color:#EBEFF2"/>
						<stop  offset="0.9946" style="stop-color:#B7C0CE"/>
					</linearGradient>
					<path style="fill:url(#SVGID_00000052793264313151743460000017029408394471800253_);" d="M3073.1,2748.4
						c0,96-31.1,175.5-68.7,177.5c-36.9,2-66.3-71.7-66.2-164.4c0.1-92.6,29.5-171.8,66.4-177
						C3042.1,2579.2,3073.1,2652.5,3073.1,2748.4z"/>
					<path class="st0" d="M3043.6,2750.6c0,68.1-20.7,124.7-46,126.4c-24.9,1.6-44.8-51-44.8-117.5c0-66.5,20-122.9,44.9-126.1
						C3023,2630.1,3043.6,2682.5,3043.6,2750.6z"/>
				</g>
			</g>
			
				<linearGradient id="SVGID_00000177452919955785556490000007388862408851384463_" gradientUnits="userSpaceOnUse" x1="2004.5503" y1="1593.8867" x2="2033.8239" y2="3970.8188">
				<stop  offset="0" style="stop-color:#FCB148"/>
				<stop  offset="5.207239e-02" style="stop-color:#FDBA46"/>
				<stop  offset="0.1424" style="stop-color:#FFC244"/>
				<stop  offset="0.3183" style="stop-color:#FFC444"/>
				<stop  offset="0.4849" style="stop-color:#FDB946"/>
				<stop  offset="0.7754" style="stop-color:#F99C4D"/>
				<stop  offset="0.8658" style="stop-color:#F8924F"/>
				<stop  offset="1" style="stop-color:#F8924F"/>
			</linearGradient>
			<path style="fill:url(#SVGID_00000177452919955785556490000007388862408851384463_);" d="M2522.7,1928v987.9h-1016V1928
				c0-7.2,0.3-15.2,1.2-22.2c11.5-87.9,93.6-157,193.4-157h627.9c99.8,0,181.3,69.1,192.9,157
				C2522.9,1912.8,2522.7,1920.8,2522.7,1928z"/>
			
				<linearGradient id="SVGID_00000023959452880802695310000012181611349530618268_" gradientUnits="userSpaceOnUse" x1="2338.1646" y1="2825.1387" x2="2554.7834" y2="2825.1387">
				<stop  offset="0" style="stop-color:#311944"/>
				<stop  offset="1" style="stop-color:#893976"/>
			</linearGradient>
			<path style="fill:url(#SVGID_00000023959452880802695310000012181611349530618268_);" d="M2338.2,2693.7c0,0,113.8-55.6,162.5,0
				s63.2,236.8,48.7,286l-59.4,1.6L2338.2,2693.7z"/>
			
				<linearGradient id="SVGID_00000081643323639764043920000008289875552939327366_" gradientUnits="userSpaceOnUse" x1="2686.3442" y1="1585.7445" x2="2715.5925" y2="3960.6218">
				<stop  offset="0" style="stop-color:#FCB148"/>
				<stop  offset="5.207239e-02" style="stop-color:#FDBA46"/>
				<stop  offset="0.1424" style="stop-color:#FFC244"/>
				<stop  offset="0.3183" style="stop-color:#FFC444"/>
				<stop  offset="0.4849" style="stop-color:#FDB946"/>
				<stop  offset="0.7754" style="stop-color:#F99C4D"/>
				<stop  offset="0.8658" style="stop-color:#F8924F"/>
				<stop  offset="1" style="stop-color:#F8924F"/>
			</linearGradient>
			<path style="fill:url(#SVGID_00000081643323639764043920000008289875552939327366_);" d="M3180.8,2099.5
				c-6.1,137.9-4.3,387-18.8,534.9c-6.4,65.5-15.9,111.1-30.8,118.6c-6.3,2.3-15.6,5.9-27.6,10.5c-3.2-89.7-30.4-162.3-67.8-190.7
				c-12.9-9.8-26.9-14.4-41.6-12.6c-13.1,1.6-25.7,8.1-37.2,18.7c-40.4,36.9-68.8,122.9-68.9,220c0,16.3,0.8,32.2,2.3,47.5
				c-104.2,40.6-226.7,88.6-338.5,132.3c-0.9,0.4-1.7,0.7-2.5,1c0.6-4.9,1.1-9.8,1.5-14.9c1.2-13.7,1.8-27.8,1.8-42.1
				c0-39.6-4.7-76.6-13-109.2c-21.4-84-67-138.6-119.1-132.9c-71,7.7-127.7,124.7-127.8,261.6c0,47.6,6.7,91.8,18.6,129.1
				c0.2,0.5,0.3,1,0.5,1.5c-58.5,23-95,37.3-95,37.3l0.4-3.7l66.2-569l90.9-781.8l712,219.4
				C3144.7,1992.7,3183.2,2043.5,3180.8,2099.5z"/>
			<g>
				
					<linearGradient id="SVGID_00000077294662571341796600000003160470179752435386_" gradientUnits="userSpaceOnUse" x1="-2947.1333" y1="2981.2605" x2="-2695.324" y2="2981.2605" gradientTransform="matrix(1 0 0 1 5146.314 0)">
					<stop  offset="0" style="stop-color:#444B8C"/>
					<stop  offset="0.9964" style="stop-color:#3E4177"/>
				</linearGradient>
				<path style="fill:url(#SVGID_00000077294662571341796600000003160470179752435386_);" d="M2292.3,2736.2
					C2292.2,2736.2,2292.2,2736.2,2292.3,2736.2c-9.1,1.3-17.3,6.3-25.5,13.5c-7.9,5.7-17.3,12.4-17.3,21v0.2
					c-30.3,45-50.2,128.2-50.3,221.3c-0.2,124,35.1,224.3,81.7,235.8c0,0-0.1,0.1-0.1,0.1c3.1,0.6,42.1,20.8,165,0.9
					c3.3-75.5,5.2-502.8,5.2-502.8S2352.8,2719,2292.3,2736.2z"/>
				<g>
					
						<linearGradient id="SVGID_00000021084412836698600410000009900653668516636288_" gradientUnits="userSpaceOnUse" x1="-2489.6213" y1="2549.5386" x2="-2847.9546" y2="3252.0344" gradientTransform="matrix(1 0 0 1 5146.314 0)">
						<stop  offset="0" style="stop-color:#EBEFF2"/>
						<stop  offset="0.9946" style="stop-color:#B7C0CE"/>
					</linearGradient>
					<path style="fill:url(#SVGID_00000021084412836698600410000009900653668516636288_);" d="M2537.7,2968.4
						c0,141.9-45.9,259.4-101.6,262.4c-54.6,2.9-98-105.9-97.9-242.9c0.1-136.8,43.6-253.8,98.1-261.6
						C2491.8,2718.4,2537.7,2826.7,2537.7,2968.4z"/>
					<path class="st0" d="M2494.1,2971.6c0,100.7-30.6,184.3-67.9,186.8c-36.8,2.4-66.3-75.4-66.2-173.7
						c0.1-98.2,29.6-181.6,66.3-186.4C2463.6,2793.5,2494.1,2871.1,2494.1,2971.6z"/>
				</g>
			</g>
			<g>
				
					<linearGradient id="SVGID_00000147219067487631824660000011943782894614081170_" gradientUnits="userSpaceOnUse" x1="-3993.4224" y1="2934.53" x2="-3718.4031" y2="2934.53" gradientTransform="matrix(1 0 0 1 5146.314 0)">
					<stop  offset="0" style="stop-color:#444B8C"/>
					<stop  offset="0.9964" style="stop-color:#3E4177"/>
				</linearGradient>
				<path style="fill:url(#SVGID_00000147219067487631824660000011943782894614081170_);" d="M1254.6,2666.9c0,0-0.1,0-0.1,0
					c-9.8,1.4-18.8,6.9-27.7,14.7c-8.6,6.2-18.9,13.6-18.9,22.9v0.2c-33.1,49.2-54.8,140-54.9,241.7
					c-0.2,135.5,38.4,244.9,89.2,257.6c0,0-0.1,0.1-0.1,0.1c3.4,0.7,46,22.8,180.3,1c3.6-82.4,5.7-549.2,5.7-549.2
					S1320.6,2648.1,1254.6,2666.9z"/>
				<g>
					
						<linearGradient id="SVGID_00000049908130356380740750000015616466784280467077_" gradientUnits="userSpaceOnUse" x1="-3493.74" y1="2463.0149" x2="-3885.1023" y2="3230.262" gradientTransform="matrix(1 0 0 1 5146.314 0)">
						<stop  offset="0" style="stop-color:#EBEFF2"/>
						<stop  offset="0.9946" style="stop-color:#B7C0CE"/>
					</linearGradient>
					<path style="fill:url(#SVGID_00000049908130356380740750000015616466784280467077_);" d="M1522.6,2920.5
						c0,154.9-50.2,283.3-111,286.6c-59.6,3.2-107-115.7-106.9-265.3c0.1-149.5,47.6-277.2,107.1-285.7
						C1472.5,2647.4,1522.6,2765.7,1522.6,2920.5z"/>
					<path class="st0" d="M1475,2924c0,109.9-33.4,201.3-74.2,204c-40.2,2.7-72.4-82.3-72.3-189.7c0.1-107.3,32.3-198.4,72.5-203.6
						C1441.7,2729.5,1475,2814.2,1475,2924z"/>
				</g>
			</g>
			
				<linearGradient id="SVGID_00000132081831934874151840000011703814804815559301_" gradientUnits="userSpaceOnUse" x1="1819.8646" y1="2609.1465" x2="1072.9191" y2="2886.8069">
				<stop  offset="0" style="stop-color:#FCB148"/>
				<stop  offset="5.207239e-02" style="stop-color:#FDBA46"/>
				<stop  offset="0.1424" style="stop-color:#FFC244"/>
				<stop  offset="0.3183" style="stop-color:#FFC444"/>
				<stop  offset="0.4849" style="stop-color:#FDB946"/>
				<stop  offset="0.7754" style="stop-color:#F99C4D"/>
				<stop  offset="0.8658" style="stop-color:#F8924F"/>
				<stop  offset="1" style="stop-color:#F8924F"/>
			</linearGradient>
			<path style="fill:url(#SVGID_00000132081831934874151840000011703814804815559301_);" d="M1287.9,2593.3
				c-65.7,0-121,53.3-121,119v286.1h202.5v-405H1287.9z"/>
			<g>
				
					<linearGradient id="SVGID_00000146459289725237040510000006959667388038039970_" gradientUnits="userSpaceOnUse" x1="1184.9246" y1="2732.5122" x2="1337.7303" y2="2732.5122">
					<stop  offset="0" style="stop-color:#444B8C"/>
					<stop  offset="0.9964" style="stop-color:#3E4177"/>
				</linearGradient>
				
					<ellipse style="fill:url(#SVGID_00000146459289725237040510000006959667388038039970_);" cx="1261.3" cy="2732.5" rx="76.4" ry="84.6"/>
				<ellipse class="st0" cx="1261.3" cy="2732.5" rx="61.6" ry="68.2"/>
			</g>
			
				<linearGradient id="SVGID_00000128448574283002130190000004601773555751416976_" gradientUnits="userSpaceOnUse" x1="1286.9692" y1="2585.0881" x2="2483.8252" y2="2585.0881">
				<stop  offset="0" style="stop-color:#FCB148"/>
				<stop  offset="5.207239e-02" style="stop-color:#FDBA46"/>
				<stop  offset="0.1424" style="stop-color:#FFC244"/>
				<stop  offset="0.3183" style="stop-color:#FFC444"/>
				<stop  offset="0.4849" style="stop-color:#FDB946"/>
				<stop  offset="0.7754" style="stop-color:#F99C4D"/>
				<stop  offset="0.8658" style="stop-color:#F8924F"/>
				<stop  offset="1" style="stop-color:#F8924F"/>
			</linearGradient>
			<path style="fill:url(#SVGID_00000128448574283002130190000004601773555751416976_);" d="M2471.3,2437
				c-4.4-36-43.1-65.1-92.4-70.3c-3.9-0.4-8-0.7-12.1-0.8l-701.1-8.6c-61.7-0.8-121.4,15.3-166.9,44.9l-160.9,104.2
				c-6.8,4.4-13.5,9.2-19.1,14.4c-20,18.6-31.9,41.3-31.9,64.8V2813h621l456.7-215.2l119.2-56.1L2471.3,2437z"/>
			
				<linearGradient id="SVGID_00000026148393365915967850000001491612534380695974_" gradientUnits="userSpaceOnUse" x1="1507.6617" y1="1826.0935" x2="2522.7053" y2="1826.0935">
				<stop  offset="0" style="stop-color:#444B8C"/>
				<stop  offset="0.9964" style="stop-color:#3E4177"/>
			</linearGradient>
			<path style="fill:url(#SVGID_00000026148393365915967850000001491612534380695974_);" d="M2522.7,1903.3h-1015
				c11.5-85.8,93.8-154.5,193.6-154.5h627.9C2428.9,1748.9,2511.2,1817.5,2522.7,1903.3z"/>
			
				<linearGradient id="SVGID_00000065786303046569507250000007586084619204373137_" gradientUnits="userSpaceOnUse" x1="1750.3696" y1="1826.0935" x2="2237.7981" y2="1826.0935">
				<stop  offset="0" style="stop-color:#FFFFFF"/>
				<stop  offset="0.9964" style="stop-color:#EBEFF2"/>
			</linearGradient>
			<path style="fill:url(#SVGID_00000065786303046569507250000007586084619204373137_);" d="M2223.8,1776.3h-464.1
				c-6.5,0-9.4,3.9-9.4,9.8v81.6c0,5.9,2.9,8.2,9.4,8.2h464.1c6.5,0,14-2.3,14-8.2v-81.6C2237.8,1780.2,2230.3,1776.3,2223.8,1776.3
				z"/>
			<g>
				
					<linearGradient id="SVGID_00000169525402724745744910000001148165065031707556_" gradientUnits="userSpaceOnUse" x1="1570.6035" y1="1838.667" x2="1632.5132" y2="1838.667">
					<stop  offset="0" style="stop-color:#FF9085"/>
					<stop  offset="1" style="stop-color:#FB6FBB"/>
				</linearGradient>
				
					<ellipse style="fill:url(#SVGID_00000169525402724745744910000001148165065031707556_);" cx="1601.6" cy="1838.7" rx="31" ry="28.2"/>
				
					<linearGradient id="SVGID_00000031913686969472223760000015618179105300907675_" gradientUnits="userSpaceOnUse" x1="1656.3997" y1="1838.667" x2="1718.3094" y2="1838.667">
					<stop  offset="0" style="stop-color:#FCB148"/>
					<stop  offset="5.207239e-02" style="stop-color:#FDBA46"/>
					<stop  offset="0.1424" style="stop-color:#FFC244"/>
					<stop  offset="0.3183" style="stop-color:#FFC444"/>
					<stop  offset="0.4849" style="stop-color:#FDB946"/>
					<stop  offset="0.7754" style="stop-color:#F99C4D"/>
					<stop  offset="0.8658" style="stop-color:#F8924F"/>
					<stop  offset="1" style="stop-color:#F8924F"/>
				</linearGradient>
				
					<ellipse style="fill:url(#SVGID_00000031913686969472223760000015618179105300907675_);" cx="1687.4" cy="1838.7" rx="31" ry="28.2"/>
			</g>
			<g>
				
					<linearGradient id="SVGID_00000031200172101797083810000011147174907918475183_" gradientUnits="userSpaceOnUse" x1="10658.4971" y1="1838.667" x2="10720.4062" y2="1838.667" gradientTransform="matrix(-1 0 0 1 13074.875 0)">
					<stop  offset="0" style="stop-color:#FF9085"/>
					<stop  offset="1" style="stop-color:#FB6FBB"/>
				</linearGradient>
				
					<ellipse style="fill:url(#SVGID_00000031200172101797083810000011147174907918475183_);" cx="2385.4" cy="1838.7" rx="31" ry="28.2"/>
				
					<linearGradient id="SVGID_00000041291881939201556000000012910492029201209477_" gradientUnits="userSpaceOnUse" x1="10744.293" y1="1838.667" x2="10806.2031" y2="1838.667" gradientTransform="matrix(-1 0 0 1 13074.875 0)">
					<stop  offset="0" style="stop-color:#FCB148"/>
					<stop  offset="5.207239e-02" style="stop-color:#FDBA46"/>
					<stop  offset="0.1424" style="stop-color:#FFC244"/>
					<stop  offset="0.3183" style="stop-color:#FFC444"/>
					<stop  offset="0.4849" style="stop-color:#FDB946"/>
					<stop  offset="0.7754" style="stop-color:#F99C4D"/>
					<stop  offset="0.8658" style="stop-color:#F8924F"/>
					<stop  offset="1" style="stop-color:#F8924F"/>
				</linearGradient>
				
					<ellipse style="fill:url(#SVGID_00000041291881939201556000000012910492029201209477_);" cx="2299.6" cy="1838.7" rx="31" ry="28.2"/>
			</g>
			<path class="st22" d="M1949.5,1951.4v405h-371.8c-20,0-36.6-17-36.6-39v-325.6c0-22.1,16.6-40.4,36.6-40.4H1949.5z"/>
			<path class="st22" d="M2454.1,1991.7v325.6c0,22.1-19.1,39-42.4,39h-434.8v-405h434.8C2435,1951.4,2454.1,1969.7,2454.1,1991.7z"
				/>
			
				<linearGradient id="SVGID_00000119830866615333040220000000780497426266732162_" gradientUnits="userSpaceOnUse" x1="1834.8167" y1="2488.6631" x2="2483.8252" y2="2488.6631">
				<stop  offset="0" style="stop-color:#FCB148"/>
				<stop  offset="5.207239e-02" style="stop-color:#FDBA46"/>
				<stop  offset="0.1424" style="stop-color:#FFC244"/>
				<stop  offset="0.3183" style="stop-color:#FFC444"/>
				<stop  offset="0.4849" style="stop-color:#FDB946"/>
				<stop  offset="0.7754" style="stop-color:#F99C4D"/>
				<stop  offset="0.8658" style="stop-color:#F8924F"/>
				<stop  offset="1" style="stop-color:#F8924F"/>
			</linearGradient>
			<path style="fill:url(#SVGID_00000119830866615333040220000000780497426266732162_);" d="M2483.8,2541.8l-119.2,56.2l-458.8,12.6
				l-71-89.5l544.1-154.5c49.3,5.2,88,34.3,92.4,70.3L2483.8,2541.8z"/>
			
				<linearGradient id="SVGID_00000126290044830097903010000017426682080403000479_" gradientUnits="userSpaceOnUse" x1="1893.9791" y1="2823.4619" x2="2539.8665" y2="2823.4619">
				<stop  offset="0" style="stop-color:#FCB148"/>
				<stop  offset="5.207239e-02" style="stop-color:#FDBA46"/>
				<stop  offset="0.1424" style="stop-color:#FFC244"/>
				<stop  offset="0.3183" style="stop-color:#FFC444"/>
				<stop  offset="0.4849" style="stop-color:#FDB946"/>
				<stop  offset="0.7754" style="stop-color:#F99C4D"/>
				<stop  offset="0.8658" style="stop-color:#F8924F"/>
				<stop  offset="1" style="stop-color:#F8924F"/>
			</linearGradient>
			<path style="fill:url(#SVGID_00000126290044830097903010000017426682080403000479_);" d="M2539.9,2653.7v159.8
				c-24-84-67.1-138.6-119.2-132.9c-71,7.7-127.7,124.7-127.9,261.6c0,47.6,6.7,91.8,18.6,129.1l-94.1,35.1l-57.8,21.5L1894,2586.5
				l389.5-49.2l139.2-17.6c27.1-3.4,54.3,7,72,27.8C2516,2572.6,2539.9,2610.2,2539.9,2653.7z"/>
			
				<linearGradient id="SVGID_00000128480990731038202150000013062024114474236343_" gradientUnits="userSpaceOnUse" x1="1488.0319" y1="3449.4695" x2="1662.4504" y2="2379.7">
				<stop  offset="0" style="stop-color:#FCB148"/>
				<stop  offset="5.207239e-02" style="stop-color:#FDBA46"/>
				<stop  offset="0.1424" style="stop-color:#FFC244"/>
				<stop  offset="0.3183" style="stop-color:#FFC444"/>
				<stop  offset="0.4849" style="stop-color:#FDB946"/>
				<stop  offset="0.7754" style="stop-color:#F99C4D"/>
				<stop  offset="0.8658" style="stop-color:#F8924F"/>
				<stop  offset="1" style="stop-color:#F8924F"/>
			</linearGradient>
			<path style="fill:url(#SVGID_00000128480990731038202150000013062024114474236343_);" d="M1834.8,2521.2h-515.5
				c-20,20.6-32.3,40.8-32.3,64.4v347.1l624.7,20.7v-355.2C1911.7,2555.6,1877.4,2521.2,1834.8,2521.2z"/>
			
				<linearGradient id="SVGID_00000095334226478071605690000017835235646102036909_" gradientUnits="userSpaceOnUse" x1="1907.9384" y1="2793.8787" x2="2184.8259" y2="2793.8787">
				<stop  offset="0" style="stop-color:#FCB148"/>
				<stop  offset="5.207239e-02" style="stop-color:#FDBA46"/>
				<stop  offset="0.1424" style="stop-color:#FFC244"/>
				<stop  offset="0.3183" style="stop-color:#FFC444"/>
				<stop  offset="0.4849" style="stop-color:#FDB946"/>
				<stop  offset="0.7754" style="stop-color:#F99C4D"/>
				<stop  offset="0.8658" style="stop-color:#F8924F"/>
				<stop  offset="1" style="stop-color:#F8924F"/>
			</linearGradient>
			<path style="fill:url(#SVGID_00000095334226478071605690000017835235646102036909_);" d="M2176.8,2718
				c-2.1-72.6-61.2-130.7-133.8-131.3l-129-0.7l-6.1,415.8h276.9L2176.8,2718z"/>
			<g>
				
					<linearGradient id="SVGID_00000097493510331615060470000013305659783690472581_" gradientUnits="userSpaceOnUse" x1="1949.2902" y1="2732.5122" x2="2118.5288" y2="2732.5122">
					<stop  offset="0" style="stop-color:#444B8C"/>
					<stop  offset="0.9964" style="stop-color:#3E4177"/>
				</linearGradient>
				<circle style="fill:url(#SVGID_00000097493510331615060470000013305659783690472581_);" cx="2033.9" cy="2732.5" r="84.6"/>
				
					<ellipse transform="matrix(0.7071 -0.7071 0.7071 0.7071 -1336.4601 2238.5254)" class="st0" cx="2033.9" cy="2732.5" rx="68.2" ry="68.2"/>
			</g>
			<g>
				
					<linearGradient id="SVGID_00000049903892496223817710000006424397029885097652_" gradientUnits="userSpaceOnUse" x1="1688.6748" y1="1855.12" x2="1596.16" y2="2545.1238">
					<stop  offset="0" style="stop-color:#FCB148"/>
					<stop  offset="5.207239e-02" style="stop-color:#FDBA46"/>
					<stop  offset="0.1424" style="stop-color:#FFC244"/>
					<stop  offset="0.3183" style="stop-color:#FFC444"/>
					<stop  offset="0.4849" style="stop-color:#FDB946"/>
					<stop  offset="0.7754" style="stop-color:#F99C4D"/>
					<stop  offset="0.8658" style="stop-color:#F8924F"/>
					<stop  offset="1" style="stop-color:#F8924F"/>
				</linearGradient>
				<path style="fill:url(#SVGID_00000049903892496223817710000006424397029885097652_);" d="M1711,2648.2h-300.3
					c-16.2,0-27.6,10.8-27.6,27v257.9h357v-257.9C1740.1,2659,1727.2,2648.2,1711,2648.2z"/>
				<g>
					
						<linearGradient id="SVGID_00000000936324850931063070000003839674456651637695_" gradientUnits="userSpaceOnUse" x1="1559.4857" y1="2582.3374" x2="1532.0785" y2="3216.6221">
						<stop  offset="0" style="stop-color:#FCB148"/>
						<stop  offset="5.207239e-02" style="stop-color:#FDBA46"/>
						<stop  offset="0.1424" style="stop-color:#FFC244"/>
						<stop  offset="0.3183" style="stop-color:#FFC444"/>
						<stop  offset="0.4849" style="stop-color:#FDB946"/>
						<stop  offset="0.7754" style="stop-color:#F99C4D"/>
						<stop  offset="0.8658" style="stop-color:#F8924F"/>
						<stop  offset="1" style="stop-color:#F8924F"/>
					</linearGradient>
					<path style="fill:url(#SVGID_00000000936324850931063070000003839674456651637695_);" d="M1712.6,2692.9
						c0,7.5-6.1,13.6-13.6,13.6h-288.5c-7.5,0-13.6-6.1-13.6-13.6v-0.2c0-7.5,6.1-13.6,13.6-13.6H1699c7.5,0,13.6,6.1,13.6,13.6
						V2692.9z"/>
					
						<linearGradient id="SVGID_00000059300931192117945690000014591923711896799898_" gradientUnits="userSpaceOnUse" x1="1562.0187" y1="2585.5042" x2="1534.6115" y2="3219.7871">
						<stop  offset="0" style="stop-color:#FCB148"/>
						<stop  offset="5.207239e-02" style="stop-color:#FDBA46"/>
						<stop  offset="0.1424" style="stop-color:#FFC244"/>
						<stop  offset="0.3183" style="stop-color:#FFC444"/>
						<stop  offset="0.4849" style="stop-color:#FDB946"/>
						<stop  offset="0.7754" style="stop-color:#F99C4D"/>
						<stop  offset="0.8658" style="stop-color:#F8924F"/>
						<stop  offset="1" style="stop-color:#F8924F"/>
					</linearGradient>
					<path style="fill:url(#SVGID_00000059300931192117945690000014591923711896799898_);" d="M1712.6,2754.7
						c0,7.5-6.1,13.6-13.6,13.6h-288.5c-7.5,0-13.6-6.1-13.6-13.6v-0.2c0-7.5,6.1-13.6,13.6-13.6H1699c7.5,0,13.6,6.1,13.6,13.6
						V2754.7z"/>
					
						<linearGradient id="SVGID_00000149370165840274904790000007937133645168127362_" gradientUnits="userSpaceOnUse" x1="1564.5516" y1="2585.2378" x2="1537.1444" y2="3219.5208">
						<stop  offset="0" style="stop-color:#FCB148"/>
						<stop  offset="5.207239e-02" style="stop-color:#FDBA46"/>
						<stop  offset="0.1424" style="stop-color:#FFC244"/>
						<stop  offset="0.3183" style="stop-color:#FFC444"/>
						<stop  offset="0.4849" style="stop-color:#FDB946"/>
						<stop  offset="0.7754" style="stop-color:#F99C4D"/>
						<stop  offset="0.8658" style="stop-color:#F8924F"/>
						<stop  offset="1" style="stop-color:#F8924F"/>
					</linearGradient>
					<path style="fill:url(#SVGID_00000149370165840274904790000007937133645168127362_);" d="M1712.6,2813
						c0,7.5-6.1,13.6-13.6,13.6h-288.5c-7.5,0-13.6-6.1-13.6-13.6v-0.2c0-7.5,6.1-13.6,13.6-13.6H1699c7.5,0,13.6,6.1,13.6,13.6
						V2813z"/>
					
						<linearGradient id="SVGID_00000004534556210446780030000005874456948122880433_" gradientUnits="userSpaceOnUse" x1="1567.0847" y1="2584.9709" x2="1539.6774" y2="3219.2556">
						<stop  offset="0" style="stop-color:#FCB148"/>
						<stop  offset="5.207239e-02" style="stop-color:#FDBA46"/>
						<stop  offset="0.1424" style="stop-color:#FFC244"/>
						<stop  offset="0.3183" style="stop-color:#FFC444"/>
						<stop  offset="0.4849" style="stop-color:#FDB946"/>
						<stop  offset="0.7754" style="stop-color:#F99C4D"/>
						<stop  offset="0.8658" style="stop-color:#F8924F"/>
						<stop  offset="1" style="stop-color:#F8924F"/>
					</linearGradient>
					<path style="fill:url(#SVGID_00000004534556210446780030000005874456948122880433_);" d="M1712.6,2871.4
						c0,7.5-6.1,13.6-13.6,13.6h-288.5c-7.5,0-13.6-6.1-13.6-13.6v-0.2c0-7.5,6.1-13.6,13.6-13.6H1699c7.5,0,13.6,6.1,13.6,13.6
						V2871.4z"/>
				</g>
			</g>
			
				<linearGradient id="SVGID_00000157308660435095369160000011816548436390636679_" gradientUnits="userSpaceOnUse" x1="2522.7053" y1="2441.8264" x2="2956.9531" y2="2441.8264">
				<stop  offset="0" style="stop-color:#FCB148"/>
				<stop  offset="5.207239e-02" style="stop-color:#FDBA46"/>
				<stop  offset="0.1424" style="stop-color:#FFC244"/>
				<stop  offset="0.3183" style="stop-color:#FFC444"/>
				<stop  offset="0.4849" style="stop-color:#FDB946"/>
				<stop  offset="0.7754" style="stop-color:#F99C4D"/>
				<stop  offset="0.8658" style="stop-color:#F8924F"/>
				<stop  offset="1" style="stop-color:#F8924F"/>
			</linearGradient>
			<path style="opacity:0.3;fill:url(#SVGID_00000157308660435095369160000011816548436390636679_);" d="M2957,2578.9
				c-40.4,36.9-68.8,122.9-68.9,220c0,16.3,0.8,32.2,2.3,47.5c-104.2,40.6-226.7,88.6-338.5,132.3l-1-13.8l-11.2-151.3l-17-908.5
				c0,0,15.7,93.6,122.3,129.6c106.6,36,101.4,281.7,128.7,426.7C2796.1,2580,2855.9,2586.3,2957,2578.9z"/>
			
				<linearGradient id="SVGID_00000031891084545720263210000005777653540121254306_" gradientUnits="userSpaceOnUse" x1="3035.7683" y1="2668.1345" x2="3161.9644" y2="2668.1345">
				<stop  offset="0" style="stop-color:#FCB148"/>
				<stop  offset="5.207239e-02" style="stop-color:#FDBA46"/>
				<stop  offset="0.1424" style="stop-color:#FFC244"/>
				<stop  offset="0.3183" style="stop-color:#FFC444"/>
				<stop  offset="0.4849" style="stop-color:#FDB946"/>
				<stop  offset="0.7754" style="stop-color:#F99C4D"/>
				<stop  offset="0.8658" style="stop-color:#F8924F"/>
				<stop  offset="1" style="stop-color:#F8924F"/>
			</linearGradient>
			<path style="opacity:0.3;fill:url(#SVGID_00000031891084545720263210000005777653540121254306_);" d="M3162,2634.4
				c-6.4,65.5-15.9,111.1-30.8,118.6c-6.3,2.3-15.6,5.9-27.6,10.5c-3.2-89.7-30.4-162.3-67.8-190.7
				C3089.8,2571.1,3131.3,2599.1,3162,2634.4z"/>
			<g>
				<path class="st22" d="M2745.8,2040.9c0-21.9-7.9-41.1-20.1-43l-128.8-20.7c-14.4-2.3-26.1,15.4-26.1,39.7v304.4
					c0,24.3,11.9,43.3,26.4,42.6l128.7-6.7c12.3-0.6,20-18.8,20-40.8V2040.9z"/>
				<path class="st22" d="M2914,2063.8c0-19.7-6.6-36.8-16.5-38.4l-103.3-16.6c-11.5-1.8-21,14.1-21,35.7v270.9
					c0,21.6,9.6,38.6,21.1,38l103.5-5.4c9.9-0.5,16.1-16.8,16.1-36.6V2063.8z"/>
				<path class="st22" d="M3054.8,2082.9c0-17.9-6.9-33.4-15-34.8l-86.9-13.5c-9.3-1.5-18.3,13.2-18.3,32.6v243.5
					c0,19.4,8.9,34.8,18.2,34.3l85.1-4.4c8.1-0.4,16.8-15.3,16.8-33.2V2082.9z"/>
				<path class="st22" d="M3168,2098.5c0-16.4-5.6-30.6-12.5-31.7l-68.7-11.3c-7.7-1.2-11.5,12.2-11.5,29.9v221.6
					c0,17.7,3.1,31.8,10.8,31.4l69.9-3.7c6.8-0.4,11.9-13.9,11.9-30.3V2098.5z"/>
			</g>
			
				<linearGradient id="SVGID_00000006668649808620550560000014638717219924851628_" gradientUnits="userSpaceOnUse" x1="2533.0012" y1="2457.0576" x2="3176.845" y2="2457.0576">
				<stop  offset="0" style="stop-color:#444B8C"/>
				<stop  offset="0.9964" style="stop-color:#3E4177"/>
			</linearGradient>
			<polygon style="fill:url(#SVGID_00000006668649808620550560000014638717219924851628_);" points="3175.8,2440.2 2533,2501.7 
				2533,2474.3 3176.8,2412.5 			"/>
			<g>
				
					<linearGradient id="SVGID_00000015339403754859615590000006587110337704432286_" gradientUnits="userSpaceOnUse" x1="2473.8777" y1="2922.6458" x2="2140.1682" y2="3046.6948">
					<stop  offset="0" style="stop-color:#444B8C"/>
					<stop  offset="0.9964" style="stop-color:#3E4177"/>
				</linearGradient>
				<path style="fill:url(#SVGID_00000015339403754859615590000006587110337704432286_);" d="M2279,2937.7V3052
					c0,11.9-6.1,23.2-15.8,30.1c-12.4,8.8-30.2,21.1-44.6,30.8c-12.3,8.3-22.3,14.6-24.4,15c-4.4,0.8-4.9-90.8-4.9-148.4
					c-0.1-22.3-3-39.6,0.5-44.3c0-0.9,0-1.3,0-1.3l44.7-23.3c9.5-4.8,20.5-4.4,29.6,1.1c7.2,4.4,12.4,11.5,14.1,19.7
					C2278.6,2933.4,2279,2935.5,2279,2937.7z"/>
				
					<linearGradient id="SVGID_00000176756338668643371330000001322117742585047967_" gradientUnits="userSpaceOnUse" x1="3469.0713" y1="2362.6489" x2="1003.8571" y2="3279.0376">
					<stop  offset="0" style="stop-color:#444B8C"/>
					<stop  offset="0.9964" style="stop-color:#3E4177"/>
				</linearGradient>
				<path style="fill:url(#SVGID_00000176756338668643371330000001322117742585047967_);" d="M2227.5,2978.2v109
					c0,9.8-3.3,18.6-9.2,25.6c-6,7.2-14.4,13.9-24.2,16.4c-4.2,1.1-8.6,3-13.2,3H1155.3c-25.9,0-46.8-20.9-46.8-45v-109
					c0-8,2.3-16.2,6.4-22.7c8.1-13,23.2-22.4,40.4-22.4h1025.7c2.7,0,5.3,0.9,7.8,1.3c15.8,2.5,28.8,12.7,35,26
					C2226.2,2965.8,2227.5,2972,2227.5,2978.2z"/>
				
					<linearGradient id="SVGID_00000112614356605147522000000001017685804356727711_" gradientUnits="userSpaceOnUse" x1="3525.4521" y1="2265.8962" x2="1014.3461" y2="3199.344">
					<stop  offset="0" style="stop-color:#444B8C"/>
					<stop  offset="0.9964" style="stop-color:#3E4177"/>
				</linearGradient>
				<path style="opacity:0.3;fill:url(#SVGID_00000112614356605147522000000001017685804356727711_);" d="M2277.7,2931.3
					c-12.3,6.8-34.4,18.9-53.9,29.4c-15,8.2-28.6,15.4-35.1,18.7c-2,1-3.4,1.6-3.9,1.8c-5.8,1.9-1076.4-3.1-1076.4-3.1l6.4-22.7
					c8.1-13,23.2-22.4,40.4-22.4h1025.7c2.7,0,5.4,1.6,8.8,2c0-0.9,0-1.3,0-1.3l44.7-23.3c9.5-4.8,20.5-4.4,29.6,1.1
					C2271.3,2916.1,2276,2923.2,2277.7,2931.3z"/>
			</g>
			
				<linearGradient id="SVGID_00000159441219374440383240000003670364590915176333_" gradientUnits="userSpaceOnUse" x1="1540.9813" y1="2070.6792" x2="1773.8031" y2="2070.6792">
				<stop  offset="0" style="stop-color:#FFFFFF"/>
				<stop  offset="0.9964" style="stop-color:#EBEFF2"/>
			</linearGradient>
			<path style="opacity:0.3;fill:url(#SVGID_00000159441219374440383240000003670364590915176333_);" d="M1667.9,2105.6
				c-47.2,25-92.6,54.9-126.9,84.4v-198.2c0-22.1,16.6-40.4,36.6-40.4h195.9C1776.2,1996,1759.1,2057.3,1667.9,2105.6z"/>
			
				<linearGradient id="SVGID_00000176731528257574451870000014886748111336114865_" gradientUnits="userSpaceOnUse" x1="1976.9209" y1="2062.7822" x2="2231.3916" y2="2062.7822">
				<stop  offset="0" style="stop-color:#FFFFFF"/>
				<stop  offset="0.9964" style="stop-color:#EBEFF2"/>
			</linearGradient>
			<path style="opacity:0.3;fill:url(#SVGID_00000176731528257574451870000014886748111336114865_);" d="M2231.4,1951.4
				c-7.7,37.8-34.8,82.6-103.7,119.1c-57.6,30.5-106.1,68.1-150.8,103.7v-222.8H2231.4z"/>
			<g>
				
					<linearGradient id="SVGID_00000003093780854901973510000005420110878678904477_" gradientUnits="userSpaceOnUse" x1="1479.3519" y1="2134.4294" x2="1396.5244" y2="2243.0796">
					<stop  offset="0" style="stop-color:#444B8C"/>
					<stop  offset="0.9964" style="stop-color:#3E4177"/>
				</linearGradient>
				<path style="fill:url(#SVGID_00000003093780854901973510000005420110878678904477_);" d="M1454.9,2092.1H1390
					c-11.2,0-20.6,11.1-20.6,24.7v184.6c0,13.6,9.5,24.1,20.6,24.1h64.9c11.2,0,20.9-10.4,20.9-24.1v-184.6
					C1475.8,2103.2,1466,2092.1,1454.9,2092.1z"/>
				
					<linearGradient id="SVGID_00000176741732718473387900000012751892226140358564_" gradientUnits="userSpaceOnUse" x1="1362.4863" y1="2208.8279" x2="1465.4642" y2="2208.8279">
					<stop  offset="0" style="stop-color:#444B8C"/>
					<stop  offset="0.9964" style="stop-color:#3E4177"/>
				</linearGradient>
				<path style="fill:url(#SVGID_00000176741732718473387900000012751892226140358564_);" d="M1447.1,2092.1h-64.9
					c-11.2,0-19.7,11.1-19.7,24.7v184.6c0,13.6,8.5,24.1,19.7,24.1h64.9c11.2,0,18.4-10.4,18.4-24.1v-184.6
					C1465.5,2103.2,1458.2,2092.1,1447.1,2092.1z"/>
				<g>
					
						<linearGradient id="SVGID_00000085240483587648468030000011623374273455342505_" gradientUnits="userSpaceOnUse" x1="1444.8687" y1="2184.7998" x2="1530.6835" y2="2184.7998">
						<stop  offset="0" style="stop-color:#444B8C"/>
						<stop  offset="0.9964" style="stop-color:#3E4177"/>
					</linearGradient>
					<path style="fill:url(#SVGID_00000085240483587648468030000011623374273455342505_);" d="M1530.7,2185.8c0,3.2-2.6,5.8-5.8,5.8
						h-74.1c-3.2,0-5.8-2.6-5.8-5.8v-2c0-3.2,2.6-5.8,5.8-5.8h74.1c3.2,0,5.8,2.6,5.8,5.8V2185.8z"/>
					
						<linearGradient id="SVGID_00000112634277974161065520000005878884681662023332_" gradientUnits="userSpaceOnUse" x1="1444.8687" y1="2229.4236" x2="1530.6835" y2="2229.4236">
						<stop  offset="0" style="stop-color:#444B8C"/>
						<stop  offset="0.9964" style="stop-color:#3E4177"/>
					</linearGradient>
					<path style="fill:url(#SVGID_00000112634277974161065520000005878884681662023332_);" d="M1530.7,2230.4c0,3.2-2.6,5.8-5.8,5.8
						h-74.1c-3.2,0-5.8-2.6-5.8-5.8v-2c0-3.2,2.6-5.8,5.8-5.8h74.1c3.2,0,5.8,2.6,5.8,5.8V2230.4z"/>
				</g>
			</g>
			<g>
				
					<linearGradient id="SVGID_00000137828788559399512350000006538813851648206476_" gradientUnits="userSpaceOnUse" x1="2617.281" y1="2163.5996" x2="2752.4341" y2="2269.3716">
					<stop  offset="0" style="stop-color:#444B8C"/>
					<stop  offset="0.9964" style="stop-color:#3E4177"/>
				</linearGradient>
				<path style="fill:url(#SVGID_00000137828788559399512350000006538813851648206476_);" d="M2718.4,2099.7
					c0-13.6-11.1-24.7-24.7-24.7h-81c-13.6,0-24.7,11.1-24.7,24.7v184c0,13.6,11.1,24.7,24.7,24.7h81c13.6,0,24.7-11.1,24.7-24.7
					V2099.7z"/>
				
					<linearGradient id="SVGID_00000093140631466807336480000013888877746168154045_" gradientUnits="userSpaceOnUse" x1="2577.625" y1="2191.665" x2="2708.0637" y2="2191.665">
					<stop  offset="0" style="stop-color:#444B8C"/>
					<stop  offset="0.9964" style="stop-color:#3E4177"/>
				</linearGradient>
				<path style="fill:url(#SVGID_00000093140631466807336480000013888877746168154045_);" d="M2708.1,2099.7
					c0-13.6-11.1-24.7-24.7-24.7h-81c-13.6,0-24.7,11.1-24.7,24.7v184c0,13.6,11.1,24.7,24.7,24.7h81c13.6,0,24.7-11.1,24.7-24.7
					V2099.7z"/>
				<g>
					
						<linearGradient id="SVGID_00000058588822561870910640000016078460858360978315_" gradientUnits="userSpaceOnUse" x1="2529.5686" y1="2171.0693" x2="2635.9792" y2="2171.0693">
						<stop  offset="0" style="stop-color:#444B8C"/>
						<stop  offset="0.9964" style="stop-color:#3E4177"/>
					</linearGradient>
					<path style="fill:url(#SVGID_00000058588822561870910640000016078460858360978315_);" d="M2636,2171.1c0,3.8-3.1,6.9-6.9,6.9
						h-92.7c-3.8,0-6.9-3.1-6.9-6.9l0,0c0-3.8,3.1-6.9,6.9-6.9h92.7C2632.9,2164.2,2636,2167.3,2636,2171.1L2636,2171.1z"/>
					
						<linearGradient id="SVGID_00000089535149796036041650000013332848936934128570_" gradientUnits="userSpaceOnUse" x1="2529.5686" y1="2219.1257" x2="2635.9792" y2="2219.1257">
						<stop  offset="0" style="stop-color:#444B8C"/>
						<stop  offset="0.9964" style="stop-color:#3E4177"/>
					</linearGradient>
					<path style="fill:url(#SVGID_00000089535149796036041650000013332848936934128570_);" d="M2636,2219.1c0,3.8-3.1,6.9-6.9,6.9
						h-92.7c-3.8,0-6.9-3.1-6.9-6.9l0,0c0-3.8,3.1-6.9,6.9-6.9h92.7C2632.9,2212.3,2636,2215.3,2636,2219.1L2636,2219.1z"/>
				</g>
			</g>
			<g>
				
					<linearGradient id="SVGID_00000101063600930340123220000005056795935916381846_" gradientUnits="userSpaceOnUse" x1="1788.8677" y1="1823.9993" x2="1818.3907" y2="1823.9993">
					<stop  offset="0" style="stop-color:#444B8C"/>
					<stop  offset="0.9964" style="stop-color:#3E4177"/>
				</linearGradient>
				<path style="fill:url(#SVGID_00000101063600930340123220000005056795935916381846_);" d="M1818.4,1834.1c0,4.1-1.5,7.3-4.4,9.7
					s-7,3.5-12.3,3.5c-4.8,0-9.1-0.9-12.8-2.7v-8.9c3.1,1.4,5.6,2.3,7.8,2.9c2.1,0.6,4.1,0.8,5.8,0.8c2.1,0,3.7-0.4,4.8-1.2
					s1.7-2,1.7-3.6c0-0.9-0.2-1.7-0.7-2.4c-0.5-0.7-1.2-1.4-2.2-2c-1-0.6-2.9-1.7-5.9-3.1c-2.8-1.3-4.8-2.6-6.2-3.7
					s-2.5-2.6-3.3-4.2c-0.8-1.6-1.2-3.4-1.2-5.6c0-4,1.4-7.2,4.1-9.4c2.7-2.3,6.5-3.4,11.3-3.4c2.4,0,4.6,0.3,6.7,0.8
					c2.1,0.6,4.4,1.3,6.7,2.4l-3.1,7.5c-2.4-1-4.4-1.7-6-2.1c-1.6-0.4-3.1-0.6-4.7-0.6c-1.8,0-3.2,0.4-4.2,1.3c-1,0.8-1.5,2-1.5,3.3
					c0,0.8,0.2,1.6,0.6,2.2c0.4,0.6,1,1.2,1.9,1.8c0.9,0.6,2.9,1.6,6.1,3.2c4.2,2,7.1,4.1,8.7,6.1
					C1817.6,1828.6,1818.4,1831.1,1818.4,1834.1z"/>
				
					<linearGradient id="SVGID_00000168819058328058885320000013520951444096768169_" gradientUnits="userSpaceOnUse" x1="1824.5865" y1="1823.9993" x2="1859.097" y2="1823.9993">
					<stop  offset="0" style="stop-color:#444B8C"/>
					<stop  offset="0.9964" style="stop-color:#3E4177"/>
				</linearGradient>
				<path style="fill:url(#SVGID_00000168819058328058885320000013520951444096768169_);" d="M1845.8,1808.7c-3.6,0-6.4,1.4-8.4,4.1
					s-3,6.5-3,11.4c0,10.1,3.8,15.1,11.4,15.1c3.2,0,7-0.8,11.6-2.4v8.1c-3.7,1.5-7.9,2.3-12.5,2.3c-6.6,0-11.6-2-15.1-6
					c-3.5-4-5.2-9.7-5.2-17.2c0-4.7,0.9-8.8,2.6-12.4c1.7-3.5,4.2-6.3,7.4-8.1c3.2-1.9,7-2.8,11.3-2.8c4.4,0,8.8,1.1,13.3,3.2
					l-3.1,7.8c-1.7-0.8-3.4-1.5-5.1-2.1C1849.2,1809,1847.5,1808.7,1845.8,1808.7z"/>
				
					<linearGradient id="SVGID_00000112630644924796710240000005146440012823281335_" gradientUnits="userSpaceOnUse" x1="1867.0277" y1="1824.0148" x2="1904.1405" y2="1824.0148">
					<stop  offset="0" style="stop-color:#444B8C"/>
					<stop  offset="0.9964" style="stop-color:#3E4177"/>
				</linearGradient>
				<path style="fill:url(#SVGID_00000112630644924796710240000005146440012823281335_);" d="M1904.1,1846.7h-9.6v-19.5h-17.9v19.5
					h-9.6v-45.3h9.6v17.8h17.9v-17.8h9.6V1846.7z"/>
				
					<linearGradient id="SVGID_00000037652418078285223940000012515546513858460555_" gradientUnits="userSpaceOnUse" x1="1913.5581" y1="1823.9683" x2="1956.6809" y2="1823.9683">
					<stop  offset="0" style="stop-color:#444B8C"/>
					<stop  offset="0.9964" style="stop-color:#3E4177"/>
				</linearGradient>
				<path style="fill:url(#SVGID_00000037652418078285223940000012515546513858460555_);" d="M1956.7,1824c0,7.5-1.9,13.3-5.6,17.3
					c-3.7,4-9,6-16,6s-12.3-2-16-6c-3.7-4-5.6-9.8-5.6-17.3s1.9-13.3,5.6-17.3c3.7-4,9.1-6,16-6c7,0,12.3,2,16,6
					C1954.8,1810.7,1956.7,1816.4,1956.7,1824z M1923.6,1824c0,5.1,1,8.9,2.9,11.4c1.9,2.6,4.8,3.8,8.6,3.8
					c7.7,0,11.5-5.1,11.5-15.3c0-10.2-3.8-15.3-11.4-15.3c-3.8,0-6.7,1.3-8.6,3.9C1924.6,1815.1,1923.6,1818.9,1923.6,1824z"/>
				
					<linearGradient id="SVGID_00000023256974337480487070000003530919959222764733_" gradientUnits="userSpaceOnUse" x1="1964.054" y1="1823.9683" x2="2007.1768" y2="1823.9683">
					<stop  offset="0" style="stop-color:#444B8C"/>
					<stop  offset="0.9964" style="stop-color:#3E4177"/>
				</linearGradient>
				<path style="fill:url(#SVGID_00000023256974337480487070000003530919959222764733_);" d="M2007.2,1824c0,7.5-1.9,13.3-5.6,17.3
					c-3.7,4-9,6-16,6c-6.9,0-12.3-2-16-6s-5.6-9.8-5.6-17.3s1.9-13.3,5.6-17.3s9.1-6,16-6s12.3,2,16,6
					C2005.3,1810.7,2007.2,1816.4,2007.2,1824z M1974.1,1824c0,5.1,1,8.9,2.9,11.4c1.9,2.6,4.8,3.8,8.6,3.8
					c7.7,0,11.5-5.1,11.5-15.3c0-10.2-3.8-15.3-11.4-15.3c-3.8,0-6.7,1.3-8.6,3.9C1975.1,1815.1,1974.1,1818.9,1974.1,1824z"/>
				
					<linearGradient id="SVGID_00000072976488350845151220000007159048265789733306_" gradientUnits="userSpaceOnUse" x1="2016.5634" y1="1824.0148" x2="2044.5374" y2="1824.0148">
					<stop  offset="0" style="stop-color:#444B8C"/>
					<stop  offset="0.9964" style="stop-color:#3E4177"/>
				</linearGradient>
				<path style="fill:url(#SVGID_00000072976488350845151220000007159048265789733306_);" d="M2016.6,1846.7v-45.3h9.6v37.4h18.4
					v7.9H2016.6z"/>
				
					<linearGradient id="SVGID_00000005977893440167154630000009736831948369529228_" gradientUnits="userSpaceOnUse" x1="2068.8867" y1="1824.0148" x2="2102.468" y2="1824.0148">
					<stop  offset="0" style="stop-color:#444B8C"/>
					<stop  offset="0.9964" style="stop-color:#3E4177"/>
				</linearGradient>
				<path style="fill:url(#SVGID_00000005977893440167154630000009736831948369529228_);" d="M2068.9,1801.4h14.1
					c6.4,0,11.1,0.9,14,2.7c2.9,1.8,4.4,4.7,4.4,8.7c0,2.7-0.6,4.9-1.9,6.7c-1.3,1.7-3,2.8-5.1,3.1v0.3c2.9,0.6,4.9,1.8,6.2,3.6
					c1.3,1.8,1.9,4.1,1.9,7c0,4.1-1.5,7.4-4.5,9.7c-3,2.3-7,3.5-12.2,3.5h-16.9V1801.4z M2078.5,1819.3h5.6c2.6,0,4.5-0.4,5.7-1.2
					c1.2-0.8,1.8-2.1,1.8-4c0-1.7-0.6-3-1.9-3.7c-1.3-0.8-3.3-1.1-6-1.1h-5V1819.3z M2078.5,1826.9v11.8h6.3c2.6,0,4.6-0.5,5.9-1.5
					c1.3-1,1.9-2.6,1.9-4.6c0-3.8-2.7-5.6-8.1-5.6H2078.5z"/>
				
					<linearGradient id="SVGID_00000005958067121275668250000015243149672763312049_" gradientUnits="userSpaceOnUse" x1="2111.2041" y1="1824.3246" x2="2148.3789" y2="1824.3246">
					<stop  offset="0" style="stop-color:#444B8C"/>
					<stop  offset="0.9964" style="stop-color:#3E4177"/>
				</linearGradient>
				<path style="fill:url(#SVGID_00000005958067121275668250000015243149672763312049_);" d="M2148.4,1801.4v29.3
					c0,3.3-0.7,6.3-2.2,8.8c-1.5,2.5-3.7,4.5-6.5,5.8s-6.2,2-10,2c-5.8,0-10.3-1.5-13.6-4.5c-3.2-3-4.8-7.1-4.8-12.3v-29.2h9.6v27.7
					c0,3.5,0.7,6.1,2.1,7.7c1.4,1.6,3.7,2.4,7,2.4c3.1,0,5.4-0.8,6.8-2.5s2.1-4.2,2.1-7.7v-27.7H2148.4z"/>
				
					<linearGradient id="SVGID_00000018233232493440373960000001447361745427681198_" gradientUnits="userSpaceOnUse" x1="2156.6814" y1="1823.9993" x2="2186.2041" y2="1823.9993">
					<stop  offset="0" style="stop-color:#444B8C"/>
					<stop  offset="0.9964" style="stop-color:#3E4177"/>
				</linearGradient>
				<path style="fill:url(#SVGID_00000018233232493440373960000001447361745427681198_);" d="M2186.2,1834.1c0,4.1-1.5,7.3-4.4,9.7
					c-2.9,2.4-7,3.5-12.3,3.5c-4.8,0-9.1-0.9-12.8-2.7v-8.9c3.1,1.4,5.6,2.3,7.8,2.9c2.1,0.6,4.1,0.8,5.8,0.8c2.1,0,3.7-0.4,4.8-1.2
					c1.1-0.8,1.7-2,1.7-3.6c0-0.9-0.2-1.7-0.7-2.4c-0.5-0.7-1.2-1.4-2.2-2c-1-0.6-2.9-1.7-5.9-3.1c-2.8-1.3-4.8-2.6-6.2-3.7
					c-1.4-1.2-2.5-2.6-3.3-4.2c-0.8-1.6-1.2-3.4-1.2-5.6c0-4,1.4-7.2,4.1-9.4c2.7-2.3,6.5-3.4,11.3-3.4c2.4,0,4.6,0.3,6.7,0.8
					c2.1,0.6,4.4,1.3,6.7,2.4l-3.1,7.5c-2.4-1-4.4-1.7-6-2.1c-1.6-0.4-3.1-0.6-4.7-0.6c-1.8,0-3.2,0.4-4.2,1.3c-1,0.8-1.5,2-1.5,3.3
					c0,0.8,0.2,1.6,0.6,2.2s1,1.2,1.9,1.8c0.9,0.6,2.9,1.6,6.1,3.2c4.2,2,7.1,4.1,8.7,6.1
					C2185.4,1828.6,2186.2,1831.1,2186.2,1834.1z"/>
			</g>
		</g>
	</g>
</g>
</svg>
