<?xml version="1.0" encoding="utf-8"?>
<!-- Generator: Adobe Illustrator 26.0.1, SVG Export Plug-In . SVG Version: 6.00 Build 0)  -->
<svg version="1.1" xmlns="http://www.w3.org/2000/svg" xmlns:xlink="http://www.w3.org/1999/xlink" x="0px" y="0px"
	 viewBox="0 0 1122 1122" style="enable-background:new 0 0 1122 1122;" xml:space="preserve">
<style type="text/css">
	.st0{fill:#FFFFFF;}
	.st1{fill:#616E7D;}
	.st2{fill:#AAD4C8;}
	.st3{fill:#82BFAB;}
	.st4{fill:none;}
	.st5{font-family:'MyriadPro-Regular';}
	.st6{font-size:48px;}
	.st7{font-size:12px;}
	.st8{fill:#BE4946;}
</style>
<g id="Bg">
	<g>
		<g>
			<rect class="st0" width="1122" height="1122"/>
		</g>
	</g>
</g>
<g id="Object">
	<g>
		<path class="st1" d="M206.6,872c8.5,8.5,20.3,13.4,32.3,13.4h5.7h24.3h614.2c12,0,23.8-4.9,32.3-13.4c8.5-8.5,13.4-20.2,13.4-32.2
			V462.5H193.3v377.2C193.3,851.7,198.2,863.5,206.6,872z M780.6,493.1h105.3v93.7H780.6V493.1z M780.6,612.6h105.3v93.6H780.6
			V612.6z M644.5,493.1h105.3v93.7H644.5V493.1z M644.5,612.6h105.3v93.6H644.5V612.6z M644.5,732.2h105.3v93.6H644.5V732.2z
			 M508.4,493.1h105.3v93.7H508.4V493.1z M508.4,612.6h105.3v93.6H508.4V612.6z M508.4,732.2h105.3v93.6H508.4V732.2z M372.2,493.1
			h105.3v93.7H372.2V493.1z M372.2,612.6h105.3v93.6H372.2V612.6z M372.2,732.2h105.3v93.6H372.2V732.2z M236.1,612.6h105.3v93.6
			H236.1V612.6z M236.1,732.2h105.3v93.6H236.1V732.2z"/>
		<rect x="193.3" y="419" class="st2" width="735.4" height="27"/>
		<path class="st2" d="M268.9,289.2h-24.3h-5.7c-12,0-23.8,4.9-32.3,13.4c-8.5,8.5-13.4,20.2-13.4,32.2v53h735.4v-53
			c0-12-4.9-23.7-13.4-32.2c-8.5-8.5-20.2-13.4-32.2-13.4h-77.4v59.7c0,11.1-9,20.2-20.2,20.2H743c-11.1,0-20.2-9-20.2-20.2v-59.7
			H399.2v59.7c0,11.1-9,20.2-20.2,20.2h-42.5c-11.2,0-20.2-9-20.2-20.2v-59.7H268.9z"/>
		<rect x="193.3" y="387.8" class="st3" width="735.4" height="31.2"/>
		<polygon class="st1" points="336.5,348.9 379,348.9 379,289.2 379,236.7 336.5,236.7 336.5,289.2 		"/>
		<polygon class="st1" points="743,348.9 785.5,348.9 785.5,289.2 785.5,236.7 743,236.7 743,289.2 		"/>
		<rect x="371.9" y="492.7" class="st3" width="105.3" height="93.7"/>
		<rect x="508.4" y="493.1" class="st3" width="105.3" height="93.7"/>
		<rect x="644.5" y="493.1" class="st3" width="105.3" height="93.7"/>
		<rect x="780.6" y="493.1" class="st3" width="105.3" height="93.7"/>
		<rect x="236.1" y="612.6" class="st3" width="105.3" height="93.6"/>
		<rect x="372.2" y="612.6" class="st3" width="105.3" height="93.6"/>
		<rect x="508.4" y="612.6" class="st3" width="105.3" height="93.6"/>
		<rect x="644.5" y="612.6" class="st2" width="105.3" height="93.6"/>
		<rect x="780.6" y="612.6" class="st3" width="105.3" height="93.6"/>
		<rect x="236.1" y="732.2" class="st3" width="105.3" height="93.6"/>
		<rect x="372.2" y="732.2" class="st2" width="105.3" height="93.6"/>
		<rect x="508.4" y="732.2" class="st3" width="105.3" height="93.6"/>
		<rect x="644.5" y="732.2" class="st3" width="105.3" height="93.6"/>
		<rect x="371" y="493" class="st4" width="109" height="92"/>
		<text transform="matrix(1 0 0 1 398.6445 548.84)"><tspan x="0" y="0" class="st0 st5 st6">LU</tspan><tspan x="26.9" y="14.4" class="st5 st7">   </tspan></text>
		<rect x="371" y="613.6" class="st4" width="109" height="92"/>
		<text transform="matrix(1 0 0 1 398.9799 669.4399)"><tspan x="0" y="0" class="st0 st5 st6">SA</tspan><tspan x="26.5" y="14.4" class="st5 st7">   </tspan></text>
		<rect x="234" y="613.6" class="st4" width="109" height="92"/>
		<text transform="matrix(1 0 0 1 263.3002 669.4399)"><tspan x="0" y="0" class="st0 st5 st6">VE</tspan><tspan x="25.2" y="14.4" class="st5 st7">   </tspan></text>
		<rect x="234" y="734" class="st4" width="109" height="92"/>
		<text transform="matrix(1 0 0 1 257.3964 789.84)"><tspan x="0" y="0" class="st0 st5 st6">ME</tspan><tspan x="31.1" y="14.4" class="st5 st7">   </tspan></text>
		<rect x="371" y="734" class="st4" width="109" height="92"/>
		<text transform="matrix(1 0 0 1 404.8124 789.84)"><tspan x="0" y="0" class="st0 st5 st6">JE</tspan><tspan x="20.7" y="14.4" class="st5 st7">   </tspan></text>
		<rect x="507.7" y="734" class="st4" width="109" height="92"/>
		<text transform="matrix(1 0 0 1 536.9669 789.84)"><tspan x="0" y="0" class="st0 st5 st6">VE</tspan><tspan x="25.2" y="14.4" class="st5 st7">   </tspan></text>
		<rect x="643" y="734" class="st4" width="109" height="92"/>
		<text transform="matrix(1 0 0 1 670.9799 789.84)"><tspan x="0" y="0" class="st0 st5 st6">SA</tspan><tspan x="26.5" y="14.4" class="st5 st7">   </tspan></text>
		<rect x="507.7" y="493" class="st4" width="109" height="92"/>
		<text transform="matrix(1 0 0 1 528.1832 556.0402)"><tspan x="0" y="0" class="st0 st5 st6">MA</tspan><tspan x="68" y="0" class="st5 st7">   </tspan></text>
		<rect x="507.7" y="613.6" class="st4" width="109" height="92"/>
		<text transform="matrix(1 0 0 1 540.4469 669.4399)"><tspan x="0" y="0" class="st0 st5 st6">DI</tspan><tspan x="21.7" y="14.4" class="st5 st7">   </tspan></text>
		<rect x="643" y="493" class="st4" width="109" height="92"/>
		<text transform="matrix(1 0 0 1 666.3964 548.84)"><tspan x="0" y="0" class="st0 st5 st6">ME</tspan><tspan x="31.1" y="14.4" class="st5 st7">   </tspan></text>
		<rect x="643" y="613.6" class="st4" width="109" height="92"/>
		<text transform="matrix(1 0 0 1 670.6445 669.4399)"><tspan x="0" y="0" class="st0 st5 st6">LU</tspan><tspan x="26.9" y="14.4" class="st5 st7">   </tspan></text>
		<rect x="776" y="493" class="st4" width="109" height="92"/>
		<text transform="matrix(1 0 0 1 809.8124 548.84)"><tspan x="0" y="0" class="st0 st5 st6">JE</tspan><tspan x="20.7" y="14.4" class="st5 st7">   </tspan></text>
		<rect x="776" y="613.6" class="st4" width="109" height="92"/>
		<text transform="matrix(1 0 0 1 796.5165 669.4399)"><tspan x="0" y="0" class="st0 st5 st6">MA</tspan><tspan x="34" y="14.4" class="st5 st7">   </tspan></text>
		<g>
			<g>
				<path class="st8" d="M702.7,479.2c-0.2,0.3-0.1,0.9,0.4,0.8l0.5-1L702.7,479.2z"/>
				<path class="st8" d="M706.3,481.5c0.3-0.2,0.7-0.5,1-0.9c0.3-0.4,0.4-0.8,0.3-1.3c-0.4,0.5-0.6,0.6-0.8,0.7
					c-0.2,0.1-0.5,0.3-0.9,0.9c-0.6,0.1-0.9-0.4-0.8-0.8c-0.1,0.1-0.3,0-0.5,0c-0.2,0-0.5,0-0.6,0.3c0.7,0.8,1.5,1,2.6,0.4
					C706.6,481,706.4,481.3,706.3,481.5z"/>
				<path class="st8" d="M749.1,509.2l-0.1-0.3C749.1,509,749.1,509.1,749.1,509.2z"/>
				<path class="st8" d="M757.9,539.5c0-0.2-0.1-0.3-0.2-0.3C757.7,539.4,757.8,539.6,757.9,539.5z"/>
				<path class="st8" d="M756.6,544.9c0-0.1,0.1-0.2,0.1-0.3C756.6,544.7,756.6,544.8,756.6,544.9z"/>
				<path class="st8" d="M749.1,509.2c0,0,0,0.2,0.1,0.4c0,0.2,0.1,0.5,0.1,0.5C749.7,510,749.3,509.6,749.1,509.2z"/>
				<path class="st8" d="M714.2,480.2c-0.2,0-0.4,0.1-0.5,0.2c0.2,0,0.3,0,0.5,0C714.1,480.3,714.1,480.3,714.2,480.2z"/>
				<path class="st8" d="M739.4,499.1l-0.2-0.2c-0.1,0-0.3,0.1-0.4,0.2c0,0,0.2,0,0.3,0C739.2,499.1,739.4,499.1,739.4,499.1z"/>
				<path class="st8" d="M730.7,492.8c0.2,0.2,0.7-0.6,1-0.8c-0.3,0.2-0.6,0.3-0.8,0.2C730.9,492.3,730.8,492.5,730.7,492.8z"/>
				<path class="st8" d="M715.7,484.4c0,0-0.1,0-0.2,0c-0.1,0-0.2,0-0.2,0C715.5,484.4,715.6,484.4,715.7,484.4z"/>
				<path class="st8" d="M744.5,504.8c-0.1,0.1-0.2,0.2-0.2,0.3C744.4,505,744.5,504.9,744.5,504.8z"/>
				<path class="st8" d="M697.2,485.4c0,0.1,0,0.1,0,0.2C697.3,485.5,697.3,485.4,697.2,485.4z"/>
				<path class="st8" d="M710.5,489.2l-0.2,0.1c0,0.2,0,0.3,0,0.5L710.5,489.2z"/>
				<path class="st8" d="M754.1,554.3C754.1,554.2,754.1,554.2,754.1,554.3C754.1,554,754,554.1,754.1,554.3z"/>
				<path class="st8" d="M683.6,584.7c0.4,0.5-0.1,0.7-0.5,0.8c-0.4,0.2-0.8,0.4-0.1,1c0-0.2,0.4-0.4,0.7-0.7
					C684,585.5,684.1,585.1,683.6,584.7z"/>
				<path class="st8" d="M714.4,480.4c0.2,0,0.3,0.1,0.5,0.1C714.7,480.4,714.6,480.4,714.4,480.4z"/>
				<path class="st8" d="M683,586.5L683,586.5l0.1,0.1C683,586.6,683,586.6,683,586.5z"/>
				<path class="st8" d="M745.3,574.3c0.2,0.1,0.3,0.1,0.4,0.1C745.7,574.3,745.6,574.3,745.3,574.3z"/>
				<path class="st8" d="M754.2,560.2l-0.3,0.4C754.1,560.5,754.2,560.3,754.2,560.2z"/>
				<path class="st8" d="M740.4,581.3c-0.2,0.1-0.4,0-0.5,0.3c0.1,0,0.1,0,0.1,0C740.1,581.5,740.1,581.3,740.4,581.3z"/>
				<path class="st8" d="M733,585.9c0.1,0,0.1,0.1,0.2,0.1c0.1-0.1,0.2-0.1,0.2-0.2L733,585.9z"/>
				<path class="st8" d="M667.8,491.4c0.3,0.2,0.5,0.4,0.7,0.6C668.2,491.4,669.5,490.7,667.8,491.4z"/>
				<path class="st8" d="M714.1,480.7c0.1-0.2,0.2-0.3,0.4-0.3c-0.1,0-0.2,0-0.3,0C714,480.5,714,480.6,714.1,480.7z"/>
				<path class="st8" d="M744.7,587c0,0-0.4,0.2-0.7,0.5c-0.2,0.1-0.4,0.2-0.5,0.3c-0.1,0.1-0.2,0.1-0.2,0.1
					C743.7,587.8,744.2,587.4,744.7,587z"/>
				<path class="st8" d="M633.3,548.5l-0.2-0.3C633.1,548.3,633.2,548.4,633.3,548.5z"/>
				<path class="st8" d="M739,590.9c-0.4-0.1-0.8-0.1-1.1-0.1c0,0.1-0.1,0.2-0.1,0.3L739,590.9z"/>
				<path class="st8" d="M668.5,492C668.5,492,668.5,492,668.5,492C668.5,492,668.5,492,668.5,492z"/>
				<path class="st8" d="M678.1,487.1c-1.5,0.3-0.4,1.3-0.6,2c-1.7,0.7-1-0.7-1.7-1.1c-0.1,0.1-0.3,0.2-0.4,0.2
					c-0.1,0.1-0.2,0.2-0.3,0.3c-0.2,0.2-0.4,0.4-0.6,0.6c-0.4,0.4-0.7,0.8-1.1,0.9c-0.1-0.2-0.3-0.2-0.2-0.5
					c-0.2,0.3-0.5,0.5-0.9,0.7c-0.4,0.2-0.8,0.3-1.2,0.5c-0.2,0.1-0.4,0.2-0.6,0.2c-0.2,0.1-0.4,0.2-0.6,0.3
					c-0.4,0.2-0.7,0.5-0.9,0.9c-0.1-0.1-0.2-0.1-0.3-0.2c0.4,0.5,0.6,1.1,0.7,1.5c-0.3,0.1-0.5,0.4-0.8,0.6
					c-0.2,0.2-0.4,0.2-0.7-0.1c0.4-0.1,0.3-0.4,0.4-0.7c0,0-0.1,0.1-0.3,0.3c-0.1,0.1-0.3,0.3-0.3,0.3c-1-0.8,0.8-0.7,0.5-1.5
					c-0.3,0.2-0.6,0.4-0.9,0.7c-0.3,0.2-0.6,0.5-0.9,0.7c-0.3,0.2-0.6,0.4-0.8,0.6c-0.3,0.2-0.5,0.3-0.8,0.3c-0.3-0.5,0.2-0.8,0.6-1
					c0.4-0.2,0.7-0.4-0.2-0.6c0,0,0.4-0.1,0.8-0.1c0.4-0.1,0.8-0.1,0.8-0.1c-1.8-1.2,1-0.2-0.7-1.6c-1.1,0.2-1.6,0.6-2.1,1
					c-0.5,0.4-1,0.7-2.1,1c-0.2,0.8,0.5,0.7,0.3,1.5c-0.6,0.6-1.1,0.8-1.5,0.8c-0.2,0-0.4,0-0.6-0.1c-0.2-0.1-0.4-0.1-0.6-0.2
					c-0.7-0.3-1.4-0.7-2.1,0.5c-0.1,0.5,0,1-0.1,1.5c-0.1,0.5-0.4,0.8-1.3,0.9c0,0,0-0.3-0.1-0.7c0-0.3-0.1-0.7-0.1-0.7
					c-0.9,0.5-1,1-1.1,1.5c0,0.2-0.1,0.4-0.3,0.6c-0.1,0.1-0.2,0.2-0.4,0.3c-0.2,0.1-0.4,0.2-0.7,0.2c0-0.3,0.3-0.6,0.6-0.9
					c0.2-0.2,0.4-0.4,0.3-0.3c-0.9,0-1,0.3-1,0.6c0,0.4,0.1,0.8-0.4,1.1l-0.8-0.8c-0.4,0.4-0.9,0.8-1.3,1.2
					c-0.2,0.2-0.4,0.4-0.6,0.7c-0.2,0.2-0.4,0.5-0.6,0.7c-0.2,0.2-0.4,0.5-0.6,0.7c-0.2,0.2-0.4,0.5-0.6,0.7
					c-0.4,0.5-0.8,0.9-1.2,1.4c-0.1-0.3,0-0.9-0.7-0.7c-1,1.3-2.2,2.4-3.5,3.6c-1.3,1.1-2.6,2.2-3.8,3.3c0,0,0,0.4,0,0.8
					c0,0.2,0,0.4,0,0.5c0,0.1,0,0.2,0,0.2c-0.2,0.2-0.6,0.2-0.6-0.2c-1,0.8,0.5,0.4,0.4,1.1c-0.3,0.6-0.9,0.5-0.9-0.1
					c-0.3,1.1-0.7,2.7-1.2,4.1c-0.5,1.4-1.2,2.8-2.1,3.7c0,0,0-0.1-0.1-0.3c0-0.1,0-0.3,0-0.3c-0.3,0.4-0.3,0.7-0.3,1.1
					c0,0.3,0.2,0.6,0.3,0.9c0.1,0.1,0.1,0.3,0.2,0.4c0,0.1,0.1,0.3,0.1,0.4c0,0.3-0.1,0.6-0.4,0.9l-0.1-0.3
					c-0.4,0.9-0.6,1.8-0.9,2.7c-0.2,0.9-0.4,1.9-0.5,2.8c0,0.2-0.1,0.5-0.1,0.7c0,0.1,0,0.2-0.1,0.3c0,0.1,0,0.2-0.1,0.3
					c-0.1,0.4-0.2,0.9-0.3,1.3c-0.1,0.2-0.1,0.4-0.2,0.6c-0.1,0.2-0.1,0.4-0.2,0.6c-0.1,0.4-0.3,0.8-0.5,1.1
					c0.3,0.2,0.5,0.5,0.5,0.8c0,0.2,0,0.4,0,0.6c0,0.1,0,0.2,0,0.3c0,0.1,0,0.2,0,0.3c-0.1,0.9-0.1,1.8,0.9,1.8
					c-0.2,0.5-0.4,0.9-0.5,1.2c-0.2,0.3-0.3,0.5-0.4,0.8c-0.1,0.3-0.2,0.5-0.3,1c0,0.2-0.1,0.5-0.1,0.7c0,0.3-0.1,0.6-0.1,1
					c0,0.4,0.4,0.7,0.7,0.9c0.4,0.3,0.8,0.5,1,1l-1,0.2c0,0,0.3,0.3,0.6,0.6c0.2,0.1,0.3,0.3,0.4,0.4c0.1,0.1,0.2,0.2,0.2,0.2
					s-0.2,0.2-0.5,0.5c-0.2,0.2-0.5,0.5-0.5,0.5s0.1,0.2,0.2,0.4c0.1,0.2,0.2,0.4,0.2,0.4c0-0.4,0.2-0.9,0.5-0.9
					c0.1,0.2,0.2,0.3,0.2,0.5c0.1,0.2,0.1,0.4,0.1,0.6c0.1,0.4,0.1,0.8,0,1.2c-0.1,0.8-0.3,1.4-0.5,1.5c0,0,0.1,0.2,0.3,0.5
					c0.2,0.3,0.4,0.7,0.7,1c0.2,0.4,0.5,0.7,0.7,1c0.2,0.3,0.3,0.5,0.3,0.5c-0.4,0.1-0.7-0.4-1.1-0.8c0.2,0.2,0.3,0.3,0.4,0.4
					c0.1,0.1,0.1,0.2,0.1,0.3c0,0.1-0.1,0.2-0.2,0.3c-0.2,0.2-0.5,0.3,0.3,0.9c0.1-0.3,0.6-0.1,0.8-0.2c-0.1,0.3-0.1,0.6,0,0.9
					c0.1,0.3,0.2,0.7,0.3,1c0.1,0.4,0.3,0.7,0.5,1.1c0.2,0.3,0.4,0.7,0.6,1l-0.7,0.1c0.1,0.3,0.3,0.6,0.4,0.9
					c0.2,0.3,0.3,0.6,0.5,0.9c0.2,0.3,0.4,0.6,0.5,0.9c0.2,0.3,0.4,0.6,0.6,0.9c0.2,0.3,0.4,0.6,0.6,0.9c0.2,0.3,0.4,0.6,0.6,0.9
					c0.4,0.6,0.9,1.2,1.3,1.8c-0.3-1,0.8-1.5,1.4-0.9l-0.7,0.9c0.8,0.1-0.2-0.9,1.1-0.5c0.5,0.9-0.5,1.3-1.2,1l1.1,0.8
					c-0.2,0.2-0.5,0.1-0.9,0.3c0.4,0,0.6,0.6,0.8,1.2c0.1,0.3,0.2,0.6,0.4,0.8c0.2,0.2,0.4,0.3,0.8,0.3l-0.2,0.3
					c0.9,1.1,1.7,1.9,2.5,2.5c0.4,0.3,0.7,0.6,1.1,1c0.1,0.1,0.2,0.2,0.3,0.3c0.1,0.1,0.2,0.2,0.3,0.3c0.2,0.2,0.4,0.4,0.6,0.6
					c0.3-0.3,0.6-0.3,1-0.2c0.3,0.1,0.7,0.3,1.2,0.2c0.3,0.3,0.5,0.7,0.8,1.1c0.3,0.4,0.6,0.8,0.9,1.1c0.1,0.1,0.2,0.2,0.2,0.3
					c0.1,0.1,0.2,0.2,0.2,0.3c0.2,0.2,0.3,0.4,0.5,0.5c0.2,0.2,0.4,0.3,0.6,0.5c0.2,0.2,0.4,0.3,0.6,0.5c1.4,0.5,0.8-0.4,1.6-0.4
					c-0.4,0.7,1.3,1.8,0.1,1.7c1,0.7,1.7,1,2.5,1.4c0.4,0.2,0.8,0.4,1.3,0.6c0.3,0.1,0.5,0.2,0.8,0.3c0.3,0.1,0.6,0.2,1,0.3
					c-0.1-0.5-0.4-0.8-0.1-0.9c0.5,0.2,0.9,0.9,0.7,1.2l-0.2,0c0.5,0.1,0.9,0.2,1.3,0.4c0.2,0.1,0.4,0.2,0.6,0.3
					c0.2,0.1,0.4,0.2,0.6,0.4c0.4,0.3,0.8,0.6,1.2,0.9c0.4,0.3,0.8,0.6,1.1,1c1.5,1.3,3,2.5,4.7,2.1l-0.2,0c0,0,0.2,0,0.5,0
					c0.3,0,0.7,0,1,0.1c0.7,0,1.5,0.1,1.5,0.1c0.6,0.3,0.4,0.4,0.1,0.5c-0.3,0.1-0.6,0.2-0.3,0.7c0.8-0.1,1.5,0,2.2,0.1
					c0.6,0.1,1.2,0.3,1.7,0.6c0.5,0.2,1,0.4,1.6,0.6c0.5,0.2,1.1,0.2,1.8,0.2c0.3,0.7,0.9,1.2,1.6,1.5c0.4,0.2,0.8,0.3,1.2,0.4
					c0.4,0.1,0.9,0.2,1.3,0.2c0.5,0.1,0.9,0.1,1.4,0.2c0.5,0.1,0.9,0.1,1.3,0.2c0.9,0.2,1.6,0.4,2.2,0.9l-0.1-0.6
					c0.8-0.4,0.8,0.5,1.2,0.7c0-0.4-0.6-0.6-0.2-0.9c2.9,0.1,5.8,0.7,8.7,1.3c2.9,0.6,5.9,1.3,8.8,1.6c1.1,0.1,1.4-0.6,1.8-1.2
					c0.4-0.6,0.8-1,2.2-0.3l-0.8,1.1c2.2-0.6,4.4-0.7,6.7-0.8c0.6,0,1.1-0.1,1.7-0.1c0.6-0.1,1.1-0.1,1.7-0.2
					c0.6-0.1,1.1-0.2,1.7-0.4c0.5-0.2,1.1-0.3,1.6-0.6c-0.2,0.3-0.2,0.6-0.6,0.7c0.3,0.2,0.6,0.2,1,0.2c0.4,0,0.8-0.2,1.1-0.3
					c0.2-0.1,0.3-0.2,0.5-0.3c0.2-0.1,0.3-0.2,0.4-0.3c0.2-0.2,0.3-0.4,0.3-0.5c0.7-0.1,0.3,0.5,0.8,0.7c0.3,0.1,0.5,0,0.8-0.2
					c0.3-0.1,0.5-0.3,0.7-0.5c0.5-0.3,0.9-0.7,1.2-0.4c0.1,0.1-0.2,0.3-0.3,0.4c0.1-0.1,0.4-0.3,0.6-0.4c0.3-0.1,0.6-0.2,0.9-0.3
					c0.5-0.2,0.9-0.5,0.5-0.8c0.9-0.1,1.6-0.5,2.3-0.9c0.2-0.1,0.3-0.2,0.5-0.3c0.2-0.1,0.3-0.2,0.5-0.3c0.3-0.2,0.7-0.3,1-0.3
					c0.1-0.3,0.3-0.6,0.6-0.7c0.3-0.2,0.6-0.3,0.9-0.4c0.6-0.3,1.1-0.6,0.8-1.2c0.3,0.6,1.1,0.5,1.9,0c0.4-0.3,0.7-0.6,1-0.9
					c0.3-0.3,0.5-0.7,0.6-1c0,0.6,1-0.2,1.1,0.5c0.5-0.4,0.9-0.9,1.1-1.3c0.2-0.4,0.2-0.7-0.1-0.9c0.4,0,0.7-0.1,0.9-0.3
					c0.3-0.1,0.5-0.3,0.7-0.5c0.2-0.2,0.3-0.4,0.5-0.7c0.1-0.2,0.3-0.5,0.4-0.7c0.2-0.5,0.5-0.9,0.8-1.2c0.3-0.3,0.7-0.4,1.3-0.3
					c0.9-1.6,1.6-3.2,2.4-4.7c0.7-1.5,1.4-3,2-4.4c0.6,0.4,0.2,1.2-0.2,1.9c-0.4,0.7-0.8,1.5-0.1,1.8c0.6-1.4,0.8-2.7,1.1-3.9
					c0.1-0.6,0.3-1.2,0.5-1.8c0.2-0.6,0.5-1.2,0.9-1.8c0.5-0.6,0.4,0.7,0.5,1c0.1-0.4,0.2-0.7,0.3-1.1c0.1-0.4,0.3-0.7,0.4-1
					c0.3-0.7,0.5-1.3,0.8-2c0.3-0.7,0.5-1.3,0.7-2c0.2-0.7,0.3-1.3,0.3-2c0.1,0,0.2,0.4,0.2,0.7c0.1-0.5,0.6-1.1-0.1-1.2l0,0.5
					c-0.3,0.1-0.5,0-0.7-0.2c-0.2-0.2-0.3-0.6-0.4-0.9c-0.2-0.7-0.4-1.5-0.6-1.6c0.8,0.7,1.1,0.1,1.4-0.4c0.3-0.5,0.7-1,1.7,0
					c0-0.4-0.2-0.9-0.7-0.9c0.2-0.5,0.5-0.6,0.9,0.1c0-1-0.1-1.3-0.3-1.6c-0.1-0.3-0.3-0.6-0.1-1.4c0.3,0.1,0.4,0.4,0.7,0.7
					c-0.2-0.5-0.4-1-0.5-1.5c-0.1-0.5-0.1-1.1,0.2-1.8c0.2,0.1,0.4,0,0.4,0.4c0.1-0.6,0-1.2,0-1.7c0-0.3-0.1-0.6-0.1-0.8
					c0-0.3-0.1-0.5-0.2-0.8c-0.1-0.3-0.1-0.5-0.1-0.8c0-0.3-0.1-0.6-0.1-0.8c0-0.6,0.1-1.2,0.2-1.8c1.3,0.9,0.5-0.9,1.7-1
					c0,0-0.1-0.4-0.1-0.7c-0.1-0.4-0.2-0.7-0.2-0.7l-0.6,0.6c0-0.6-0.2-1.2-0.3-1.8c-0.2-0.6-0.3-1.1-0.1-1.6l0.5,0.9
					c0,0-0.1-0.6-0.1-1.2c0-0.3-0.1-0.6-0.1-0.8c0-0.2-0.1-0.4-0.1-0.4s-0.1,0.3-0.2,0.7c0,0.2-0.1,0.3-0.1,0.5
					c0,0.1-0.1,0.2-0.1,0.2c-0.2-0.3-0.3-0.5-0.5-0.5c-0.2-0.1-0.3-0.1-0.5-0.1c-0.3,0-0.4-0.1-0.3-0.9c0.1,0.2,0.1-0.1,0.1-0.6
					c0.1-0.4,0.2-1,0.5-1.3c0,0,0,0,0,0c-0.2-0.3-0.4-0.6-0.6-0.9c-0.1-0.3-0.2-0.7-0.1-1.2c0.4-0.3,1.3,0,1.6-0.1
					c-0.3-0.1-0.4-0.4-0.6-0.7c-0.1-0.3-0.2-0.7-0.3-1c-0.1-0.4-0.2-0.7-0.3-1c-0.2-0.3-0.4-0.6-0.6-0.7c0.3,0.2,0.9,0.1,1,0
					l-0.9-0.4c0.2-0.6,0.3-0.7,0.8-0.7c-0.1-0.9-0.4-0.7-0.7-0.5c-0.3,0.2-0.5,0.3-0.4-0.8c0.1,0.1,0.2,0,0.4,0.3c0-1-0.4-2-0.7-2.9
					c-0.4-0.9-0.7-1.8-0.8-2.7c0.5-0.4,0.7-0.1,0.9,0.3c0.2,0.4,0.3,0.8,0.7,0.3c-0.2-0.7-0.6-1.3-0.9-1.9c-0.4-0.6-0.7-1.3-1.1-1.9
					c-0.4-0.6-0.7-1.2-1.1-1.8c-0.2-0.3-0.3-0.6-0.5-0.9c-0.1-0.3-0.2-0.6-0.4-0.9c0,0,0,0.1,0,0.3c0,0.1,0,0.3,0,0.3
					c-0.8,0.2-0.9-0.4-0.8-1c0-0.3,0.1-0.7,0-1.1c-0.1-0.4-0.2-0.7-0.5-0.9c0.3,0.2,1,0,0.8,0c-0.6-1.8-2.1-3.2-4-5.2l0.5,0.1
					c-0.1-0.3-0.2-0.6-0.3-0.9c-0.1-0.3-0.3-0.6-0.5-0.9c-0.2-0.3-0.4-0.6-0.6-0.9c-0.2-0.3-0.4-0.6-0.5-0.8c-0.6,0-0.9-0.6-1.2,0.1
					c0-0.1,0-0.3,0-0.4c0-0.1,0-0.2-0.1-0.4c0-0.2-0.1-0.5-0.2-0.7c-0.1-0.2-0.2-0.4-0.3-0.6c-0.1-0.1-0.1-0.2-0.2-0.3
					c-0.1-0.1-0.1-0.2-0.2-0.3c-0.5-0.7-1.2-1.2-1.9-1.7c-0.3-0.2-0.7-0.5-1-0.7c-0.3-0.2-0.7-0.5-0.9-0.8c-0.1-0.1-0.3-0.3-0.4-0.4
					c-0.1-0.2-0.2-0.3-0.3-0.5c-0.2-0.3-0.4-0.7-0.5-1.2c0.3,0.3,0.9,0.4,0.7,0.1c0,0-0.1-0.1-0.3-0.3c-0.1-0.1-0.2-0.2-0.4-0.3
					c-0.1-0.1-0.3-0.2-0.4-0.3c-0.6-0.4-1.1-0.8-1.1-0.8c-0.3,0.7,0,0.6,0,1.4c-0.5,0.1-1.3-0.2-1.8-0.6c1.2,0.4,0.8-0.9,0.7-1.6
					c-0.1,0.2-0.4,0.3-0.5,0.5c0-0.5-0.1-0.7-0.3-0.7c-0.1,0-0.3,0.1-0.5,0.2c-0.4,0.2-0.8,0.5-1.3-0.4l0.3-0.2
					c-0.2-0.1-0.3-0.1-0.5-0.2c-0.2,0-0.4-0.1-0.5-0.1c-0.4-0.1-0.7-0.2-1-0.5c0.3-0.9,0.8,0.1,1.3-0.4c-0.2-0.2-0.5-0.2-0.8-0.3
					c-0.1,0-0.3,0-0.4-0.1c-0.2,0-0.3,0-0.5,0c-0.6-0.1-1.1-0.2-1.2-0.8c0.5,0.1,1,0.4,1.5,0.5c-0.1-0.7-0.3-1-0.4-1.3
					c-0.2-0.2-0.4-0.3-0.6-0.6l0.1,0.1c0,0-0.3-0.4-0.6-0.7c-0.2-0.2-0.3-0.4-0.4-0.5c-0.1-0.1-0.2-0.2-0.2-0.2s0.1,0.1,0.1,0.2
					c0.1,0.1,0.1,0.2,0.1,0.2c-0.6,0.3-1,0.3-1.4,0.3c-0.4,0-0.7-0.2-1-0.4c-0.3-0.2-0.6-0.4-1-0.6c-0.2-0.1-0.4-0.1-0.6-0.2
					c-0.2,0-0.5,0-0.8,0c0.6-0.1,0.9-0.2,1-0.2c0.2-0.1,0.2-0.2,0.2-0.3c0-0.2-0.3-0.4,0-0.8c-0.3-0.5-0.8-1.1-0.4-1.2
					c-0.6,0.1-0.8-0.2-1.1-0.5c-0.3-0.3-0.7-0.6-1.5-0.3c0-0.2-0.2-0.3-0.3-0.4c-0.2-0.1-0.3-0.3,0-0.6c-1.1-0.3,0,0.6-0.3,0.9
					c-1,0.1-1.8-0.6-2.7-1.3c-0.2-0.2-0.5-0.4-0.7-0.5c-0.3-0.2-0.5-0.3-0.8-0.4c-0.3-0.1-0.6-0.2-0.9-0.2c-0.3,0-0.7,0-1,0
					c-0.6,0-1,0-1.4,0c-0.4,0.1-0.8,0.2-1.1,0.3c-0.4,0.1-0.7,0.2-1.1,0.3c-0.4,0.1-0.8,0.1-1.3,0.1c-0.2-0.3,0-0.6,0.2-0.7
					c0.3-0.2,0.6-0.2,0.6-0.2c-0.9-0.8-1.7-0.9-2.8-0.8c0.3-0.2,0.1-0.5-0.1-0.9c-0.8-0.1-0.8,1-1.7,0.3c0.3-0.3,0.6-0.8,1.1-1
					c-1,0.1-2.1,0.5-3.1,0.5c-0.2-0.6,0.7-0.7,1.2-1c-0.3,0-0.6,0-1,0c-0.3,0-0.7,0-1,0.1c-0.7,0.1-1.2,0.3-1.5,0.7
					c0,0,0.2,0.1,0.3,0.2c0.2,0.1,0.3,0.2,0.3,0.2c-0.4,0-0.1-0.8,0.2-0.9c1.1-0.5,1.3,0.5,1.3,0.8l-0.7,0.1
					c0.1,0.5,0.3,0.7,0.6,0.8c0.3,0.1,0.7,0.1,1.1,0c0.8-0.1,1.8-0.4,2.5-0.2c0,0-0.2,0.3-0.4,0.6c-0.2,0.3-0.4,0.6-0.4,0.6
					s0.4-0.2,0.8-0.4c0.2-0.1,0.4-0.2,0.6-0.3c0.2-0.1,0.3-0.1,0.3-0.1c0.2,0.4,0.2,1.2-0.5,1.2c0.4,0.4,0.6,0.4,0.9,0.3
					c0.2-0.1,0.4-0.1,0.7,0.4c0.1,0.1,0,0.2-0.1,0.2l1-0.1c-0.3,0.2-0.1,0.9-0.6,0.6c0.4,0.3,0.7,0.4,1.1,0.5c0.3,0.1,0.7,0.1,1,0
					c0.6,0,1.1-0.1,1.2,0.5l-0.2,0c1.2,0.2,1.3,0,1.4-0.3c0.1-0.2,0.1-0.3,0.2-0.5c0.2-0.2,0.4-0.3,1-0.4c0,0,0.1,0.7,0.1,1.4
					c0.1,0.7,0.1,1.3,0.1,1.3l0.6-0.8c0.2,0.1,0.6,0.4,0.4,0.7c1.1-0.2,0-0.5,0.8-0.8c0.2,0.3,0.5,0.5,0.8,0.7
					c0.3,0.2,0.7,0.3,1,0.5c0.7,0.3,1.2,0.6,0.9,1.4c0.7-0.5-0.8-1,0.6-0.9c-0.2,0.8,0.1,0.9,0.6,1c0.5,0.1,1.1,0.1,1.4,0.7
					c-0.7,0.6-1.4-0.3-0.8,0.9c0.3-0.2,0.6-0.3,0.8-0.2c0.2,0.1,0.4,0.3,0.6,0.5c0.4,0.5,0.7,1.1,1.1,1.2c0.3-0.5,0.8-0.3,1.4,0
					c0.3,0.2,0.6,0.4,0.9,0.6c0.3,0.2,0.7,0.4,1.1,0.6c-0.2,0.1,0.3,0.7,1,1.3c0.6,0.7,1.4,1.5,1.8,2.1l-0.2,0.1
					c0.5-0.4,1-0.3,1.5,0c0.5,0.3,1,0.7,1.4,0.9c-0.5,0.5-0.8,0.6-1.5,0.4l0.7,0.6c0.4-0.1,0.8-0.1,1.3,0.3l-0.8,0.5
					c0.2,0.2,0.5,0.4,0.8,0.6c0.3,0.2,0.6,0.3,0.9,0.5c0.6,0.4,1.2,0.9,1.6,1.7c0.3-0.2,0.5-0.9,0.8-1.3c0.3-0.5,0.7-0.7,1.6-0.2
					c-0.3,0.4-0.8,0.9-1.3,0.7c0.2,0.1,0.6,0.2,0.7,0.5l-1,0c0.3,0.8,0.7-0.1,1.1,0.4c-0.5,0.4,0,0.6-0.5,0.9
					c-0.2-0.1-0.2-0.6-0.5-0.6c0.2,0.3,0.4,0.7,0.4,1c0.1,0.4,0.1,0.7,0,1c0.2-0.3,0.7-0.5,1-0.2c0.4,0.5,0.4,0.7,0.2,0.9
					c-0.2,0.2-0.4,0.3-0.3,0.7c0.5,0,0.7,0.9,1.5,0.4c0.2,0.3-0.1,0.6-0.2,0.9c0.2,0.1,0.4,0.3,0.6,0.5c0.2,0.2,0.5,0.5,0.7,0.7
					c0.4,0.4,0.8,0.7,1,0.1l0-0.2c0,0,0.1,0,0.1,0.1c0,0,0,0,0,0l0,0c0.3,0.2,0.5,0.4,0.7,0.6c0.2,0.2,0.4,0.5,0.5,0.7
					c0.2,0.2,0.3,0.5,0.4,0.8c0.1,0.3,0.2,0.5,0.3,0.8c0.2,0.6,0.4,1.1,0.6,1.7c0.1,0.3,0.2,0.5,0.4,0.8c0.1,0.1,0.1,0.2,0.2,0.4
					c0.1,0.1,0.2,0.2,0.2,0.4l-0.3,0.1c0.5,0.5,0.8,1.2,1.2,1.8c0.2,0.3,0.4,0.6,0.6,0.8c0.2,0.2,0.4,0.5,0.7,0.6
					c0.2,0.4-0.2,1.1-0.6,1.1c0.3,0.4,0.5,0.6,0.7,0.9c0.1,0.2,0.2,0.3,0.2,0.6c0,0.2,0.1,0.5,0.1,0.9c-0.2-0.2-0.3-0.3-0.4-0.3
					c-0.1,0-0.1,0-0.1,0.1c0,0.1,0,0-0.2-0.6c0,0.3,0.1,0.6,0.1,0.9c0,0.2,0,0.5,0.1,0.7c0,0.2,0.1,0.4,0.3,0.6
					c0.1,0.2,0.4,0.4,0.7,0.7c-0.5-0.1-0.6,0.2-0.6,0.6c0,0.4,0.2,0.9,0.3,1.2c0,0,0.1-0.3,0.2-0.5c0.1-0.3,0.1-0.5,0.1-0.5
					c0.3,0.6,0.4,1.3,0.5,1.9l-1.1-0.1c-0.1,0.4-0.1,0.7,0,1c0,0.3,0.1,0.6,0.3,0.9c0.1,0.3,0.3,0.5,0.4,0.8
					c0.2,0.3,0.3,0.5,0.5,0.8c0.2,0.3,0.3,0.5,0.4,0.8c0.1,0.3,0.2,0.5,0.3,0.8c0,0.3,0,0.5,0,0.8c0,0.1-0.1,0.3-0.2,0.4
					c-0.1,0.1-0.2,0.3-0.3,0.4c0.4,0.3,0.5-0.1,0.6-0.5c0.1-0.4,0.2-0.8,0.7-0.5c0,0.2,0,0.3,0,0.5c0,0.2-0.1,0.3-0.1,0.5
					c-0.1,0.3-0.3,0.6-0.5,0.9c-0.3,0.6-0.7,1-0.7,1.2c-0.2,0.9,0.2,1.2,0.7,1.6c0.2,0.2,0.4,0.4,0.6,0.6c0.1,0.1,0.1,0.3,0.2,0.4
					c0,0.2,0,0.4,0,0.6c0.4-0.2,1.4-0.5,1.8,0.8c0,0.3-0.1,0.6-0.3,0.8c-0.2,0.2-0.4,0.3-0.6,0.4c-0.4,0.1-0.9,0-1-0.4
					c0-0.3,0.1-0.4,0.2-0.4c-0.2-0.4-0.3-0.9-0.7-0.4l0.4,0.1c-0.1,0.2-0.2,0.4-0.2,0.6c-0.1,0.2-0.1,0.5-0.2,0.7
					c-0.1,0.4-0.3,0.8-0.6,0.6c0.4,0.9,0.6,0.4,0.8-0.3c-0.3,0.8-0.3,1.4-0.3,2c0,0.6,0,1.2-0.2,2c0.2-0.2,0.7-0.5,0.7-0.2
					c-0.1,0.3-0.1,0.5-0.1,0.7c0,0.2,0,0.3,0,0.5c0,0.2,0.1,0.4,0.3,0.4c0.2,0.2,0.6,0.3,0.6,1.1c-0.7,0.9-1.3-0.5-1,1.2
					c-0.5,0.9-1,0.1-1.3-0.3c0.1,0.2,0.1,0.4,0.1,0.6c0,0.2,0,0.3,0,0.5c-0.1,0.3-0.2,0.6-0.3,0.9c-0.2,0.3-0.3,0.5-0.5,0.8
					c-0.2,0.2-0.3,0.4-0.4,0.6l-0.2-0.8c0.1,0.5,0,0.8,0,1.2l0.8-0.3c-0.1,0.2-0.2,0.4-0.3,0.5c-0.1,0.1-0.2,0.2-0.3,0.2
					c0.2,0.3,0.5,0.2,0.9,0.3c0.3,0,0.7,0.1,0.9,0.7c-0.3,0.3-0.2,0.7-0.3,1.1c-0.1,0.4-0.2,0.8-0.7,0.7c0.4-0.9,0.1-0.9-0.2-0.9
					c-0.2,0-0.3,0-0.5-0.1c-0.1-0.1-0.2-0.3-0.2-0.7c0.1,0.3,0,0.7-0.3,1.1c-0.1,0-0.2-0.1-0.2-0.2c-1.3,1.5,0.9,1.1,0.4,2.9
					c-0.5-0.4-1.1,0.1-1.1,0.4c0.2-0.7,1-0.1,1.2,0.7c-0.4,0.5-0.4,0.9-0.4,1.1c0,0.3,0.2,0.5,0,0.8l0.4-0.6c0.5,0.4,0.2,1,0.1,1.8
					c-0.4-0.1,0-0.8-0.3-0.6c0.1,0.2,0.1,0.3,0.1,0.4c0,0.1,0,0.3-0.1,0.4c-0.1,0.2-0.4,0.4-0.6,0.7c-0.5,0.4-1,0.9-1,1.6
					c-0.6,0.4-1-0.4-1.4,0c0,0.8-0.3,1.1-0.7,1.4c-0.1,0.1-0.2,0.1-0.3,0.2c-0.1,0.1-0.2,0.2-0.2,0.3c-0.2,0.2-0.3,0.5-0.3,0.9
					c0.9,0,0.8-0.2,0.9,1.1c0,0,0,0,0-0.1c0-0.1,0-0.2,0.1-0.3c0.1-0.2,0.1-0.5,0.2-0.9c0.1-0.3,0.2-0.6,0.2-0.9
					c0.1-0.2,0.1-0.4,0.1-0.4s0,0.1,0.1,0.3c0,0.2,0.1,0.4,0.1,0.7c0.1,0.5,0.1,1,0.1,1c0.2-0.3,0.3-0.8,0.3-1.1
					c0.1-0.4,0.1-0.7,0.3-0.9c0.2,1,0.1,0.8,0.8,0.7c-0.4,0.1-0.6,0.3-0.7,0.6c-0.1,0.2-0.2,0.5-0.2,0.8c0,0.3,0,0.6-0.1,0.9
					c-0.1,0.3-0.3,0.5-0.6,0.7l-1.6-0.9c-0.4,0.3-0.6,0.6-0.8,1c-0.2,0.4-0.3,0.8-0.4,1.3c-0.1,0.4-0.2,0.9-0.4,1.4
					c-0.2,0.5-0.5,0.9-0.9,1.3c0,0,0.2-0.1,0.3-0.2c0.2-0.1,0.3-0.2,0.3-0.2c0.2,0.3,0.1,0.7-0.2,1c-0.3,0.3-0.6,0.7-0.7,1.1
					c-0.5-0.4-0.9-0.2-1.4-0.2c0.2,0.1-0.1,0.5-0.3,0.9c-0.2,0.4-0.4,0.9,0,1.4c0,0-0.3,0.1-0.7,0.1c-0.3,0.1-0.7,0.1-0.7,0.1
					c-0.1,0.1-0.2,0.2-0.2,0.2c-0.1,0.1-0.1,0.2-0.2,0.2c-0.1,0.2-0.2,0.3-0.2,0.5c-0.1,0.3-0.1,0.7-0.1,1c0,0.7-0.1,1.4-0.8,2
					c0-0.4-0.3-0.6-0.4-0.8c-0.2-0.2-0.3-0.4,0-1c-0.4,0.4-0.9,0.7-0.6,1c-0.1,0-0.2,0.1-0.3,0.2c-0.1,0.2-0.2,0.4-0.3,0.6
					c-0.1,0.2-0.2,0.4-0.4,0.6c-0.1,0.2-0.3,0.2-0.5,0.2c0,0.4,0.3,0.9-0.2,1.3c-0.1-0.1-0.2-0.2-0.2-0.2c0.2,0.2-0.6,1,0.3,1.2
					c-0.3-0.1-0.7,0-1,0c-0.3,0-0.6,0.1-0.9,0.3c-0.6,0.3-1.1,0.6-1.6,1c-0.3,0.2-0.5,0.3-0.8,0.5c-0.3,0.2-0.5,0.3-0.8,0.4
					c-0.3,0.1-0.5,0.2-0.8,0.2c-0.1,0-0.3,0-0.4,0c-0.1,0-0.3-0.1-0.4-0.1c-0.3,0.2-0.6,0.4-0.9,0.5c-0.2,0.1-0.3,0.2-0.5,0.3
					c-0.2,0.1-0.3,0.2-0.5,0.2c-0.6,0.3-1.3,0.6-1.9,0.8c0-0.2-0.1-0.3,0.1-0.3c-0.4,0-0.7,0.1-0.8,0.3c-0.2,0.2-0.2,0.4-0.3,0.7
					c-0.1,0.3-0.2,0.5-0.4,0.7c-0.2,0.2-0.5,0.3-1,0.2c-1.2-0.8,0.9-0.8,0.2-1c-0.2-0.5-0.4-0.7-0.7-0.7c-0.1,0-0.3,0-0.4,0.1
					c-0.1,0-0.3,0.1-0.5,0.2c-0.3,0.2-0.7,0.3-1,0.4c-0.4,0.1-0.7,0.1-1.1-0.2l0.3-0.2c-0.3-0.1-0.5-0.1-0.8,0
					c-0.3,0.1-0.6,0.2-0.9,0.4c-0.2,0.1-0.3,0.2-0.5,0.3c-0.2,0.1-0.3,0.2-0.5,0.2c-0.4,0.1-0.7,0.3-1.2,0.3c0,0,0.1-0.2,0-0.3
					c-0.5,0.6-1.3,1-2.1,1.3c-0.9,0.3-1.8,0.5-2.6,0.7c0.5-0.8,0.7-0.5,0.4-1.3c-0.7,0.1,0.3,1.3-1.2,1.6c-0.5-0.4-1.5-0.8-1.6-1.7
					c0,0,0.3,0,0.7,0c0.2,0,0.3,0,0.5,0c0.1,0,0.2,0,0.2,0c-0.3-0.6-0.8-0.6-1.2-0.4c-0.4,0.1-0.9,0.4-1.2,0.3l0.1-0.5
					c-0.5,0-0.9,0.1-1.2,0.3c-0.3,0.1-0.6,0.3-0.9,0.5c-0.5,0.3-1.1,0.6-2.2,0.5l0.2,0.4c-1.3,1.2-1-0.7-2.2,0.1l-0.3-1.3
					c-0.4,0.1-1.1,0.4-1.9,0.6c-0.8,0.2-1.7,0.5-2.4,0.5c0.9-0.9,2.6-1.2,3.7-1.7c-0.4,0-1.1,0-1.7,0c-0.6,0.1-1.2,0.2-1.4,0.5
					c0.3-0.1,0.8-0.4,1-0.2c-0.5,0.5-1.1,0.8-1.8,1c-0.7,0.2-1.4,0.2-2.2,0.1c0.3-1.2-0.7-1.5-1.9-1.7c-0.6-0.1-1.2-0.2-1.8-0.4
					c-0.5-0.2-1-0.5-1.2-1c-0.4,0.1-0.7,0.1-1.1,0.1c-0.3,0-0.7,0-1-0.1c-0.3-0.1-0.7-0.1-1-0.2c-0.3-0.1-0.7-0.2-1-0.3
					c-0.7-0.2-1.4-0.5-2.1-0.7c-0.4-0.1-0.7-0.2-1.1-0.3c-0.4-0.1-0.7-0.2-1.1-0.3c0.2,0.5,0.2,0.8,0.1,0.9
					c-0.1,0.1-0.2,0.1-0.4,0.1c-0.3-0.1-0.8-0.2-0.9,0.8c-0.8-0.1-1-0.2-1.1-0.3c0,0-0.5-0.4-0.9-0.9c-0.2-0.2-0.5-0.4-0.6-0.6
					c-0.2-0.2-0.3-0.3-0.3-0.3c-0.4-0.7,0.8-0.2,0.8-0.7c-1.5-0.6-0.4-1-1.3-1.8c0,0.7-0.8,0.8-1.6,0.3l1,1.2
					c-1.2,0.2-1.6-0.4-1.9-0.9c-0.3-0.6-0.7-1.1-1.9-1l0.9-0.3c-0.6,0-1.6-0.4-2.6-0.6c-0.3-0.1-0.5-0.1-0.8-0.2
					c-0.3,0-0.5-0.1-0.8-0.1c-0.5,0-1,0.1-1.4,0.3c-0.1-0.3-0.1-0.9,0.4-0.8c-0.6-0.3-1.3-0.5-2-0.8c-0.4-0.1-0.7-0.2-1.1-0.3
					c-0.4-0.1-0.7-0.2-1.1-0.3c-0.7-0.2-1.4-0.4-2-0.7c-0.6-0.3-1.1-0.7-1.4-1.1l0.4-0.3c-0.5-0.1-1.2,0.3-1.5-0.4
					c0.1-0.2,0.4-0.3,0.2-0.4c-0.2,0-0.6,0-1-0.1c-0.4-0.1-0.8-0.2-1-0.5l0.8-0.1c-0.2-0.2-0.5-0.4-0.7-0.6
					c-0.2-0.2-0.5-0.3-0.7-0.4c-0.3-0.1-0.5-0.2-0.8-0.3c-0.3-0.1-0.5-0.1-0.8-0.2c-1.1-0.2-2.1-0.3-3.1-0.9
					c0.4-0.5,0.3-1.2,0.1-1.9c-0.1-0.3-0.3-0.7-0.5-1c-0.2-0.3-0.4-0.6-0.5-0.8l0.2-0.1c-0.3-0.3-0.5-0.5-0.8-0.8
					c-0.1-0.1-0.3-0.2-0.4-0.3c-0.1-0.1-0.1-0.1-0.2-0.2c-0.1-0.1-0.1-0.1-0.2-0.2c-0.3-0.2-0.5-0.4-0.8-0.6
					c-0.1-0.1-0.3-0.2-0.4-0.3c-0.1-0.1-0.3-0.2-0.4-0.3c-0.6-0.3-1.2-0.7-1.7-1c-0.3-0.2-0.6-0.4-0.9-0.6c-0.3-0.2-0.6-0.4-0.8-0.7
					c0-0.3,0-0.6-0.1-0.9c-0.1-0.3-0.2-0.6-0.3-0.9c-0.1-0.2-0.2-0.3-0.2-0.5c-0.1-0.2-0.2-0.3-0.3-0.5c-0.2-0.3-0.4-0.7-0.6-1
					c-0.8-1.4-1.7-2.9-2-4.4c0,0.5-1,0.5-1.4,0.1c0-0.4-0.4-0.7-0.7-1c-0.3-0.3-0.4-0.5,0.2-0.8l0.1,0.2c0.2-0.3,0.3-0.5,0.4-0.8
					c0-0.3,0-0.5-0.1-0.8s-0.2-0.5-0.3-0.8c-0.1-0.3-0.2-0.5-0.3-0.8l-1.6,0.5c0.3-0.9,0.3-1.7,0-2.5c-0.1-0.4-0.2-0.8-0.4-1.2
					c-0.1-0.2-0.2-0.4-0.3-0.6c-0.1-0.2-0.2-0.4-0.3-0.6c-0.2-0.4-0.4-0.8-0.5-1.1c-0.1-0.4-0.2-0.7-0.3-1.1c0-0.2-0.1-0.3-0.1-0.5
					c0-0.2,0-0.3,0.1-0.5c0.1-0.3,0.2-0.6,0.4-0.8c-0.1-0.1-0.2-0.3-0.3-0.5c-0.1-0.2-0.2-0.3-0.3-0.5c-0.2-0.4-0.3-0.7-0.6-1
					l0.9-0.1c0-0.5,0-0.9,0-1.2c0-0.2,0-0.4,0-0.6c0-0.2,0-0.4,0-0.5c0-0.4,0-0.7-0.1-1.2c0-0.4-0.1-0.9-0.1-1.5l0.7,0.4
					c0-0.2,0-0.3-0.1-0.4c-0.1-0.1-0.2-0.2-0.3-0.4c-0.2-0.2-0.6-0.4-0.9-0.6c-0.3-0.2-0.7-0.4-0.9-0.6c-0.3-0.2-0.4-0.5-0.4-0.8
					c0,0,0.3-0.1,0.7-0.1c0.3-0.1,0.7-0.1,0.7-0.1c0-0.3,0-0.6,0.1-0.8c0.1-0.3,0.1-0.5,0.2-0.8l0.1-0.4c0-0.1,0.1-0.3,0.1-0.4
					c0.1-0.3,0.2-0.5,0.3-0.8c0-0.1,0.1-0.3,0.1-0.4l0-0.2l0.1-0.2c0.1-0.3,0.1-0.5,0.1-0.8c0-0.1,0-0.3,0-0.4c0-0.1,0-0.1,0-0.2
					c0-0.1,0-0.1,0-0.2c0-0.3-0.1-0.6-0.1-0.9c0.2,0.1,0.5,0.3,0.5,0.6c0.1-0.2,0.2-0.6,0.4-1c0.2-0.4,0.4-0.8,0.5-1.2
					c0.1-0.4,0.2-0.7,0.1-1c-0.1-0.3-0.3-0.5-0.8-0.6c0.3,0.1,0.5,0,0.6-0.2c0.1-0.1,0.1-0.2,0.2-0.4c0-0.1,0.1-0.3,0.1-0.5
					c0-0.2,0-0.4,0.1-0.6c0-0.2,0-0.4,0-0.6c0-0.4,0-0.8,0-1.2l0.7,0.6c-0.3-0.7-0.5-1.1-0.6-1.5c-0.1-0.4,0-0.8,0.2-1.5
					c0.3-0.2,0.8,0.1,0.3,0.4c0.5-0.4,0.4-0.7,0.4-1c0-0.3-0.1-0.7,0.5-1.2l0.2,0.8c0.2-0.2,0.3-0.4,0.4-0.6
					c0.1-0.2,0.1-0.3,0.1-0.4c0-0.3-0.1-0.5-0.2-1c0.1-0.4,0.5-0.8,0.9-1.1c0.5-0.3,1-0.4,1.4-0.2c-0.1-0.2-0.2-0.6-0.2-0.9
					c0-0.3,0.2-0.7,0.5-0.9c0.3,0.1,0.3,0.4,0.3,0.6c0.4-0.3,0.7-0.6,1-0.9c0.2-0.3,0.4-0.7,0.5-1c0.1-0.3,0.3-0.6,0.5-0.9
					c0.1-0.1,0.2-0.2,0.4-0.3c0.1-0.1,0.3-0.1,0.5-0.2c0.2,0.2,0.4,0.2,0.5,0.2c-0.6,0.5-1.1,1-1.5,1.4c-0.4,0.3-0.6,0.5-0.6,0.5
					c0.3,0.3,0.7,0.2,1,0.3c0.3,0.1,0.6,0.2,0.7,1c0.1-0.3,0.1-0.6,0.2-1c0.1-0.4,0.2-0.8,0.3-1.1c0.1-0.4,0.3-0.7,0.5-1
					c0.2-0.3,0.5-0.5,0.7-0.7c0.1,0,0.2,0,0.3,0.1l0,0.2c0.3-0.1,0.4-0.3,0.5-0.6c0.4-0.2,0.6-0.2,0.9-0.5c0.3,0.2,0.6,0.1,0.9-0.2
					c0.3-0.2,0.7-0.6,0.9-0.8c-0.6-0.7,0.2-1.1-0.9-1.2c0.1,0,0,0.2-0.3,0.5c-0.1,0.1-0.1,0.2-0.2,0.2c0,0,0-0.1,0-0.1
					c-0.3,0.3-0.7,0.6-1.2,1c0.1-0.7,0.3-1.3,1.2-1.4c-0.1-0.7-0.2-1.4-0.1-1.7c1.5,0.5,3.3,0.1,3.9,0.6c0.7-0.8,1.6-1.4,2.4-2.2
					c0.4-0.4,0.8-0.8,1.1-1.2c0.3-0.4,0.5-0.9,0.6-1.4c0.4-0.5,0.8,0.1,1.1,0.3c-0.2,0.3-0.6,0.5-0.6,0.7c0.2-0.2,0.5-0.4,0.8-0.7
					c0.3-0.2,0.6-0.4,0.9-0.6c0.6-0.4,1.1-0.9,1-1.5c0.8,0,0.7,0.3,0.6,0.5c0,0.2-0.1,0.3,0.8-0.2l-0.1,0.4c0.5,0,1,0,1.4-0.1
					c0.4-0.1,0.8-0.3,1.2-0.5c0.4-0.2,0.7-0.5,1-0.8c0.3-0.3,0.7-0.6,1-0.9c0.3-0.3,0.7-0.6,1-0.8c0.2-0.1,0.4-0.3,0.6-0.4
					c0.2-0.1,0.4-0.2,0.6-0.3c0.8-0.3,1.8-0.5,3-0.2c-0.3-0.1-0.5-0.1-0.6-0.3c0.6,0,1.3-0.1,1.9-0.2c0.6-0.1,1.2-0.2,1.9-0.4
					c0.3-0.1,0.6-0.2,0.9-0.2c0.3-0.1,0.6-0.2,0.9-0.2l0.9-0.3l0.5-0.1l0.5-0.1c0.6-0.2,1.2-0.3,1.9-0.4c0.6-0.1,1.3-0.2,1.9-0.3
					c0.3,0,0.6-0.1,0.9-0.1c0.3,0,0.6,0,1,0c0.6,0,1.3,0.1,1.9,0.2c1.4,0.2,1.5-0.6,2.3-1.3l0.4,0.9l1.3-1.3c1-0.5,2,0,3,0.4
					c1,0.4,2.1,0.8,3.3-0.1l-0.4-0.6c1,0.1,3-0.6,2.9,0.2c0.1-0.1,0.3-0.7,0.7-0.4l0.1,0.5l2.3-1c1.8,0.3-0.2,2,2.5,2
					c1-0.2,2.7-1.6,2.3-1.9c-0.4,0-1-0.3-1.1-0.8l0.9-0.3c0.1-1.5,0.7-3.1-1.5-4l-1.5,1l-0.5-0.7l1.3-0.1c-0.8-0.6-1.2,0-1.7,0.4
					c-0.1-0.4-0.4-0.6-0.7-0.8l-1.4,1.5c-0.2-0.6,0.6-1.2-0.4-1.5c-0.7,0.7,0.8,1.3-0.4,1.8c-0.8-0.6-0.6-1.2-1.4-0.6
					c-0.1-0.4,0-0.6,0.4-0.8c-0.8,0.5-2,0.3-2.4,1.1c-0.8-0.8-2.6,0.4-2.6-1c-0.2,0.4-1.3,1.2-2,1.3c0.6-0.9-0.1-0.9-0.9-0.8
					c-0.8,0-1.7,0.1-1.6-0.8c-0.4,0.8-1.3,1.1-2.2,1.3c-0.5,0.1-1,0.2-1.5,0.3c-0.5,0.1-1,0.3-1.4,0.6c0.1-0.1,0.2-0.4,0.4-0.3
					c-1,0-1.3-0.4-2-0.6c0.1,1.3-1.4,1.8-2.1,2.7c-0.7-0.5-0.6-0.9-0.3-1.3c0.2-0.4,0.6-0.8,0.3-1.4c0.1,0.5-0.4,0.8-0.8,1.1
					c-0.4,0.3-0.8,0.6-0.6,1c-1-0.6-0.8-0.2-1.5-1.2c0.1,1.6-0.8,0.4-1.4,1.5c-0.7-0.2-0.9-0.6-1-0.8c-0.1-0.1-0.1-0.1-0.3-0.1
					c-0.1,0-0.3,0.1-0.7,0.3c-0.4-0.2-0.3-0.4-0.1-0.7c0.1-0.1,0.2-0.2,0.3-0.3C678,487.2,678.1,487.1,678.1,487.1z M647.4,504.8
					C647.4,504.7,647.4,504.7,647.4,504.8c0.2-0.2,0.4-0.4,0.5-0.5C647.8,504.3,647.6,504.5,647.4,504.8z M645.2,506.8
					c0.3-0.2,0.6-0.6,0.9-0.9c0.3,0.2,0.4,0.5,0.2,0.7c0-0.1-0.2-0.1-0.4,0C645.8,506.6,645.5,506.8,645.2,506.8z M653.8,507.5
					c-0.2,0.4-0.5,0.3-0.6,0.2c0.1-0.1,0.3-0.3,0.5-0.5c0,0,0-0.1,0-0.1C653.7,507.2,653.8,507.4,653.8,507.5z"/>
				<path class="st8" d="M653.7,506.1c0-0.1,0-0.1,0.1-0.2c-0.1,0-0.2,0-0.3,0c0,0.1,0,0.2,0.1,0.3
					C653.6,506.2,653.6,506.2,653.7,506.1z"/>
				<path class="st8" d="M749,508.8L749,508.8c0,0,0-0.1,0.1-0.1C749.1,508.7,749.1,508.7,749,508.8z"/>
				<polygon class="st8" points="632.1,545.3 632.3,545.2 632.1,545 				"/>
				<path class="st8" d="M741,495c0-0.1,0-0.2,0-0.3C740.9,494.8,740.9,494.9,741,495z"/>
				<path class="st8" d="M735.6,490.6l-0.6-0.8C735.2,490.2,735.4,490.4,735.6,490.6z"/>
				<path class="st8" d="M731.3,487.4c-0.1,0.1-0.2,0.2-0.3,0.3c0,0,0,0,0,0L731.3,487.4z"/>
				<path class="st8" d="M760.1,561.9c0,0.1,0,0.1,0,0.2C760,562.6,760.1,562.3,760.1,561.9z"/>
				<path class="st8" d="M761.2,536.4c0.2,0.3,0.4,0.5,0.5,0.8C761.7,536.7,761.7,536.4,761.2,536.4z"/>
				<path class="st8" d="M744.8,586.9C744.8,586.9,744.8,586.9,744.8,586.9c-0.1,0-0.1,0.1-0.2,0.1L744.8,586.9z"/>
				<path class="st8" d="M761.7,538.4c0.2-0.5,0.1-0.8,0-1.2C761.6,537.6,761.5,538,761.7,538.4z"/>
				<path class="st8" d="M709.4,479.2l-0.3-0.1c0,0.1,0,0.1-0.1,0.1L709.4,479.2z"/>
				<path class="st8" d="M709.1,479.3l-0.3,0.1C708.9,479.3,709.1,479.4,709.1,479.3z"/>
				<path class="st8" d="M708.2,479.5c0,0,0.2,0,0.3-0.1c0.1,0,0.2,0,0.2-0.1c0.1,0,0.1,0,0.1,0
					C708.6,479.3,708.3,479.2,708.2,479.5z"/>
				<path class="st8" d="M716.4,481.1l0.2-0.3C716.5,480.9,716.4,481,716.4,481.1z"/>
				<path class="st8" d="M718.5,481.6c-0.5-0.2-1.1-1-1.8-1l-0.1,0.2c0.2-0.2,0.6,0.1,0.9,0.4C717.8,481.5,718.2,481.8,718.5,481.6z
					"/>
				<path class="st8" d="M725.2,488.6c0,0-0.4-0.2-0.7-0.5c-0.2-0.1-0.4-0.2-0.5-0.3c-0.1-0.1-0.2-0.1-0.2-0.1
					c0.1,0.4,0.3,1-0.4,0.8c0.4,0.4,0.6,0.6,0.7,0.6c0.1,0,0.1-0.1,0.1-0.3C724.1,488.5,724.2,488,725.2,488.6z"/>
				<path class="st8" d="M729.6,491.5c-0.9-0.3-0.2,0.4-0.4,0.6C729.8,492.1,730,492.1,729.6,491.5z"/>
				<path class="st8" d="M753.9,519.6l-0.8,0.2C753.5,520.4,753.4,519.7,753.9,519.6z"/>
				<polygon class="st8" points="760.2,525.5 760.5,524.6 759.7,524.5 				"/>
				<polygon class="st8" points="755.4,531 755.3,530.7 755.8,531.8 				"/>
				<path class="st8" d="M734,584.6l0.6,0.8c0.2-0.2,0.1-0.5,0-0.8c-0.1-0.1-0.2-0.2-0.3-0.2C734.3,584.4,734.2,584.4,734,584.6z"/>
				<path class="st8" d="M707.8,589.4c-0.3-0.5-1.1-0.9-1.6-0.4C706.9,589.1,707.5,589.5,707.8,589.4z"/>
				<polygon class="st8" points="641.9,550.4 642.4,550.7 641.8,549.9 				"/>
			</g>
		</g>
		<g>
			<g>
				<path class="st8" d="M432.7,715.8c-0.2-0.3-0.1-0.9,0.4-0.8l0.5,1L432.7,715.8z"/>
				<path class="st8" d="M436.3,713.5c0.3,0.2,0.7,0.5,1,0.9c0.3,0.4,0.4,0.8,0.3,1.3c-0.4-0.5-0.6-0.6-0.8-0.7
					c-0.2-0.1-0.5-0.3-0.9-0.9c-0.6-0.1-0.9,0.4-0.8,0.8c-0.1-0.1-0.3,0-0.5,0c-0.2,0-0.5,0-0.6-0.3c0.7-0.8,1.5-1,2.6-0.4
					C436.6,714,436.4,713.7,436.3,713.5z"/>
				<path class="st8" d="M479.1,685.8l-0.1,0.3C479.1,686,479.1,685.9,479.1,685.8z"/>
				<path class="st8" d="M487.9,655.5c0,0.2-0.1,0.3-0.2,0.3C487.7,655.6,487.8,655.4,487.9,655.5z"/>
				<path class="st8" d="M486.6,650.1c0,0.1,0.1,0.2,0.1,0.3C486.6,650.3,486.6,650.2,486.6,650.1z"/>
				<path class="st8" d="M479.1,685.8c0,0,0-0.2,0.1-0.4c0-0.2,0.1-0.5,0.1-0.5C479.7,685,479.3,685.4,479.1,685.8z"/>
				<path class="st8" d="M444.2,714.8c-0.2,0-0.4-0.1-0.5-0.2c0.2,0,0.3,0,0.5,0C444.1,714.7,444.1,714.7,444.2,714.8z"/>
				<path class="st8" d="M469.4,695.9l-0.2,0.2c-0.1,0-0.3-0.1-0.4-0.2c0,0,0.2,0,0.3,0C469.2,695.9,469.4,695.9,469.4,695.9z"/>
				<path class="st8" d="M460.7,702.2c0.2-0.2,0.7,0.6,1,0.8c-0.3-0.2-0.6-0.3-0.8-0.2C460.9,702.7,460.8,702.5,460.7,702.2z"/>
				<path class="st8" d="M445.7,710.6c0,0-0.1,0-0.2,0c-0.1,0-0.2,0-0.2,0C445.5,710.6,445.6,710.6,445.7,710.6z"/>
				<path class="st8" d="M474.5,690.2c-0.1-0.1-0.2-0.2-0.2-0.3C474.4,690,474.5,690.1,474.5,690.2z"/>
				<path class="st8" d="M427.2,709.6c0-0.1,0-0.1,0-0.2C427.3,709.5,427.3,709.6,427.2,709.6z"/>
				<path class="st8" d="M440.5,705.8l-0.2-0.1c0-0.2,0-0.3,0-0.5L440.5,705.8z"/>
				<path class="st8" d="M484.1,640.7C484.1,640.8,484.1,640.8,484.1,640.7C484.1,641,484,640.9,484.1,640.7z"/>
				<path class="st8" d="M413.6,610.3c0.4-0.5-0.1-0.7-0.5-0.8c-0.4-0.2-0.8-0.4-0.1-1c0,0.2,0.4,0.4,0.7,0.7
					C414,609.5,414.1,609.9,413.6,610.3z"/>
				<path class="st8" d="M444.4,714.6c0.2,0,0.3-0.1,0.5-0.1C444.7,714.6,444.6,714.6,444.4,714.6z"/>
				<path class="st8" d="M413,608.5L413,608.5l0.1-0.1C413,608.4,413,608.4,413,608.5z"/>
				<path class="st8" d="M475.3,620.7c0.2-0.1,0.3-0.1,0.4-0.1C475.7,620.7,475.6,620.7,475.3,620.7z"/>
				<path class="st8" d="M484.2,634.8l-0.3-0.4C484.1,634.5,484.2,634.7,484.2,634.8z"/>
				<path class="st8" d="M470.4,613.7c-0.2-0.1-0.4,0-0.5-0.3c0.1,0,0.1,0,0.1,0C470.1,613.5,470.1,613.7,470.4,613.7z"/>
				<path class="st8" d="M463,609.1c0.1,0,0.1-0.1,0.2-0.1c0.1,0.1,0.2,0.1,0.2,0.2L463,609.1z"/>
				<path class="st8" d="M397.8,703.6c0.3-0.2,0.5-0.4,0.7-0.6C398.2,703.6,399.5,704.3,397.8,703.6z"/>
				<path class="st8" d="M444.1,714.3c0.1,0.2,0.2,0.3,0.4,0.3c-0.1,0-0.2,0-0.3,0C444,714.5,444,714.4,444.1,714.3z"/>
				<path class="st8" d="M474.7,608c0,0-0.4-0.2-0.7-0.5c-0.2-0.1-0.4-0.2-0.5-0.3c-0.1-0.1-0.2-0.1-0.2-0.1
					C473.7,607.2,474.2,607.6,474.7,608z"/>
				<path class="st8" d="M363.3,646.5l-0.2,0.3C363.1,646.7,363.2,646.6,363.3,646.5z"/>
				<path class="st8" d="M469,604.1c-0.4,0.1-0.8,0.1-1.1,0.1c0-0.1-0.1-0.2-0.1-0.3L469,604.1z"/>
				<path class="st8" d="M398.5,703C398.5,703,398.5,703,398.5,703C398.5,703,398.5,703,398.5,703z"/>
				<path class="st8" d="M408.1,707.9c-1.5-0.3-0.4-1.3-0.6-2c-1.7-0.7-1,0.7-1.7,1.1c-0.1-0.1-0.3-0.2-0.4-0.2
					c-0.1-0.1-0.2-0.2-0.3-0.3c-0.2-0.2-0.4-0.4-0.6-0.6c-0.4-0.4-0.7-0.8-1.1-0.9c-0.1,0.2-0.3,0.2-0.2,0.5
					c-0.2-0.3-0.5-0.5-0.9-0.7c-0.4-0.2-0.8-0.3-1.2-0.5c-0.2-0.1-0.4-0.2-0.6-0.2c-0.2-0.1-0.4-0.2-0.6-0.3
					c-0.4-0.2-0.7-0.5-0.9-0.9c-0.1,0.1-0.2,0.1-0.3,0.2c0.4-0.5,0.6-1.1,0.7-1.5c-0.3-0.1-0.5-0.4-0.8-0.6
					c-0.2-0.2-0.4-0.2-0.7,0.1c0.4,0.1,0.3,0.4,0.4,0.7c0,0-0.1-0.1-0.3-0.3c-0.1-0.1-0.3-0.3-0.3-0.3c-1,0.8,0.8,0.7,0.5,1.5
					c-0.3-0.2-0.6-0.4-0.9-0.7c-0.3-0.2-0.6-0.5-0.9-0.7c-0.3-0.2-0.6-0.4-0.8-0.6c-0.3-0.2-0.5-0.3-0.8-0.3c-0.3,0.5,0.2,0.8,0.6,1
					c0.4,0.2,0.7,0.4-0.2,0.6c0,0,0.4,0.1,0.8,0.1c0.4,0.1,0.8,0.1,0.8,0.1c-1.8,1.2,1,0.2-0.7,1.6c-1.1-0.2-1.6-0.6-2.1-1
					c-0.5-0.4-1-0.7-2.1-1c-0.2-0.8,0.5-0.7,0.3-1.5c-0.6-0.6-1.1-0.8-1.5-0.8c-0.2,0-0.4,0-0.6,0.1c-0.2,0.1-0.4,0.1-0.6,0.2
					c-0.7,0.3-1.4,0.7-2.1-0.5c-0.1-0.5,0-1-0.1-1.5c-0.1-0.5-0.4-0.8-1.3-0.9c0,0,0,0.3-0.1,0.7c0,0.3-0.1,0.7-0.1,0.7
					c-0.9-0.5-1-1-1.1-1.5c0-0.2-0.1-0.4-0.3-0.6c-0.1-0.1-0.2-0.2-0.4-0.3c-0.2-0.1-0.4-0.2-0.7-0.2c0,0.3,0.3,0.6,0.6,0.9
					c0.2,0.2,0.4,0.4,0.3,0.3c-0.9,0-1-0.3-1-0.6c0-0.4,0.1-0.8-0.4-1.1l-0.8,0.8c-0.4-0.4-0.9-0.8-1.3-1.2
					c-0.2-0.2-0.4-0.4-0.6-0.7c-0.2-0.2-0.4-0.5-0.6-0.7c-0.2-0.2-0.4-0.5-0.6-0.7c-0.2-0.2-0.4-0.5-0.6-0.7
					c-0.4-0.5-0.8-0.9-1.2-1.4c-0.1,0.3,0,0.9-0.7,0.7c-1-1.3-2.2-2.4-3.5-3.6c-1.3-1.1-2.6-2.2-3.8-3.3c0,0,0-0.4,0-0.8
					c0-0.2,0-0.4,0-0.5c0-0.1,0-0.2,0-0.2c-0.2-0.2-0.6-0.2-0.6,0.2c-1-0.8,0.5-0.4,0.4-1.1c-0.3-0.6-0.9-0.5-0.9,0.1
					c-0.3-1.1-0.7-2.7-1.2-4.1c-0.5-1.4-1.2-2.8-2.1-3.7c0,0,0,0.1-0.1,0.3c0,0.1,0,0.3,0,0.3c-0.3-0.4-0.3-0.7-0.3-1.1
					c0-0.3,0.2-0.6,0.3-0.9c0.1-0.1,0.1-0.3,0.2-0.4c0-0.1,0.1-0.3,0.1-0.4c0-0.3-0.1-0.6-0.4-0.9l-0.1,0.3
					c-0.4-0.9-0.6-1.8-0.9-2.7c-0.2-0.9-0.4-1.9-0.5-2.8c0-0.2-0.1-0.5-0.1-0.7c0-0.1,0-0.2-0.1-0.3c0-0.1,0-0.2-0.1-0.3
					c-0.1-0.4-0.2-0.9-0.3-1.3c-0.1-0.2-0.1-0.4-0.2-0.6c-0.1-0.2-0.1-0.4-0.2-0.6c-0.1-0.4-0.3-0.8-0.5-1.1
					c0.3-0.2,0.5-0.5,0.5-0.8c0-0.2,0-0.4,0-0.6c0-0.1,0-0.2,0-0.3c0-0.1,0-0.2,0-0.3c-0.1-0.9-0.1-1.8,0.9-1.8
					c-0.2-0.5-0.4-0.9-0.5-1.2c-0.2-0.3-0.3-0.5-0.4-0.8c-0.1-0.3-0.2-0.5-0.3-1c0-0.2-0.1-0.5-0.1-0.7c0-0.3-0.1-0.6-0.1-1
					c0-0.4,0.4-0.7,0.7-0.9c0.4-0.3,0.8-0.5,1-1l-1-0.2c0,0,0.3-0.3,0.6-0.6c0.2-0.1,0.3-0.3,0.4-0.4c0.1-0.1,0.2-0.2,0.2-0.2
					s-0.2-0.2-0.5-0.5c-0.2-0.2-0.5-0.5-0.5-0.5s0.1-0.2,0.2-0.4c0.1-0.2,0.2-0.4,0.2-0.4c0,0.4,0.2,0.9,0.5,0.9
					c0.1-0.2,0.2-0.3,0.2-0.5c0.1-0.2,0.1-0.4,0.1-0.6c0.1-0.4,0.1-0.8,0-1.2c-0.1-0.8-0.3-1.4-0.5-1.5c0,0,0.1-0.2,0.3-0.5
					c0.2-0.3,0.4-0.7,0.7-1c0.2-0.4,0.5-0.7,0.7-1c0.2-0.3,0.3-0.5,0.3-0.5c-0.4-0.1-0.7,0.4-1.1,0.8c0.2-0.2,0.3-0.3,0.4-0.4
					c0.1-0.1,0.1-0.2,0.1-0.3c0-0.1-0.1-0.2-0.2-0.3c-0.2-0.2-0.5-0.3,0.3-0.9c0.1,0.3,0.6,0.1,0.8,0.2c-0.1-0.3-0.1-0.6,0-0.9
					c0.1-0.3,0.2-0.7,0.3-1c0.1-0.4,0.3-0.7,0.5-1.1c0.2-0.3,0.4-0.7,0.6-1l-0.7-0.1c0.1-0.3,0.3-0.6,0.4-0.9
					c0.2-0.3,0.3-0.6,0.5-0.9c0.2-0.3,0.4-0.6,0.5-0.9c0.2-0.3,0.4-0.6,0.6-0.9c0.2-0.3,0.4-0.6,0.6-0.9c0.2-0.3,0.4-0.6,0.6-0.9
					c0.4-0.6,0.9-1.2,1.3-1.8c-0.3,1,0.8,1.5,1.4,0.9l-0.7-0.9c0.8-0.1-0.2,0.9,1.1,0.5c0.5-0.9-0.5-1.3-1.2-1l1.1-0.8
					c-0.2-0.2-0.5-0.1-0.9-0.3c0.4,0,0.6-0.6,0.8-1.2c0.1-0.3,0.2-0.6,0.4-0.8c0.2-0.2,0.4-0.3,0.8-0.3l-0.2-0.3
					c0.9-1.1,1.7-1.9,2.5-2.5c0.4-0.3,0.7-0.6,1.1-1c0.1-0.1,0.2-0.2,0.3-0.3c0.1-0.1,0.2-0.2,0.3-0.3c0.2-0.2,0.4-0.4,0.6-0.6
					c0.3,0.3,0.6,0.3,1,0.2c0.3-0.1,0.7-0.3,1.2-0.2c0.3-0.3,0.5-0.7,0.8-1.1c0.3-0.4,0.6-0.8,0.9-1.1c0.1-0.1,0.2-0.2,0.2-0.3
					c0.1-0.1,0.2-0.2,0.2-0.3c0.2-0.2,0.3-0.4,0.5-0.5c0.2-0.2,0.4-0.3,0.6-0.5c0.2-0.2,0.4-0.3,0.6-0.5c1.4-0.5,0.8,0.4,1.6,0.4
					c-0.4-0.7,1.3-1.8,0.1-1.7c1-0.7,1.7-1,2.5-1.4c0.4-0.2,0.8-0.4,1.3-0.6c0.3-0.1,0.5-0.2,0.8-0.3c0.3-0.1,0.6-0.2,1-0.3
					c-0.1,0.5-0.4,0.8-0.1,0.9c0.5-0.2,0.9-0.9,0.7-1.2l-0.2,0c0.5-0.1,0.9-0.2,1.3-0.4c0.2-0.1,0.4-0.2,0.6-0.3
					c0.2-0.1,0.4-0.2,0.6-0.4c0.4-0.3,0.8-0.6,1.2-0.9c0.4-0.3,0.8-0.6,1.1-1c1.5-1.3,3-2.5,4.7-2.1l-0.2,0c0,0,0.2,0,0.5,0
					c0.3,0,0.7,0,1-0.1c0.7,0,1.5-0.1,1.5-0.1c0.6-0.3,0.4-0.4,0.1-0.5c-0.3-0.1-0.6-0.2-0.3-0.7c0.8,0.1,1.5,0,2.2-0.1
					c0.6-0.1,1.2-0.3,1.7-0.6c0.5-0.2,1-0.4,1.6-0.6c0.5-0.2,1.1-0.2,1.8-0.2c0.3-0.7,0.9-1.2,1.6-1.5c0.4-0.2,0.8-0.3,1.2-0.4
					c0.4-0.1,0.9-0.2,1.3-0.2c0.5-0.1,0.9-0.1,1.4-0.2c0.5-0.1,0.9-0.1,1.3-0.2c0.9-0.2,1.6-0.4,2.2-0.9l-0.1,0.6
					c0.8,0.4,0.8-0.5,1.2-0.7c0,0.4-0.6,0.6-0.2,0.9c2.9-0.1,5.8-0.7,8.7-1.3c2.9-0.6,5.9-1.3,8.8-1.6c1.1-0.1,1.4,0.6,1.8,1.2
					c0.4,0.6,0.8,1,2.2,0.3l-0.8-1.1c2.2,0.6,4.4,0.7,6.7,0.8c0.6,0,1.1,0.1,1.7,0.1c0.6,0.1,1.1,0.1,1.7,0.2
					c0.6,0.1,1.1,0.2,1.7,0.4c0.5,0.2,1.1,0.3,1.6,0.6c-0.2-0.3-0.2-0.6-0.6-0.7c0.3-0.2,0.6-0.2,1-0.2c0.4,0,0.8,0.2,1.1,0.3
					c0.2,0.1,0.3,0.2,0.5,0.3c0.2,0.1,0.3,0.2,0.4,0.3c0.2,0.2,0.3,0.4,0.3,0.5c0.7,0.1,0.3-0.5,0.8-0.7c0.3-0.1,0.5,0,0.8,0.2
					c0.3,0.1,0.5,0.3,0.7,0.5c0.5,0.3,0.9,0.7,1.2,0.4c0.1-0.1-0.2-0.3-0.3-0.4c0.1,0.1,0.4,0.3,0.6,0.4c0.3,0.1,0.6,0.2,0.9,0.3
					c0.5,0.2,0.9,0.5,0.5,0.8c0.9,0.1,1.6,0.5,2.3,0.9c0.2,0.1,0.3,0.2,0.5,0.3c0.2,0.1,0.3,0.2,0.5,0.3c0.3,0.2,0.7,0.3,1,0.3
					c0.1,0.3,0.3,0.6,0.6,0.7c0.3,0.2,0.6,0.3,0.9,0.4c0.6,0.3,1.1,0.6,0.8,1.2c0.3-0.6,1.1-0.5,1.9,0c0.4,0.3,0.7,0.6,1,0.9
					c0.3,0.3,0.5,0.7,0.6,1c0-0.6,1,0.2,1.1-0.5c0.5,0.4,0.9,0.9,1.1,1.3c0.2,0.4,0.2,0.7-0.1,0.9c0.4,0,0.7,0.1,0.9,0.3
					c0.3,0.1,0.5,0.3,0.7,0.5c0.2,0.2,0.3,0.4,0.5,0.7c0.1,0.2,0.3,0.5,0.4,0.7c0.2,0.5,0.5,0.9,0.8,1.2c0.3,0.3,0.7,0.4,1.3,0.3
					c0.9,1.6,1.6,3.2,2.4,4.7c0.7,1.5,1.4,3,2,4.4c0.6-0.4,0.2-1.2-0.2-1.9c-0.4-0.7-0.8-1.5-0.1-1.8c0.6,1.4,0.8,2.7,1.1,3.9
					c0.1,0.6,0.3,1.2,0.5,1.8c0.2,0.6,0.5,1.2,0.9,1.8c0.5,0.6,0.4-0.7,0.5-1c0.1,0.4,0.2,0.7,0.3,1.1c0.1,0.4,0.3,0.7,0.4,1
					c0.3,0.7,0.5,1.3,0.8,2c0.3,0.7,0.5,1.3,0.7,2c0.2,0.7,0.3,1.3,0.3,2c0.1,0,0.2-0.4,0.2-0.7c0.1,0.5,0.6,1.1-0.1,1.2l0-0.5
					c-0.3-0.1-0.5,0-0.7,0.2c-0.2,0.2-0.3,0.6-0.4,0.9c-0.2,0.7-0.4,1.5-0.6,1.6c0.8-0.7,1.1-0.1,1.4,0.4c0.3,0.5,0.7,1,1.7,0
					c0,0.4-0.2,0.9-0.7,0.9c0.2,0.5,0.5,0.6,0.9-0.1c0,1-0.1,1.3-0.3,1.6c-0.1,0.3-0.3,0.6-0.1,1.4c0.3-0.1,0.4-0.4,0.7-0.7
					c-0.2,0.5-0.4,1-0.5,1.5c-0.1,0.5-0.1,1.1,0.2,1.8c0.2-0.1,0.4,0,0.4-0.4c0.1,0.6,0,1.2,0,1.7c0,0.3-0.1,0.6-0.1,0.8
					c0,0.3-0.1,0.5-0.2,0.8c-0.1,0.3-0.1,0.5-0.1,0.8c0,0.3-0.1,0.6-0.1,0.8c0,0.6,0.1,1.2,0.2,1.8c1.3-0.9,0.5,0.9,1.7,1
					c0,0-0.1,0.4-0.1,0.7c-0.1,0.4-0.2,0.7-0.2,0.7l-0.6-0.6c0,0.6-0.2,1.2-0.3,1.8c-0.2,0.6-0.3,1.1-0.1,1.6l0.5-0.9
					c0,0-0.1,0.6-0.1,1.2c0,0.3-0.1,0.6-0.1,0.8c0,0.2-0.1,0.4-0.1,0.4s-0.1-0.3-0.2-0.7c0-0.2-0.1-0.3-0.1-0.5
					c0-0.1-0.1-0.2-0.1-0.2c-0.2,0.3-0.3,0.5-0.5,0.5c-0.2,0.1-0.3,0.1-0.5,0.1c-0.3,0-0.4,0.1-0.3,0.9c0.1-0.2,0.1,0.1,0.1,0.6
					c0.1,0.4,0.2,1,0.5,1.3c0,0,0,0,0,0c-0.2,0.3-0.4,0.6-0.6,0.9c-0.1,0.3-0.2,0.7-0.1,1.2c0.4,0.3,1.3,0,1.6,0.1
					c-0.3,0.1-0.4,0.4-0.6,0.7c-0.1,0.3-0.2,0.7-0.3,1c-0.1,0.4-0.2,0.7-0.3,1c-0.2,0.3-0.4,0.6-0.6,0.7c0.3-0.2,0.9-0.1,1,0
					l-0.9,0.4c0.2,0.6,0.3,0.7,0.8,0.7c-0.1,0.9-0.4,0.7-0.7,0.5c-0.3-0.2-0.5-0.3-0.4,0.8c0.1-0.1,0.2,0,0.4-0.3c0,1-0.4,2-0.7,2.9
					c-0.4,0.9-0.7,1.8-0.8,2.7c0.5,0.4,0.7,0.1,0.9-0.3c0.2-0.4,0.3-0.8,0.7-0.3c-0.2,0.7-0.6,1.3-0.9,1.9c-0.4,0.6-0.7,1.3-1.1,1.9
					c-0.4,0.6-0.7,1.2-1.1,1.8c-0.2,0.3-0.3,0.6-0.5,0.9c-0.1,0.3-0.2,0.6-0.4,0.9c0,0,0-0.1,0-0.3c0-0.1,0-0.3,0-0.3
					c-0.8-0.2-0.9,0.4-0.8,1c0,0.3,0.1,0.7,0,1.1c-0.1,0.4-0.2,0.7-0.5,0.9c0.3-0.2,1,0,0.8,0c-0.6,1.8-2.1,3.2-4,5.2l0.5-0.1
					c-0.1,0.3-0.2,0.6-0.3,0.9c-0.1,0.3-0.3,0.6-0.5,0.9c-0.2,0.3-0.4,0.6-0.6,0.9c-0.2,0.3-0.4,0.6-0.5,0.8c-0.6,0-0.9,0.6-1.2-0.1
					c0,0.1,0,0.3,0,0.4c0,0.1,0,0.2-0.1,0.4c0,0.2-0.1,0.5-0.2,0.7c-0.1,0.2-0.2,0.4-0.3,0.6c-0.1,0.1-0.1,0.2-0.2,0.3
					c-0.1,0.1-0.1,0.2-0.2,0.3c-0.5,0.7-1.2,1.2-1.9,1.7c-0.3,0.2-0.7,0.5-1,0.7c-0.3,0.2-0.7,0.5-0.9,0.8c-0.1,0.1-0.3,0.3-0.4,0.4
					c-0.1,0.2-0.2,0.3-0.3,0.5c-0.2,0.3-0.4,0.7-0.5,1.2c0.3-0.3,0.9-0.4,0.7-0.1c0,0-0.1,0.1-0.3,0.3c-0.1,0.1-0.2,0.2-0.4,0.3
					c-0.1,0.1-0.3,0.2-0.4,0.3c-0.6,0.4-1.1,0.8-1.1,0.8c-0.3-0.7,0-0.6,0-1.4c-0.5-0.1-1.3,0.2-1.8,0.6c1.2-0.4,0.8,0.9,0.7,1.6
					c-0.1-0.2-0.4-0.3-0.5-0.5c0,0.5-0.1,0.7-0.3,0.7c-0.1,0-0.3-0.1-0.5-0.2c-0.4-0.2-0.8-0.5-1.3,0.4l0.3,0.2
					c-0.2,0.1-0.3,0.1-0.5,0.2c-0.2,0-0.4,0.1-0.5,0.1c-0.4,0.1-0.7,0.2-1,0.5c0.3,0.9,0.8-0.1,1.3,0.4c-0.2,0.2-0.5,0.2-0.8,0.3
					c-0.1,0-0.3,0-0.4,0.1c-0.2,0-0.3,0-0.5,0c-0.6,0.1-1.1,0.2-1.2,0.8c0.5-0.1,1-0.4,1.5-0.5c-0.1,0.7-0.3,1-0.4,1.3
					c-0.2,0.2-0.4,0.3-0.6,0.6l0.1-0.1c0,0-0.3,0.4-0.6,0.7c-0.2,0.2-0.3,0.4-0.4,0.5c-0.1,0.1-0.2,0.2-0.2,0.2s0.1-0.1,0.1-0.2
					c0.1-0.1,0.1-0.2,0.1-0.2c-0.6-0.3-1-0.3-1.4-0.3c-0.4,0-0.7,0.2-1,0.4c-0.3,0.2-0.6,0.4-1,0.6c-0.2,0.1-0.4,0.1-0.6,0.2
					c-0.2,0-0.5,0-0.8,0c0.6,0.1,0.9,0.2,1,0.2c0.2,0.1,0.2,0.2,0.2,0.3c0,0.2-0.3,0.4,0,0.8c-0.3,0.5-0.8,1.1-0.4,1.2
					c-0.6-0.1-0.8,0.2-1.1,0.5c-0.3,0.3-0.7,0.6-1.5,0.3c0,0.2-0.2,0.3-0.3,0.4c-0.2,0.1-0.3,0.3,0,0.6c-1.1,0.3,0-0.6-0.3-0.9
					c-1-0.1-1.8,0.6-2.7,1.3c-0.2,0.2-0.5,0.4-0.7,0.5c-0.3,0.2-0.5,0.3-0.8,0.4c-0.3,0.1-0.6,0.2-0.9,0.2c-0.3,0-0.7,0-1,0
					c-0.6,0-1,0-1.4,0c-0.4-0.1-0.8-0.2-1.1-0.3c-0.4-0.1-0.7-0.2-1.1-0.3c-0.4-0.1-0.8-0.1-1.3-0.1c-0.2,0.3,0,0.6,0.2,0.7
					c0.3,0.2,0.6,0.2,0.6,0.2c-0.9,0.8-1.7,0.9-2.8,0.8c0.3,0.2,0.1,0.5-0.1,0.9c-0.8,0.1-0.8-1-1.7-0.3c0.3,0.3,0.6,0.8,1.1,1
					c-1-0.1-2.1-0.5-3.1-0.5c-0.2,0.6,0.7,0.7,1.2,1c-0.3,0-0.6,0-1,0c-0.3,0-0.7,0-1-0.1c-0.7-0.1-1.2-0.3-1.5-0.7
					c0,0,0.2-0.1,0.3-0.2c0.2-0.1,0.3-0.2,0.3-0.2c-0.4,0-0.1,0.8,0.2,0.9c1.1,0.5,1.3-0.5,1.3-0.8l-0.7-0.1
					c0.1-0.5,0.3-0.7,0.6-0.8c0.3-0.1,0.7-0.1,1.1,0c0.8,0.1,1.8,0.4,2.5,0.2c0,0-0.2-0.3-0.4-0.6c-0.2-0.3-0.4-0.6-0.4-0.6
					s0.4,0.2,0.8,0.4c0.2,0.1,0.4,0.2,0.6,0.3c0.2,0.1,0.3,0.1,0.3,0.1c0.2-0.4,0.2-1.2-0.5-1.2c0.4-0.4,0.6-0.4,0.9-0.3
					c0.2,0.1,0.4,0.1,0.7-0.4c0.1-0.1,0-0.2-0.1-0.2l1,0.1c-0.3-0.2-0.1-0.9-0.6-0.6c0.4-0.3,0.7-0.4,1.1-0.5c0.3-0.1,0.7-0.1,1,0
					c0.6,0,1.1,0.1,1.2-0.5l-0.2,0c1.2-0.2,1.3,0,1.4,0.3c0.1,0.2,0.1,0.3,0.2,0.5c0.2,0.2,0.4,0.3,1,0.4c0,0,0.1-0.7,0.1-1.4
					c0.1-0.7,0.1-1.3,0.1-1.3l0.6,0.8c0.2-0.1,0.6-0.4,0.4-0.7c1.1,0.2,0,0.5,0.8,0.8c0.2-0.3,0.5-0.5,0.8-0.7
					c0.3-0.2,0.7-0.3,1-0.5c0.7-0.3,1.2-0.6,0.9-1.4c0.7,0.5-0.8,1,0.6,0.9c-0.2-0.8,0.1-0.9,0.6-1c0.5-0.1,1.1-0.1,1.4-0.7
					c-0.7-0.6-1.4,0.3-0.8-0.9c0.3,0.2,0.6,0.3,0.8,0.2c0.2-0.1,0.4-0.3,0.6-0.5c0.4-0.5,0.7-1.1,1.1-1.2c0.3,0.5,0.8,0.3,1.4,0
					c0.3-0.2,0.6-0.4,0.9-0.6c0.3-0.2,0.7-0.4,1.1-0.6c-0.2-0.1,0.3-0.7,1-1.3c0.6-0.7,1.4-1.5,1.8-2.1l-0.2-0.1
					c0.5,0.4,1,0.3,1.5,0c0.5-0.3,1-0.7,1.4-0.9c-0.5-0.5-0.8-0.6-1.5-0.4l0.7-0.6c0.4,0.1,0.8,0.1,1.3-0.3l-0.8-0.5
					c0.2-0.2,0.5-0.4,0.8-0.6c0.3-0.2,0.6-0.3,0.9-0.5c0.6-0.4,1.2-0.9,1.6-1.7c0.3,0.2,0.5,0.9,0.8,1.3c0.3,0.5,0.7,0.7,1.6,0.2
					c-0.3-0.4-0.8-0.9-1.3-0.7c0.2-0.1,0.6-0.2,0.7-0.5l-1,0c0.3-0.8,0.7,0.1,1.1-0.4c-0.5-0.4,0-0.6-0.5-0.9
					c-0.2,0.1-0.2,0.6-0.5,0.6c0.2-0.3,0.4-0.7,0.4-1c0.1-0.4,0.1-0.7,0-1c0.2,0.3,0.7,0.5,1,0.2c0.4-0.5,0.4-0.7,0.2-0.9
					c-0.2-0.2-0.4-0.3-0.3-0.7c0.5,0,0.7-0.9,1.5-0.4c0.2-0.3-0.1-0.6-0.2-0.9c0.2-0.1,0.4-0.3,0.6-0.5c0.2-0.2,0.5-0.5,0.7-0.7
					c0.4-0.4,0.8-0.7,1-0.1l0,0.2c0,0,0.1,0,0.1-0.1c0,0,0,0,0,0l0,0c0.3-0.2,0.5-0.4,0.7-0.6c0.2-0.2,0.4-0.5,0.5-0.7
					c0.2-0.2,0.3-0.5,0.4-0.8c0.1-0.3,0.2-0.5,0.3-0.8c0.2-0.6,0.4-1.1,0.6-1.7c0.1-0.3,0.2-0.5,0.4-0.8c0.1-0.1,0.1-0.2,0.2-0.4
					c0.1-0.1,0.2-0.2,0.2-0.4l-0.3-0.1c0.5-0.5,0.8-1.2,1.2-1.8c0.2-0.3,0.4-0.6,0.6-0.8c0.2-0.2,0.4-0.5,0.7-0.6
					c0.2-0.4-0.2-1.1-0.6-1.1c0.3-0.4,0.5-0.6,0.7-0.9c0.1-0.2,0.2-0.3,0.2-0.6c0-0.2,0.1-0.5,0.1-0.9c-0.2,0.2-0.3,0.3-0.4,0.3
					c-0.1,0-0.1,0-0.1-0.1c0-0.1,0,0-0.2,0.6c0-0.3,0.1-0.6,0.1-0.9c0-0.2,0-0.5,0.1-0.7c0-0.2,0.1-0.4,0.3-0.6
					c0.1-0.2,0.4-0.4,0.7-0.7c-0.5,0.1-0.6-0.2-0.6-0.6c0-0.4,0.2-0.9,0.3-1.2c0,0,0.1,0.3,0.2,0.5c0.1,0.3,0.1,0.5,0.1,0.5
					c0.3-0.6,0.4-1.3,0.5-1.9l-1.1,0.1c-0.1-0.4-0.1-0.7,0-1c0-0.3,0.1-0.6,0.3-0.9c0.1-0.3,0.3-0.5,0.4-0.8
					c0.2-0.3,0.3-0.5,0.5-0.8c0.2-0.3,0.3-0.5,0.4-0.8c0.1-0.3,0.2-0.5,0.3-0.8c0-0.3,0-0.5,0-0.8c0-0.1-0.1-0.3-0.2-0.4
					c-0.1-0.1-0.2-0.3-0.3-0.4c0.4-0.3,0.5,0.1,0.6,0.5c0.1,0.4,0.2,0.8,0.7,0.5c0-0.2,0-0.3,0-0.5c0-0.2-0.1-0.3-0.1-0.5
					c-0.1-0.3-0.3-0.6-0.5-0.9c-0.3-0.6-0.7-1-0.7-1.2c-0.2-0.9,0.2-1.2,0.7-1.6c0.2-0.2,0.4-0.4,0.6-0.6c0.1-0.1,0.1-0.3,0.2-0.4
					c0-0.2,0-0.4,0-0.6c0.4,0.2,1.4,0.5,1.8-0.8c0-0.3-0.1-0.6-0.3-0.8c-0.2-0.2-0.4-0.3-0.6-0.4c-0.4-0.1-0.9,0-1,0.4
					c0,0.3,0.1,0.4,0.2,0.4c-0.2,0.4-0.3,0.9-0.7,0.4l0.4-0.1c-0.1-0.2-0.2-0.4-0.2-0.6c-0.1-0.2-0.1-0.5-0.2-0.7
					c-0.1-0.4-0.3-0.8-0.6-0.6c0.4-0.9,0.6-0.4,0.8,0.3c-0.3-0.8-0.3-1.4-0.3-2c0-0.6,0-1.2-0.2-2c0.2,0.2,0.7,0.5,0.7,0.2
					c-0.1-0.3-0.1-0.5-0.1-0.7c0-0.2,0-0.3,0-0.5c0-0.2,0.1-0.4,0.3-0.4c0.2-0.2,0.6-0.3,0.6-1.1c-0.7-0.9-1.3,0.5-1-1.2
					c-0.5-0.9-1-0.1-1.3,0.3c0.1-0.2,0.1-0.4,0.1-0.6c0-0.2,0-0.3,0-0.5c-0.1-0.3-0.2-0.6-0.3-0.9c-0.2-0.3-0.3-0.5-0.5-0.8
					c-0.2-0.2-0.3-0.4-0.4-0.6l-0.2,0.8c0.1-0.5,0-0.8,0-1.2l0.8,0.3c-0.1-0.2-0.2-0.4-0.3-0.5c-0.1-0.1-0.2-0.2-0.3-0.2
					c0.2-0.3,0.5-0.2,0.9-0.3c0.3,0,0.7-0.1,0.9-0.7c-0.3-0.3-0.2-0.7-0.3-1.1c-0.1-0.4-0.2-0.8-0.7-0.7c0.4,0.9,0.1,0.9-0.2,0.9
					c-0.2,0-0.3,0-0.5,0.1c-0.1,0.1-0.2,0.3-0.2,0.7c0.1-0.3,0-0.7-0.3-1.1c-0.1,0-0.2,0.1-0.2,0.2c-1.3-1.5,0.9-1.1,0.4-2.9
					c-0.5,0.4-1.1-0.1-1.1-0.4c0.2,0.7,1,0.1,1.2-0.7c-0.4-0.5-0.4-0.9-0.4-1.1c0-0.3,0.2-0.5,0-0.8l0.4,0.6c0.5-0.4,0.2-1,0.1-1.8
					c-0.4,0.1,0,0.8-0.3,0.6c0.1-0.2,0.1-0.3,0.1-0.4c0-0.1,0-0.3-0.1-0.4c-0.1-0.2-0.4-0.4-0.6-0.7c-0.5-0.4-1-0.9-1-1.6
					c-0.6-0.4-1,0.4-1.4,0c0-0.8-0.3-1.1-0.7-1.4c-0.1-0.1-0.2-0.1-0.3-0.2c-0.1-0.1-0.2-0.2-0.2-0.3c-0.2-0.2-0.3-0.5-0.3-0.9
					c0.9,0,0.8,0.2,0.9-1.1c0,0,0,0,0,0.1c0,0.1,0,0.2,0.1,0.3c0.1,0.2,0.1,0.5,0.2,0.9c0.1,0.3,0.2,0.6,0.2,0.9
					c0.1,0.2,0.1,0.4,0.1,0.4s0-0.1,0.1-0.3c0-0.2,0.1-0.4,0.1-0.7c0.1-0.5,0.1-1,0.1-1c0.2,0.3,0.3,0.8,0.3,1.1
					c0.1,0.4,0.1,0.7,0.3,0.9c0.2-1,0.1-0.8,0.8-0.7c-0.4-0.1-0.6-0.3-0.7-0.6c-0.1-0.2-0.2-0.5-0.2-0.8c0-0.3,0-0.6-0.1-0.9
					c-0.1-0.3-0.3-0.5-0.6-0.7l-1.6,0.9c-0.4-0.3-0.6-0.6-0.8-1c-0.2-0.4-0.3-0.8-0.4-1.3c-0.1-0.4-0.2-0.9-0.4-1.4
					c-0.2-0.5-0.5-0.9-0.9-1.3c0,0,0.2,0.1,0.3,0.2c0.2,0.1,0.3,0.2,0.3,0.2c0.2-0.3,0.1-0.7-0.2-1c-0.3-0.3-0.6-0.7-0.7-1.1
					c-0.5,0.4-0.9,0.2-1.4,0.2c0.2-0.1-0.1-0.5-0.3-0.9c-0.2-0.4-0.4-0.9,0-1.4c0,0-0.3-0.1-0.7-0.1c-0.3-0.1-0.7-0.1-0.7-0.1
					c-0.1-0.1-0.2-0.2-0.2-0.2c-0.1-0.1-0.1-0.2-0.2-0.2c-0.1-0.2-0.2-0.3-0.2-0.5c-0.1-0.3-0.1-0.7-0.1-1c0-0.7-0.1-1.4-0.8-2
					c0,0.4-0.3,0.6-0.4,0.8c-0.2,0.2-0.3,0.4,0,1c-0.4-0.4-0.9-0.7-0.6-1c-0.1,0-0.2-0.1-0.3-0.2c-0.1-0.2-0.2-0.4-0.3-0.6
					c-0.1-0.2-0.2-0.4-0.4-0.6c-0.1-0.2-0.3-0.2-0.5-0.2c0-0.4,0.3-0.9-0.2-1.3c-0.1,0.1-0.2,0.2-0.2,0.2c0.2-0.2-0.6-1,0.3-1.2
					c-0.3,0.1-0.7,0-1,0c-0.3,0-0.6-0.1-0.9-0.3c-0.6-0.3-1.1-0.6-1.6-1c-0.3-0.2-0.5-0.3-0.8-0.5c-0.3-0.2-0.5-0.3-0.8-0.4
					c-0.3-0.1-0.5-0.2-0.8-0.2c-0.1,0-0.3,0-0.4,0c-0.1,0-0.3,0.1-0.4,0.1c-0.3-0.2-0.6-0.4-0.9-0.5c-0.2-0.1-0.3-0.2-0.5-0.3
					c-0.2-0.1-0.3-0.2-0.5-0.2c-0.6-0.3-1.3-0.6-1.9-0.8c0,0.2-0.1,0.3,0.1,0.3c-0.4,0-0.7-0.1-0.8-0.3c-0.2-0.2-0.2-0.4-0.3-0.7
					c-0.1-0.3-0.2-0.5-0.4-0.7c-0.2-0.2-0.5-0.3-1-0.2c-1.2,0.8,0.9,0.8,0.2,1c-0.2,0.5-0.4,0.7-0.7,0.7c-0.1,0-0.3,0-0.4-0.1
					c-0.1,0-0.3-0.1-0.5-0.2c-0.3-0.2-0.7-0.3-1-0.4c-0.4-0.1-0.7-0.1-1.1,0.2l0.3,0.2c-0.3,0.1-0.5,0.1-0.8,0
					c-0.3-0.1-0.6-0.2-0.9-0.4c-0.2-0.1-0.3-0.2-0.5-0.3c-0.2-0.1-0.3-0.2-0.5-0.2c-0.4-0.1-0.7-0.3-1.2-0.3c0,0,0.1,0.2,0,0.3
					c-0.5-0.6-1.3-1-2.1-1.3c-0.9-0.3-1.8-0.5-2.6-0.7c0.5,0.8,0.7,0.5,0.4,1.3c-0.7-0.1,0.3-1.3-1.2-1.6c-0.5,0.4-1.5,0.8-1.6,1.7
					c0,0,0.3,0,0.7,0c0.2,0,0.3,0,0.5,0c0.1,0,0.2,0,0.2,0c-0.3,0.6-0.8,0.6-1.2,0.4c-0.4-0.1-0.9-0.4-1.2-0.3l0.1,0.5
					c-0.5,0-0.9-0.1-1.2-0.3c-0.3-0.1-0.6-0.3-0.9-0.5c-0.5-0.3-1.1-0.6-2.2-0.5l0.2-0.4c-1.3-1.2-1,0.7-2.2-0.1l-0.3,1.3
					c-0.4-0.1-1.1-0.4-1.9-0.6c-0.8-0.2-1.7-0.5-2.4-0.5c0.9,0.9,2.6,1.2,3.7,1.7c-0.4,0-1.1,0-1.7,0c-0.6-0.1-1.2-0.2-1.4-0.5
					c0.3,0.1,0.8,0.4,1,0.2c-0.5-0.5-1.1-0.8-1.8-1c-0.7-0.2-1.4-0.2-2.2-0.1c0.3,1.2-0.7,1.5-1.9,1.7c-0.6,0.1-1.2,0.2-1.8,0.4
					c-0.5,0.2-1,0.5-1.2,1c-0.4-0.1-0.7-0.1-1.1-0.1c-0.3,0-0.7,0-1,0.1c-0.3,0.1-0.7,0.1-1,0.2c-0.3,0.1-0.7,0.2-1,0.3
					c-0.7,0.2-1.4,0.5-2.1,0.7c-0.4,0.1-0.7,0.2-1.1,0.3c-0.4,0.1-0.7,0.2-1.1,0.3c0.2-0.5,0.2-0.8,0.1-0.9
					c-0.1-0.1-0.2-0.1-0.4-0.1c-0.3,0.1-0.8,0.2-0.9-0.8c-0.8,0.1-1,0.2-1.1,0.3c0,0-0.5,0.4-0.9,0.9c-0.2,0.2-0.5,0.4-0.6,0.6
					c-0.2,0.2-0.3,0.3-0.3,0.3c-0.4,0.7,0.8,0.2,0.8,0.7c-1.5,0.6-0.4,1-1.3,1.8c0-0.7-0.8-0.8-1.6-0.3l1-1.2
					c-1.2-0.2-1.6,0.4-1.9,0.9c-0.3,0.6-0.7,1.1-1.9,1l0.9,0.3c-0.6,0-1.6,0.4-2.6,0.6c-0.3,0.1-0.5,0.1-0.8,0.2
					c-0.3,0-0.5,0.1-0.8,0.1c-0.5,0-1-0.1-1.4-0.3c-0.1,0.3-0.1,0.9,0.4,0.8c-0.6,0.3-1.3,0.5-2,0.8c-0.4,0.1-0.7,0.2-1.1,0.3
					c-0.4,0.1-0.7,0.2-1.1,0.3c-0.7,0.2-1.4,0.4-2,0.7c-0.6,0.3-1.1,0.7-1.4,1.1l0.4,0.3c-0.5,0.1-1.2-0.3-1.5,0.4
					c0.1,0.2,0.4,0.3,0.2,0.4c-0.2,0-0.6,0-1,0.1c-0.4,0.1-0.8,0.2-1,0.5l0.8,0.1c-0.2,0.2-0.5,0.4-0.7,0.6
					c-0.2,0.2-0.5,0.3-0.7,0.4c-0.3,0.1-0.5,0.2-0.8,0.3c-0.3,0.1-0.5,0.1-0.8,0.2c-1.1,0.2-2.1,0.3-3.1,0.9
					c0.4,0.5,0.3,1.2,0.1,1.9c-0.1,0.3-0.3,0.7-0.5,1c-0.2,0.3-0.4,0.6-0.5,0.8l0.2,0.1c-0.3,0.3-0.5,0.5-0.8,0.8
					c-0.1,0.1-0.3,0.2-0.4,0.3c-0.1,0.1-0.1,0.1-0.2,0.2c-0.1,0.1-0.1,0.1-0.2,0.2c-0.3,0.2-0.5,0.4-0.8,0.6
					c-0.1,0.1-0.3,0.2-0.4,0.3c-0.1,0.1-0.3,0.2-0.4,0.3c-0.6,0.3-1.2,0.7-1.7,1c-0.3,0.2-0.6,0.4-0.9,0.6c-0.3,0.2-0.6,0.4-0.8,0.7
					c0,0.3,0,0.6-0.1,0.9c-0.1,0.3-0.2,0.6-0.3,0.9c-0.1,0.2-0.2,0.3-0.2,0.5c-0.1,0.2-0.2,0.3-0.3,0.5c-0.2,0.3-0.4,0.7-0.6,1
					c-0.8,1.4-1.7,2.9-2,4.4c0-0.5-1-0.5-1.4-0.1c0,0.4-0.4,0.7-0.7,1c-0.3,0.3-0.4,0.5,0.2,0.8l0.1-0.2c0.2,0.3,0.3,0.5,0.4,0.8
					c0,0.3,0,0.5-0.1,0.8c-0.1,0.3-0.2,0.5-0.3,0.8c-0.1,0.3-0.2,0.5-0.3,0.8l-1.6-0.5c0.3,0.9,0.3,1.7,0,2.5
					c-0.1,0.4-0.2,0.8-0.4,1.2c-0.1,0.2-0.2,0.4-0.3,0.6c-0.1,0.2-0.2,0.4-0.3,0.6c-0.2,0.4-0.4,0.8-0.5,1.1
					c-0.1,0.4-0.2,0.7-0.3,1.1c0,0.2-0.1,0.3-0.1,0.5c0,0.2,0,0.3,0.1,0.5c0.1,0.3,0.2,0.6,0.4,0.8c-0.1,0.1-0.2,0.3-0.3,0.5
					c-0.1,0.2-0.2,0.3-0.3,0.5c-0.2,0.4-0.3,0.7-0.6,1l0.9,0.1c0,0.5,0,0.9,0,1.2c0,0.2,0,0.4,0,0.6c0,0.2,0,0.4,0,0.5
					c0,0.4,0,0.7-0.1,1.2c0,0.4-0.1,0.9-0.1,1.5l0.7-0.4c0,0.2,0,0.3-0.1,0.4c-0.1,0.1-0.2,0.2-0.3,0.4c-0.2,0.2-0.6,0.4-0.9,0.6
					c-0.3,0.2-0.7,0.4-0.9,0.6c-0.3,0.2-0.4,0.5-0.4,0.8c0,0,0.3,0.1,0.7,0.1c0.3,0.1,0.7,0.1,0.7,0.1c0,0.3,0,0.6,0.1,0.8
					c0.1,0.3,0.1,0.5,0.2,0.8l0.1,0.4c0,0.1,0.1,0.3,0.1,0.4c0.1,0.3,0.2,0.5,0.3,0.8c0,0.1,0.1,0.3,0.1,0.4l0,0.2l0.1,0.2
					c0.1,0.3,0.1,0.5,0.1,0.8c0,0.1,0,0.3,0,0.4c0,0.1,0,0.1,0,0.2c0,0.1,0,0.1,0,0.2c0,0.3-0.1,0.6-0.1,0.9
					c0.2-0.1,0.5-0.3,0.5-0.6c0.1,0.2,0.2,0.6,0.4,1c0.2,0.4,0.4,0.8,0.5,1.2c0.1,0.4,0.2,0.7,0.1,1c-0.1,0.3-0.3,0.5-0.8,0.6
					c0.3-0.1,0.5,0,0.6,0.2c0.1,0.1,0.1,0.2,0.2,0.4c0,0.1,0.1,0.3,0.1,0.5c0,0.2,0,0.4,0.1,0.6c0,0.2,0,0.4,0,0.6
					c0,0.4,0,0.8,0,1.2l0.7-0.6c-0.3,0.7-0.5,1.1-0.6,1.5c-0.1,0.4,0,0.8,0.2,1.5c0.3,0.2,0.8-0.1,0.3-0.4c0.5,0.4,0.4,0.7,0.4,1
					c0,0.3-0.1,0.7,0.5,1.2l0.2-0.8c0.2,0.2,0.3,0.4,0.4,0.6c0.1,0.2,0.1,0.3,0.1,0.4c0,0.3-0.1,0.5-0.2,1c0.1,0.4,0.5,0.8,0.9,1.1
					c0.5,0.3,1,0.4,1.4,0.2c-0.1,0.2-0.2,0.6-0.2,0.9c0,0.3,0.2,0.7,0.5,0.9c0.3-0.1,0.3-0.4,0.3-0.6c0.4,0.3,0.7,0.6,1,0.9
					c0.2,0.3,0.4,0.7,0.5,1c0.1,0.3,0.3,0.6,0.5,0.9c0.1,0.1,0.2,0.2,0.4,0.3c0.1,0.1,0.3,0.1,0.5,0.2c0.2-0.2,0.4-0.2,0.5-0.2
					c-0.6-0.5-1.1-1-1.5-1.4c-0.4-0.3-0.6-0.5-0.6-0.5c0.3-0.3,0.7-0.2,1-0.3c0.3-0.1,0.6-0.2,0.7-1c0.1,0.3,0.1,0.6,0.2,1
					c0.1,0.4,0.2,0.8,0.3,1.1c0.1,0.4,0.3,0.7,0.5,1c0.2,0.3,0.5,0.5,0.7,0.7c0.1,0,0.2,0,0.3-0.1l0-0.2c0.3,0.1,0.4,0.3,0.5,0.6
					c0.4,0.2,0.6,0.2,0.9,0.5c0.3-0.2,0.6-0.1,0.9,0.2c0.3,0.2,0.7,0.6,0.9,0.8c-0.6,0.7,0.2,1.1-0.9,1.2c0.1,0,0-0.2-0.3-0.5
					c-0.1-0.1-0.1-0.2-0.2-0.2c0,0,0,0.1,0,0.1c-0.3-0.3-0.7-0.6-1.2-1c0.1,0.7,0.3,1.3,1.2,1.4c-0.1,0.7-0.2,1.4-0.1,1.7
					c1.5-0.5,3.3-0.1,3.9-0.6c0.7,0.8,1.6,1.4,2.4,2.2c0.4,0.4,0.8,0.8,1.1,1.2c0.3,0.4,0.5,0.9,0.6,1.4c0.4,0.5,0.8-0.1,1.1-0.3
					c-0.2-0.3-0.6-0.5-0.6-0.7c0.2,0.2,0.5,0.4,0.8,0.7c0.3,0.2,0.6,0.4,0.9,0.6c0.6,0.4,1.1,0.9,1,1.5c0.8,0,0.7-0.3,0.6-0.5
					c0-0.2-0.1-0.3,0.8,0.2l-0.1-0.4c0.5,0,1,0,1.4,0.1c0.4,0.1,0.8,0.3,1.2,0.5c0.4,0.2,0.7,0.5,1,0.8c0.3,0.3,0.7,0.6,1,0.9
					c0.3,0.3,0.7,0.6,1,0.8c0.2,0.1,0.4,0.3,0.6,0.4c0.2,0.1,0.4,0.2,0.6,0.3c0.8,0.3,1.8,0.5,3,0.2c-0.3,0.1-0.5,0.1-0.6,0.3
					c0.6,0,1.3,0.1,1.9,0.2c0.6,0.1,1.2,0.2,1.9,0.4c0.3,0.1,0.6,0.2,0.9,0.2c0.3,0.1,0.6,0.2,0.9,0.2l0.9,0.3l0.5,0.1l0.5,0.1
					c0.6,0.2,1.2,0.3,1.9,0.4c0.6,0.1,1.3,0.2,1.9,0.3c0.3,0,0.6,0.1,0.9,0.1c0.3,0,0.6,0,1,0c0.6,0,1.3-0.1,1.9-0.2
					c1.4-0.2,1.5,0.6,2.3,1.3l0.4-0.9l1.3,1.3c1,0.5,2,0,3-0.4c1-0.4,2.1-0.8,3.3,0.1l-0.4,0.6c1-0.1,3,0.6,2.9-0.2
					c0.1,0.1,0.3,0.7,0.7,0.4l0.1-0.5l2.3,1c1.8-0.3-0.2-2,2.5-2c1,0.2,2.7,1.6,2.3,1.9c-0.4,0-1,0.3-1.1,0.8l0.9,0.3
					c0.1,1.5,0.7,3.1-1.5,4l-1.5-1l-0.5,0.7l1.3,0.1c-0.8,0.6-1.2,0-1.7-0.4c-0.1,0.4-0.4,0.6-0.7,0.8l-1.4-1.5
					c-0.2,0.6,0.6,1.2-0.4,1.5c-0.7-0.7,0.8-1.3-0.4-1.8c-0.8,0.6-0.6,1.2-1.4,0.6c-0.1,0.4,0,0.6,0.4,0.8c-0.8-0.5-2-0.3-2.4-1.1
					c-0.8,0.8-2.6-0.4-2.6,1c-0.2-0.4-1.3-1.2-2-1.3c0.6,0.9-0.1,0.9-0.9,0.8c-0.8,0-1.7-0.1-1.6,0.8c-0.4-0.8-1.3-1.1-2.2-1.3
					c-0.5-0.1-1-0.2-1.5-0.3c-0.5-0.1-1-0.3-1.4-0.6c0.1,0.1,0.2,0.4,0.4,0.3c-1,0-1.3,0.4-2,0.6c0.1-1.3-1.4-1.8-2.1-2.7
					c-0.7,0.5-0.6,0.9-0.3,1.3c0.2,0.4,0.6,0.8,0.3,1.4c0.1-0.5-0.4-0.8-0.8-1.1c-0.4-0.3-0.8-0.6-0.6-1c-1,0.6-0.8,0.2-1.5,1.2
					c0.1-1.6-0.8-0.4-1.4-1.5c-0.7,0.2-0.9,0.6-1,0.8c-0.1,0.1-0.1,0.1-0.3,0.1c-0.1,0-0.3-0.1-0.7-0.3c-0.4,0.2-0.3,0.4-0.1,0.7
					c0.1,0.1,0.2,0.2,0.3,0.3C408,707.8,408.1,707.9,408.1,707.9z M377.4,690.2C377.4,690.3,377.4,690.3,377.4,690.2
					c0.2,0.2,0.4,0.4,0.5,0.5C377.8,690.7,377.6,690.5,377.4,690.2z M375.2,688.2c0.3,0.2,0.6,0.6,0.9,0.9c0.3-0.2,0.4-0.5,0.2-0.7
					c0,0.1-0.2,0.1-0.4,0C375.8,688.4,375.5,688.2,375.2,688.2z M383.8,687.5c-0.2-0.4-0.5-0.3-0.6-0.2c0.1,0.1,0.3,0.3,0.5,0.5
					c0,0,0,0.1,0,0.1C383.7,687.8,383.8,687.6,383.8,687.5z"/>
				<path class="st8" d="M383.7,688.9c0,0.1,0,0.1,0.1,0.2c-0.1,0-0.2,0-0.3,0c0-0.1,0-0.2,0.1-0.3
					C383.6,688.8,383.6,688.8,383.7,688.9z"/>
				<path class="st8" d="M479,686.2L479,686.2c0,0,0,0.1,0.1,0.1C479.1,686.3,479.1,686.3,479,686.2z"/>
				<polygon class="st8" points="362.1,649.7 362.3,649.8 362.1,650 				"/>
				<path class="st8" d="M471,700c0,0.1,0,0.2,0,0.3C470.9,700.2,470.9,700.1,471,700z"/>
				<path class="st8" d="M465.6,704.4l-0.6,0.8C465.2,704.8,465.4,704.6,465.6,704.4z"/>
				<path class="st8" d="M461.3,707.6c-0.1-0.1-0.2-0.2-0.3-0.3c0,0,0,0,0,0L461.3,707.6z"/>
				<path class="st8" d="M490.1,633.1c0-0.1,0-0.1,0-0.2C490,632.4,490.1,632.7,490.1,633.1z"/>
				<path class="st8" d="M491.2,658.6c0.2-0.3,0.4-0.5,0.5-0.8C491.7,658.3,491.7,658.6,491.2,658.6z"/>
				<path class="st8" d="M474.8,608.1C474.8,608.1,474.8,608.1,474.8,608.1c-0.1,0-0.1-0.1-0.2-0.1L474.8,608.1z"/>
				<path class="st8" d="M491.7,656.6c0.2,0.5,0.1,0.8,0,1.2C491.6,657.4,491.5,657,491.7,656.6z"/>
				<path class="st8" d="M439.4,715.8l-0.3,0.1c0-0.1,0-0.1-0.1-0.1L439.4,715.8z"/>
				<path class="st8" d="M439.1,715.7l-0.3-0.1C438.9,715.7,439.1,715.6,439.1,715.7z"/>
				<path class="st8" d="M438.2,715.5c0,0,0.2,0,0.3,0.1c0.1,0,0.2,0,0.2,0.1c0.1,0,0.1,0,0.1,0
					C438.6,715.7,438.3,715.8,438.2,715.5z"/>
				<path class="st8" d="M446.4,713.9l0.2,0.3C446.5,714.1,446.4,714,446.4,713.9z"/>
				<path class="st8" d="M448.5,713.4c-0.5,0.2-1.1,1-1.8,1l-0.1-0.2c0.2,0.2,0.6-0.1,0.9-0.4C447.8,713.5,448.2,713.2,448.5,713.4z
					"/>
				<path class="st8" d="M455.2,706.4c0,0-0.4,0.2-0.7,0.5c-0.2,0.1-0.4,0.2-0.5,0.3c-0.1,0.1-0.2,0.1-0.2,0.1
					c0.1-0.4,0.3-1-0.4-0.8c0.4-0.4,0.6-0.6,0.7-0.6c0.1,0,0.1,0.1,0.1,0.3C454.1,706.5,454.2,707,455.2,706.4z"/>
				<path class="st8" d="M459.6,703.5c-0.9,0.3-0.2-0.4-0.4-0.6C459.8,702.9,460,702.9,459.6,703.5z"/>
				<path class="st8" d="M483.9,675.4l-0.8-0.2C483.5,674.6,483.4,675.3,483.9,675.4z"/>
				<polygon class="st8" points="490.2,669.5 490.5,670.4 489.7,670.5 				"/>
				<polygon class="st8" points="485.4,664 485.3,664.3 485.8,663.2 				"/>
				<path class="st8" d="M464,610.4l0.6-0.8c0.2,0.2,0.1,0.5,0,0.8c-0.1,0.1-0.2,0.2-0.3,0.2C464.3,610.6,464.2,610.6,464,610.4z"/>
				<path class="st8" d="M437.8,605.6c-0.3,0.5-1.1,0.9-1.6,0.4C436.9,605.9,437.5,605.5,437.8,605.6z"/>
				<polygon class="st8" points="371.9,644.6 372.4,644.3 371.8,645.1 				"/>
			</g>
		</g>
		<g>
			<g>
				<path class="st8" d="M558.1,594.2c0.2,0.3,0.1,0.9-0.4,0.8l-0.5-1L558.1,594.2z"/>
				<path class="st8" d="M554.5,596.5c-0.3-0.2-0.7-0.5-1-0.9c-0.3-0.4-0.4-0.8-0.3-1.3c0.4,0.5,0.6,0.6,0.8,0.7
					c0.2,0.1,0.5,0.3,0.9,0.9c0.6,0.1,0.9-0.4,0.8-0.8c0.1,0.1,0.3,0,0.5,0c0.2,0,0.5,0,0.6,0.3c-0.7,0.8-1.5,1-2.6,0.4
					C554.2,596,554.5,596.3,554.5,596.5z"/>
				<path class="st8" d="M511.7,624.2l0.1-0.3C511.8,624,511.8,624.1,511.7,624.2z"/>
				<path class="st8" d="M503,654.5c0-0.2,0.1-0.3,0.2-0.3C503.1,654.4,503.1,654.6,503,654.5z"/>
				<path class="st8" d="M504.2,659.9c0-0.1-0.1-0.2-0.1-0.3C504.2,659.7,504.3,659.8,504.2,659.9z"/>
				<path class="st8" d="M511.7,624.2c0,0,0,0.2-0.1,0.4c0,0.2-0.1,0.5-0.1,0.5C511.2,625,511.5,624.6,511.7,624.2z"/>
				<path class="st8" d="M546.7,595.2c0.2,0,0.4,0.1,0.5,0.2c-0.2,0-0.3,0-0.5,0C546.7,595.3,546.7,595.3,546.7,595.2z"/>
				<path class="st8" d="M521.5,614.1l0.2-0.2c0.1,0,0.3,0.1,0.4,0.2c0,0-0.2,0-0.3,0C521.7,614.1,521.5,614.1,521.5,614.1z"/>
				<path class="st8" d="M530.1,607.8c-0.2,0.2-0.7-0.6-1-0.8c0.3,0.2,0.6,0.3,0.8,0.2C530,607.3,530.1,607.5,530.1,607.8z"/>
				<path class="st8" d="M545.1,599.4c0,0,0.1,0,0.2,0c0.1,0,0.2,0,0.2,0C545.4,599.4,545.3,599.4,545.1,599.4z"/>
				<path class="st8" d="M516.3,619.8c0.1,0.1,0.2,0.2,0.2,0.3C516.4,620,516.4,619.9,516.3,619.8z"/>
				<path class="st8" d="M563.6,600.4c0,0.1,0,0.1,0,0.2C563.6,600.5,563.5,600.4,563.6,600.4z"/>
				<path class="st8" d="M550.4,604.2l0.2,0.1c0,0.2,0,0.3,0,0.5L550.4,604.2z"/>
				<path class="st8" d="M506.8,669.3C506.8,669.2,506.8,669.2,506.8,669.3C506.8,669,506.8,669.1,506.8,669.3z"/>
				<path class="st8" d="M577.3,699.7c-0.4,0.5,0.1,0.7,0.5,0.8c0.4,0.2,0.8,0.4,0.1,1c0-0.2-0.4-0.4-0.7-0.7
					C576.9,700.5,576.7,700.1,577.3,699.7z"/>
				<path class="st8" d="M546.4,595.4c-0.2,0-0.3,0.1-0.5,0.1C546.2,595.4,546.3,595.4,546.4,595.4z"/>
				<path class="st8" d="M577.9,701.5L577.9,701.5l-0.1,0.1C577.8,701.6,577.8,701.6,577.9,701.5z"/>
				<path class="st8" d="M515.5,689.3c-0.2,0.1-0.3,0.1-0.4,0.1C515.2,689.3,515.3,689.3,515.5,689.3z"/>
				<path class="st8" d="M506.6,675.2l0.3,0.4C506.7,675.5,506.7,675.3,506.6,675.2z"/>
				<path class="st8" d="M520.4,696.3c0.2,0.1,0.4,0,0.5,0.3c-0.1,0-0.1,0-0.1,0C520.8,696.5,520.7,696.3,520.4,696.3z"/>
				<path class="st8" d="M527.9,700.9c-0.1,0-0.1,0.1-0.2,0.1c-0.1-0.1-0.2-0.1-0.2-0.2L527.9,700.9z"/>
				<path class="st8" d="M593,606.4c-0.3,0.2-0.5,0.4-0.7,0.6C592.7,606.4,591.4,605.7,593,606.4z"/>
				<path class="st8" d="M546.8,595.7c-0.1-0.2-0.2-0.3-0.4-0.3c0.1,0,0.2,0,0.3,0C546.8,595.5,546.9,595.6,546.8,595.7z"/>
				<path class="st8" d="M516.2,702c0,0,0.4,0.2,0.7,0.5c0.2,0.1,0.4,0.2,0.5,0.3c0.1,0.1,0.2,0.1,0.2,0.1
					C517.2,702.8,516.7,702.4,516.2,702z"/>
				<path class="st8" d="M627.5,663.5l0.2-0.3C627.7,663.3,627.7,663.4,627.5,663.5z"/>
				<path class="st8" d="M521.8,705.9c0.4-0.1,0.8-0.1,1.1-0.1c0,0.1,0.1,0.2,0.1,0.3L521.8,705.9z"/>
				<path class="st8" d="M592.3,607C592.3,607,592.3,607,592.3,607C592.3,607,592.3,607,592.3,607z"/>
				<path class="st8" d="M582.8,602.1c1.5,0.3,0.4,1.3,0.6,2c1.7,0.7,1-0.7,1.7-1.1c0.1,0.1,0.3,0.2,0.4,0.2
					c0.1,0.1,0.2,0.2,0.3,0.3c0.2,0.2,0.4,0.4,0.6,0.6c0.4,0.4,0.7,0.8,1.1,0.9c0.1-0.2,0.3-0.2,0.2-0.5c0.2,0.3,0.5,0.5,0.9,0.7
					c0.4,0.2,0.8,0.3,1.2,0.5c0.2,0.1,0.4,0.2,0.6,0.2c0.2,0.1,0.4,0.2,0.6,0.3c0.4,0.2,0.7,0.5,0.9,0.9c0.1-0.1,0.2-0.1,0.3-0.2
					c-0.4,0.5-0.6,1.1-0.7,1.5c0.3,0.1,0.5,0.4,0.8,0.6c0.2,0.2,0.4,0.2,0.7-0.1c-0.4-0.1-0.3-0.4-0.4-0.7c0,0,0.1,0.1,0.3,0.3
					c0.1,0.1,0.3,0.3,0.3,0.3c1-0.8-0.8-0.7-0.5-1.5c0.3,0.2,0.6,0.4,0.9,0.7c0.3,0.2,0.6,0.5,0.9,0.7c0.3,0.2,0.6,0.4,0.8,0.6
					c0.3,0.2,0.5,0.3,0.8,0.3c0.3-0.5-0.2-0.8-0.6-1c-0.4-0.2-0.7-0.4,0.2-0.6c0,0-0.4-0.1-0.8-0.1c-0.4-0.1-0.8-0.1-0.8-0.1
					c1.8-1.2-1-0.2,0.7-1.6c1.1,0.2,1.6,0.6,2.1,1c0.5,0.4,1,0.7,2.1,1c0.2,0.8-0.5,0.7-0.3,1.5c0.6,0.6,1.1,0.8,1.5,0.8
					c0.2,0,0.4,0,0.6-0.1c0.2-0.1,0.4-0.1,0.6-0.2c0.7-0.3,1.4-0.7,2.1,0.5c0.1,0.5,0,1,0.1,1.5c0.1,0.5,0.4,0.8,1.3,0.9
					c0,0,0-0.3,0.1-0.7c0-0.3,0.1-0.7,0.1-0.7c0.9,0.5,1,1,1.1,1.5c0,0.2,0.1,0.4,0.3,0.6c0.1,0.1,0.2,0.2,0.4,0.3
					c0.2,0.1,0.4,0.2,0.7,0.2c0-0.3-0.3-0.6-0.6-0.9c-0.2-0.2-0.4-0.4-0.3-0.3c0.9,0,1,0.3,1,0.6c0,0.4-0.1,0.8,0.4,1.1l0.8-0.8
					c0.4,0.4,0.9,0.8,1.3,1.2c0.2,0.2,0.4,0.4,0.6,0.7c0.2,0.2,0.4,0.5,0.6,0.7c0.2,0.2,0.4,0.5,0.6,0.7c0.2,0.2,0.4,0.5,0.6,0.7
					c0.4,0.5,0.8,0.9,1.2,1.4c0.1-0.3,0-0.9,0.7-0.7c1,1.3,2.2,2.4,3.5,3.6c1.3,1.1,2.6,2.2,3.8,3.3c0,0,0,0.4,0,0.8
					c0,0.2,0,0.4,0,0.5c0,0.1,0,0.2,0,0.2c0.2,0.2,0.6,0.2,0.6-0.2c1,0.8-0.5,0.4-0.4,1.1c0.3,0.6,0.9,0.5,0.9-0.1
					c0.3,1.1,0.7,2.7,1.2,4.1c0.5,1.4,1.2,2.8,2.1,3.7c0,0,0-0.1,0.1-0.3c0-0.1,0-0.3,0-0.3c0.3,0.4,0.3,0.7,0.3,1.1
					c0,0.3-0.2,0.6-0.3,0.9c-0.1,0.1-0.1,0.3-0.2,0.4c0,0.1-0.1,0.3-0.1,0.4c0,0.3,0.1,0.6,0.4,0.9l0.1-0.3c0.4,0.9,0.6,1.8,0.9,2.7
					c0.2,0.9,0.4,1.9,0.5,2.8c0,0.2,0.1,0.5,0.1,0.7c0,0.1,0,0.2,0.1,0.3c0,0.1,0,0.2,0.1,0.3c0.1,0.4,0.2,0.9,0.3,1.3
					c0.1,0.2,0.1,0.4,0.2,0.6c0.1,0.2,0.1,0.4,0.2,0.6c0.1,0.4,0.3,0.8,0.5,1.1c-0.3,0.2-0.5,0.5-0.5,0.8c0,0.2,0,0.4,0,0.6
					c0,0.1,0,0.2,0,0.3c0,0.1,0,0.2,0,0.3c0.1,0.9,0.1,1.8-0.9,1.8c0.2,0.5,0.4,0.9,0.5,1.2c0.2,0.3,0.3,0.5,0.4,0.8
					c0.1,0.3,0.2,0.5,0.3,1c0,0.2,0.1,0.5,0.1,0.7c0,0.3,0.1,0.6,0.1,1c0,0.4-0.4,0.7-0.7,0.9c-0.4,0.3-0.8,0.5-1,1l1,0.2
					c0,0-0.3,0.3-0.6,0.6c-0.2,0.1-0.3,0.3-0.4,0.4c-0.1,0.1-0.2,0.2-0.2,0.2s0.2,0.2,0.5,0.5c0.2,0.2,0.5,0.5,0.5,0.5
					s-0.1,0.2-0.2,0.4c-0.1,0.2-0.2,0.4-0.2,0.4c0-0.4-0.2-0.9-0.5-0.9c-0.1,0.2-0.2,0.3-0.2,0.5c-0.1,0.2-0.1,0.4-0.1,0.6
					c-0.1,0.4-0.1,0.8,0,1.2c0.1,0.8,0.3,1.4,0.5,1.5c0,0-0.1,0.2-0.3,0.5c-0.2,0.3-0.4,0.7-0.7,1c-0.2,0.4-0.5,0.7-0.7,1
					c-0.2,0.3-0.3,0.5-0.3,0.5c0.4,0.1,0.7-0.4,1.1-0.8c-0.2,0.2-0.3,0.3-0.4,0.4c-0.1,0.1-0.1,0.2-0.1,0.3c0,0.1,0.1,0.2,0.2,0.3
					c0.2,0.2,0.5,0.3-0.3,0.9c-0.1-0.3-0.6-0.1-0.8-0.2c0.1,0.3,0.1,0.6,0,0.9c-0.1,0.3-0.2,0.7-0.3,1c-0.1,0.4-0.3,0.7-0.5,1.1
					c-0.2,0.3-0.4,0.7-0.6,1l0.7,0.1c-0.1,0.3-0.3,0.6-0.4,0.9c-0.2,0.3-0.3,0.6-0.5,0.9c-0.2,0.3-0.4,0.6-0.5,0.9
					c-0.2,0.3-0.4,0.6-0.6,0.9c-0.2,0.3-0.4,0.6-0.6,0.9c-0.2,0.3-0.4,0.6-0.6,0.9c-0.4,0.6-0.9,1.2-1.3,1.8c0.3-1-0.8-1.5-1.4-0.9
					l0.7,0.9c-0.8,0.1,0.2-0.9-1.1-0.5c-0.5,0.9,0.5,1.3,1.2,1l-1.1,0.8c0.2,0.2,0.5,0.1,0.9,0.3c-0.4,0-0.6,0.6-0.8,1.2
					c-0.1,0.3-0.2,0.6-0.4,0.8c-0.2,0.2-0.4,0.3-0.8,0.3l0.2,0.3c-0.9,1.1-1.7,1.9-2.5,2.5c-0.4,0.3-0.7,0.6-1.1,1
					c-0.1,0.1-0.2,0.2-0.3,0.3c-0.1,0.1-0.2,0.2-0.3,0.3c-0.2,0.2-0.4,0.4-0.6,0.6c-0.3-0.3-0.6-0.3-1-0.2c-0.3,0.1-0.7,0.3-1.2,0.2
					c-0.3,0.3-0.5,0.7-0.8,1.1c-0.3,0.4-0.6,0.8-0.9,1.1c-0.1,0.1-0.2,0.2-0.2,0.3c-0.1,0.1-0.2,0.2-0.2,0.3
					c-0.2,0.2-0.3,0.4-0.5,0.5c-0.2,0.2-0.4,0.3-0.6,0.5c-0.2,0.2-0.4,0.3-0.6,0.5c-1.4,0.5-0.8-0.4-1.6-0.4
					c0.4,0.7-1.3,1.8-0.1,1.7c-1,0.7-1.7,1-2.5,1.4c-0.4,0.2-0.8,0.4-1.3,0.6c-0.3,0.1-0.5,0.2-0.8,0.3c-0.3,0.1-0.6,0.2-1,0.3
					c0.1-0.5,0.4-0.8,0.1-0.9c-0.5,0.2-0.9,0.9-0.7,1.2l0.2,0c-0.5,0.1-0.9,0.2-1.3,0.4c-0.2,0.1-0.4,0.2-0.6,0.3
					c-0.2,0.1-0.4,0.2-0.6,0.4c-0.4,0.3-0.8,0.6-1.2,0.9c-0.4,0.3-0.8,0.6-1.1,1c-1.5,1.3-3,2.5-4.7,2.1l0.2,0c0,0-0.2,0-0.5,0
					c-0.3,0-0.7,0-1,0.1c-0.7,0-1.5,0.1-1.5,0.1c-0.6,0.3-0.4,0.4-0.1,0.5c0.3,0.1,0.6,0.2,0.3,0.7c-0.8-0.1-1.5,0-2.2,0.1
					c-0.6,0.1-1.2,0.3-1.7,0.6c-0.5,0.2-1,0.4-1.6,0.6c-0.5,0.2-1.1,0.2-1.8,0.2c-0.3,0.7-0.9,1.2-1.6,1.5c-0.4,0.2-0.8,0.3-1.2,0.4
					c-0.4,0.1-0.9,0.2-1.3,0.2c-0.5,0.1-0.9,0.1-1.4,0.2c-0.5,0.1-0.9,0.1-1.3,0.2c-0.9,0.2-1.6,0.4-2.2,0.9l0.1-0.6
					c-0.8-0.4-0.8,0.5-1.2,0.7c0-0.4,0.6-0.6,0.2-0.9c-2.9,0.1-5.8,0.7-8.7,1.3c-2.9,0.6-5.9,1.3-8.8,1.6c-1.1,0.1-1.4-0.6-1.8-1.2
					c-0.4-0.6-0.8-1-2.2-0.3l0.8,1.1c-2.2-0.6-4.4-0.7-6.7-0.8c-0.6,0-1.1-0.1-1.7-0.1c-0.6-0.1-1.1-0.1-1.7-0.2
					c-0.6-0.1-1.1-0.2-1.7-0.4c-0.5-0.2-1.1-0.3-1.6-0.6c0.2,0.3,0.2,0.6,0.6,0.7c-0.3,0.2-0.6,0.2-1,0.2c-0.4,0-0.8-0.2-1.1-0.3
					c-0.2-0.1-0.3-0.2-0.5-0.3c-0.2-0.1-0.3-0.2-0.4-0.3c-0.2-0.2-0.3-0.4-0.3-0.5c-0.7-0.1-0.3,0.5-0.8,0.7c-0.3,0.1-0.5,0-0.8-0.2
					c-0.3-0.1-0.5-0.3-0.7-0.5c-0.5-0.3-0.9-0.7-1.2-0.4c-0.1,0.1,0.2,0.3,0.3,0.4c-0.1-0.1-0.4-0.3-0.6-0.4
					c-0.3-0.1-0.6-0.2-0.9-0.3c-0.5-0.2-0.9-0.5-0.5-0.8c-0.9-0.1-1.6-0.5-2.3-0.9c-0.2-0.1-0.3-0.2-0.5-0.3
					c-0.2-0.1-0.3-0.2-0.5-0.3c-0.3-0.2-0.7-0.3-1-0.3c-0.1-0.3-0.3-0.6-0.6-0.7c-0.3-0.2-0.6-0.3-0.9-0.4c-0.6-0.3-1.1-0.6-0.8-1.2
					c-0.3,0.6-1.1,0.5-1.9,0c-0.4-0.3-0.7-0.6-1-0.9c-0.3-0.3-0.5-0.7-0.6-1c0,0.6-1-0.2-1.1,0.5c-0.5-0.4-0.9-0.9-1.1-1.3
					c-0.2-0.4-0.2-0.7,0.1-0.9c-0.4,0-0.7-0.1-0.9-0.3c-0.3-0.1-0.5-0.3-0.7-0.5c-0.2-0.2-0.3-0.4-0.5-0.7c-0.1-0.2-0.3-0.5-0.4-0.7
					c-0.2-0.5-0.5-0.9-0.8-1.2c-0.3-0.3-0.7-0.4-1.3-0.3c-0.9-1.6-1.6-3.2-2.4-4.7c-0.7-1.5-1.4-3-2-4.4c-0.6,0.4-0.2,1.2,0.2,1.9
					c0.4,0.7,0.8,1.5,0.1,1.8c-0.6-1.4-0.8-2.7-1.1-3.9c-0.1-0.6-0.3-1.2-0.5-1.8c-0.2-0.6-0.5-1.2-0.9-1.8c-0.5-0.6-0.4,0.7-0.5,1
					c-0.1-0.4-0.2-0.7-0.3-1.1c-0.1-0.4-0.3-0.7-0.4-1c-0.3-0.7-0.5-1.3-0.8-2c-0.3-0.7-0.5-1.3-0.7-2c-0.2-0.7-0.3-1.3-0.3-2
					c-0.1,0-0.2,0.4-0.2,0.7c-0.1-0.5-0.6-1.1,0.1-1.2l0,0.5c0.3,0.1,0.5,0,0.7-0.2c0.2-0.2,0.3-0.6,0.4-0.9
					c0.2-0.7,0.4-1.5,0.6-1.6c-0.8,0.7-1.1,0.1-1.4-0.4c-0.3-0.5-0.7-1-1.7,0c0-0.4,0.2-0.9,0.7-0.9c-0.2-0.5-0.5-0.6-0.9,0.1
					c0-1,0.1-1.3,0.3-1.6c0.1-0.3,0.3-0.6,0.1-1.4c-0.3,0.1-0.4,0.4-0.7,0.7c0.2-0.5,0.4-1,0.5-1.5c0.1-0.5,0.1-1.1-0.2-1.8
					c-0.2,0.1-0.4,0-0.4,0.4c-0.1-0.6,0-1.2,0-1.7c0-0.3,0.1-0.6,0.1-0.8c0-0.3,0.1-0.5,0.2-0.8c0.1-0.3,0.1-0.5,0.1-0.8
					c0-0.3,0.1-0.6,0.1-0.8c0-0.6-0.1-1.2-0.2-1.8c-1.3,0.9-0.5-0.9-1.7-1c0,0,0.1-0.4,0.1-0.7c0.1-0.4,0.2-0.7,0.2-0.7l0.6,0.6
					c0-0.6,0.2-1.2,0.3-1.8c0.2-0.6,0.3-1.1,0.1-1.6l-0.5,0.9c0,0,0.1-0.6,0.1-1.2c0-0.3,0.1-0.6,0.1-0.8c0-0.2,0.1-0.4,0.1-0.4
					s0.1,0.3,0.2,0.7c0,0.2,0.1,0.3,0.1,0.5c0,0.1,0.1,0.2,0.1,0.2c0.2-0.3,0.3-0.5,0.5-0.5c0.2-0.1,0.3-0.1,0.5-0.1
					c0.3,0,0.4-0.1,0.3-0.9c-0.1,0.2-0.1-0.1-0.1-0.6c-0.1-0.4-0.2-1-0.5-1.3c0,0,0,0,0,0c0.2-0.3,0.4-0.6,0.6-0.9
					c0.1-0.3,0.2-0.7,0.1-1.2c-0.4-0.3-1.3,0-1.6-0.1c0.3-0.1,0.4-0.4,0.6-0.7c0.1-0.3,0.2-0.7,0.3-1c0.1-0.4,0.2-0.7,0.3-1
					c0.2-0.3,0.4-0.6,0.6-0.7c-0.3,0.2-0.9,0.1-1,0l0.9-0.4c-0.2-0.6-0.3-0.7-0.8-0.7c0.1-0.9,0.4-0.7,0.7-0.5
					c0.3,0.2,0.5,0.3,0.4-0.8c-0.1,0.1-0.2,0-0.4,0.3c0-1,0.4-2,0.7-2.9c0.4-0.9,0.7-1.8,0.8-2.7c-0.5-0.4-0.7-0.1-0.9,0.3
					c-0.2,0.4-0.3,0.8-0.7,0.3c0.2-0.7,0.6-1.3,0.9-1.9c0.4-0.6,0.7-1.3,1.1-1.9c0.4-0.6,0.7-1.2,1.1-1.8c0.2-0.3,0.3-0.6,0.5-0.9
					c0.1-0.3,0.2-0.6,0.4-0.9c0,0,0,0.1,0,0.3c0,0.1,0,0.3,0,0.3c0.8,0.2,0.9-0.4,0.8-1c0-0.3-0.1-0.7,0-1.1
					c0.1-0.4,0.2-0.7,0.5-0.9c-0.3,0.2-1,0-0.8,0c0.6-1.8,2.1-3.2,4-5.2l-0.5,0.1c0.1-0.3,0.2-0.6,0.3-0.9c0.1-0.3,0.3-0.6,0.5-0.9
					c0.2-0.3,0.4-0.6,0.6-0.9c0.2-0.3,0.4-0.6,0.5-0.8c0.6,0,0.9-0.6,1.2,0.1c0-0.1,0-0.3,0-0.4c0-0.1,0-0.2,0.1-0.4
					c0-0.2,0.1-0.5,0.2-0.7c0.1-0.2,0.2-0.4,0.3-0.6c0.1-0.1,0.1-0.2,0.2-0.3c0.1-0.1,0.1-0.2,0.2-0.3c0.5-0.7,1.2-1.2,1.9-1.7
					c0.3-0.2,0.7-0.5,1-0.7c0.3-0.2,0.7-0.5,0.9-0.8c0.1-0.1,0.3-0.3,0.4-0.4c0.1-0.2,0.2-0.3,0.3-0.5c0.2-0.3,0.4-0.7,0.5-1.2
					c-0.3,0.3-0.9,0.4-0.7,0.1c0,0,0.1-0.1,0.3-0.3c0.1-0.1,0.2-0.2,0.4-0.3c0.1-0.1,0.3-0.2,0.4-0.3c0.6-0.4,1.1-0.8,1.1-0.8
					c0.3,0.7,0,0.6,0,1.4c0.5,0.1,1.3-0.2,1.8-0.6c-1.2,0.4-0.8-0.9-0.7-1.6c0.1,0.2,0.4,0.3,0.5,0.5c0-0.5,0.1-0.7,0.3-0.7
					c0.1,0,0.3,0.1,0.5,0.2c0.4,0.2,0.8,0.5,1.3-0.4l-0.3-0.2c0.2-0.1,0.3-0.1,0.5-0.2c0.2,0,0.4-0.1,0.5-0.1c0.4-0.1,0.7-0.2,1-0.5
					c-0.3-0.9-0.8,0.1-1.3-0.4c0.2-0.2,0.5-0.2,0.8-0.3c0.1,0,0.3,0,0.4-0.1c0.2,0,0.3,0,0.5,0c0.6-0.1,1.1-0.2,1.2-0.8
					c-0.5,0.1-1,0.4-1.5,0.5c0.1-0.7,0.3-1,0.4-1.3c0.2-0.2,0.4-0.3,0.6-0.6l-0.1,0.1c0,0,0.3-0.4,0.6-0.7c0.2-0.2,0.3-0.4,0.4-0.5
					c0.1-0.1,0.2-0.2,0.2-0.2s-0.1,0.1-0.1,0.2c-0.1,0.1-0.1,0.2-0.1,0.2c0.6,0.3,1,0.3,1.4,0.3c0.4,0,0.7-0.2,1-0.4
					c0.3-0.2,0.6-0.4,1-0.6c0.2-0.1,0.4-0.1,0.6-0.2c0.2,0,0.5,0,0.8,0c-0.6-0.1-0.9-0.2-1-0.2c-0.2-0.1-0.2-0.2-0.2-0.3
					c0-0.2,0.3-0.4,0-0.8c0.3-0.5,0.8-1.1,0.4-1.2c0.6,0.1,0.8-0.2,1.1-0.5c0.3-0.3,0.7-0.6,1.5-0.3c0-0.2,0.2-0.3,0.3-0.4
					c0.2-0.1,0.3-0.3,0-0.6c1.1-0.3,0,0.6,0.3,0.9c1,0.1,1.8-0.6,2.7-1.3c0.2-0.2,0.5-0.4,0.7-0.5c0.3-0.2,0.5-0.3,0.8-0.4
					c0.3-0.1,0.6-0.2,0.9-0.2c0.3,0,0.7,0,1,0c0.6,0,1,0,1.4,0c0.4,0.1,0.8,0.2,1.1,0.3c0.4,0.1,0.7,0.2,1.1,0.3
					c0.4,0.1,0.8,0.1,1.3,0.1c0.2-0.3,0-0.6-0.2-0.7c-0.3-0.2-0.6-0.2-0.6-0.2c0.9-0.8,1.7-0.9,2.8-0.8c-0.3-0.2-0.1-0.5,0.1-0.9
					c0.8-0.1,0.8,1,1.7,0.3c-0.3-0.3-0.6-0.8-1.1-1c1,0.1,2.1,0.5,3.1,0.5c0.2-0.6-0.7-0.7-1.2-1c0.3,0,0.6,0,1,0c0.3,0,0.7,0,1,0.1
					c0.7,0.1,1.2,0.3,1.5,0.7c0,0-0.2,0.1-0.3,0.2c-0.2,0.1-0.3,0.2-0.3,0.2c0.4,0,0.1-0.8-0.2-0.9c-1.1-0.5-1.3,0.5-1.3,0.8
					l0.7,0.1c-0.1,0.5-0.3,0.7-0.6,0.8c-0.3,0.1-0.7,0.1-1.1,0c-0.8-0.1-1.8-0.4-2.5-0.2c0,0,0.2,0.3,0.4,0.6
					c0.2,0.3,0.4,0.6,0.4,0.6s-0.4-0.2-0.8-0.4c-0.2-0.1-0.4-0.2-0.6-0.3c-0.2-0.1-0.3-0.1-0.3-0.1c-0.2,0.4-0.2,1.2,0.5,1.2
					c-0.4,0.4-0.6,0.4-0.9,0.3c-0.2-0.1-0.4-0.1-0.7,0.4c-0.1,0.1,0,0.2,0.1,0.2l-1-0.1c0.3,0.2,0.1,0.9,0.6,0.6
					c-0.4,0.3-0.7,0.4-1.1,0.5c-0.3,0.1-0.7,0.1-1,0c-0.6,0-1.1-0.1-1.2,0.5l0.2,0c-1.2,0.2-1.3,0-1.4-0.3c-0.1-0.2-0.1-0.3-0.2-0.5
					c-0.2-0.2-0.4-0.3-1-0.4c0,0-0.1,0.7-0.1,1.4c-0.1,0.7-0.1,1.3-0.1,1.3l-0.6-0.8c-0.2,0.1-0.6,0.4-0.4,0.7
					c-1.1-0.2,0-0.5-0.8-0.8c-0.2,0.3-0.5,0.5-0.8,0.7c-0.3,0.2-0.7,0.3-1,0.5c-0.7,0.3-1.2,0.6-0.9,1.4c-0.7-0.5,0.8-1-0.6-0.9
					c0.2,0.8-0.1,0.9-0.6,1c-0.5,0.1-1.1,0.1-1.4,0.7c0.7,0.6,1.4-0.3,0.8,0.9c-0.3-0.2-0.6-0.3-0.8-0.2c-0.2,0.1-0.4,0.3-0.6,0.5
					c-0.4,0.5-0.7,1.1-1.1,1.2c-0.3-0.5-0.8-0.3-1.4,0c-0.3,0.2-0.6,0.4-0.9,0.6c-0.3,0.2-0.7,0.4-1.1,0.6c0.2,0.1-0.3,0.7-1,1.3
					c-0.6,0.7-1.4,1.5-1.8,2.1l0.2,0.1c-0.5-0.4-1-0.3-1.5,0c-0.5,0.3-1,0.7-1.4,0.9c0.5,0.5,0.8,0.6,1.5,0.4l-0.7,0.6
					c-0.4-0.1-0.8-0.1-1.3,0.3l0.8,0.5c-0.2,0.2-0.5,0.4-0.8,0.6c-0.3,0.2-0.6,0.3-0.9,0.5c-0.6,0.4-1.2,0.9-1.6,1.7
					c-0.3-0.2-0.5-0.9-0.8-1.3c-0.3-0.5-0.7-0.7-1.6-0.2c0.3,0.4,0.8,0.9,1.3,0.7c-0.2,0.1-0.6,0.2-0.7,0.5l1,0
					c-0.3,0.8-0.7-0.1-1.1,0.4c0.5,0.4,0,0.6,0.5,0.9c0.2-0.1,0.2-0.6,0.5-0.6c-0.2,0.3-0.4,0.7-0.4,1c-0.1,0.4-0.1,0.7,0,1
					c-0.2-0.3-0.7-0.5-1-0.2c-0.4,0.5-0.4,0.7-0.2,0.9c0.2,0.2,0.4,0.3,0.3,0.7c-0.5,0-0.7,0.9-1.5,0.4c-0.2,0.3,0.1,0.6,0.2,0.9
					c-0.2,0.1-0.4,0.3-0.6,0.5c-0.2,0.2-0.5,0.5-0.7,0.7c-0.4,0.4-0.8,0.7-1,0.1l0-0.2c0,0-0.1,0-0.1,0.1c0,0,0,0,0,0l0,0
					c-0.3,0.2-0.5,0.4-0.7,0.6c-0.2,0.2-0.4,0.5-0.5,0.7c-0.2,0.2-0.3,0.5-0.4,0.8c-0.1,0.3-0.2,0.5-0.3,0.8
					c-0.2,0.6-0.4,1.1-0.6,1.7c-0.1,0.3-0.2,0.5-0.4,0.8c-0.1,0.1-0.1,0.2-0.2,0.4c-0.1,0.1-0.2,0.2-0.2,0.4l0.3,0.1
					c-0.5,0.5-0.8,1.2-1.2,1.8c-0.2,0.3-0.4,0.6-0.6,0.8c-0.2,0.2-0.4,0.5-0.7,0.6c-0.2,0.4,0.2,1.1,0.6,1.1
					c-0.3,0.4-0.5,0.6-0.7,0.9c-0.1,0.2-0.2,0.3-0.2,0.6c0,0.2-0.1,0.5-0.1,0.9c0.2-0.2,0.3-0.3,0.4-0.3c0.1,0,0.1,0,0.1,0.1
					c0,0.1,0,0,0.2-0.6c0,0.3-0.1,0.6-0.1,0.9c0,0.2,0,0.5-0.1,0.7c0,0.2-0.1,0.4-0.3,0.6c-0.1,0.2-0.4,0.4-0.7,0.7
					c0.5-0.1,0.6,0.2,0.6,0.6c0,0.4-0.2,0.9-0.3,1.2c0,0-0.1-0.3-0.2-0.5c-0.1-0.3-0.1-0.5-0.1-0.5c-0.3,0.6-0.4,1.3-0.5,1.9
					l1.1-0.1c0.1,0.4,0.1,0.7,0,1c0,0.3-0.1,0.6-0.3,0.9c-0.1,0.3-0.3,0.5-0.4,0.8c-0.2,0.3-0.3,0.5-0.5,0.8
					c-0.2,0.3-0.3,0.5-0.4,0.8c-0.1,0.3-0.2,0.5-0.3,0.8c0,0.3,0,0.5,0,0.8c0,0.1,0.1,0.3,0.2,0.4c0.1,0.1,0.2,0.3,0.3,0.4
					c-0.4,0.3-0.5-0.1-0.6-0.5c-0.1-0.4-0.2-0.8-0.7-0.5c0,0.2,0,0.3,0,0.5c0,0.2,0.1,0.3,0.1,0.5c0.1,0.3,0.3,0.6,0.5,0.9
					c0.3,0.6,0.7,1,0.7,1.2c0.2,0.9-0.2,1.2-0.7,1.6c-0.2,0.2-0.4,0.4-0.6,0.6c-0.1,0.1-0.1,0.3-0.2,0.4c0,0.2,0,0.4,0,0.6
					c-0.4-0.2-1.4-0.5-1.8,0.8c0,0.3,0.1,0.6,0.3,0.8c0.2,0.2,0.4,0.3,0.6,0.4c0.4,0.1,0.9,0,1-0.4c0-0.3-0.1-0.4-0.2-0.4
					c0.2-0.4,0.3-0.9,0.7-0.4l-0.4,0.1c0.1,0.2,0.2,0.4,0.2,0.6c0.1,0.2,0.1,0.5,0.2,0.7c0.1,0.4,0.3,0.8,0.6,0.6
					c-0.4,0.9-0.6,0.4-0.8-0.3c0.3,0.8,0.3,1.4,0.3,2c0,0.6,0,1.2,0.2,2c-0.2-0.2-0.7-0.5-0.7-0.2c0.1,0.3,0.1,0.5,0.1,0.7
					c0,0.2,0,0.3,0,0.5c0,0.2-0.1,0.4-0.3,0.4c-0.2,0.2-0.6,0.3-0.6,1.1c0.7,0.9,1.3-0.5,1,1.2c0.5,0.9,1,0.1,1.3-0.3
					c-0.1,0.2-0.1,0.4-0.1,0.6c0,0.2,0,0.3,0,0.5c0.1,0.3,0.2,0.6,0.3,0.9c0.2,0.3,0.3,0.5,0.5,0.8c0.2,0.2,0.3,0.4,0.4,0.6l0.2-0.8
					c-0.1,0.5,0,0.8,0,1.2l-0.8-0.3c0.1,0.2,0.2,0.4,0.3,0.5c0.1,0.1,0.2,0.2,0.3,0.2c-0.2,0.3-0.5,0.2-0.9,0.3
					c-0.3,0-0.7,0.1-0.9,0.7c0.3,0.3,0.2,0.7,0.3,1.1c0.1,0.4,0.2,0.8,0.7,0.7c-0.4-0.9-0.1-0.9,0.2-0.9c0.2,0,0.3,0,0.5-0.1
					c0.1-0.1,0.2-0.3,0.2-0.7c-0.1,0.3,0,0.7,0.3,1.1c0.1,0,0.2-0.1,0.2-0.2c1.3,1.5-0.9,1.1-0.4,2.9c0.5-0.4,1.1,0.1,1.1,0.4
					c-0.2-0.7-1-0.1-1.2,0.7c0.4,0.5,0.4,0.9,0.4,1.1c0,0.3-0.2,0.5,0,0.8l-0.4-0.6c-0.5,0.4-0.2,1-0.1,1.8c0.4-0.1,0-0.8,0.3-0.6
					c-0.1,0.2-0.1,0.3-0.1,0.4c0,0.1,0,0.3,0.1,0.4c0.1,0.2,0.4,0.4,0.6,0.7c0.5,0.4,1,0.9,1,1.6c0.6,0.4,1-0.4,1.4,0
					c0,0.8,0.3,1.1,0.7,1.4c0.1,0.1,0.2,0.1,0.3,0.2c0.1,0.1,0.2,0.2,0.2,0.3c0.2,0.2,0.3,0.5,0.3,0.9c-0.9,0-0.8-0.2-0.9,1.1
					c0,0,0,0,0-0.1c0-0.1,0-0.2-0.1-0.3c-0.1-0.2-0.1-0.5-0.2-0.9c-0.1-0.3-0.2-0.6-0.2-0.9c-0.1-0.2-0.1-0.4-0.1-0.4s0,0.1-0.1,0.3
					c0,0.2-0.1,0.4-0.1,0.7c-0.1,0.5-0.1,1-0.1,1c-0.2-0.3-0.3-0.8-0.3-1.1c-0.1-0.4-0.1-0.7-0.3-0.9c-0.2,1-0.1,0.8-0.8,0.7
					c0.4,0.1,0.6,0.3,0.7,0.6c0.1,0.2,0.2,0.5,0.2,0.8c0,0.3,0,0.6,0.1,0.9c0.1,0.3,0.3,0.5,0.6,0.7l1.6-0.9c0.4,0.3,0.6,0.6,0.8,1
					c0.2,0.4,0.3,0.8,0.4,1.3c0.1,0.4,0.2,0.9,0.4,1.4c0.2,0.5,0.5,0.9,0.9,1.3c0,0-0.2-0.1-0.3-0.2c-0.2-0.1-0.3-0.2-0.3-0.2
					c-0.2,0.3-0.1,0.7,0.2,1c0.3,0.3,0.6,0.7,0.7,1.1c0.5-0.4,0.9-0.2,1.4-0.2c-0.2,0.1,0.1,0.5,0.3,0.9c0.2,0.4,0.4,0.9,0,1.4
					c0,0,0.3,0.1,0.7,0.1c0.3,0.1,0.7,0.1,0.7,0.1c0.1,0.1,0.2,0.2,0.2,0.2c0.1,0.1,0.1,0.2,0.2,0.2c0.1,0.2,0.2,0.3,0.2,0.5
					c0.1,0.3,0.1,0.7,0.1,1c0,0.7,0.1,1.4,0.8,2c0-0.4,0.3-0.6,0.4-0.8c0.2-0.2,0.3-0.4,0-1c0.4,0.4,0.9,0.7,0.6,1
					c0.1,0,0.2,0.1,0.3,0.2c0.1,0.2,0.2,0.4,0.3,0.6c0.1,0.2,0.2,0.4,0.4,0.6c0.1,0.2,0.3,0.2,0.5,0.2c0,0.4-0.3,0.9,0.2,1.3
					c0.1-0.1,0.2-0.2,0.2-0.2c-0.2,0.2,0.6,1-0.3,1.2c0.3-0.1,0.7,0,1,0c0.3,0,0.6,0.1,0.9,0.3c0.6,0.3,1.1,0.6,1.6,1
					c0.3,0.2,0.5,0.3,0.8,0.5c0.3,0.2,0.5,0.3,0.8,0.4c0.3,0.1,0.5,0.2,0.8,0.2c0.1,0,0.3,0,0.4,0c0.1,0,0.3-0.1,0.4-0.1
					c0.3,0.2,0.6,0.4,0.9,0.5c0.2,0.1,0.3,0.2,0.5,0.3c0.2,0.1,0.3,0.2,0.5,0.2c0.6,0.3,1.3,0.6,1.9,0.8c0-0.2,0.1-0.3-0.1-0.3
					c0.4,0,0.7,0.1,0.8,0.3c0.2,0.2,0.2,0.4,0.3,0.7c0.1,0.3,0.2,0.5,0.4,0.7c0.2,0.2,0.5,0.3,1,0.2c1.2-0.8-0.9-0.8-0.2-1
					c0.2-0.5,0.4-0.7,0.7-0.7c0.1,0,0.3,0,0.4,0.1c0.1,0,0.3,0.1,0.5,0.2c0.3,0.2,0.7,0.3,1,0.4c0.4,0.1,0.7,0.1,1.1-0.2l-0.3-0.2
					c0.3-0.1,0.5-0.1,0.8,0c0.3,0.1,0.6,0.2,0.9,0.4c0.2,0.1,0.3,0.2,0.5,0.3c0.2,0.1,0.3,0.2,0.5,0.2c0.4,0.1,0.7,0.3,1.2,0.3
					c0,0-0.1-0.2,0-0.3c0.5,0.6,1.3,1,2.1,1.3c0.9,0.3,1.8,0.5,2.6,0.7c-0.5-0.8-0.7-0.5-0.4-1.3c0.7,0.1-0.3,1.3,1.2,1.6
					c0.5-0.4,1.5-0.8,1.6-1.7c0,0-0.3,0-0.7,0c-0.2,0-0.3,0-0.5,0c-0.1,0-0.2,0-0.2,0c0.3-0.6,0.8-0.6,1.2-0.4
					c0.4,0.1,0.9,0.4,1.2,0.3l-0.1-0.5c0.5,0,0.9,0.1,1.2,0.3c0.3,0.1,0.6,0.3,0.9,0.5c0.5,0.3,1.1,0.6,2.2,0.5l-0.2,0.4
					c1.3,1.2,1-0.7,2.2,0.1l0.3-1.3c0.4,0.1,1.1,0.4,1.9,0.6c0.8,0.2,1.7,0.5,2.4,0.5c-0.9-0.9-2.6-1.2-3.7-1.7c0.4,0,1.1,0,1.7,0
					c0.6,0.1,1.2,0.2,1.4,0.5c-0.3-0.1-0.8-0.4-1-0.2c0.5,0.5,1.1,0.8,1.8,1c0.7,0.2,1.4,0.2,2.2,0.1c-0.3-1.2,0.7-1.5,1.9-1.7
					c0.6-0.1,1.2-0.2,1.8-0.4c0.5-0.2,1-0.5,1.2-1c0.4,0.1,0.7,0.1,1.1,0.1c0.3,0,0.7,0,1-0.1c0.3-0.1,0.7-0.1,1-0.2
					c0.3-0.1,0.7-0.2,1-0.3c0.7-0.2,1.4-0.5,2.1-0.7c0.4-0.1,0.7-0.2,1.1-0.3c0.4-0.1,0.7-0.2,1.1-0.3c-0.2,0.5-0.2,0.8-0.1,0.9
					c0.1,0.1,0.2,0.1,0.4,0.1c0.3-0.1,0.8-0.2,0.9,0.8c0.8-0.1,1-0.2,1.1-0.3c0,0,0.5-0.4,0.9-0.9c0.2-0.2,0.5-0.4,0.6-0.6
					c0.2-0.2,0.3-0.3,0.3-0.3c0.4-0.7-0.8-0.2-0.8-0.7c1.5-0.6,0.4-1,1.3-1.8c0,0.7,0.8,0.8,1.6,0.3l-1,1.2c1.2,0.2,1.6-0.4,1.9-0.9
					c0.3-0.6,0.7-1.1,1.9-1l-0.9-0.3c0.6,0,1.6-0.4,2.6-0.6c0.3-0.1,0.5-0.1,0.8-0.2c0.3,0,0.5-0.1,0.8-0.1c0.5,0,1,0.1,1.4,0.3
					c0.1-0.3,0.1-0.9-0.4-0.8c0.6-0.3,1.3-0.5,2-0.8c0.4-0.1,0.7-0.2,1.1-0.3c0.4-0.1,0.7-0.2,1.1-0.3c0.7-0.2,1.4-0.4,2-0.7
					c0.6-0.3,1.1-0.7,1.4-1.1l-0.4-0.3c0.5-0.1,1.2,0.3,1.5-0.4c-0.1-0.2-0.4-0.3-0.2-0.4c0.2,0,0.6,0,1-0.1c0.4-0.1,0.8-0.2,1-0.5
					l-0.8-0.1c0.2-0.2,0.5-0.4,0.7-0.6c0.2-0.2,0.5-0.3,0.7-0.4c0.3-0.1,0.5-0.2,0.8-0.3c0.3-0.1,0.5-0.1,0.8-0.2
					c1.1-0.2,2.1-0.3,3.1-0.9c-0.4-0.5-0.3-1.2-0.1-1.9c0.1-0.3,0.3-0.7,0.5-1c0.2-0.3,0.4-0.6,0.5-0.8l-0.2-0.1
					c0.3-0.3,0.5-0.5,0.8-0.8c0.1-0.1,0.3-0.2,0.4-0.3c0.1-0.1,0.1-0.1,0.2-0.2c0.1-0.1,0.1-0.1,0.2-0.2c0.3-0.2,0.5-0.4,0.8-0.6
					c0.1-0.1,0.3-0.2,0.4-0.3c0.1-0.1,0.3-0.2,0.4-0.3c0.6-0.3,1.2-0.7,1.7-1c0.3-0.2,0.6-0.4,0.9-0.6c0.3-0.2,0.6-0.4,0.8-0.7
					c0-0.3,0-0.6,0.1-0.9c0.1-0.3,0.2-0.6,0.3-0.9c0.1-0.2,0.2-0.3,0.2-0.5c0.1-0.2,0.2-0.3,0.3-0.5c0.2-0.3,0.4-0.7,0.6-1
					c0.8-1.4,1.7-2.9,2-4.4c0,0.5,1,0.5,1.4,0.1c0-0.4,0.4-0.7,0.7-1c0.3-0.3,0.4-0.5-0.2-0.8l-0.1,0.2c-0.2-0.3-0.3-0.5-0.4-0.8
					c0-0.3,0-0.5,0.1-0.8c0.1-0.3,0.2-0.5,0.3-0.8c0.1-0.3,0.2-0.5,0.3-0.8l1.6,0.5c-0.3-0.9-0.3-1.7,0-2.5c0.1-0.4,0.2-0.8,0.4-1.2
					c0.1-0.2,0.2-0.4,0.3-0.6c0.1-0.2,0.2-0.4,0.3-0.6c0.2-0.4,0.4-0.8,0.5-1.1c0.1-0.4,0.2-0.7,0.3-1.1c0-0.2,0.1-0.3,0.1-0.5
					c0-0.2,0-0.3-0.1-0.5c-0.1-0.3-0.2-0.6-0.4-0.8c0.1-0.1,0.2-0.3,0.3-0.5c0.1-0.2,0.2-0.3,0.3-0.5c0.2-0.4,0.3-0.7,0.6-1
					l-0.9-0.1c0-0.5,0-0.9,0-1.2c0-0.2,0-0.4,0-0.6c0-0.2,0-0.4,0-0.5c0-0.4,0-0.7,0.1-1.2c0-0.4,0.1-0.9,0.1-1.5l-0.7,0.4
					c0-0.2,0-0.3,0.1-0.4c0.1-0.1,0.2-0.2,0.3-0.4c0.2-0.2,0.6-0.4,0.9-0.6c0.3-0.2,0.7-0.4,0.9-0.6c0.3-0.2,0.4-0.5,0.4-0.8
					c0,0-0.3-0.1-0.7-0.1c-0.3-0.1-0.7-0.1-0.7-0.1c0-0.3,0-0.6-0.1-0.8c-0.1-0.3-0.1-0.5-0.2-0.8l-0.1-0.4c0-0.1-0.1-0.3-0.1-0.4
					c-0.1-0.3-0.2-0.5-0.3-0.8c0-0.1-0.1-0.3-0.1-0.4l0-0.2l-0.1-0.2c-0.1-0.3-0.1-0.5-0.1-0.8c0-0.1,0-0.3,0-0.4c0-0.1,0-0.1,0-0.2
					c0-0.1,0-0.1,0-0.2c0-0.3,0.1-0.6,0.1-0.9c-0.2,0.1-0.5,0.3-0.5,0.6c-0.1-0.2-0.2-0.6-0.4-1c-0.2-0.4-0.4-0.8-0.5-1.2
					c-0.1-0.4-0.2-0.7-0.1-1c0.1-0.3,0.3-0.5,0.8-0.6c-0.3,0.1-0.5,0-0.6-0.2c-0.1-0.1-0.1-0.2-0.2-0.4c0-0.1-0.1-0.3-0.1-0.5
					c0-0.2,0-0.4-0.1-0.6c0-0.2,0-0.4,0-0.6c0-0.4,0-0.8,0-1.2l-0.7,0.6c0.3-0.7,0.5-1.1,0.6-1.5c0.1-0.4,0-0.8-0.2-1.5
					c-0.3-0.2-0.8,0.1-0.3,0.4c-0.5-0.4-0.4-0.7-0.4-1c0-0.3,0.1-0.7-0.5-1.2l-0.2,0.8c-0.2-0.2-0.3-0.4-0.4-0.6
					c-0.1-0.2-0.1-0.3-0.1-0.4c0-0.3,0.1-0.5,0.2-1c-0.1-0.4-0.5-0.8-0.9-1.1c-0.5-0.3-1-0.4-1.4-0.2c0.1-0.2,0.2-0.6,0.2-0.9
					c0-0.3-0.2-0.7-0.5-0.9c-0.3,0.1-0.3,0.4-0.3,0.6c-0.4-0.3-0.7-0.6-1-0.9c-0.2-0.3-0.4-0.7-0.5-1c-0.1-0.3-0.3-0.6-0.5-0.9
					c-0.1-0.1-0.2-0.2-0.4-0.3c-0.1-0.1-0.3-0.1-0.5-0.2c-0.2,0.2-0.4,0.2-0.5,0.2c0.6,0.5,1.1,1,1.5,1.4c0.4,0.3,0.6,0.5,0.6,0.5
					c-0.3,0.3-0.7,0.2-1,0.3c-0.3,0.1-0.6,0.2-0.7,1c-0.1-0.3-0.1-0.6-0.2-1c-0.1-0.4-0.2-0.8-0.3-1.1c-0.1-0.4-0.3-0.7-0.5-1
					c-0.2-0.3-0.5-0.5-0.7-0.7c-0.1,0-0.2,0-0.3,0.1l0,0.2c-0.3-0.1-0.4-0.3-0.5-0.6c-0.4-0.2-0.6-0.2-0.9-0.5
					c-0.3,0.2-0.6,0.1-0.9-0.2c-0.3-0.2-0.7-0.6-0.9-0.8c0.6-0.7-0.2-1.1,0.9-1.2c-0.1,0,0,0.2,0.3,0.5c0.1,0.1,0.1,0.2,0.2,0.2
					c0,0,0-0.1,0-0.1c0.3,0.3,0.7,0.6,1.2,1c-0.1-0.7-0.3-1.3-1.2-1.4c0.1-0.7,0.2-1.4,0.1-1.7c-1.5,0.5-3.3,0.1-3.9,0.6
					c-0.7-0.8-1.6-1.4-2.4-2.2c-0.4-0.4-0.8-0.8-1.1-1.2c-0.3-0.4-0.5-0.9-0.6-1.4c-0.4-0.5-0.8,0.1-1.1,0.3
					c0.2,0.3,0.6,0.5,0.6,0.7c-0.2-0.2-0.5-0.4-0.8-0.7c-0.3-0.2-0.6-0.4-0.9-0.6c-0.6-0.4-1.1-0.9-1-1.5c-0.8,0-0.7,0.3-0.6,0.5
					c0,0.2,0.1,0.3-0.8-0.2l0.1,0.4c-0.5,0-1,0-1.4-0.1c-0.4-0.1-0.8-0.3-1.2-0.5c-0.4-0.2-0.7-0.5-1-0.8c-0.3-0.3-0.7-0.6-1-0.9
					c-0.3-0.3-0.7-0.6-1-0.8c-0.2-0.1-0.4-0.3-0.6-0.4c-0.2-0.1-0.4-0.2-0.6-0.3c-0.8-0.3-1.8-0.5-3-0.2c0.3-0.1,0.5-0.1,0.6-0.3
					c-0.6,0-1.3-0.1-1.9-0.2c-0.6-0.1-1.2-0.2-1.9-0.4c-0.3-0.1-0.6-0.2-0.9-0.2c-0.3-0.1-0.6-0.2-0.9-0.2l-0.9-0.3l-0.5-0.1
					l-0.5-0.1c-0.6-0.2-1.2-0.3-1.9-0.4c-0.6-0.1-1.3-0.2-1.9-0.3c-0.3,0-0.6-0.1-0.9-0.1c-0.3,0-0.6,0-1,0c-0.6,0-1.3,0.1-1.9,0.2
					c-1.4,0.2-1.5-0.6-2.3-1.3l-0.4,0.9l-1.3-1.3c-1-0.5-2,0-3,0.4c-1,0.4-2.1,0.8-3.3-0.1l0.4-0.6c-1,0.1-3-0.6-2.9,0.2
					c-0.1-0.1-0.3-0.7-0.7-0.4l-0.1,0.5l-2.3-1c-1.8,0.3,0.2,2-2.5,2c-1-0.2-2.7-1.6-2.3-1.9c0.4,0,1-0.3,1.1-0.8l-0.9-0.3
					c-0.1-1.5-0.7-3.1,1.5-4l1.5,1l0.5-0.7l-1.3-0.1c0.8-0.6,1.2,0,1.7,0.4c0.1-0.4,0.4-0.6,0.7-0.8l1.4,1.5
					c0.2-0.6-0.6-1.2,0.4-1.5c0.7,0.7-0.8,1.3,0.4,1.8c0.8-0.6,0.6-1.2,1.4-0.6c0.1-0.4,0-0.6-0.4-0.8c0.8,0.5,2,0.3,2.4,1.1
					c0.8-0.8,2.6,0.4,2.6-1c0.2,0.4,1.3,1.2,2,1.3c-0.6-0.9,0.1-0.9,0.9-0.8c0.8,0,1.7,0.1,1.6-0.8c0.4,0.8,1.3,1.1,2.2,1.3
					c0.5,0.1,1,0.2,1.5,0.3c0.5,0.1,1,0.3,1.4,0.6c-0.1-0.1-0.2-0.4-0.4-0.3c1,0,1.3-0.4,2-0.6c-0.1,1.3,1.4,1.8,2.1,2.7
					c0.7-0.5,0.6-0.9,0.3-1.3c-0.2-0.4-0.6-0.8-0.3-1.4c-0.1,0.5,0.4,0.8,0.8,1.1c0.4,0.3,0.8,0.6,0.6,1c1-0.6,0.8-0.2,1.5-1.2
					c-0.1,1.6,0.8,0.4,1.4,1.5c0.7-0.2,0.9-0.6,1-0.8c0.1-0.1,0.1-0.1,0.3-0.1c0.1,0,0.3,0.1,0.7,0.3c0.4-0.2,0.3-0.4,0.1-0.7
					c-0.1-0.1-0.2-0.2-0.3-0.3C582.9,602.2,582.8,602.1,582.8,602.1z M613.5,619.8C613.5,619.7,613.5,619.7,613.5,619.8
					c-0.2-0.2-0.4-0.4-0.5-0.5C613.1,619.3,613.2,619.5,613.5,619.8z M615.6,621.8c-0.3-0.2-0.6-0.6-0.9-0.9
					c-0.3,0.2-0.4,0.5-0.2,0.7c0-0.1,0.2-0.1,0.4,0C615.1,621.6,615.4,621.8,615.6,621.8z M607.1,622.5c0.2,0.4,0.5,0.3,0.6,0.2
					c-0.1-0.1-0.3-0.3-0.5-0.5c0,0,0-0.1,0-0.1C607.1,622.2,607.1,622.4,607.1,622.5z"/>
				<path class="st8" d="M607.2,621.1c0-0.1,0-0.1-0.1-0.2c0.1,0,0.2,0,0.3,0c0,0.1,0,0.2-0.1,0.3
					C607.3,621.2,607.2,621.2,607.2,621.1z"/>
				<path class="st8" d="M511.8,623.8L511.8,623.8c0,0,0-0.1-0.1-0.1C511.8,623.7,511.8,623.7,511.8,623.8z"/>
				<polygon class="st8" points="628.8,660.3 628.5,660.2 628.8,660 				"/>
				<path class="st8" d="M519.9,610c0-0.1,0-0.2,0-0.3C519.9,609.8,519.9,609.9,519.9,610z"/>
				<path class="st8" d="M525.3,605.6l0.6-0.8C525.6,605.2,525.4,605.4,525.3,605.6z"/>
				<path class="st8" d="M529.6,602.4c0.1,0.1,0.2,0.2,0.3,0.3c0,0,0,0,0,0L529.6,602.4z"/>
				<path class="st8" d="M500.8,676.9c0,0.1,0,0.1,0,0.2C500.8,677.6,500.8,677.3,500.8,676.9z"/>
				<path class="st8" d="M499.7,651.4c-0.2,0.3-0.4,0.5-0.5,0.8C499.2,651.7,499.2,651.4,499.7,651.4z"/>
				<path class="st8" d="M516.1,701.9C516.1,701.9,516.1,701.9,516.1,701.9c0.1,0,0.1,0.1,0.2,0.1L516.1,701.9z"/>
				<path class="st8" d="M499.2,653.4c-0.2-0.5-0.1-0.8,0-1.2C499.2,652.6,499.3,653,499.2,653.4z"/>
				<path class="st8" d="M551.4,594.2l0.3-0.1c0,0.1,0,0.1,0.1,0.1L551.4,594.2z"/>
				<path class="st8" d="M551.7,594.3l0.3,0.1C551.9,594.3,551.8,594.4,551.7,594.3z"/>
				<path class="st8" d="M552.7,594.5c0,0-0.2,0-0.3-0.1c-0.1,0-0.2,0-0.2-0.1c-0.1,0-0.1,0-0.1,0
					C552.3,594.3,552.5,594.2,552.7,594.5z"/>
				<path class="st8" d="M544.5,596.1l-0.2-0.3C544.4,595.9,544.5,596,544.5,596.1z"/>
				<path class="st8" d="M542.4,596.6c0.5-0.2,1.1-1,1.8-1l0.1,0.2c-0.2-0.2-0.6,0.1-0.9,0.4C543.1,596.5,542.7,596.8,542.4,596.6z"
					/>
				<path class="st8" d="M535.7,603.6c0,0,0.4-0.2,0.7-0.5c0.2-0.1,0.4-0.2,0.5-0.3c0.1-0.1,0.2-0.1,0.2-0.1c-0.1,0.4-0.3,1,0.4,0.8
					c-0.4,0.4-0.6,0.6-0.7,0.6c-0.1,0-0.1-0.1-0.1-0.3C536.8,603.5,536.7,603,535.7,603.6z"/>
				<path class="st8" d="M531.3,606.5c0.9-0.3,0.2,0.4,0.4,0.6C531,607.1,530.9,607.1,531.3,606.5z"/>
				<path class="st8" d="M506.9,634.6l0.8,0.2C507.4,635.4,507.4,634.7,506.9,634.6z"/>
				<polygon class="st8" points="500.6,640.5 500.3,639.6 501.1,639.5 				"/>
				<polygon class="st8" points="505.4,646 505.6,645.7 505.1,646.8 				"/>
				<path class="st8" d="M526.8,699.6l-0.6,0.8c-0.2-0.2-0.1-0.5,0-0.8c0.1-0.1,0.2-0.2,0.3-0.2
					C526.6,699.4,526.7,699.4,526.8,699.6z"/>
				<path class="st8" d="M553.1,704.4c0.3-0.5,1.1-0.9,1.6-0.4C554,704.1,553.4,704.5,553.1,704.4z"/>
				<polygon class="st8" points="618.9,665.4 618.4,665.7 619,664.9 				"/>
			</g>
		</g>
	</g>
</g>
</svg>
