<?xml version="1.0" encoding="utf-8"?>
<!-- Generator: Adobe Illustrator 26.0.1, SVG Export Plug-In . SVG Version: 6.00 Build 0)  -->
<svg version="1.1" id="Ñëîé_2" xmlns="http://www.w3.org/2000/svg" xmlns:xlink="http://www.w3.org/1999/xlink" x="0px" y="0px"
	 viewBox="0 0 2000 2700" style="enable-background:new 0 0 2000 2700;" xml:space="preserve">
<style type="text/css">
	.st0{fill:#FFAF06;}
	.st1{fill:#FF9017;}
	.st2{clip-path:url(#SVGID_00000050638943487410627430000013440608124823145658_);}
	.st3{fill:#874021;}
	.st4{fill:#6B2532;}
	.st5{fill:#FF5555;}
	.st6{fill:#F42F2F;}
	.st7{fill:#49101D;}
	.st8{fill:#007A96;}
	.st9{fill:#004656;}
	.st10{fill:#FFFFFF;}
	.st11{fill:#FFDD7E;}
	.st12{fill:#FADCBD;}
	.st13{fill:#797673;}
	.st14{fill:#444443;}
	.st15{fill:#923C99;}
	.st16{fill:#F47F31;}
	.st17{fill:#E06817;}
	.st18{fill:#050203;}
	.st19{fill:#F2C372;}
	.st20{fill:#F7A872;}
	.st21{clip-path:url(#SVGID_00000050638943487410627430000013440608124823145658_);fill:#FFAF06;}
</style>
<g>
	<path class="st0" d="M1217.6,1914.5c-6.7-44.9-81.8-39.9-81.8-39.9s-58.8,70.4-73.6,70.5c-14.7,0.1,38.6-70,38.6-70
		c-27.8-6-103.5,20-103.5,20s-5.9,89.4-20.2,85.9c-14.3-3.5,9.3-78.9,9.3-78.9c-28.2,5-57.3,33.7-57.3,33.7
		c-37.8,48,25.8,94.1,25.8,94.1s-2.7,31-25.9,64.1l0,0c0,0-5.1,6-10.7,16.6l7.4,0.9c0.8-1.9,1.7-3.8,2.7-5.5c0,0,0,0,0,0
		c0,0,0-0.1,0-0.1c0.6-1.1,1.6-2.6,2.7-4.5c0,0,0,0,0,0c0,0,0,0,0,0c2.8-4.2,4.7-7.3,6-9.5c0,0,0,0,0,0
		c8.4-13.1,20.3-30.1,27.3-33.2c0,0-0.7-1.3-1.2-3.6c0.4,1.1,0.8,2.3,1.2,3.6c9.5,28.7,72.5,40.7,108.7,37.6
		c36.2-3.1,22-14.9,4.8-33.3c-17.2-18.4-57.6-18.8-68.6-26.6c-11-7.7,6.9-12.1,30.3-7.5c23.4,4.6,32.4,29.6,70.1,37.7
		c37.7,8.1,75.1-60.2,75.1-60.2c-27.3,5.1-72.7-15-73.5-24.3c-0.8-9.3,69-0.2,80.2-1.6C1202.7,1979,1224.3,1959.5,1217.6,1914.5z"/>
	<path class="st0" d="M58.4,1752.5c17.8-65.2,127.8-44.6,127.8-44.6s74.6,114.3,96.3,117c21.7,2.8-44.7-110.1-44.7-110.1
		c42.1-4,149.4,47.8,149.4,47.8s-7,133.2,14.7,130.5c21.7-2.7,0.2-118.2,0.2-118.2c40.7,12.3,78.7,59.9,78.7,59.9
		c47.4,77.5-54.6,134.4-54.6,134.4s-1.4,46.2,27,99.2l0,0c0,0,6.4,9.8,12.9,26.4l-11.1,0c-0.9-3-1.9-5.9-3-8.6c0,0,0,0,0-0.1
		c0,0,0-0.1,0-0.1c-0.8-1.7-1.8-4.2-3.2-7.1c0,0,0,0,0,0c0,0,0,0,0,0c-3.4-6.7-5.7-11.6-7.1-15.1c0,0,0,0,0,0
		c-10.1-20.9-24.8-48.1-34.5-53.8c0,0,1.2-1.7,2.4-5.1c-0.8,1.6-1.6,3.3-2.4,5.1c-19.1,40.7-114.2,47.4-167.2,36.4
		c-53-11-29.9-25.9-1.3-50.1c28.6-24.2,88.4-17.7,106-27.2c17.7-9.5-8.1-19-43.5-16.4c-35.3,2.7-53.1,38-110.1,43.3
		c-57.1,5.3-100.4-102.1-100.4-102.1c39.4,12.3,110.1-9.3,112.8-22.9c2.7-13.6-101.9-12.4-118.2-16.5
		C69.1,1850.3,40.6,1817.7,58.4,1752.5z"/>
	<path class="st1" d="M1986.2,1580.1c-36.7-76.9-168.5-26.6-168.5-26.6s-66.7,158.5-93.1,166.8c-26.3,8.3,30.6-146.6,30.6-146.6
		c-53.2,4.5-174.5,92.9-174.5,92.9s38.7,163.6,11.1,165.1c-27.6,1.6-26.9-146.6-26.9-146.6c-47.8,24.4-84.1,92-84.1,92
		c-41.4,106.8,98,154.4,98,154.4s12.2,57-11.2,129.2l0,0c0,0-5.8,13.6-10.1,35.7l13.8-2.5c0.4-3.9,1-7.7,1.8-11.4c0,0,0,0,0-0.1
		c0-0.1,0-0.1,0-0.2c0.6-2.3,1.4-5.6,2.4-9.6c0,0,0,0,0,0c0,0,0,0,0,0c2.7-9,4.4-15.6,5.4-20.3c0,0,0,0,0,0
		c7.9-28.2,19.9-65.2,30.7-74.5c0,0-1.9-1.9-4.1-5.8c1.3,1.8,2.7,3.8,4.1,5.8c32.8,46.2,152.3,33,215.6,7.5
		c63.2-25.5,31.2-38.8-9.7-62.4c-40.9-23.6-113.6-2.1-137.6-9.9c-24.1-7.8,5.8-25.4,50.2-30.1c44.4-4.7,74.3,35.1,146.3,28.9
		c72-6.2,101.5-149.2,101.5-149.2c-46.1,24.1-138.6,13.2-145.1-3c-6.5-16.2,123.6-38.3,142.9-47.1
		C1995,1703.8,2023,1656.9,1986.2,1580.1z"/>
	<g id="illustration">
		<defs>
			<rect id="SVGID_1_" y="866" width="2000" height="1240.4"/>
		</defs>
		<clipPath id="SVGID_00000120535797131825326650000001832483742604271267_">
			<use xlink:href="#SVGID_1_"  style="overflow:visible;"/>
		</clipPath>
		<g style="clip-path:url(#SVGID_00000120535797131825326650000001832483742604271267_);">
			<g>
				<path class="st3" d="M1655.4,1638.2c0,0-50.3-44.9-53.4-51c-3.1-6.2-17.3-61.3-17.3-61.3l-12,1.5c0,0,2.3,66.1,7.3,79
					c5.1,12.9,64.3,67.6,64.3,67.6L1655.4,1638.2z"/>
				<path class="st3" d="M1741.3,1695c0,0,35.9,57,37.2,63.8c1.2,6.8-0.3,63.7-0.3,63.7l11.9,1.9c0,0,16.1-64.2,14.8-77.9
					c-1.3-13.8-43.1-82.8-43.1-82.8L1741.3,1695z"/>
				<path class="st3" d="M1702.9,1966.6l22.7,111.1h23.2c0,0,16.4-104.5,1.2-119C1734.8,1944.2,1702.9,1966.6,1702.9,1966.6z"/>
				<path class="st3" d="M1634.1,1961.6l0.7,116.3l20.1-1.7c0,0,38.6-95.1,26.9-112.4C1670,1946.5,1634.1,1961.6,1634.1,1961.6z"/>
				<path class="st4" d="M1634.7,2075.6c0,0-3.9,7.7-12.7,9.6c-5.5,1.2-10.2,4.1-13.1,8.1c-2.5,3.4-0.1,8.2,4.1,8.2h44.3
					c3.8,0,6.7-3.3,6.3-7c-0.3-3.3-0.7-7.1-0.8-10c-0.3-6.4-6.7-11.6-6.7-11.6L1634.7,2075.6z"/>
				<path class="st5" d="M1729.6,1959.2c-1.3,9.8-4.9,16.9-11.2,19.7c-17.7,7.8-37.7,7.2-54.9,4c-3.7-0.7-7.3-1.5-10.8-2.5
					c-17.3-4.6-29.6-10.8-29.6-10.8l14.9-147.8c16.9-3.4,40,4.3,62.3,38.2C1720.6,1890.7,1732.9,1933.8,1729.6,1959.2z"/>
				<path class="st6" d="M1729.6,1959.2c-1.3,9.8-4.9,16.9-11.2,19.7c-17.7,7.8-37.7,7.2-54.9,4c-3.7-0.7-7.3-1.5-10.8-2.5
					c-3.4-64.9,20.5-124.7,27.6-133C1703,1881.9,1728.5,1931.6,1729.6,1959.2z"/>
				<path class="st4" d="M1726.5,2075.6c0,0-3.9,7.7-12.7,9.6c-5.5,1.2-10.2,4.1-13.1,8.1c-2.5,3.4-0.1,8.2,4.1,8.2h44.3
					c3.8,0,6.7-3.3,6.3-7c-0.3-3.3-0.7-7.1-0.8-10c-0.3-6.4-6.7-11.6-6.7-11.6L1726.5,2075.6z"/>
				<path class="st7" d="M1745.4,1560.1c2.7-11.9-0.6-20.6-6.1-29.1c-5.2-8.1-12.6-8.4-19.6-15.3c-6.6-6.5-19-10.7-28.9-10.7
					c-31.5,0-58.8,19.3-52.6,52c2,10.4,0.3,18.6,8.7,30.8c10.5,15.2,23.3,27.4,43.9,27.4c10.9,0,20.5-2.5,28.9-10.5
					c4.6-4.3,11.1-4.9,15.2-9.6C1743,1585.6,1742.4,1573,1745.4,1560.1z"/>
				<path class="st5" d="M1666.6,1827.5l19.6,161.4c0,0,41.4,9.7,87-4.5c0,0-13.6-154.7-24.5-166
					C1737.8,1807.1,1666.6,1827.5,1666.6,1827.5z"/>
				<path class="st3" d="M1661.9,1637l39.3,20.1l7.9-27.3c0,0-5-9.4-7.3-24.9c-0.9-6.5-1.4-14.1-0.8-22.4l-32,16.4
					c0,0,0.8,3,1.3,7.3c0.5,4.7,0.8,11.1-0.6,17.1C1668.5,1628.5,1666.2,1633.5,1661.9,1637z"/>
				<path class="st8" d="M1747.9,1750.4l4.4-36.1l0.2-1.3c7-6,34.8-16.3,34.8-16.3s-16.7-37.5-26.8-50v0c0,0,0,0,0,0
					c-2.9-3.6-8.4-6.5-14.7-8.8c-5.2-1.9-11-3.5-16.5-4.7c-10.8-2.4-20.1-3.4-20.1-3.4l0,0h0c-6,6.1-17.8,15.1-31,13.4
					c-9.9-1.3-11.5-6.5-11.3-12.1c-1.4,0.2-2.8,0.4-4.1,0.7v0l-31.9-16c0,0-20.6,31.1-7.6,56c0,0,14.1,6.4,15.8,19.9l-2.2,104
					c-0.8,10.2-10.1,33.2-0.3,35.8c43.7,11.9,99.5,5.2,113.2,3.3c2.1-0.3,3.2-0.5,3.2-0.5c4.8-1.2,8.1-5.5,8.1-10.3
					c0-0.6-0.1-1.2-0.2-1.9L1747.9,1750.4z"/>
				<path class="st9" d="M1718.4,1772.4c0.6,25.1,17,54.6,31.4,62.5c2.1-0.3,3.2-0.5,3.2-0.5c4.8-1.2,8.1-5.5,8.1-10.3
					c0-0.6-0.1-1.2-0.2-1.9l-13-71.9l4.4-36.1c-0.2-0.6-0.3-1-0.3-1S1717.4,1728.1,1718.4,1772.4z"/>
				<path class="st3" d="M1669.7,1623.3c18.2-0.5,32.1-18.4,32.1-18.4l-31.6,1.3C1670.8,1610.9,1671,1617.3,1669.7,1623.3z"/>
				<path class="st3" d="M1667.9,1612.3c0,0,40.2,4.9,41.1-23.4c0.9-28.3-15.9-46.7-27.1-46.5c-22.3,0.4-26,9.4-28.6,18.8
					C1650.8,1570.6,1649.4,1610.3,1667.9,1612.3z"/>
				<path class="st10" d="M1678.7,1596c0,0-0.9,3.5-9.7,2.9c0,0-7.4-0.5-7.1-4.4C1661.9,1594.4,1669.1,1591.7,1678.7,1596z"/>
				<path class="st7" d="M1672,1542.7c0,0,34.4,0,26.5,23.6c-5,14.9,11.6,17.2,11.6,17.2l8-23.8l-5-18.6L1672,1542.7z"/>
				<path class="st3" d="M1584.7,1525.9c0,0-0.2-5.2,1.4-9.6c1.7-4.4,0.7-15.7-1.5-15.1c-2.1,0.6-1.2,4.7-3.6,4.2
					c-2.4-0.5-6.2-13.7-9.4-12.5c-3.1,1.2-5.4,5.6-4.4,15.2c1,9.6,5.4,19.1,5.4,19.1L1584.7,1525.9z"/>
				<path class="st3" d="M1778.2,1822.5c0,0-1.2,5.1-4,8.8s-5,14.9-2.8,14.9c2.2,0,2.4-4.2,4.6-3.1c2.2,1.1,2.2,14.9,5.5,14.6
					c3.3-0.3,6.7-3.9,8.5-13.4c1.7-9.5,0.1-19.9,0.1-19.9L1778.2,1822.5z"/>
			</g>
			<g>
				<g>
					<path class="st8" d="M571,1498.8c-1.1-0.2-2-1.4-2-3c0-1.9,1.1-3.6,2.6-3.8c0.3,0,27.3-4.2,65.8-1.7
						c35.5,2.3,88.4,11,138.7,38.9c1.3,0.7,1.8,2.7,1.1,4.5c-0.7,1.8-2.2,2.6-3.5,1.9c-49.7-27.6-102-36.1-137.1-38.4
						c-38.1-2.5-64.6,1.6-64.9,1.6C571.4,1498.8,571.2,1498.8,571,1498.8z"/>
				</g>
				<g>
					<path class="st8" d="M809.9,1560.8c-2.2-0.4-4.1-2-4.9-4.3c-20.1-61.9-50.6-105.4-72.6-131.1c-18.9-22-35-35-40.9-39.5
						c-71.6,25.1-156.5,120.6-157.4,121.5c-2.3,2.6-6.3,2.9-8.9,0.6c-2.6-2.3-2.9-6.3-0.6-8.9c0.2-0.3,22.7-25.7,54.1-53.6
						c42.4-37.8,80.1-62.3,111.9-72.6c1.9-0.6,3.9-0.3,5.5,0.8c0.8,0.6,20.7,14.2,45.6,43.1c22.9,26.6,54.5,71.7,75.3,135.8
						c1.1,3.3-0.7,6.9-4.1,8C812,1560.9,810.9,1560.9,809.9,1560.8z"/>
				</g>
				<g>
					<g>
						<path class="st8" d="M698,1644.5l-99.1-18c-2.6-0.5-4.3-2.9-3.8-5.5l18-99.1c0.5-2.6,2.9-4.3,5.5-3.8l99.1,18
							c2.6,0.5,4.3,2.9,3.8,5.5l-18,99.1C703.1,1643.3,700.6,1645,698,1644.5z M605.3,1618l89.8,16.3l16.3-89.8l-89.8-16.3
							L605.3,1618z"/>
					</g>
					<g>
						<path class="st8" d="M707.1,1594.9l-99.1-18c-2.6-0.5-4.3-2.9-3.8-5.5c0.5-2.6,2.9-4.3,5.5-3.8l99.1,18
							c2.6,0.5,4.3,2.9,3.8,5.5C712.1,1593.7,709.6,1595.4,707.1,1594.9z"/>
					</g>
					<g>
						<path class="st8" d="M650.8,1635.9c-2.6-0.5-4.3-2.9-3.8-5.5l18-99.1c0.5-2.6,2.9-4.3,5.5-3.8c2.6,0.5,4.3,2.9,3.8,5.5
							l-18,99.1C655.8,1634.7,653.4,1636.4,650.8,1635.9z"/>
					</g>
				</g>
				<g>
					<path class="st8" d="M657.5,1690.1c-13.1-2.4-27-5.4-41.8-9.2c-38.7-9.8-69.1-20.9-69.4-21.1l-2.4-0.9l-0.4-2.5
						c-5.7-34.8-0.8-73.7,4.2-100.1c4.2-22,9.1-39,11.3-46.1c0.6-1.9,2.7-3,4.6-2.4l2.2,0.7c1.4,0.5,2.3,2,1.9,3.4
						c-3.2,13.7-17,79.3-8.6,136.4c17.1,6,112.7,36.3,176.7,29c5.3-9.4,29.9-46.9,36.6-118.9c0.3-3.4,3.3-6,6.7-5.7l0,0
						c1.4,0.1,2.4,1.3,2.3,2.7c-3.6,44.3-13.7,79-21.6,100.4c-8.8,23.7-16.7,36.5-17,37.1l-1.1,1.8l-2,0.3
						C718.2,1697.7,690.7,1696.1,657.5,1690.1z"/>
				</g>
			</g>
			<g>
				<path class="st11" d="M985.5,1524.1c-2.6,2.2-6.5,1.8-8.7-0.8l0,0c-9.6-11.6-20.7-29.8-33.1-54.3c-24.5,3.3-57.6,2.3-84.1-18.2
					c-17.2-13.2-23.4-28.3-23.7-29l-2.2-5.5l5.4-2.4c0.2-0.1,0.4-0.2,0.6-0.3c25.2-11.2,49.5-10.4,72.1,2.6
					c3.8,2.2,7.4,4.6,10.7,7.1c-2.8-6.7-6-14.3-9.4-22.8c-25.1-20.7-31.9-42.2-33.1-56.7c-1.4-16.2,3.7-27.5,3.9-28l2.5-5.4l5.5,2.3
					c20.2,8.3,33.2,23.5,37.5,43.7c3.2,14.8,1.2,29-0.7,37.3c1.7,3.8,3.7,8.4,6,13.4c5.1-21.4,20.6-30.3,21.4-30.8l5.2-2.9l3.1,5.1
					c15.9,25.9,4.8,50.5-12,66.1c15.6,31.6,29,54.5,38.9,66.5l0,0c2.2,2.6,1.8,6.5-0.8,8.7L985.5,1524.1z M850.3,1422.6
					c3,4.8,8.5,12.1,17.3,18.8c18,13.6,41.6,19,70,15.8C925.6,1439.9,895.4,1406.2,850.3,1422.6z M957.2,1391.3
					c-6,6-14.6,18.9-10.6,41.6l0,0.1C954.5,1424.8,964.7,1409.6,957.2,1391.3z M893.3,1327c-2.5,11.1-3.8,35.7,24.1,60.8
					C920.4,1371.4,921.2,1342.2,893.3,1327z"/>
			</g>
			<g>
				<path class="st8" d="M881.8,2032.6c-1.7,1.4-4.3,1.2-5.7-0.5l0,0c-6.2-7.6-13.5-19.5-21.6-35.5c-16,2.2-37.6,1.5-55-11.9
					c-11.2-8.6-15.3-18.5-15.5-18.9l-1.5-3.6l3.5-1.6c0.1-0.1,0.3-0.1,0.4-0.2c16.5-7.3,32.3-6.8,47.1,1.7c2.5,1.4,4.8,3,7,4.6
					c-1.8-4.4-3.9-9.4-6.2-14.9c-16.4-13.6-20.8-27.6-21.6-37c-0.9-10.6,2.4-18,2.6-18.3l1.6-3.5l3.6,1.5
					c13.2,5.5,21.7,15.3,24.5,28.6c2.1,9.7,0.8,19-0.4,24.4c1.1,2.5,2.4,5.5,3.9,8.8c3.4-14,13.4-19.8,14-20.1l3.4-1.9l2,3.3
					c10.4,16.9,3.1,33-7.9,43.2c10.2,20.6,19,35.6,25.4,43.4l0,0c1.4,1.7,1.2,4.3-0.5,5.7L881.8,2032.6z M853.4,1988.6
					c0.5-0.1,1-0.1,1.5-0.2l-0.2-0.5L853.4,1988.6z M793.6,1966.3c2,3.2,5.6,7.9,11.3,12.3c11.8,8.9,27.2,12.4,45.7,10.4
					C842.7,1977.6,823,1955.6,793.6,1966.3z M863.4,1945.9c-3.9,3.9-9.5,12.3-7,27.2l0,0.1C861.6,1967.7,868.2,1957.8,863.4,1945.9z
					 M821.6,1903.9c-1.6,7.2-2.5,23.3,15.7,39.7C839.3,1932.9,839.8,1913.8,821.6,1903.9z"/>
			</g>
			<g>
				<g>
					<path class="st11" d="M408.7,1337.9c-10.4,6.7-20.5,8.8-26.4,9.5c-21.4,2.5-42.7-6.8-53.1-23c-20.7-32.4-11.2-75.7,21.2-96.4
						c32.4-20.7,75.7-11.2,96.4,21.2c10,15.7,13.4,34.4,9.4,52.6c-0.6,2.7-3.3,4.4-5.9,3.8c-2.7-0.6-4.4-3.3-3.8-5.9
						c3.4-15.6,0.6-31.6-8-45.1c-17.8-27.8-54.8-35.9-82.6-18.2c-27.8,17.8-35.9,54.8-18.2,82.6c8.4,13.1,25.9,20.5,43.6,18.5
						c21.8-2.5,39.4-18.3,48.2-43.3c0.9-2.6,3.8-4,6.4-3c2.6,0.9,4,3.8,3,6.4C431.4,1318.6,419.8,1330.8,408.7,1337.9z"/>
				</g>
				<g>
					<path class="st11" d="M342.7,1216c-2.3,1.5-5.4,0.8-6.9-1.5l-45.6-71.4c-1.5-2.3-0.8-5.4,1.5-6.9c2.3-1.5,5.4-0.8,6.9,1.5
						l45.6,71.4C345.7,1211.4,345,1214.5,342.7,1216z"/>
				</g>
				<g>
					<path class="st11" d="M227.7,1386c-1.5-2.3-0.8-5.4,1.5-6.9l71.4-45.6c2.3-1.5,5.4-0.8,6.9,1.5c1.5,2.3,0.8,5.4-1.5,6.9
						l-71.4,45.6C232.3,1389,229.2,1388.3,227.7,1386z"/>
				</g>
				<g>
					<path class="st11" d="M464,1235c-1.5-2.3-0.8-5.4,1.5-6.9l71.4-45.6c2.3-1.5,5.4-0.8,6.9,1.5c1.5,2.3,0.8,5.4-1.5,6.9
						l-71.4,45.6C468.5,1238,465.4,1237.3,464,1235z"/>
				</g>
				<g>
					<path class="st11" d="M413.7,1196.5c-2.7-0.6-4.3-3.3-3.7-6l19.3-82.5c0.6-2.7,3.3-4.3,6-3.7c2.7,0.6,4.3,3.3,3.7,6l-19.3,82.5
						C419,1195.5,416.3,1197.2,413.7,1196.5z"/>
				</g>
				<g>
					<path class="st11" d="M205.9,1251c0.6-2.7,3.2-4.4,5.9-3.9l83,17c2.7,0.6,4.4,3.2,3.9,5.9c-0.6,2.7-3.2,4.4-5.9,3.9l-83-17
						C207.1,1256.3,205.4,1253.7,205.9,1251z"/>
				</g>
				<g>
					<path class="st11" d="M347,1471c-2.7-0.4-4.6-2.9-4.2-5.6l11.8-83.9c0.4-2.7,2.9-4.6,5.6-4.2c2.7,0.4,4.6,2.9,4.2,5.6
						l-11.8,83.9C352.2,1469.5,349.7,1471.4,347,1471z"/>
				</g>
				<g>
					<path class="st11" d="M575.8,1320c-0.6,2.7-3.3,4.3-6,3.7l-82.5-19.2c-2.7-0.6-4.3-3.3-3.7-6s3.3-4.3,6-3.7l82.5,19.2
						C574.8,1314.7,576.4,1317.4,575.8,1320z"/>
				</g>
				<g>
					<path class="st11" d="M477.6,1426.9c-2.3,1.5-5.4,0.8-6.9-1.5L425,1354c-1.5-2.3-0.8-5.4,1.5-6.9c2.3-1.5,5.4-0.8,6.9,1.5
						l45.6,71.4C480.6,1422.4,479.9,1425.4,477.6,1426.9z"/>
				</g>
			</g>
			<g>
				<path class="st12" d="M520.6,1577.8c-3.3-1.4-11.5,12.4-13.3,13.1c-1.9,0.6,0.7-6.5-1.6-8c-2.3-1.6-7.5,15.2-7.5,15.2
					c-3.8,1.9-56.4,34.2-56.4,34.2c-22,1.2-76.9,16.8-76.9,16.8s-20.8,23.3-3.7,33.3c17.1,10,72.4-17.9,89.4-25.9
					c17-7.9,56.9-47.6,56.9-47.6C527.4,1600,523.9,1579.2,520.6,1577.8z"/>
				<path class="st10" d="M309.1,1529.8c0,0-31.8,4.2-40.2,25.9c-8.4,21.6-18,171.5,0,191.3c0,0,1.2-18.7,2.7-22.6
					c0,0,3.5,38.1,21.5,45.9c18,7.8,86.8-113.7,86.8-113.7S396.8,1523,309.1,1529.8z"/>
				<path class="st12" d="M369.1,1991.8c-4.7,41.2-8.1,77-6.8,86.8l-19-2.3l-0.3,0c0,0-0.1-0.2-0.1-0.5c0,0,0,0,0,0
					c0-0.1,0-0.2-0.1-0.2c-1.4-5.5-9.7-38.6-15.5-69.7c-0.4-2.2-0.8-4.3-1.2-6.5c-3.2-18.2-5.3-35-4.4-43.9
					c2.9-26.4-23.9-135.4,0.8-145c24.7-9.6,66.6,25.1,66.6,25.1S377.2,1921.5,369.1,1991.8z"/>
				<path class="st12" d="M382.5,1876.8c0,0-51.5,71.5-91.9,130.6c-0.3,0.5-0.7,0.9-1,1.4c-23.1,33.9-40.4,61.9-43.8,71.1l-19.5-2.9
					c0,0,13.1-52.9,24.9-88.5l0,0c0.2-0.6,0.4-1.1,0.6-1.7c5.2-15.5,10.5-28.9,15-35.6c14.9-22,42.3-130.8,68.6-127.7
					C361.7,1826.5,382.5,1876.8,382.5,1876.8z"/>
				<path class="st10" d="M365.2,1564.9c-0.3-0.5-13.2-19.6-37.4-23.3c-19.6-3-38,10-41.1,28.4c-3.1,18.5-0.1,42.5,32.1,51
					L365.2,1564.9z"/>
				<g>
					<path class="st12" d="M359.1,1649.4l-36.5,21.7l-9.2-25.7c0,0,4.2-9.4,5.5-24.3c0.5-6.3,0.5-13.6-0.6-21.6l31.7,13.8
						c0,0-0.6,2.9-0.8,7.1c-0.2,4.6-0.1,10.7,1.6,16.4C352.2,1641.6,354.7,1646.3,359.1,1649.4z"/>
					<path class="st12" d="M350.8,1636.7c-17.5,0.6-31.9-15.7-31.9-15.7l30.4-0.7C348.9,1624.9,349.1,1631,350.8,1636.7z"/>
					<path class="st12" d="M358.6,1626.5c0,0-34.3,11.4-48.1-15.5c-14.9-29.1-2-51.8,9.7-54c23.4-4.4,37.7,3.7,42.4,12.9
						C367.5,1579.1,377.5,1620.3,358.6,1626.5z"/>
					<path class="st12" d="M343.8,1611.7c0,0,1.7,3.5,10.8,0.9c0,0,7.6-2.2,6.5-6.2C361,1606.4,352.9,1605.2,343.8,1611.7z"/>
				</g>
				<path class="st13" d="M405.2,1680.9c0.5-3.5,0.7-6.8,0.7-9.9c0-4.2-0.4-8-1.1-11.4c-2.6-14.2-9.4-22.2-9.4-22.2
					c-20.3,3.4-29.4,2.3-38.8,6.8c-0.8-0.1-1.8-0.2-2.7-0.3c0.5,5.4-1.1,10.5-10.5,12.4c-12.5,2.5-23.9-5.8-29.9-11.4
					c-9.9,2.1-16.1,3.2-23.9,6.4c-8.5,3.6-13.6,12.5-12.4,21.7l2.4,17.3l13.2,54.1c1,6.9,4.8,21.5,3.7,28.5
					c-1.6,10.5-6.1,27-10.6,45.7c0,0.1,0,0.1,0,0.1c-4.5,18.7-9,39.7-10.6,59.2c-2.4,27.5-4,48.9-3.5,49.3
					c9.9,9.5,83.1,29.1,124.3,15c4.1-1.4,2.1-75-1.6-146.6c-2.1-39.3-4.7-78-7.1-103.9c0,0,0,0,0.1,0
					C397.2,1687,405.2,1680.9,405.2,1680.9z"/>
				<path class="st14" d="M316.6,1750.9c-1.2,22-16.2,47.9-30.7,67.9c4.6-18.7,9-35.2,10.6-45.7c1.1-6.9-2.7-21.5-3.7-28.5
					l-13.2-54.1C287.5,1681.7,319.1,1707.5,316.6,1750.9z"/>
				<path class="st10" d="M334.6,1560.1c0,0,3.2,32.1-27.2,43.5c-12.1,4.5-18.4-44.6,6.9-54.4c25.3-9.8,50.3,1.8,53.3,19
					c3,17.1,0.7,20.7,0.7,20.7S356.4,1556.4,334.6,1560.1z"/>
				<path class="st14" d="M362.3,2078.6l-19-2.3c-0.1-0.2-0.3-0.4-0.4-0.6c0,0,0,0,0,0c0-0.1,0-0.2-0.1-0.2
					c-1.4-5.5-9.7-38.6-15.5-69.7c-0.4-2.2-0.8-4.3-1.2-6.5c5,0.3,26.5,1.1,42.9-7.5C364.3,2033,361,2068.7,362.3,2078.6z"/>
				<path class="st4" d="M362.1,2074.8c0,0,4.6,8.4,13.3,10.4c5.5,1.2,10.2,4.1,13.1,8.1c2.5,3.4,0,8.2-4.2,8.1H340
					c-3.8,0-6.7-3.5-6.3-7.3c0.3-3.3,0.7-7.1,0.9-10c0.4-6.4,7.4-12.2,7.4-12.2s6,3.5,8.3,3.9
					C355.4,2076.8,362.1,2074.8,362.1,2074.8z"/>
				<path class="st12" d="M314.1,1680.8c0,0-0.1-30.4-19.3-25.5c-19.2,4.9-35.9,60.2-42.4,77.9c-6.5,17.6-6.8,73.9-6.8,73.9
					s-8.3,20-0.9,23.4c7.4,3.4,11.9-13.9,13-13.5c1.1,0.4,1.7,6.2,4.1,3.2c1.9-2.5-3.4-14.3-3.4-14.3l0,0
					c2.8-9.5,17.5-61.7,17.5-61.7C290.6,1727.9,314.1,1680.8,314.1,1680.8z"/>
				<g>
					<g>
						<path class="st15" d="M295,1564.6c-1-4.3-0.1-5.5,1.2-5.9c1.4-0.3,2.7,0.3,3.8,4.6c1,4.3-0.6,8.4-0.6,8.4
							S296,1568.9,295,1564.6z"/>
						<path class="st15" d="M304.9,1564.9c3.5-2.7,5-2.3,5.9-1.2c0.9,1.1,0.8,2.6-2.7,5.3c-3.5,2.7-8,2.8-8,2.8
							S301.4,1567.6,304.9,1564.9z"/>
						<path class="st15" d="M291.4,1568.2c-4.4-0.8-5.5,0.2-5.8,1.6c-0.2,1.4,0.5,2.7,4.9,3.5c4.4,0.8,8.4-1.1,8.4-1.1
							S295.8,1568.9,291.4,1568.2z"/>
						<path class="st15" d="M293.1,1578.1c-2.1,3.9-1.6,5.3-0.3,6c1.2,0.7,2.7,0.4,4.9-3.5c2.1-3.9,1.6-8.3,1.6-8.3
							S295.2,1574.2,293.1,1578.1z"/>
						<path class="st15" d="M307.8,1574.5c3.7,2.5,3.8,4,3,5.2c-0.8,1.2-2.2,1.6-5.9-0.9c-3.7-2.5-5.2-6.6-5.2-6.6
							S304.1,1572,307.8,1574.5z"/>
					</g>
					<path class="st15" d="M297.4,1571.7c0-1,0.8-1.9,1.9-1.9c1,0,1.9,0.8,1.9,1.9c0,1-0.8,1.9-1.9,1.9
						C298.3,1573.6,297.4,1572.8,297.4,1571.7z"/>
				</g>
				<path class="st14" d="M290.6,2007.4c-0.3,0.5-0.7,0.9-1,1.4c-23.1,33.9-40.4,61.9-43.8,71.1l-19.5-2.9c0,0,13.1-52.9,24.9-88.5
					l0,0c0.2-0.6,0.4-1.1,0.6-1.7C259.5,1993.9,274,2005.2,290.6,2007.4z"/>
				<path class="st4" d="M248.2,2074.6c0,0,4.2,8.6,12.9,10.5c5.5,1.2,10.2,4.1,13.1,8.1c2.5,3.4,0,8.2-4.2,8.1h-44.3
					c-3.8,0-6.7-3.5-6.3-7.3c0.3-3.3,0.7-7.1,0.9-10c0.4-6.4,7.3-12.1,7.3-12.1s6.1,3.5,8.4,3.9
					C241.2,2076.8,248.2,2074.6,248.2,2074.6z"/>
				<path class="st14" d="M406,1671c0,3.1-0.2,6.4-0.7,9.9c0,0-8,6.1-17.8,10.9c-1.1-11.8,13.3-27.7,17.5-32.2
					C405.6,1663,406,1666.8,406,1671z"/>
				<path class="st13" d="M305.7,1706.2c0,0-24.6-0.2-42.9-21.2c0,0,19.2-44,39.2-33.2C322,1662.6,319.6,1695.3,305.7,1706.2z"/>
			</g>
			<path class="st8" d="M502.8,1634.3L502.8,1634.3c-3.2-0.7-5.2-3.8-4.5-7l14.9-68.2c0.7-3.2,3.8-5.2,7-4.5l0,0
				c3.2,0.7,5.2,3.8,4.5,7l-14.9,68.2C509.1,1633,506,1635,502.8,1634.3z"/>
			<g>
				<path class="st8" d="M833.7,1575.9L833.7,1575.9c-3.2-0.7-5.2-3.8-4.5-7l14.9-68.2c0.7-3.2,3.8-5.2,7-4.5l0,0
					c3.2,0.7,5.2,3.8,4.5,7l-14.9,68.2C840,1574.6,836.8,1576.6,833.7,1575.9z"/>
				<g>
					<path class="st16" d="M1052.6,1636c0,0,47.8,94.1,52.9,108.7c5.1,14.6,15.6,54.5,15.6,54.5l-14.2,1.9c0,0-19.9-42.2-21.3-46.9
						c-1.5-4.7-30.2-33.9-35.1-48.2C1045.4,1691.7,1052.6,1636,1052.6,1636z"/>
					<path class="st4" d="M1080.5,2075.6c0,0-3.9,7.7-12.7,9.6c-5.5,1.2-10.2,4.1-13.1,8.1c-2.5,3.4-0.1,8.2,4.1,8.2h44.3
						c3.8,0,6.7-3.3,6.3-7c-0.3-3.3-0.7-7.1-0.8-10c-0.3-6.4-6.7-11.6-6.7-11.6L1080.5,2075.6z"/>
					<path class="st8" d="M1106.3,2074.9c-19.5,10.9-31.5,4.7-31.5,4.7c-0.8-10.1-13.8-62.1-27.7-116.3
						c-17.1-66.3-35.7-135.8-35.7-135.8s39.6-35.2,68.4-16c13.3,8.9,17.6,31.8,19.4,56.7c2.2,29,1,60.6,7.1,75.7
						C1117.6,1971.9,1106.3,2074.9,1106.3,2074.9z"/>
					<path class="st9" d="M1099.1,1868.1l-52.1,95.1c-17.1-66.3-35.7-135.8-35.7-135.8s39.6-35.2,68.4-16
						C1093,1820.3,1097.3,1843.2,1099.1,1868.1z"/>
					<path class="st16" d="M983.2,1647.3l33,15.2l7.4-25.7c0,0-4.7-8.9-6.8-23.4c-0.9-6.1-1.3-13.2-0.8-21.1l-30.2,15.4
						c0,0,0.7,2.8,1.2,6.9c0.5,4.4,0.7,10.4-0.5,16.1C985.4,1635.6,984.2,1640.9,983.2,1647.3z"/>
					<path class="st17" d="M986.5,1630.7c17.1-0.5,30.2-17.3,30.2-17.3l-29.7,1.2C987.6,1619,987.8,1625,986.5,1630.7z"/>
					<path class="st16" d="M978.2,1621.2c0,0,34.2,9,46-18.2c12.7-29.4-1.2-50.7-12.9-52.2c-23.2-2.9-36.6,6-40.7,15.3
						C966.6,1575.4,959.3,1616.3,978.2,1621.2z"/>
					<path class="st18" d="M973.2,1561.9c-9.1,0.7-20-8.5-9.7-22.8c9.4-13,46.4-20.8,65.7-5.8c45,34.9,12.5,71.2-8,81.6
						c-2.6,1.3-5.8,0.5-7.5-1.8c-3.5-4.8-8.6-12.8-7.2-16c2-4.8,2.3-16.6-4.1-14.1C996.1,1585.5,982.2,1561.2,973.2,1561.9z"/>
					<path class="st4" d="M975.6,2075.6c0,0-3.9,7.7-12.7,9.6c-5.5,1.2-10.2,4.1-13.1,8.1c-2.5,3.4-0.1,8.2,4.1,8.2h44.3
						c3.8,0,6.7-3.3,6.3-7c-0.3-3.3-0.7-7.1-0.8-10c-0.3-6.4-6.7-11.6-6.7-11.6L975.6,2075.6z"/>
					<path class="st8" d="M974.5,2077.6c0,0,10.6,6.3,28.6,2.5c0,0,30.6-78.2,32.4-115c0.1-1.5,0.1-2.9,0.1-4.2
						c-0.6-34.6,31.3-124.7,22.7-143.2c-8.6-18.5-78.3,8.3-78.3,8.3l-1.4,62.8L974.5,2077.6z"/>
					<path class="st5" d="M996.3,1839c-9.9-0.4-17.3-1.4-20-3.3c-11-7.9-11-85.6-16.7-129.5c-0.6-4.8-1.3-9.2-2.1-13
						c-7.9-39.3,3.2-57.1,20.6-56.3c0,0,46.5-11.6,65.3,1.3c16.4,11.3,35.9,105.4,51.8,186.6
						C1096.9,1832.9,1031.2,1840.3,996.3,1839z"/>
					<g>
						<path class="st16" d="M981.8,1659.4c0,0-74.8-34.1-80.6-40.1c-5.8-6.1-42.4-65.1-42.4-65.1l-13.4,6c0,0,26.6,76.2,37.1,89.3
							c10.5,13.2,99.4,55.5,99.4,55.5L981.8,1659.4z"/>
						<path class="st16" d="M858.8,1554.2c0,0-2.2-6-1.8-11.7c0.4-5.7-4.9-18.6-7.2-17c-2.3,1.5,0.3,5.9-2.6,6.2
							c-3,0.3-12.2-13.7-15.4-11.1c-3.2,2.5-4.2,8.5,0.4,19.3c4.6,10.8,13.2,20.3,13.2,20.3L858.8,1554.2z"/>
					</g>
					<path class="st16" d="M1106.6,1798.1c0,0,0.6,5.5-0.8,10.3c-1.5,4.8,0.4,16.8,2.7,15.9c2.2-0.8,0.9-5.1,3.5-4.8
						c2.6,0.3,7.6,14.1,10.9,12.6c3.2-1.5,5.3-6.4,3.6-16.5c-1.7-10.1-7.1-19.9-7.1-19.9L1106.6,1798.1z"/>
					<path class="st5" d="M985,1637.8c0,0-18.3-2.5-25.7-3.2c-6.8-0.7-26.2,2-26.2,2s-0.2,45.8,25.5,66.9l31.8,5.5L985,1637.8z"/>
					<path class="st5" d="M1021.6,1632.2c0,0,26.9,0.7,32,2.2c11.9,3.5,21.7,29.1,21.7,29.1s-7.3,22.2-20.4,22.9
						C1041.8,1687.2,1021.6,1632.2,1021.6,1632.2z"/>
					<path class="st6" d="M996.3,1839c-9.9-0.4-17.3-1.4-20-3.3c-11-7.9-11-85.6-16.7-129.5C966.2,1723.2,1001.2,1815.2,996.3,1839z
						"/>
				</g>
			</g>
			<g>
				<path class="st13" d="M859.1,1262.6c-2.6,0-4.4-2.7-3.3-5.1l0,0c0.2-0.5,3.9-17.9,14.6-30.3c13.4-15.6,30.7-18.9,46.3-17.9
					c1.1,0.1,2.3-0.4,3-1.3c8.2-9.9,33.7-43.8,68.3-48.5c17.8-2.4,36.5,6.3,52.2,18c0.6,0.4,1.3,0.7,2,0.7
					c10.9,0.4,56.3-4.5,79.7,22.2c11.6,13.3,15.3,38.4,12.7,58.5l0,0c-0.2,1.8-1.8,3.1-3.6,3.2L859.1,1262.6z M914.1,1216.5
					c-21.9,0-37.9,20.4-45.9,33.4c-1.5,2.4,0.3,5.5,3.1,5.5l253.3-0.4c1.9,0,3.5-1.5,3.6-3.4c0.7-15.1-3.5-27.9-12.4-38.1
					c-24.1-27.5-75.3-28-75.8-28h0c-0.8,0-1.6-0.3-2.2-0.8l0,0c-14.7-11.5-30.4-16.2-46.9-14c-37.7,5-67.4,44.4-67.7,44.8l0,0
					c-0.8,1.1-2.1,1.6-3.4,1.4h0C917.7,1216.6,915.8,1216.5,914.1,1216.5z"/>
			</g>
			<g>
				<path class="st13" d="M1229.4,1509.5c-2.2,0-3.6-2.2-2.8-4.2v0c0.2-0.5,3.1-15.7,12-26c11.1-13,25.6-14.9,38.6-14.1
					c1,0.1,1.9-0.3,2.5-1.1c6.8-8.3,26.9-35.8,55.7-39.7c14.8-2,31.5,4.6,44.6,14.3c0.5,0.4,1.1,0.6,1.7,0.6c9,0.3,49.4-3.6,69,18.7
					c9.7,11,10.1,31.7,7.9,48.5l0,0c-0.2,1.5-1.5,2.6-3,2.6L1229.4,1509.5z M1275.1,1471.1c-18.2,0-31.5,16.9-38.2,27.8
					c-1.2,2,0.2,4.6,2.6,4.6l210.6-0.3c1.6,0,2.9-1.2,3-2.8c0.5-12.6-2.9-23.2-10.3-31.7c-20.1-22.9-62.6-23.3-63-23.3h0
					c-0.7,0-1.3-0.2-1.8-0.6l0,0c-12.2-9.5-25.3-13.4-39-11.6c-31.4,4.2-56.1,36.9-56.3,37.2l0,0c-0.7,0.9-1.8,1.3-2.9,1.2l0,0
					C1278.1,1471.2,1276.6,1471.1,1275.1,1471.1z"/>
			</g>
			<g>
				<path class="st11" d="M1198.7,1909.4L1198.7,1909.4c-0.8-0.9-0.6-2.3,0.3-3.1l25.7-21.3c0.9-0.8,2.3-0.6,3.1,0.3l0,0
					c0.8,0.9,0.6,2.3-0.3,3.1l-25.7,21.3C1200.9,1910.5,1199.5,1910.4,1198.7,1909.4z"/>
				<path class="st16" d="M1442,1768.5c0,0,66.6,63,60.4,86.7c-6.2,23.7-30,31-30,31L1442,1768.5z"/>
				<path class="st8" d="M1468.3,1824c-1.1,0.5-2.4,1-3.7,1.2c-13.9,2.1-22.7-56.7-22.7-56.7s29.5,19.9,35,28
					C1477,1796.5,1478.4,1818.1,1468.3,1824z"/>
				<path class="st9" d="M1468.3,1824l-18.3-29c11.5-2.7,27,1.5,27,1.5S1478.4,1818.1,1468.3,1824z"/>
				<path class="st19" d="M1420.2,1938.7c0,0-40.2,55.5-47.1,118.8c-1.8,16.6,29,44,45.7,44h108.9l-12.2-21c0,0-60.8-29.1-72.4-28.6
					c0,0,63.7-53.8,52.8-96.2C1490.4,1934.9,1420.2,1938.7,1420.2,1938.7z"/>
				<path class="st4" d="M1517.6,2101.4l65.5-0.2c0,0-4.4-16.1-21.6-13.8c-17.2,2.3-22.6-9.3-33.4-10.5c-10.8-1.1-12.6,3.4-12.6,3.4
					L1517.6,2101.4z"/>
				<path class="st7" d="M1483.8,2101.4l65.5-0.2c0,0-4.4-16.1-21.6-13.8c-17.2,2.3-22.6-9.3-33.4-10.5c-10.8-1.1-12.6,3.4-12.6,3.4
					L1483.8,2101.4z"/>
				<path class="st16" d="M1372.4,1785.1c0,0-60.5,71.7-77.6,73.5c-17.1,1.8-59.3,24.2-59.3,24.2l3.7,13.4c0,0,51.3-4.6,64.2-7.7
					c12.9-3.1,84.3-41.2,85.2-56.8C1389.6,1816,1408.3,1789.8,1372.4,1785.1z"/>
				<path class="st8" d="M1387.9,1782.1c0,0-15.6-0.5-28.9,11.3c-13.3,11.8-34.5,33.9-34.5,33.9s10.3,38.3,53,38.7
					C1420.2,1866.4,1415.5,1788.6,1387.9,1782.1z"/>
				<g>
					<path class="st7" d="M1401.2,1679c0,0-0.5-8.2-5.2-12.4c0,0,2.8,7.2,1.2,11.5C1395.7,1682.5,1401.2,1679,1401.2,1679z"/>
					<path class="st7" d="M1398.1,1674.4c0,0,6.3-3.4,11.5,0.4c0,0-6-1.3-9.3,4L1398.1,1674.4z"/>
				</g>
				<path class="st16" d="M1382.3,1794.8l38.3,1.8l-2.9-28c0,0-8.1-6.8-16-20.2c-3.3-5.6-6.5-12.4-9.1-20.3l-23.3,27
					c0,0,1.8,2.4,3.9,6.3c2.3,4.1,4.9,9.9,5.9,16C1379.9,1782.5,1380.8,1788.1,1382.3,1794.8z"/>
				<path class="st17" d="M1379,1777.2c16.6-7.2,22.7-28.9,22.7-28.9l-28.6,12.9C1375.4,1765.4,1378,1771.2,1379,1777.2z"/>
				<path class="st16" d="M1367.1,1771.2c0,0,37-4.7,37.7-36c0.8-33.7-21.3-49.1-33.2-45.9c-23.8,6.4-33.4,20.3-33.7,31
					C1337.7,1731.1,1346.8,1774,1367.1,1771.2z"/>
				<path class="st7" d="M1338.8,1715.3c-8.6,4.3-19.1,0-14.6-18c4-16.4,38.7-33.3,59.8-28c58.2,14.7,38.7,60.4,22.8,78.7
					c-2,2.3-5.4,2.8-8,1.2c-5.3-3.3-13.5-9.1-13.4-12.8c0.1-5.5-4.3-17.1-9.6-12.1C1370.4,1729.3,1347.3,1711.1,1338.8,1715.3z"/>
				<path class="st11" d="M1390.9,1938.7c0,0-59.4,68.7-66.2,132c-1.8,16.6,12,30.8,28.6,30.8h137.4c0,0,1-6.8-1.4-12.3
					c-1.1-2.5-7.8-8.7-7.8-8.7s-88.4-28.2-100-27.7c0,0,111.3-55.7,98-93C1472.5,1939.5,1390.9,1938.7,1390.9,1938.7z"/>
				<path class="st8" d="M1499.8,1967.4c0,0-33.9,12.6-78.8,2.2c-15.7-3.6-32.8-10-50.3-20.8c0,0-29.1-132.4-4.6-160.6
					c0,0,54.4-31.6,75.8-19.7c0,0,17.1,23.8,32.7,68.1C1486.3,1869.4,1497.2,1913.5,1499.8,1967.4z"/>
				<path class="st16" d="M1241.8,1882.8c0,0-18.1-6.6-25-1.6c-7,5-15.1,20-12.4,20c4.3,0,12.8-9.5,16.6-8.4c3.9,1.2-11,6.5-8.7,7.9
					c2.3,1.4,6.2-1.6,10.1-1.2c3.9,0.4,7.7,0.8,11.7-1.5c4-2.3,15.6-2.9,15.6-2.9L1241.8,1882.8z"/>
				<path class="st9" d="M1499.8,1967.4c0,0-33.9,12.6-78.8,2.2c58-23,53.6-133,53.6-133C1486.3,1869.4,1497.2,1913.5,1499.8,1967.4
					z"/>
			</g>
			<g>
				<path class="st8" d="M808.2,1934.7L808.2,1934.7c0.7-0.8,0.6-2-0.3-2.7l-22.3-18.5c-0.8-0.7-2-0.6-2.7,0.3l0,0
					c-0.7,0.8-0.6,2,0.3,2.7l22.3,18.5C806.4,1935.6,807.6,1935.5,808.2,1934.7z"/>
				<path class="st20" d="M597,1812.3c0,0-57.8,54.7-52.4,75.3c5.4,20.6,26,26.9,26,26.9L597,1812.3z"/>
				<path class="st5" d="M574.1,1860.5c1,0.4,2,0.9,3.2,1.1c12,1.8,19.7-49.3,19.7-49.3s-25.6,17.3-30.4,24.3
					C566.5,1836.6,565.4,1855.3,574.1,1860.5z"/>
				<path class="st17" d="M656.9,2063.2c1.5,14.5-25.3,38.3-39.7,38.3h-94.6l4-6.8l6.7-11.4c0,0,34.7-16.6,53.2-22.7
					c4.3-1.5,7.8-2.4,9.7-2.2c0,0-55.4-46.8-45.8-83.6c4.7-18,65.6-14.7,65.6-14.7S650.8,2008.3,656.9,2063.2z"/>
				<path class="st14" d="M526.5,2094.6l6.7-11.4c0,0,34.7-16.6,53.2-22.7c3.6,5,11.1,12.8,22.7,13.9
					C623.8,2075.8,548.3,2090.5,526.5,2094.6z"/>
				<path class="st6" d="M531.3,2101.4l-56.9-0.2c0,0,3.9-14,18.8-12c14.9,2,19.6-8.1,29-9.1c9.4-1,10.9,3,10.9,3L531.3,2101.4z"/>
				<path class="st5" d="M560.7,2101.4l-56.9-0.2c0,0,3.9-14,18.8-12c14.9,2,19.6-8.1,29-9.1c9.4-1,10.9,3,10.9,3L560.7,2101.4z"/>
				<path class="st20" d="M657.4,1826.7c0,0,52.5,62.3,67.4,63.8c14.9,1.6,51.5,21,51.5,21l-3.2,11.6c0,0-44.5-4-55.7-6.7
					c-11.2-2.7-73.2-35.7-74-49.3C642.4,1853.6,626.2,1830.8,657.4,1826.7z"/>
				<path class="st5" d="M644,1824.1c0,0,13.5-0.5,25.1,9.8c11.6,10.3,30,29.5,30,29.5s-8.9,33.2-46,33.6
					C615.9,1897.4,619.9,1829.8,644,1824.1z"/>
				<path class="st20" d="M648.8,1835.1l-33.2,1.5l2.5-24.3c0,0,7.1-5.9,13.9-17.5c2.9-4.9,5.7-10.8,7.9-17.7l20.3,23.5
					c0,0-1.6,2.1-3.4,5.4c-2,3.6-4.2,8.6-5.1,13.9C650.9,1824.4,650.1,1829.3,648.8,1835.1z"/>
				<path class="st17" d="M651.6,1819.9c-14.4-6.3-19.7-25.1-19.7-25.1l24.8,11.2C654.8,1809.6,652.5,1814.6,651.6,1819.9z"/>
				<path class="st20" d="M662,1814.7c0,0-32.1-4.1-32.8-31.2c-0.7-29.3,18.5-42.6,28.8-39.8c20.6,5.5,29,17.6,29.3,27
					C687.5,1779.9,679.6,1817.1,662,1814.7z"/>
				<path class="st20" d="M698.8,2074.7c1.6,14.4-10.4,26.7-24.9,26.7H554.6c0,0-0.7-5.9,1.2-10.6c0.9-2.2,6.7-7.6,6.7-7.6
					s48.2-15.4,73.2-21.5c6.6-1.7,11.6-2.7,13.7-2.6c0,0-96.7-48.3-85.2-80.7c6.3-17.6,77.1-18.3,77.1-18.3
					S692.9,2019.7,698.8,2074.7z"/>
				<path class="st5" d="M674.4,2007.7c-16.1,16.5-49.8,33.4-63.5,36.5c-6.4,1.5-12.6,2.5-18.5,3.1c-29.8,3.2-51.5-3.1-51.5-3.1
					c-5.1-44,3.8-91.6,13.5-127.4v-0.1c5.2-19.3,10.7-35.3,14.1-45.2c13.6-38.5,28.4-59.2,28.4-59.2c18.7-10.3,65.9,17.1,65.9,17.1
					C684.1,1853.9,674.4,2007.7,674.4,2007.7z"/>
				<path class="st20" d="M770.8,1911.6c0,0,15.7-5.8,21.8-1.4c6,4.4,13.1,17.4,10.8,17.4c-3.7,0-11.1-8.3-14.5-7.3
					c-3.4,1,9.6,5.7,7.6,6.9c-2,1.2-5.4-1.3-8.8-1c-3.4,0.3-6.7,0.7-10.1-1.3c-3.5-2-13.6-2.5-13.6-2.5L770.8,1911.6z"/>
				<path class="st7" d="M687.3,1763.7c0,0-19.5,24.5-36.3,19.2c0,0-4.8-8.1-8.7-4.8c-3.9,3.3,0,7.5,0,8.9c0,1.4-9.6,11.2-11.5,9.7
					c-1.9-1.5-35.3-9.5-21.8-37.1c13.5-27.6,36.7-35.3,47.7-31.2C667.7,1732.4,692.2,1756.1,687.3,1763.7z"/>
				<path class="st13" d="M657.1,2101.4H554.6c0,0-0.7-5.9,1.2-10.6c0.9-2.2,6.7-7.6,6.7-7.6s48.2-15.4,73.2-21.5
					C635.7,2069.6,637.5,2088.3,657.1,2101.4z"/>
				<path class="st7" d="M631.9,1738.5c0,0-4-42.2-19.5-40.4c-15.5,1.7-20.7-14.4-30.8-13.6c-10,0.9-14.7,10.7-25,8.6
					c-10.3-2.1-20.6,7.3-17.2,18.4c3.3,11-6.7,15.2-0.6,24.4c6,9.3,4.6,15.4,5.3,26c0.7,10.6,10,23.4,19.3,17
					c9.3-6.4,18.1,4.2,27.9-1.9c9.8-6.1,8.6-20,17.7-17.7S631.9,1738.5,631.9,1738.5z"/>
				<path class="st6" d="M631.3,1733.4c0,0-1.4,20.1-22.3,26c0,0,14.7,2.6,20.9-5.9C636.1,1745,631.3,1733.4,631.3,1733.4z"/>
				<path class="st6" d="M592.5,2047.3c-29.8,3.2-51.5-3.1-51.5-3.1c-5.1-44,3.8-91.6,13.5-127.4
					C554.2,1921.9,559.2,2035.4,592.5,2047.3z"/>
			</g>
			<g>
				<path class="st8" d="M1296.1,1948.5c-8.6-8.7-22.4-8.3-34.4,0.8c-7.3,5.6-12,20.4-15,38.8c-10.2-26.9-33.7-44.7-35-45.8
					l-2.3,1.5c0.3,0.3,26.4,28.2,30.2,60.5c-1-1.9-2.2-3.4-3.5-4.4c-7.7-6.2-16.8-6.6-22.5-1c-5.9,5.6-8.2,18.3,4.4,35.6
					c19,25.9,22.1,68.6,22.1,69l2.6,0c0.1,1.4,0.1,2.6,0.2,3.4l9.2,0.2c0.1-0.7,6.3-65.6,36-104.4
					C1308,1976.6,1304.9,1957.2,1296.1,1948.5z M1241.4,2074c-3.4-13.9-9.1-30.3-18.5-43.2c-9.7-13.2-9.6-23.4-5.1-27.7
					c1.2-1.1,2.6-1.8,4.2-2.1c3.2-0.5,6.9,0.7,10.4,3.4C1240,2010.6,1241.9,2043.6,1241.4,2074z M1280.9,1997
					c-14.8,19.3-24,44.1-29.7,65.2c0.2-46.3,4.3-96.5,16.1-105.6c5.4-4.1,11.2-5.8,16-4.9c2.4,0.5,4.6,1.5,6.3,3.3
					C1296.2,1961.6,1296.1,1977.1,1280.9,1997z"/>
				<path class="st11" d="M1209.6,1937.3c-0.7-0.1,2.7-22.9,15-18.7C1236.9,1922.8,1228.7,1939.3,1209.6,1937.3z"/>
				<path class="st11" d="M1205.9,1937.5c-0.4,0.6-18.9-13.3-9.3-22.1C1206.2,1906.5,1216.8,1921.6,1205.9,1937.5z"/>
				<path class="st11" d="M1202.2,1938.1c0.4,0.5-17.9,14.5-23.8,2.9C1172.4,1929.4,1189.8,1923.3,1202.2,1938.1z"/>
				<path class="st11" d="M1204.2,1939.2c0.6-0.3,11,20.3-1.5,24C1190.2,1966.8,1187.4,1948.6,1204.2,1939.2z"/>
				<path class="st11" d="M1208,1939.7c-0.1-0.7,23-2.2,21.5,10.7C1228,1963.3,1210.1,1958.8,1208,1939.7z"/>
			</g>
		</g>
		<path style="clip-path:url(#SVGID_00000120535797131825326650000001832483742604271267_);fill:#FFAF06;" d="M1860.9,2107.9h-1708
			c-2.5,0-4.6-2-4.6-4.6l0,0c0-2.5,2-4.6,4.6-4.6h1708c2.5,0,4.6,2,4.6,4.6l0,0C1865.5,2105.8,1863.4,2107.9,1860.9,2107.9z"/>
	</g>
</g>
</svg>
