<?xml version="1.0" encoding="utf-8"?>
<!-- Generator: Adobe Illustrator 26.0.1, SVG Export Plug-In . SVG Version: 6.00 Build 0)  -->
<svg version="1.1" xmlns="http://www.w3.org/2000/svg" xmlns:xlink="http://www.w3.org/1999/xlink" x="0px" y="0px"
	 viewBox="0 0 500 500" style="enable-background:new 0 0 500 500;" xml:space="preserve">
<style type="text/css">
	.st0{opacity:0.49;fill:#333A60;}
	.st1{fill:#333A60;}
	.st2{opacity:0.65;}
	.st3{fill:#FFFFFF;}
	.st4{opacity:0.3;}
	.st5{fill:#606060;}
	.st6{opacity:0.65;fill:#FFFFFF;}
	.st7{opacity:0.3;fill:#FFFFFF;}
	.st8{fill:#E0E0E0;}
	.st9{opacity:0.21;fill:#86A4D5;}
	.st10{fill:#86A4D5;}
	.st11{fill:#BA68C8;}
	.st12{fill:#FAFAFA;}
	.st13{fill:#3E6193;}
	.st14{fill:#FFA8A7;}
	.st15{fill:#F28F8F;}
	.st16{fill:#455A64;}
	.st17{fill:#263238;}
	.st18{fill:#37474F;}
	.st19{opacity:0.25;}
	.st20{opacity:0.1;fill:#FFFFFF;}
	.st21{fill:#474F70;}
	.st22{fill:#F5F5F5;}
	.st23{fill:#B16668;}
</style>
<g id="Floor">
</g>
<g id="Plants">
</g>
<g id="Shadows">
</g>
<g id="Clouds">
</g>
<g id="Question_Marks">
</g>
<g id="Big_Question_Mark">
</g>
<g id="Character">
	<g>
		<path id="Floor_00000089560018213563598630000012790944261333660576_" class="st0" d="M98.3,278.6c-83.8,48.4-83.8,126.8,0,175.1
			c83.8,48.4,219.5,48.4,303.3,0c83.8-48.4,83.8-126.8,0-175.1C317.9,230.2,182.1,230.2,98.3,278.6z"/>
		<g id="Plants_1_">
			<g id="XMLID_1047_">
				<g id="XMLID_00000016047532555728134570000012214407795756843176_">
					<path id="XMLID_1085_" class="st1" d="M115.1,394l8.2-4.7c0,0,4.9-20.3,2.9-38.6c-2.7-25.7-19.7-35.4-26.1-33.2
						c-6.4,2.2-8.3,9.7,2.3,25C108.8,351.5,116.5,370.3,115.1,394z"/>
				</g>
				<g id="XMLID_00000107561789029438799510000011202710443911869344_" class="st2">
					<path id="XMLID_00000176760673678195975060000005122582842707721089_" class="st3" d="M115.1,394l8.2-4.7
						c0,0,4.9-20.3,2.9-38.6c-2.7-25.7-19.7-35.4-26.1-33.2c-6.4,2.2-8.3,9.7,2.3,25C108.8,351.5,116.5,370.3,115.1,394z"/>
				</g>
				<g id="XMLID_1048_">
					<path id="XMLID_1049_" class="st3" d="M118.5,384C118.4,384,118.4,384,118.5,384c-0.4-0.1-0.6-0.4-0.5-0.7
						c4.5-23.7-3.8-50.3-14-61.4c-0.2-0.2-0.2-0.6,0-0.8c0.2-0.2,0.6-0.2,0.8,0c10.4,11.3,18.9,38.4,14.3,62.4
						C119,383.8,118.7,384,118.5,384z"/>
				</g>
			</g>
			<g id="XMLID_1183_">
				<g id="XMLID_1044_">
					<path id="XMLID_1046_" class="st1" d="M95.9,406c-1.2,0.6-6-2.3-6.9-2.9c-1.6-1.2-2.8-2.8-3.6-4.5c-0.9-2.1-1.1-4.2-0.6-6.5
						c0.2-1.1,0.6-2.3,1-3.4c0.4-1.1,0.7-2.2,1.1-3.3c0.4-1.1,0.7-2.2,0.7-3.3c-0.2-2.3-2.1-4-3.9-5.4c-1.9-1.6-3.9-3.7-3.8-6.4
						c0.1-2.1,1.3-4,2.7-5.6c1.4-1.6,3-3,4.3-4.6c0.9-1.2,1.6-2.6,1.6-4.2c0-0.9-0.4-1.8-0.8-2.7c-0.9-1.8-2.1-3.5-2.6-5.4
						c-0.6-1.9-0.4-4.3,1.2-5.6c1.3-1.1,3.1-1.1,4.7-0.9c1.5,0.2,3,0.9,4.3,1.8c4.2,2.6,6.4,7.9,10.9,9.9c1.7,0.8,3.7,1.1,5.5,1.6
						c1.8,0.6,3.7,1.6,4.4,3.4c1.5,3.4-1.8,7.4-0.8,11.1c0.9,3.2,3.9,4.6,5.5,7.5c0.7,1.3,0.8,2.7,0.6,4.2c-0.3,2.4-0.8,4.2-2.1,6.9
						c-1.1,2.2-4.2,6.4-4.2,6.4S96.1,405.9,95.9,406z"/>
				</g>
				<g id="XMLID_00000096744945403115106880000008699267350103333265_" class="st4">
					<path id="XMLID_00000017501320074041377370000000134957267383465360_" class="st5" d="M96.6,406c-1.2,0.6-6-2.3-6.9-2.9
						c-1.6-1.2-2.8-2.8-3.6-4.5c-0.9-2.1-1.1-4.2-0.6-6.5c0.2-1.1,0.6-2.3,1-3.4c0.4-1.1,0.7-2.2,1.1-3.3c0.4-1.1,0.7-2.2,0.7-3.3
						c-0.2-2.3-2.1-4-3.9-5.4c-1.9-1.6-3.9-3.7-3.8-6.4c0.1-2.1,1.3-4,2.7-5.6c1.4-1.6,3-3,4.3-4.6c0.9-1.2,1.6-2.6,1.6-4.2
						c0-0.9-0.4-1.8-0.8-2.7c-0.9-1.8-2.1-3.5-2.6-5.4c-0.6-1.9-0.4-4.3,1.2-5.6c1.3-1.1,3.1-1.1,4.7-0.9c1.5,0.2,3,0.9,4.3,1.8
						c4.2,2.6,6.4,7.9,10.9,9.9c1.7,0.8,3.7,1.1,5.5,1.6c1.8,0.6,3.7,1.6,4.4,3.4c1.5,3.4-1.8,7.4-0.8,11.1c0.9,3.2,3.9,4.6,5.5,7.5
						c0.7,1.3,0.8,2.7,0.6,4.2c-0.3,2.4-0.8,4.2-2.1,6.9c-1.1,2.2-4.2,6.4-4.2,6.4S96.8,405.9,96.6,406z"/>
				</g>
				<g id="XMLID_1186_">
					<path id="XMLID_00000088110240148185522860000000928962073810347693_" class="st3" d="M106.3,399.7
						C106.3,399.7,106.3,399.7,106.3,399.7c-0.3,0-0.5-0.3-0.5-0.6c2-21.3-6.9-45.4-13.9-52.6c-0.2-0.2-0.2-0.6,0-0.8
						c0.2-0.2,0.6-0.2,0.8,0c7.1,7.4,16.2,31.9,14.2,53.5C106.8,399.5,106.6,399.7,106.3,399.7z"/>
				</g>
				<g id="XMLID_1184_">
					<path id="XMLID_1185_" class="st3" d="M104.2,373.4c-0.1,0-0.1,0-0.2,0c-6.8-2.5-15.3-3.3-15.4-3.3c-0.3,0-0.5-0.3-0.5-0.6
						c0-0.3,0.3-0.5,0.6-0.5c0.1,0,8.8,0.8,15.7,3.3c0.3,0.1,0.4,0.4,0.3,0.7C104.6,373.3,104.4,373.4,104.2,373.4z"/>
				</g>
			</g>
		</g>
		<g id="Plants_00000056396546491214091740000006627246613077928336_">
			<g id="XMLID_00000045590709977568564470000011968448329950490534_">
				<path class="st1" d="M371.3,391.9l12.5,7.2c-0.2-4.5-0.6-11.1,0.1-15.6c3.8-27.4,14.4-36.4,19.5-49.7c5.3-14-1.2-18.5-9.6-16
					c-7.5,2.3-18.5,13.4-21.9,33.8C369.6,365.3,370,380,371.3,391.9z"/>
				<path class="st6" d="M371.3,391.2l12.5,7.2c-0.2-4.5-0.6-11.1,0.1-15.6c3.8-27.4,14.4-36.4,19.5-49.7c5.3-14-1.2-18.5-9.6-16
					c-7.5,2.3-18.5,13.4-21.9,33.8C369.6,364.6,370,379.3,371.3,391.2z"/>
				<g id="XMLID_00000029005332805056235440000016729777630228608909_">
					<path class="st3" d="M377.9,395.8l1.3,0.7c-4.5-31.9,6.4-59.6,17.2-71c0.2-0.2,0.2-0.6,0-0.8c-0.2-0.2-0.6-0.2-0.8,0
						C384.8,336.1,373.9,364,377.9,395.8z"/>
				</g>
			</g>
			<g id="XMLID_00000162337323901133543630000013609944592777736894_">
				<path class="st1" d="M380.3,397.1l7,4.1h0c3.7-11,7.6-15.5,12.4-22.7c4.4-6.6,9.4-10.7,12.1-15.3c2.4-4.1,4.2-9.3,0.6-12.4
					c-5.6-5-13,0.3-18,6C390,361.7,381.2,374.7,380.3,397.1z"/>
				<path class="st7" d="M380.3,395.7l7,4.1h0c3.7-11,7.6-15.5,12.4-22.7c4.4-6.6,9.4-10.7,12.1-15.3c2.4-4.1,4.2-9.3,0.6-12.4
					c-5.6-5-13,0.3-18,6C390,360.3,381.2,373.3,380.3,395.7z"/>
				<g id="XMLID_00000085971169075221850650000018000725210271740841_">
					<path class="st3" d="M383.2,398.8l1,0.6c3-17.5,14.8-37.6,22.2-42.4c0.3-0.2,0.3-0.5,0.2-0.8c-0.2-0.3-0.5-0.3-0.8-0.2
						C398.1,361,386.3,381.1,383.2,398.8z"/>
				</g>
			</g>
		</g>
		<ellipse id="Shadow_00000058584581148304501300000008007075023411612297_" class="st8" cx="156.7" cy="414.5" rx="63" ry="36.4"/>
		
			<ellipse id="Shadow_00000116236154481527928550000009550022623772797364_" class="st8" cx="335.4" cy="416.1" rx="60.3" ry="34.8"/>
		<path id="Cloud_3_" class="st9" d="M173.9,116.4c-0.9-0.4-2-0.5-2.8-0.5c-0.9-0.1-1.2-0.3-1.4-0.4c-2.2-3.2-5.9-3.3-8-2.4
			c-0.5-2.2-3.2-4.1-6.1-3.4c0.1-2.8-3.5-5.9-6.8-6.6c-3.1-0.7-5.8-0.4-7.6,1.7c-1.9-3.7-9.3-4.8-13.4-2.8c-2.3,1.1-4.3,2.3-5.2,4.4
			c-0.6,1.4-0.9,2.3-0.9,4.2c-1.6-1.4-4.7-1.8-6.8-0.9c-2.3,0.9-2.4,2.6-2.5,4.3c-2.2-0.6-3.7-0.2-4.1-0.1c-1.4,0.4-2.2,1.5-2.1,2.4
			c-1.1-0.1-3.8,0.8-3.5,2c0.3,1.3,3.4,1.2,4.6,1.2c0.9,0,2.2-0.3,3.2-0.5c0.3,0.2,1.1,0.3,1.7,0.3c2,0,2.8-0.9,3.1-1.6
			c1,2,4.3,3.5,6.7,4.1c4.5,1.2,10.9,0.5,13.7-2.9c0.3,0.6,0.8,1.2,1.3,1.6c1.1,0.9,2.6,1.5,4.2,1.7c1.9,0.2,6.8,0.4,8.2-2.5
			c1,2,5.4,2.9,8.8,2.4c1.3-0.2,2.7-0.6,3.8-1.1c0.9-0.4,1.4-0.8,2.2-1.3c0.7-0.4,1-0.4,1.8-0.1c2.3,0.7,5,1,7.4,0
			C175.2,118.8,175.6,117.2,173.9,116.4z"/>
		<path id="Cloud_4_" class="st9" d="M104.4,166c-0.9-0.4-1.9-0.4-2.7-0.5c-0.9-0.1-1.1-0.2-1.3-0.4c-2.1-3-5.5-3.1-7.6-2.2
			c-0.5-2.1-3-3.8-5.7-3.2c0.1-2.7-3.3-5.5-6.4-6.2c-2.9-0.6-5.5-0.4-7.2,1.6c-1.8-3.5-8.8-4.5-12.6-2.6c-2.2,1.1-4.1,2.2-5,4.2
			c-0.6,1.3-0.8,2.2-0.8,4c-1.5-1.3-4.5-1.7-6.4-0.9c-2.1,0.8-2.3,2.4-2.4,4.1c-2.1-0.5-3.5-0.2-3.9-0.1c-1.3,0.4-2.1,1.5-1.9,2.3
			c-1.1-0.1-3.6,0.8-3.3,1.9c0.3,1.3,3.2,1.1,4.3,1.1c0.9,0,2.1-0.3,3-0.5c0.3,0.1,1.1,0.3,1.6,0.3c1.8,0,2.6-0.8,2.9-1.5
			c0.9,1.9,4.1,3.3,6.4,3.9c4.3,1.1,10.3,0.4,12.9-2.8c0.3,0.6,0.7,1.1,1.3,1.5c1,0.9,2.5,1.5,4,1.6c1.8,0.2,6.5,0.4,7.8-2.4
			c0.9,1.9,5.1,2.7,8.3,2.2c1.2-0.2,2.5-0.6,3.6-1.1c0.8-0.4,1.3-0.8,2.1-1.2c0.6-0.4,0.9-0.4,1.7-0.1c2.2,0.7,4.7,0.9,7,0
			C105.7,168.2,106.1,166.7,104.4,166z"/>
		<path id="Cloud_00000038378981637238519720000008881179917408928642_" class="st9" d="M429.6,61.6c-0.9-0.4-1.9-0.4-2.7-0.5
			c-0.9-0.1-1.1-0.2-1.3-0.4c-2.1-3-5.5-3.1-7.6-2.2c-0.5-2.1-3-3.8-5.7-3.2c0.1-2.7-3.3-5.5-6.4-6.2c-2.9-0.6-5.5-0.4-7.2,1.6
			c-1.8-3.5-8.8-4.5-12.6-2.6c-2.2,1.1-4.1,2.2-5,4.2c-0.6,1.3-0.8,2.2-0.8,4c-1.5-1.3-4.5-1.7-6.4-0.9c-2.1,0.8-2.3,2.4-2.4,4.1
			c-2.1-0.5-3.5-0.2-3.9-0.1c-1.3,0.4-2.1,1.5-1.9,2.3c-1.1-0.1-3.6,0.8-3.3,1.9c0.3,1.3,3.2,1.1,4.3,1.1c0.9,0,2.1-0.3,3-0.5
			c0.3,0.1,1.1,0.3,1.6,0.3c1.8,0,2.6-0.8,2.9-1.5c0.9,1.9,4.1,3.3,6.4,3.9c4.3,1.1,10.3,0.4,12.9-2.8c0.3,0.6,0.7,1.1,1.3,1.5
			c1,0.9,2.5,1.5,4,1.6c1.8,0.2,6.5,0.4,7.8-2.4c0.9,1.9,5.1,2.7,8.3,2.2c1.2-0.2,2.5-0.6,3.6-1.1c0.8-0.4,1.3-0.8,2.1-1.2
			c0.6-0.4,0.9-0.4,1.7-0.1c2.2,0.7,4.7,0.9,7,0C430.9,63.8,431.3,62.3,429.6,61.6z"/>
		<g id="Question_Mark_00000181072065508443561540000010275464513597792663_">
			<g>
				<path class="st10" d="M444.4,283.1c-0.7,0-1.4-0.1-2.1-0.4c-0.8-0.3-1.5-0.7-2-1.2c-0.6-0.5-1-1.1-1.3-1.8
					c-0.3-0.7-0.5-1.4-0.5-2.2c0-0.8,0.1-1.6,0.4-2.3l0,0c0.3-0.8,0.7-1.4,1.2-2c0.5-0.6,1.1-1,1.8-1.3c0.7-0.3,1.4-0.5,2.2-0.5
					c0.8,0,1.6,0.1,2.4,0.4c0.8,0.3,1.5,0.7,2,1.2c0.6,0.5,1,1.1,1.3,1.8c0.3,0.7,0.5,1.4,0.5,2.2c0,0.8-0.1,1.6-0.4,2.3
					c-0.3,0.8-0.7,1.5-1.2,2c-0.5,0.6-1.2,1-1.8,1.3c-0.7,0.3-1.4,0.5-2.2,0.5C444.6,283.1,444.5,283.1,444.4,283.1z M439.9,275.6
					c-0.2,0.6-0.3,1.3-0.3,1.9c0,0.6,0.2,1.2,0.4,1.7c0.2,0.5,0.6,1,1.1,1.5c0.5,0.4,1,0.8,1.7,1c0.6,0.2,1.3,0.3,1.9,0.3
					c0.6,0,1.2-0.2,1.8-0.4c0.5-0.2,1-0.6,1.5-1.1c0.4-0.5,0.8-1,1-1.6c0.2-0.6,0.3-1.2,0.3-1.9c0-0.6-0.2-1.2-0.4-1.8
					c-0.3-0.5-0.6-1-1.1-1.5c-0.5-0.4-1-0.8-1.6-1c-0.6-0.2-1.3-0.3-1.9-0.3c-0.6,0-1.2,0.2-1.8,0.4c-0.5,0.2-1,0.6-1.4,1.1
					C440.4,274.4,440.1,274.9,439.9,275.6L439.9,275.6z M450.9,270.3l-6.6-2.4l1.6-6.1c0.3-1.2,0.8-2.2,1.6-2.9
					c0.8-0.7,1.7-1.2,2.7-1.6c1-0.4,2-0.7,3.2-1c1.1-0.3,2.1-0.6,3.1-1.1c1-0.4,1.9-1,2.7-1.6c0.8-0.6,1.4-1.5,1.8-2.7
					c0.3-0.7,0.4-1.4,0.3-2.1c-0.1-0.7-0.3-1.3-0.6-1.9c-0.3-0.6-0.8-1.1-1.4-1.6c-0.6-0.5-1.3-0.9-2.1-1.2
					c-1.2-0.4-2.3-0.7-3.2-0.7c-0.9,0-1.8,0-2.5,0.1c-0.7,0.1-1.3,0.2-1.8,0.4c-0.6,0.2-1.2,0.1-1.6,0c-1-0.4-1.6-1.1-1.7-2.1
					l-1-4.7l0.5-0.2c1-0.4,2.1-0.7,3.2-1c1.1-0.3,2.4-0.4,3.6-0.5c1.2-0.1,2.5,0,3.9,0.2c1.3,0.2,2.8,0.6,4.2,1.1
					c2,0.7,3.7,1.7,5.1,2.8c1.4,1.2,2.6,2.5,3.4,3.9c0.8,1.5,1.3,3.1,1.4,4.8c0.1,1.7-0.2,3.5-0.8,5.3c-0.6,1.7-1.5,3.2-2.4,4.3
					c-1,1.1-2,2-3.1,2.6c-1.1,0.7-2.2,1.2-3.4,1.5l-3.2,1c-1,0.3-1.8,0.6-2.6,1c-0.7,0.3-1.1,0.7-1.5,1.3L450.9,270.3z M445.7,267.2
					l4.7,1.7l2.3-4.1c0.4-0.8,1.1-1.4,2-1.8c0.8-0.4,1.7-0.7,2.7-1l3.2-1c1.1-0.3,2.1-0.8,3.1-1.4c1-0.6,2-1.4,2.9-2.4
					c0.9-1,1.6-2.3,2.2-3.9c0.6-1.6,0.9-3.3,0.8-4.8c-0.1-1.5-0.5-3-1.2-4.3c-0.7-1.3-1.8-2.5-3.1-3.6c-1.3-1.1-3-2-4.8-2.6
					c-1.4-0.5-2.7-0.9-4-1c-1.3-0.2-2.5-0.3-3.7-0.2c-1.2,0.1-2.3,0.2-3.4,0.5c-0.9,0.2-1.8,0.5-2.6,0.8l0.8,3.7
					c0.1,0.6,0.4,1,1,1.2c0.2,0.1,0.6,0.1,1,0c0.5-0.1,1.2-0.2,1.9-0.4c0.8-0.1,1.7-0.2,2.7-0.1c1,0,2.2,0.3,3.5,0.8
					c0.9,0.3,1.7,0.8,2.4,1.3c0.7,0.6,1.3,1.2,1.7,1.9c0.4,0.7,0.6,1.5,0.7,2.3c0.1,0.8,0,1.7-0.4,2.6c-0.5,1.3-1.2,2.4-2.1,3.2
					c-0.9,0.7-1.9,1.3-3,1.8c-1.1,0.4-2.2,0.8-3.3,1.1c-1.1,0.3-2.1,0.6-3,1c-0.9,0.4-1.7,0.8-2.4,1.4c-0.6,0.5-1.1,1.3-1.3,2.3
					L445.7,267.2z"/>
			</g>
		</g>
		<g id="Question_Mark_00000122684502680517028900000017482160521090292135_">
			<g>
				<path class="st10" d="M71.5,268.6c-0.2,0-0.5,0-0.7,0c-1.5,0-3.1-0.3-4.7-0.6c-1.6-0.4-3.3-1-5-1.7c-2.3-1.1-4.4-2.4-6-3.9
					c-1.6-1.5-2.9-3.3-3.7-5.1c-0.8-1.9-1.3-3.9-1.2-5.9c0-2.1,0.5-4.2,1.5-6.3c1-2.1,2.1-3.7,3.4-5c1.3-1.2,2.7-2.2,4.1-2.9
					c1.4-0.7,2.9-1.2,4.3-1.5l4-0.9c1.2-0.3,2.3-0.6,3.3-0.9c0.9-0.3,1.5-0.8,2-1.5l3.8-5.8l7.6,3.5l-2.5,7.3
					c-0.4,1.4-1.2,2.5-2.2,3.3c-1,0.7-2.1,1.3-3.4,1.7c-1.2,0.4-2.6,0.7-4,1c-1.4,0.2-2.7,0.6-4,1c-1.3,0.4-2.4,1-3.5,1.8
					c-1,0.7-1.9,1.8-2.5,3.2c-0.4,0.9-0.6,1.7-0.6,2.6c0,0.8,0.2,1.6,0.5,2.4c0.4,0.8,0.9,1.5,1.6,2.1c0.7,0.7,1.6,1.2,2.5,1.7
					c1.4,0.7,2.8,1.1,3.9,1.2c1.2,0.1,2.2,0.2,3,0.1c0.9-0.1,1.7-0.2,2.3-0.3c0.8-0.1,1.4-0.1,1.9,0.2c1.1,0.5,1.8,1.4,1.9,2.6
					l0.8,5.7l-0.5,0.1c-1.3,0.4-2.6,0.7-4.1,0.9C74,268.5,72.8,268.6,71.5,268.6z M76.8,227.8l-3.3,5c-0.6,0.9-1.4,1.5-2.5,1.9
					c-1,0.4-2.2,0.7-3.4,1l-4,0.9c-1.4,0.3-2.7,0.8-4,1.4c-1.3,0.7-2.6,1.6-3.8,2.7c-1.2,1.1-2.3,2.7-3.1,4.6c-0.9,2-1.4,4-1.4,5.9
					c0,1.9,0.4,3.7,1.1,5.5c0.8,1.7,1.9,3.3,3.5,4.8c1.5,1.5,3.5,2.7,5.7,3.7c1.6,0.8,3.3,1.3,4.8,1.7c1.5,0.4,3.1,0.6,4.5,0.6
					c1.5,0,2.9-0.1,4.2-0.3c1.2-0.2,2.4-0.4,3.4-0.8l-0.6-4.8c-0.1-0.8-0.4-1.3-1.2-1.7c-0.3-0.1-0.7-0.2-1.2-0.1
					c-0.7,0.1-1.5,0.2-2.4,0.3c-1,0.1-2.1,0-3.3-0.1c-1.2-0.2-2.7-0.6-4.2-1.3c-1.1-0.5-2-1.1-2.8-1.9c-0.8-0.7-1.4-1.6-1.8-2.5
					c-0.4-0.9-0.6-1.9-0.6-2.9c0-1,0.2-2,0.7-3c0.7-1.6,1.7-2.8,2.9-3.6c1.2-0.8,2.4-1.5,3.8-1.9c1.3-0.4,2.7-0.8,4.1-1
					c1.4-0.2,2.7-0.5,3.8-0.9c1.2-0.4,2.2-0.9,3.1-1.5c0.8-0.6,1.5-1.5,1.8-2.7l2.1-6.3L76.8,227.8z M85.1,225.5c-0.1,0-0.1,0-0.2,0
					c-1,0-1.9-0.2-2.8-0.7c-0.9-0.4-1.7-1-2.3-1.7c-0.6-0.7-1.1-1.5-1.4-2.3c-0.3-0.8-0.5-1.8-0.5-2.7c0-1,0.2-1.9,0.6-2.8
					c0.4-0.9,1-1.7,1.7-2.3c0.7-0.6,1.5-1.1,2.3-1.4c0.9-0.3,1.8-0.4,2.7-0.4c0.9,0,1.9,0.3,2.8,0.7c0.9,0.4,1.7,1,2.4,1.7
					c0.6,0.7,1.1,1.5,1.4,2.3c0.3,0.8,0.5,1.7,0.4,2.7c0,0.9-0.3,1.9-0.7,2.8l0,0c-0.4,0.9-1,1.7-1.7,2.3c-0.7,0.7-1.5,1.1-2.3,1.4
					C86.9,225.3,86,225.5,85.1,225.5z M85,212.3c-0.7,0-1.4,0.1-2,0.3c-0.7,0.3-1.4,0.7-2,1.2c-0.6,0.5-1.1,1.2-1.4,2
					c-0.3,0.7-0.5,1.5-0.5,2.3c0,0.8,0.1,1.6,0.4,2.3c0.3,0.7,0.7,1.4,1.2,2c0.5,0.6,1.2,1.1,2,1.4c0.8,0.4,1.6,0.5,2.4,0.6
					c0.8,0,1.6-0.1,2.3-0.4c0.7-0.3,1.3-0.7,1.9-1.2c0.6-0.5,1.1-1.2,1.4-2l0,0c0.4-0.8,0.5-1.6,0.6-2.3c0-0.8-0.1-1.5-0.3-2.2
					c-0.3-0.7-0.7-1.3-1.2-1.9c-0.5-0.6-1.2-1.1-2-1.4c-0.8-0.4-1.6-0.5-2.3-0.6C85.2,212.3,85.1,212.3,85,212.3z"/>
			</g>
		</g>
		<g id="Question_Mark_00000044881237639851813160000016380902809898645149_">
			<g>
				<path class="st10" d="M453.3,151.4c-0.5,0-0.9,0-1.4-0.1c-1-0.2-1.8-0.5-2.6-1c-0.8-0.5-1.4-1.2-2-2c-0.5-0.8-0.9-1.7-1.1-2.7h0
					c-0.2-1-0.2-2,0-2.9c0.2-1,0.5-1.8,1-2.6c0.5-0.8,1.2-1.4,2-2c0.8-0.6,1.7-1,2.7-1.2c1-0.2,2-0.2,3,0c0.9,0.2,1.8,0.6,2.6,1
					c0.8,0.5,1.5,1.2,2,2c0.6,0.8,0.9,1.7,1.1,2.7c0.2,1,0.2,2,0,3c-0.2,0.9-0.6,1.8-1.1,2.6c-0.5,0.8-1.2,1.4-2,2
					c-0.8,0.5-1.7,0.9-2.7,1.1C454.4,151.3,453.9,151.4,453.3,151.4z M447.4,145.3c0.2,0.9,0.5,1.6,1,2.3c0.5,0.7,1,1.2,1.6,1.6
					c0.6,0.4,1.4,0.7,2.2,0.9c0.8,0.2,1.7,0.1,2.5,0c0.9-0.2,1.6-0.5,2.3-1c0.7-0.5,1.2-1,1.7-1.7c0.4-0.6,0.7-1.4,0.9-2.2
					c0.2-0.8,0.2-1.6,0-2.5c-0.2-0.8-0.5-1.6-1-2.3c-0.5-0.7-1-1.2-1.7-1.7c-0.7-0.4-1.4-0.7-2.2-0.9c-0.8-0.2-1.6-0.2-2.5,0
					c-0.9,0.2-1.6,0.5-2.3,1c-0.7,0.5-1.2,1-1.7,1.7c-0.4,0.6-0.7,1.4-0.9,2.2C447.2,143.6,447.2,144.5,447.4,145.3L447.4,145.3z
					 M447.4,133.8l-2.4-7.5c-0.5-1.4-0.5-2.8-0.2-4.1c0.4-1.2,1-2.4,1.8-3.5c0.8-1.1,1.7-2.2,2.7-3.2c1-1,1.9-2.1,2.7-3.2
					c0.8-1.1,1.4-2.3,1.8-3.6c0.4-1.2,0.5-2.6,0.1-4.1c-0.2-1-0.6-1.8-1.1-2.5c-0.5-0.7-1.2-1.2-1.9-1.7c-0.8-0.4-1.6-0.7-2.6-0.8
					c-1-0.1-2-0.1-3.1,0.2c-1.6,0.3-2.9,0.8-4,1.4c-1,0.6-1.9,1.2-2.6,1.8c-0.7,0.6-1.3,1.1-1.8,1.6c-0.6,0.6-1.1,0.9-1.7,1
					c-1.3,0.3-2.3-0.1-3.1-1l-4.1-4.3l0.3-0.4c0.8-1.1,1.8-2.2,2.8-3.2c1-1,2.2-2,3.5-2.9c1.3-0.9,2.7-1.7,4.3-2.4
					c1.6-0.7,3.3-1.2,5.2-1.6c2.6-0.5,5.1-0.7,7.4-0.4c2.3,0.3,4.4,0.9,6.2,2c1.8,1,3.4,2.4,4.6,4.2c1.2,1.7,2.1,3.8,2.6,6.2
					c0.5,2.3,0.5,4.4,0.2,6.2c-0.3,1.8-0.9,3.4-1.6,4.9c-0.7,1.4-1.6,2.7-2.6,3.9l-2.8,3.1c-0.8,1-1.6,1.9-2.1,2.8
					c-0.5,0.8-0.8,1.6-0.7,2.5l0.3,7.1L447.4,133.8z M447.4,98.5c0.4,0,0.8,0,1.1,0.1c1.1,0.1,2.1,0.4,3,0.9c0.9,0.5,1.7,1.2,2.3,2
					c0.6,0.8,1,1.8,1.3,2.9c0.4,1.7,0.3,3.3-0.2,4.7c-0.5,1.4-1.1,2.7-2,3.9c-0.8,1.2-1.8,2.3-2.8,3.4c-1,1-1.9,2.1-2.6,3.1
					c-0.7,1-1.3,2.1-1.6,3.1c-0.3,1-0.3,2.2,0.1,3.4l2.1,6.5l6.4-1.3l-0.3-6.1c-0.1-1.1,0.3-2.1,0.9-3.1c0.6-0.9,1.4-1.9,2.2-2.9
					l2.8-3.1c0.9-1.1,1.8-2.3,2.5-3.7c0.7-1.3,1.2-2.9,1.5-4.6c0.3-1.7,0.2-3.6-0.2-5.8c-0.4-2.2-1.3-4.1-2.4-5.7
					c-1.1-1.6-2.6-2.9-4.2-3.8c-1.7-1-3.6-1.6-5.8-1.8c-2.2-0.3-4.5-0.1-7,0.4c-1.8,0.4-3.5,0.9-5,1.5c-1.5,0.6-2.9,1.4-4.1,2.2
					c-1.2,0.8-2.3,1.8-3.3,2.8c-0.9,0.9-1.7,1.8-2.4,2.7l3.4,3.6c0.5,0.6,1.2,0.9,2,0.7c0.3-0.1,0.7-0.3,1.1-0.7
					c0.5-0.5,1.1-1.1,1.8-1.7c0.7-0.6,1.7-1.3,2.8-1.9c1.1-0.6,2.6-1.1,4.3-1.5C445.9,98.5,446.7,98.5,447.4,98.5z"/>
			</g>
		</g>
		<g id="Question_Mark">
			<g>
				<path class="st10" d="M72.5,116c-1.2,0-2.5-0.1-3.8-0.3c-1.7-0.3-3.5-0.7-5.4-1.4c-2.5-0.9-4.7-2.1-6.5-3.6
					c-1.8-1.5-3.3-3.2-4.3-5c-1-1.9-1.6-3.9-1.8-6.1c-0.1-2.2,0.2-4.4,1-6.7c0.8-2.2,1.9-4,3.1-5.4c1.2-1.4,2.6-2.5,4-3.4
					c1.4-0.8,2.9-1.5,4.3-1.9l4.1-1.2c1.2-0.4,2.4-0.8,3.3-1.2c0.9-0.4,1.5-1,1.9-1.7l3.5-6.3l8.1,3l-2,7.7c-0.3,1.5-1,2.7-2,3.6
					c-1,0.8-2.1,1.5-3.4,2.1c-1.2,0.5-2.6,0.9-4.1,1.3c-1.4,0.4-2.8,0.8-4.1,1.4c-1.3,0.5-2.4,1.2-3.5,2.1c-1,0.8-1.8,2-2.3,3.5
					c-0.3,0.9-0.5,1.8-0.4,2.7c0.1,0.9,0.3,1.7,0.8,2.4c0.4,0.8,1,1.5,1.8,2.1c0.8,0.6,1.7,1.1,2.8,1.5c1.6,0.6,2.9,0.9,4.1,0.9
					c1.2,0.1,2.3,0,3.2-0.1c0.9-0.1,1.7-0.3,2.4-0.5c0.8-0.2,1.4-0.2,2,0c1.2,0.4,1.9,1.3,2.1,2.6l1.3,5.8l-0.5,0.2
					c-1.3,0.5-2.7,0.9-4.1,1.3c-1.5,0.3-3,0.6-4.6,0.6C73.3,116,72.9,116,72.5,116z M76.6,73.1l-3,5.4c-0.5,1-1.4,1.7-2.5,2.2
					c-1,0.5-2.2,0.9-3.5,1.3l-4.1,1.2c-1.4,0.4-2.8,1-4.1,1.8c-1.3,0.8-2.6,1.8-3.7,3.1c-1.1,1.3-2.1,3-2.9,5.1
					c-0.8,2.1-1.1,4.2-1,6.2c0.1,2,0.7,3.9,1.6,5.6c0.9,1.7,2.3,3.3,4,4.7c1.7,1.4,3.8,2.5,6.2,3.4c1.8,0.6,3.5,1.1,5.1,1.3
					c1.6,0.2,3.2,0.3,4.7,0.2c1.5-0.1,3-0.3,4.4-0.6c1.2-0.3,2.4-0.7,3.5-1.1l-1.1-4.9c-0.1-0.8-0.6-1.4-1.4-1.7
					c-0.3-0.1-0.8-0.1-1.3,0c-0.7,0.2-1.5,0.3-2.5,0.5c-1,0.2-2.1,0.2-3.4,0.2c-1.3-0.1-2.8-0.4-4.5-1c-1.2-0.4-2.2-1-3.1-1.7
					c-0.9-0.7-1.6-1.5-2.1-2.4c-0.5-0.9-0.8-1.9-0.9-2.9c-0.1-1,0.1-2.1,0.5-3.2c0.6-1.7,1.5-3,2.7-4c1.1-0.9,2.4-1.7,3.8-2.3
					c1.3-0.6,2.8-1,4.2-1.4c1.4-0.4,2.7-0.8,3.9-1.3c1.2-0.5,2.2-1.1,3.1-1.9c0.8-0.7,1.4-1.7,1.7-3l1.7-6.7L76.6,73.1z M84.4,70.1
					c-0.9,0-1.7-0.2-2.6-0.5c-1-0.4-1.8-0.9-2.5-1.6c-0.7-0.7-1.3-1.4-1.7-2.3C77.2,64.9,77,64,76.9,63c-0.1-1,0.1-2,0.4-2.9
					c0.4-1,0.9-1.8,1.6-2.5c0.7-0.7,1.5-1.3,2.3-1.6c0.9-0.4,1.8-0.6,2.7-0.6c1,0,2,0.1,2.9,0.5c1,0.4,1.8,0.9,2.6,1.5
					c0.7,0.7,1.3,1.4,1.7,2.3c0.4,0.8,0.6,1.8,0.7,2.7c0,1-0.1,2-0.5,2.9v0c-0.3,0.9-0.9,1.8-1.5,2.5c-0.7,0.7-1.4,1.3-2.3,1.7
					c-0.8,0.4-1.8,0.6-2.8,0.7C84.7,70.1,84.5,70.1,84.4,70.1z M84.3,56.4c-0.1,0-0.2,0-0.3,0c-0.8,0-1.6,0.2-2.3,0.5
					c-0.7,0.3-1.4,0.8-1.9,1.4c-0.6,0.6-1,1.3-1.3,2.1c-0.3,0.8-0.4,1.6-0.4,2.5c0,0.8,0.2,1.6,0.6,2.3c0.3,0.7,0.8,1.4,1.4,1.9
					c0.6,0.6,1.3,1,2.1,1.3c0.8,0.3,1.7,0.4,2.5,0.4c0.8,0,1.6-0.2,2.3-0.6c0.7-0.3,1.3-0.8,1.9-1.4c0.6-0.6,1-1.3,1.3-2.1l0,0
					c0.3-0.8,0.4-1.7,0.4-2.5c0-0.8-0.2-1.6-0.5-2.3c-0.3-0.7-0.8-1.3-1.4-1.9c-0.6-0.6-1.4-1-2.2-1.3C85.8,56.5,85,56.4,84.3,56.4z
					"/>
			</g>
		</g>
		<g id="Question_Mark_00000054951627875693452640000006479489060474217860_">
			<g>
				<path class="st11" d="M372.7,370.8c-1.5-5.4-3.5-10.5-6-15.3c-2.5-4.7-5.5-9.1-8.9-13c-3.4-3.9-7-7-11-9.3
					c-3.9-2.3-7.6-3.4-11.1-3.4c-3.4,0-6.4,0.9-8.9,2.8c-2.5,1.9-24.9,13.9-27.4,15.8c-2.5,1.9-4.4,4.7-5.8,8.5
					c-1.4,3.8-2.1,8.2-2.1,13.3c0,5.3,0.7,10.5,2.1,15.9c1.4,5.3,3.4,10.3,5.8,15.1c2.5,4.7,5.4,9,8.9,12.9c3.4,3.9,7.1,7,11.1,9.2
					c3.9,2.3,7.6,3.4,11,3.5c3.4,0.1,6.3-0.8,8.9-2.6c2.5-1.8,24.8-14,27.4-15.8c2.5-1.8,4.5-4.6,6-8.2c1.5-3.7,2.2-8.1,2.2-13.4
					C374.9,381.5,374.2,376.2,372.7,370.8z"/>
				<path class="st10" d="M372.7,370.8c-1.5-5.4-3.5-10.5-6-15.3c-2.5-4.7-5.5-9.1-8.9-13c-3.4-3.9-7-7-11-9.3
					c-3.9-2.3-7.6-3.4-11.1-3.4c-3.4,0-6.4,0.9-8.9,2.8c-2.5,1.9-24.9,13.9-27.4,15.8c-2.5,1.9-4.4,4.7-5.8,8.5
					c-1.4,3.8-2.1,8.2-2.1,13.3c0,5.3,0.7,10.5,2.1,15.9c1.4,5.3,3.4,10.3,5.8,15.1c2.5,4.7,5.4,9,8.9,12.9c3.4,3.9,7.1,7,11.1,9.2
					c3.9,2.3,7.6,3.4,11,3.5c3.4,0.1,6.3-0.8,8.9-2.6c2.5-1.8,24.8-14,27.4-15.8c2.5-1.8,4.5-4.6,6-8.2c1.5-3.7,2.2-8.1,2.2-13.4
					C374.9,381.5,374.2,376.2,372.7,370.8z"/>
			</g>
			<path class="st11" d="M421.3,176.4c-3.4-12.3-8.3-24-14.6-34.9c-6.3-10.9-13.8-20.9-22.6-29.9c-8.8-9-18.6-16.6-29.3-22.8
				c-7.9-4.5-15.2-7.8-22-9.9c-6.8-2-13.1-3.1-18.8-3.1c-5.8-0.1-11.2,0.7-16.2,2.2c-5,1.6-9.6,3.6-13.8,6.1l-27.4,15.8l12,32.3
				c2,6.1,5.2,10.4,9.6,12.9c1.9,1.1,3.9,1.3,6.3,0.5c2.3-0.7,5.2-1.3,8.6-1.9c3.4-0.6,7.5-0.5,12.4,0.3c4.9,0.8,10.8,3.2,17.8,7.2
				c4.8,2.8,9.3,6.2,13.4,10.4c4.1,4.2,7.7,8.8,10.6,13.9c3,5.1,5.3,10.4,6.9,16.1c1.7,5.6,2.5,11.4,2.5,17.3
				c0,9.2-1.4,16.3-4.3,21.3c-1.1,2-2.4,3.7-3.8,5.3c-2.4,1.1-4.8,2.3-6.9,3.7c-2.7,1.7-23.4,13.3-27.4,15.8c-4,2.5-7.2,6-9.6,10.5
				c-2.4,4.4-3.2,10.7-2.5,18.9l3.1,41.9l31.2,18l27.4-15.8l4.2-33.5c0.3-2.8,1.1-5.1,2.3-7c0.3-0.1,0.6-0.3,0.9-0.4
				c1.5-0.7,3-1.4,4.4-2.3c3.2-1.9,25.4-14.6,26.5-15.3c3.5-2,6.8-4.7,9.8-7.9c4.1-4.4,7.4-10.3,10.2-17.9c2.7-7.5,4.1-17.6,4.1-30
				C426.4,201.3,424.7,188.7,421.3,176.4z"/>
			<path class="st10" d="M421.3,176.4c-3.4-12.3-8.3-24-14.6-34.9c-6.3-10.9-13.8-20.9-22.6-29.9c-8.8-9-18.6-16.6-29.3-22.8
				c-7.9-4.5-15.2-7.8-22-9.9c-6.8-2-13.1-3.1-18.8-3.1c-5.8-0.1-11.2,0.7-16.2,2.2c-5,1.6-9.6,3.6-13.8,6.1l-27.4,15.8l12,32.3
				c2,6.1,5.2,10.4,9.6,12.9c1.9,1.1,3.9,1.3,6.3,0.5c2.3-0.7,5.2-1.3,8.6-1.9c3.4-0.6,7.5-0.5,12.4,0.3c4.9,0.8,10.8,3.2,17.8,7.2
				c4.8,2.8,9.3,6.2,13.4,10.4c4.1,4.2,7.7,8.8,10.6,13.9c3,5.1,5.3,10.4,6.9,16.1c1.7,5.6,2.5,11.4,2.5,17.3
				c0,9.2-1.4,16.3-4.3,21.3c-1.1,2-2.4,3.7-3.8,5.3c-2.4,1.1-4.8,2.3-6.9,3.7c-2.7,1.7-23.4,13.3-27.4,15.8c-4,2.5-7.2,6-9.6,10.5
				c-2.4,4.4-3.2,10.7-2.5,18.9l3.1,41.9l31.2,18l27.4-15.8l4.2-33.5c0.3-2.8,1.1-5.1,2.3-7c0.3-0.1,0.6-0.3,0.9-0.4
				c1.5-0.7,3-1.4,4.4-2.3c3.2-1.9,25.4-14.6,26.5-15.3c3.5-2,6.8-4.7,9.8-7.9c4.1-4.4,7.4-10.3,10.2-17.9c2.7-7.5,4.1-17.6,4.1-30
				C426.4,201.3,424.7,188.7,421.3,176.4z"/>
			<g>
				<path class="st12" d="M339.3,371.3c-2.5-4.7-5.5-9.1-8.9-13c-3.4-3.9-7-7-11-9.3c-3.9-2.3-7.6-3.4-11.1-3.4
					c-3.4,0-6.4,0.9-8.9,2.8c-2.5,1.9-4.4,4.7-5.8,8.5c-1.4,3.8-2.1,8.2-2.1,13.3c0,5.3,0.7,10.5,2.1,15.9
					c1.4,5.3,3.4,10.3,5.8,15.1c2.5,4.7,5.4,9,8.9,12.9c3.4,3.9,7.1,7,11.1,9.2c3.9,2.3,7.6,3.4,11,3.5c3.4,0.1,6.3-0.8,8.9-2.6
					c2.5-1.8,4.5-4.6,6-8.2c1.5-3.7,2.2-8.1,2.2-13.4c0-5.1-0.7-10.4-2.2-15.8C343.9,381.1,341.9,376,339.3,371.3z"/>
				<path class="st13" d="M308.3,348.3L308.3,348.3c3,0,6.3,1.1,9.8,3.1c3.6,2.1,7.1,5,10.3,8.7c3.2,3.7,6.1,8,8.5,12.5
					c2.4,4.5,4.4,9.5,5.8,14.7c1.4,5.2,2.1,10.3,2.1,15.1c0,4.9-0.7,9-2,12.3c-1.3,3.1-3,5.5-5,7c-2,1.4-4.2,2.1-6.9,2.1
					c-0.1,0-0.2,0-0.3,0c-2.9-0.1-6.2-1.1-9.7-3.1c-3.7-2.1-7.2-5-10.4-8.7c-3.3-3.7-6.1-7.8-8.5-12.3c-2.4-4.5-4.2-9.4-5.6-14.5
					c-1.3-5.1-2-10.2-2-15.2c0-4.7,0.7-8.9,1.9-12.3c1.2-3.3,2.9-5.7,4.9-7.2C303.2,349,305.5,348.3,308.3,348.3 M308.3,345.5
					c-3.4,0-6.3,0.9-8.8,2.8c-2.5,1.9-4.4,4.7-5.8,8.5c-1.4,3.8-2.1,8.2-2.1,13.3c0,5.3,0.7,10.5,2.1,15.9
					c1.4,5.3,3.4,10.3,5.8,15.1c2.5,4.7,5.4,9,8.9,12.9c3.4,3.9,7.1,7,11.1,9.2c3.9,2.3,7.6,3.4,11,3.5c0.1,0,0.2,0,0.4,0
					c3.2,0,6.1-0.9,8.5-2.6c2.5-1.8,4.5-4.6,6-8.2c1.5-3.7,2.2-8.1,2.2-13.4c0-5.1-0.7-10.4-2.2-15.8c-1.5-5.4-3.5-10.5-6-15.3
					c-2.5-4.7-5.5-9.1-8.9-13c-3.4-3.9-7-7-11-9.3c-3.9-2.3-7.6-3.4-11.1-3.4C308.4,345.5,308.3,345.5,308.3,345.5L308.3,345.5z"/>
			</g>
			<g>
				<path class="st12" d="M393.9,192.2c-3.4-12.3-8.3-24-14.6-34.9c-6.3-10.9-13.8-20.9-22.6-29.9c-8.8-9-18.6-16.6-29.3-22.8
					c-7.9-4.5-15.2-7.8-22-9.9c-6.8-2-13.1-3.1-18.8-3.1c-5.8-0.1-11.2,0.7-16.2,2.2c-5,1.6-9.6,3.6-13.8,6.1l12,32.3
					c2,6.1,5.2,10.4,9.6,12.9c1.9,1.1,3.9,1.3,6.3,0.5c2.3-0.7,5.2-1.3,8.6-1.9c3.4-0.6,7.5-0.5,12.4,0.3c4.9,0.8,10.8,3.2,17.8,7.2
					c4.8,2.8,9.3,6.2,13.4,10.4c4.1,4.2,7.7,8.8,10.6,13.9c3,5.1,5.3,10.4,6.9,16.1c1.7,5.6,2.5,11.4,2.5,17.3
					c0,9.2-1.4,16.3-4.3,21.3c-2.9,5-6.5,8.9-10.8,11.7c-4.3,2.9-8.9,5.1-13.8,6.8c-4.9,1.7-9.4,3.8-13.4,6.3c-4,2.5-7.2,6-9.6,10.5
					c-2.4,4.4-3.2,10.7-2.5,18.9l3.1,41.9l31.2,18l4.2-33.5c0.6-4.9,2.5-8.5,5.6-10.9c3.1-2.4,6.9-4.5,11.2-6.3
					c4.3-1.9,8.9-3.9,13.8-6c4.9-2.1,9.3-5.4,13.4-9.7c4.1-4.4,7.4-10.3,10.2-17.9c2.7-7.5,4.1-17.6,4.1-30
					C399.1,217.1,397.3,204.5,393.9,192.2z"/>
				<path class="st13" d="M286.1,94.4l0.5,0c5.5,0.1,11.6,1.1,18.1,3c6.5,2,13.7,5.2,21.4,9.6c10.4,6,20.1,13.5,28.7,22.3
					c8.6,8.8,16.1,18.7,22.2,29.4c6.1,10.7,11,22.2,14.3,34.2c3.4,12,5.1,24.5,5.1,36.9c0,12.1-1.3,21.9-3.9,29.1
					c-2.6,7.2-5.8,12.9-9.6,16.9c-3.8,4.1-8,7.1-12.5,9.1c-4.9,2.1-9.4,4.1-13.7,6c-4.5,1.9-8.4,4.2-11.8,6.7
					c-3.7,2.8-6,7.1-6.7,12.8l-3.7,29.3l-26.3-15.2l-3-40.5c-0.7-7.5,0-13.4,2.2-17.3c2.2-4,5.1-7.2,8.6-9.4c3.8-2.4,8.1-4.4,12.8-6
					c5.1-1.8,10-4.1,14.5-7.1c4.7-3.1,8.6-7.3,11.7-12.7c3.2-5.5,4.7-12.9,4.7-22.7c0-6.2-0.9-12.3-2.6-18.1
					c-1.7-5.8-4.1-11.4-7.2-16.7c-3.1-5.2-6.8-10.1-11-14.4c-4.3-4.3-9-8-14-10.9c-7.3-4.2-13.6-6.7-18.8-7.5
					c-2.9-0.4-5.5-0.7-7.9-0.7c-1.9,0-3.7,0.1-5.3,0.4c-3.4,0.6-6.4,1.3-8.9,2c-0.7,0.2-1.3,0.3-1.9,0.3c-0.8,0-1.5-0.2-2.2-0.6
					c-3.9-2.2-6.6-5.9-8.4-11.4l0-0.1l0-0.1l-11.2-30.1c3.4-1.9,7.2-3.4,11.2-4.7C275.8,95.1,280.8,94.4,286.1,94.4 M286.1,91.6
					c-5.6,0-10.8,0.7-15.6,2.2c-5,1.6-9.6,3.6-13.8,6.1l12,32.3c2,6.1,5.2,10.4,9.6,12.9c1.1,0.6,2.3,1,3.6,1c0.9,0,1.7-0.1,2.7-0.4
					c2.3-0.7,5.2-1.3,8.6-1.9c1.5-0.3,3.1-0.4,4.9-0.4c2.3,0,4.8,0.2,7.5,0.6c4.9,0.8,10.8,3.2,17.8,7.2c4.8,2.8,9.3,6.2,13.4,10.4
					c4.1,4.2,7.7,8.8,10.6,13.9c3,5.1,5.3,10.4,6.9,16.1c1.7,5.6,2.5,11.4,2.5,17.3c0,9.2-1.4,16.3-4.3,21.3
					c-2.9,5-6.5,8.9-10.8,11.7c-4.3,2.9-8.9,5.1-13.8,6.8c-4.9,1.7-9.4,3.8-13.4,6.3c-4,2.5-7.2,6-9.6,10.5
					c-2.4,4.4-3.2,10.7-2.5,18.9l3.1,41.9l31.2,18l4.2-33.5c0.6-4.9,2.5-8.5,5.6-10.9c3.1-2.4,6.9-4.5,11.2-6.3
					c4.3-1.9,8.9-3.9,13.8-6c4.9-2.1,9.3-5.4,13.4-9.7c4.1-4.4,7.4-10.3,10.2-17.9c2.7-7.5,4.1-17.6,4.1-30
					c0-12.8-1.7-25.4-5.2-37.7c-3.4-12.3-8.3-24-14.6-34.9c-6.3-10.9-13.8-20.9-22.6-29.9c-8.8-9-18.6-16.6-29.3-22.8
					c-7.9-4.5-15.2-7.8-22-9.9c-6.8-2-13.1-3.1-18.8-3.1C286.4,91.6,286.3,91.6,286.1,91.6L286.1,91.6z"/>
			</g>
		</g>
		<g id="Character_00000039125584370264235230000010392819677969061250_">
			<g id="Arm_00000168798789998627316390000010797628715009767320_">
				<g>
					<path class="st14" d="M239.6,206c-0.6-0.3-1.5-0.1-2.5,0.4c0.5-0.5,0.8-0.9,0.9-1.2c0-0.9-0.5-1.4-2.4-0.6
						c-1.8,0.8-6.3,3.1-10,3.1c-0.6,0-1.9,0.2-2.5-0.3l0,0c-0.2-0.2-0.3-0.4-0.2-0.6c0.1-0.5,0.7-1.1,1-1.4c0.4-0.4,0.8-0.8,1.2-1.3
						c0.4-0.5,0.8-1.1,1-1.7c0.2-0.6,0.2-1.4-0.2-1.9c-0.2-0.3-0.5-0.5-0.8-0.3c-1.3,0.9-2.6,1.8-3.8,2.8c-1.2,0.9-2.5,1.8-3.5,2.9
						c-1.2,1.3-2.2,3-3.9,4.7c-1.7,1.7-3.6,3.3-7.9,6.1c-2.4,1.6-8.5,5.5-8.5,5.5s-8.6-13.7-11.9-19c-5.4-8.5-8.1-10.6-13.6-11v23.1
						c0,0,8.2,11.8,12.6,17.3c5.3,6.8,8.3,8.3,10.4,8.2c6.6-0.2,12.2-8.2,22.5-19.6c0.8-0.9,2.8-2.7,6-2.7c1.2,0,2.6-0.1,3.4-0.1
						c1,0,2.7-0.4,3.7-0.7c2-0.5,2-0.4,4.9-2.3c0.4-0.2,1.8-1.3,1.7-1.8c-0.1-0.4-0.4-0.5-0.7-0.6c-0.5,0-0.9,0.2-2,0.5
						c1.1-0.6,2.7-1.5,3.6-2.9c0.1-0.2,0.3-0.5,0.3-0.8c0-0.2-0.1-0.9-0.5-1c0,0,0.6-0.6,1.1-1.1C239.5,207.4,240.3,206.4,239.6,206
						z"/>
					<path class="st15" d="M234.5,213.5c-0.9,0.4-1.8,0.7-2.8,0.9c-0.9,0.2-1.9,0.4-2.9,0.6c1,0,2-0.1,2.9-0.3
						C232.8,214.5,233.7,214.2,234.5,213.5z"/>
					<g>
						<path class="st15" d="M217.1,214.2c0-0.2,0.1-0.4,0.1-0.5c0.1-0.3,0.4-0.7,0.6-0.9c0.5-0.6,1.1-1,1.8-1.3
							c1.4-0.6,3.3-0.4,4.6,0.5c0,0,0.1,0.2,0,0.2c-1.4-0.4-2.9-0.7-4.3-0.1c-1.2,0.5-2,1.6-2.5,2.8c0,0.1-0.2,0.1-0.2,0
							C217.1,214.5,217.1,214.4,217.1,214.2z"/>
						<path class="st15" d="M228,209.9c1.5-0.3,3.1-0.9,4.6-1.5c1.4-0.5,2.8-1.2,4.2-1.8c0,0,0,0,0,0c-1.4,1-2.8,1.7-4.4,2.2
							C230.9,209.4,229.5,209.6,228,209.9C228,209.9,227.9,209.9,228,209.9z"/>
						<path class="st15" d="M227.8,212.6c1.5-0.3,3.1-0.9,4.6-1.5c0.6-0.2,1.1-0.5,1.7-0.7c0.5-0.2,1.1-0.5,1.6-0.8
							c0.2-0.1,0.3-0.2,0.5-0.3c0.2-0.1,0.4-0.3,0.6-0.3c0.2-0.1,0.5-0.1,0.7-0.1c0,0,0.1,0,0,0c-0.3,0-0.6,0.2-0.9,0.3
							c-0.2,0.1-0.4,0.2-0.5,0.3c-0.2,0.1-0.3,0.2-0.5,0.3c-0.5,0.3-1,0.6-1.5,0.8c-0.7,0.3-1.3,0.6-2,0.8
							C230.8,212.1,229.3,212.3,227.8,212.6C227.8,212.6,227.8,212.6,227.8,212.6z"/>
					</g>
				</g>
				<g>
					<path class="st15" d="M197.5,222.2c-3.5,1.8-5.6,5.4-6.1,9.4c-0.5-3.9-0.2-7.9,5.2-10.8L197.5,222.2z"/>
				</g>
			</g>
			<g id="Magnifying_Glass">
				<g>
					<g>
						<path class="st16" d="M171.5,277.2c0,0,0-0.1,0.1-0.1l54.6-86.4l0,0c0.7-1.3,2.3-2,4.5-2c4.4,0.1,9.7,3.2,11.9,7.1
							c1.1,1.9,1.2,3.7,0.4,4.9l0,0l-48,90.4c0,0-0.1,0.1-0.1,0.1c0,0.1-0.1,0.2-0.1,0.2c-3.8,6.6-12.1,8.7-18.6,4.8
							c-6.5-3.9-8.7-12.3-4.9-18.9C171.4,277.3,171.5,277.3,171.5,277.2z"/>
						<path class="st17" d="M242.6,195.8c2.2,3.9,0.4,7-4,6.9c-4.4-0.1-9.7-3.2-11.9-7.1c-2.2-3.9-0.4-7,4-6.9
							C235.1,188.7,240.4,191.9,242.6,195.8z"/>
						<path class="st18" d="M189.5,283.6l44.9-81.8c1.4,0.5,2.8,0.9,4.2,0.9c2.2,0,3.7-0.7,4.5-2l-48,90.3c0,0-0.1,0.1-0.1,0.1
							c0,0.1-0.1,0.2-0.1,0.2c-3.8,6.6-12.1,8.7-18.6,4.8C180.5,297.5,185.1,291.7,189.5,283.6z"/>
					</g>
					<path class="st8" d="M248.1,164.1c2.7,0,5.9,2,7.2,4.3c0.7,1.2,0.7,2.2,0.3,3l0,0l-15.9,27.3l0,0c-0.4,0.8-1.4,1.2-2.7,1.2
						c-2.7,0-5.9-2-7.2-4.3c-0.7-1.2-0.7-2.2-0.3-3l15.9-27.3l0,0C245.9,164.5,246.8,164.1,248.1,164.1z"/>
					<path class="st19" d="M246.2,187.5l5-8.6c-3-2.6-5.9-5.5-8.8-8.5l-5.1,8.9C240.2,182.2,243.2,185,246.2,187.5z"/>
				</g>
				<g>
					<g>
						<path class="st1" d="M202.9,86.6c0.1,39.5,28,87.5,62.2,107.2c10,5.7,19.4,8.4,27.7,8.4c6,0,11.4-1.4,16.1-4.2l20-11.6
							c11.2-6.5,18.1-20.4,18.1-40.2c-0.1-39.5-28-87.5-62.2-107.2c-17.1-9.8-32.6-10.7-43.8-4.2l-20,11.6
							C209.7,52.9,202.8,66.8,202.9,86.6z M232.7,74.9c0-9.4,1.7-17.1,4.9-22.9c6.7,0.1,14.4,2.5,22.3,7.1
							c15.1,8.7,29.4,23.8,40.3,42.6s16.9,38.7,17,56.1c0,9.4-1.7,17.1-4.9,22.9c-6.7-0.1-14.4-2.5-22.3-7.1
							c-15.1-8.7-29.4-23.8-40.3-42.6C238.7,112.3,232.7,92.4,232.7,74.9z"/>
						<path class="st20" d="M317.5,68.6l-28.5,16.6c4,5.1,7.8,10.7,11.3,16.6c0.7,1.2,1.3,2.3,2,3.5l28.5-16.5
							C326.8,81.6,322.3,74.8,317.5,68.6z M273.4,68.8c3,2.5,5.8,5.3,8.6,8.3l28.7-16.6c-2.7-3-5.5-5.8-8.4-8.4L273.4,68.8z"/>
						<path class="st19" d="M309,197.9l19.9-11.5c11.2-6.5,18.1-20.4,18.1-40.2c0-0.8,0-1.5-0.1-2.3L327,155.5c0,0.8,0,1.5,0,2.3
							C327,177.5,320.2,191.4,309,197.9z"/>
					</g>
					<path class="st1" d="M212.7,86.5c0,17.4,6.1,37.4,17,56.1c10.9,18.8,25.2,33.9,40.3,42.6c8.1,4.7,16,7.1,22.8,7.1
						c8.6,0,15.3-4.1,19.5-11.6c-6.7-0.1-14.4-2.5-22.3-7.1c-15.1-8.7-29.4-23.8-40.3-42.6c-10.9-18.8-16.9-38.7-17-56.1
						c0-9.4,1.7-17.1,4.9-22.9c-0.2,0-0.3,0-0.5,0C221.8,52.1,212.7,65,212.7,86.5z"/>
					<path class="st19" d="M212.7,86.5c0,17.4,6.1,37.4,17,56.1c10.9,18.8,25.2,33.9,40.3,42.6c8.1,4.7,16,7.1,22.8,7.1
						c8.6,0,15.3-4.1,19.5-11.6c-6.7-0.1-14.4-2.5-22.3-7.1c-15.1-8.7-29.4-23.8-40.3-42.6c-10.9-18.8-16.9-38.7-17-56.1
						c0-9.4,1.7-17.1,4.9-22.9c-0.2,0-0.3,0-0.5,0C221.8,52.1,212.7,65,212.7,86.5z"/>
					<path class="st7" d="M222,81.2c0,17.4,6.1,37.4,17,56.1c10.9,18.8,25.2,33.9,40.3,42.6c8.1,4.7,16,7.1,22.8,7.1
						c2.2,0,4.2-0.3,6.1-0.8h0c1.5-1.5,2.9-3.4,4.1-5.5c3.2-5.7,4.9-13.5,4.9-22.9c0-17.4-6.1-37.3-17-56.1s-25.2-33.9-40.3-42.6
						c-7.9-4.5-15.6-7-22.3-7.1c-0.2,0-0.3,0-0.5,0c-2.2,0-4.2,0.3-6.1,0.8C225.1,58.7,222,68.4,222,81.2z"/>
					<g>
						<path class="st11" d="M202.9,86.6c0.1,39.5,28,87.5,62.2,107.2c34.3,19.7,62,3.6,61.9-35.9c-0.1-39.5-28-87.5-62.2-107.2
							C230.5,30.9,202.8,47,202.9,86.6z M229.7,142.7c-10.9-18.8-16.9-38.7-17-56.1c-0.1-21.5,9-34.4,24.4-34.5c0.2,0,0.3,0,0.5,0
							c6.7,0.1,14.4,2.5,22.3,7.1c15.1,8.7,29.4,23.8,40.3,42.6s16.9,38.7,17,56.1c0,9.4-1.7,17.1-4.9,22.9
							c-4.2,7.5-10.8,11.6-19.5,11.6c-6.8,0-14.7-2.4-22.8-7.1C254.9,176.5,240.6,161.4,229.7,142.7z"/>
						<path class="st21" d="M202.9,86.6c0.1,39.5,28,87.5,62.2,107.2c34.3,19.7,62,3.6,61.9-35.9c-0.1-39.5-28-87.5-62.2-107.2
							C230.5,30.9,202.8,47,202.9,86.6z M229.7,142.7c-10.9-18.8-16.9-38.7-17-56.1c-0.1-21.5,9-34.4,24.4-34.5c0.2,0,0.3,0,0.5,0
							c6.7,0.1,14.4,2.5,22.3,7.1c15.1,8.7,29.4,23.8,40.3,42.6s16.9,38.7,17,56.1c0,9.4-1.7,17.1-4.9,22.9
							c-4.2,7.5-10.8,11.6-19.5,11.6c-6.8,0-14.7-2.4-22.8-7.1C254.9,176.5,240.6,161.4,229.7,142.7z"/>
						<g class="st4">
							<path class="st3" d="M311.8,102.4c5.7,11.2,10.1,23,12.7,35.2c1.2,6.1,2.1,12.3,2.2,18.6c0.1,6.2-0.5,12.5-2,18.5
								c-1.6,6-4.1,11.8-8.2,16.5c-4,4.7-9.5,8.2-15.5,9.6c-6,1.5-12.4,1.2-18.5-0.2c-6.1-1.4-11.9-3.9-17.4-6.9
								c5.4,3.1,11.2,5.8,17.3,7.3c6.1,1.5,12.5,1.9,18.7,0.4c6.1-1.5,11.8-4.9,15.9-9.7c4.2-4.8,6.8-10.7,8.4-16.8
								c1.5-6.1,2.1-12.4,1.9-18.7c-0.1-6.3-1-12.5-2.3-18.7c-1.3-6.1-3.1-12.1-5.3-18C317.4,113.7,314.8,108,311.8,102.4z"/>
						</g>
						<g class="st4">
							<path class="st3" d="M237.1,52.1c-3.1,0-6.2,0.5-9.1,1.7c-2.9,1.2-5.5,3.1-7.5,5.4c-2.1,2.3-3.6,5.1-4.9,8
								c-1.2,2.9-2,5.9-2.6,9c-1,6.2-1.1,12.4-0.5,18.6c0.6,6.2,1.8,12.3,3.5,18.3c1.7,6,3.9,11.8,6.4,17.5
								c2.6,5.7,5.5,11.2,8.8,16.5c6.6,10.6,14.5,20.4,23.8,28.6c4.7,4.1,9.8,7.8,15.3,10.8c5.5,3,11.4,5.4,17.7,6.3
								c3.1,0.5,6.4,0.5,9.5-0.1c3.1-0.6,6.2-1.9,8.8-3.9c1.3-1,2.5-2.1,3.5-3.3c1-1.2,2-2.5,2.8-3.9c1.6-2.8,2.7-5.7,3.5-8.8
								c1.6-6.1,1.9-12.4,1.5-18.6c-0.4-6.2-1.4-12.4-2.9-18.4c-1.6-6-3.6-11.9-6.1-17.6c-2.4-5.7-5.3-11.2-8.5-16.5
								c6,10.8,10.8,22.3,13.6,34.3c1.5,6,2.3,12.1,2.6,18.2c0.2,6.1-0.1,12.3-1.7,18.2c-0.8,2.9-1.9,5.8-3.5,8.3
								c-1.5,2.6-3.5,4.9-5.9,6.7c-2.4,1.8-5.2,3-8.1,3.5c-2.9,0.5-6,0.5-8.9,0.1c-6-0.9-11.7-3.2-17-6.2c-5.3-3-10.3-6.6-14.9-10.7
								c-9.2-8.1-17.1-17.7-23.6-28.1c-6.5-10.4-11.8-21.7-15.3-33.4c-1.8-5.9-3.1-11.9-3.7-18c-0.7-6.1-0.7-12.3,0.2-18.4
								c0.5-3,1.1-6,2.3-8.9c1.1-2.8,2.6-5.6,4.6-7.9c2-2.3,4.5-4.2,7.3-5.5C230.9,52.8,234,52.2,237.1,52.1z"/>
						</g>
					</g>
				</g>
			</g>
			<g id="Bottom_00000153688621985237593160000015248581229082740400_">
				<g>
					<path class="st14" d="M166.7,387.2l-1.4-14.2l17.7-1.7c0,0-0.8,11.2-0.8,16.4c0,2.4,1.7,7,1.7,7s-7,3.5-10.6,2
						c-3.6-1.5-5.9-7.2-5.8-8.3L166.7,387.2z"/>
					<path class="st17" d="M203.9,412.1c0.2,0,0.3,2.3-1.1,3.3c-1.6,1.2-6.7,3.5-12.6,2.4c-5.9-1.1-9.1-3.1-11.3-5.2
						c-2.3-2.1-5.5-5.1-8.1-5.8c-2.5-0.7-5.8-2.9-6.5-3.7c-0.8-0.8-0.4-4.2-0.4-4.2L203.9,412.1z"/>
					<path id="XMLID_00000119837406411739541530000010660222288320134306_" class="st16" d="M166.6,385.8c0,0-0.3,0.1-0.5,0.9
						c-0.2,0.9-0.6,3.6-1.1,5.1c-0.7,2.1-1.3,6.5-1.1,8.2c0.2,1.8,4.9,4.1,7.4,5.2c2.6,1.1,5.6,3.4,8.2,5.7
						c2.7,2.4,8.4,5.1,12.3,5.3c4.6,0.2,9.9-1,11.2-3c1.6-2.5,2.9-5.5-3.8-9c-1.3-0.7-5.6-3.6-7.1-4.6c-4-2.8-6.8-5.4-8.5-10.1
						c-0.2-0.5-0.4-1.2-0.9-1.5c-0.4-0.2-0.9-0.2-1.3-0.2c-1.1,0.1-5.7,0.5-6.8,0.9c-0.9,0.4-2.3,0.8-2.3,2c0,0.4,0.1,0.8,0.2,1.2
						c0.1,0.2,0.1,0.6-0.1,0.7c-0.2,0.1-0.5,0-0.6-0.2c-0.7-0.7-1.2-1.5-1.7-2.3c-0.3-0.4-1.3-1.7-1.6-2.1c-0.4-0.3-0.8-0.5-1.1-0.8
						C166.8,387.1,166.5,386.4,166.6,385.8z"/>
					<path class="st18" d="M179.5,411.1c-1.1-1-2.3-2-3.6-2.9l0,0c0,0,7.7,5.3,11.1,3.3c2.2-1.3,1.3-3.1,1.3-3.6
						c0-0.5,7.6-4,9.6-4.1l0,0c0.5,0.3,1,0.6,1.3,0.8c5.2,2.4,5.8,5.1,4.7,8.5c-1.3,2-6.1,3.9-12,3.6
						C188,416.3,182.1,413.5,179.5,411.1z"/>
					<path class="st18" d="M187.8,406.2c4.1,1.9,2.3,2.6,1.1,2.7c-1.2,0.1-8.1-4.4-12.3-8c-4.3-3.8-7.6-8.7-9.2-10.1
						c-0.6-0.5-1.2-1.2-1.8-1.7c0.2-0.9,0.3-1.7,0.4-2.2c0.2-0.8,0.5-0.9,0.5-0.9s0.3,1.2,0.7,1.7c0.3,0.3,0.8,0.5,1.1,0.8
						c0.4,0.3,1.3,1.7,1.6,2.1c0.6,0.8,1,1.6,1.7,2.3C175.1,397.5,183.7,404.3,187.8,406.2z"/>
					<g>
						<g>
							<path class="st17" d="M188.6,408.2c-0.1,0-0.2,0-0.3-0.1c-0.2-0.2-0.2-0.4,0-0.6c1.3-1.4,7.2-4.5,10.3-4
								c0.2,0,0.4,0.3,0.3,0.5c0,0.2-0.2,0.4-0.5,0.3c-2.9-0.5-8.5,2.6-9.5,3.7C188.9,408.2,188.8,408.2,188.6,408.2z"/>
						</g>
						<g>
							<path class="st17" d="M185.1,405.8c-0.1,0-0.2,0-0.3-0.1c-0.2-0.2-0.2-0.4,0-0.6c1.3-1.4,7.2-4.5,10.3-4
								c0.2,0,0.4,0.3,0.3,0.5c0,0.2-0.2,0.4-0.5,0.3c-2.9-0.5-8.5,2.6-9.5,3.7C185.3,405.7,185.2,405.8,185.1,405.8z"/>
						</g>
						<g>
							<path class="st17" d="M181.5,403.5c-0.1,0-0.2,0-0.3-0.1c-0.2-0.2-0.2-0.4,0-0.6c1.3-1.4,7.2-4.5,10.3-4
								c0.2,0,0.4,0.3,0.3,0.5c0,0.2-0.2,0.4-0.5,0.3c-2.9-0.5-8.5,2.6-9.5,3.7C181.7,403.4,181.6,403.5,181.5,403.5z"/>
						</g>
						<g>
							<path class="st17" d="M178.2,400.8c-0.1,0-0.2,0-0.3-0.1c-0.2-0.2-0.2-0.4,0-0.6c1.3-1.4,7.2-4.5,10.3-4
								c0.2,0,0.4,0.3,0.3,0.5c0,0.2-0.2,0.4-0.5,0.3c-2.9-0.5-8.5,2.6-9.5,3.7C178.4,400.8,178.3,400.8,178.2,400.8z"/>
						</g>
						<g>
							<path class="st17" d="M175,398.2c-0.1,0-0.2,0-0.3-0.1c-0.2-0.2-0.2-0.4,0-0.6c1.8-2,7.9-4.5,11-4c0.2,0,0.4,0.3,0.3,0.5
								c0,0.2-0.2,0.4-0.5,0.3c-2.8-0.5-8.7,2-10.2,3.7C175.2,398.2,175.1,398.2,175,398.2z"/>
						</g>
					</g>
				</g>
				<g>
					<path class="st14" d="M136.4,395.2l3.8-17.6l-17.3-2.5l-0.1,17.3c0,0-1.3,4.7-0.3,6.3c1,1.6,11.4,3.1,12.3,2.1
						C135.8,399.7,136.4,395.2,136.4,395.2z"/>
					<path class="st17" d="M135,422.8c-0.4,3.9-1.2,6.5-2.9,8.6c-1.7,2.2-4.7,2.6-7.7,1.5c-3-1-6.8-3.3-7.6-6.8
						c-0.7-3.5-0.5-5.8,0.4-9.4L135,422.8z"/>
					<path id="XMLID_00000137842149756529943170000007843896215275551412_" class="st16" d="M122.8,392.4c-1.3,0-0.9,3-1.4,8.3
						c-0.6,5.7-3.1,10.3-4,14.9c-1,5.3-0.8,7.7,1.2,11.2c2,3.5,9.4,7.5,13.2,3.2c3.2-3.4,3.4-7.6,3.4-13c-0.1-5.6-0.2-9.5,0.3-13.6
						c0.4-4,2-7.7,1-8.2c-0.1,0.6-1.1,4.6-1.8,4.6c0-0.5,0-1,0-1.5c0.1-0.4,0-0.9-0.3-1.3c-0.3-0.4-1.5-0.9-2-1
						c-1.2-0.4-3.4-0.8-4.6-1c-0.6-0.1-1.2-0.2-1.9-0.3c-0.5-0.1-1.1-0.1-1.6,0c-0.3,0.1-0.6,0.2-0.7,0.5c-0.1,0.2-0.1,0.4-0.1,0.6
						c0,0.4-0.1,0.7-0.2,1.1c-0.1,0.2-0.2,0.3-0.4,0.3c-0.1,0-0.2-0.2-0.2-0.3C122.7,396.1,122.8,392.8,122.8,392.4z"/>
					<path class="st18" d="M117.7,414.2c-0.2,0.8-1.1,5.8,0.4,6.9c1.7,1.2,2.8-2.7,2.8-2.7s4-0.6,9.8,2.2c-0.3,0.8,0.5,3.6,2.1,3.2
						c1.6-0.4,2.5-6.2,2.5-6.3c0,5.1-0.3,9.2-3.4,12.5c-3.9,4.2-11.2,0.2-13.2-3.2c-2-3.5-2.2-5.9-1.2-11.2
						C117.5,415.1,117.6,414.6,117.7,414.2z"/>
					<path class="st18" d="M121.4,418.7c-0.1,1.9-2.2,1-2.2-1.7c0-2.7,1.4-9.4,1.9-13.9c0.3-6.5,0.5-10.7,1.8-10.7
						c0,0.1,0,0.1,0,0.2c0,0-0.1,3.7-0.1,4.1c-0.2,3.9-0.2,11.6-0.7,15.2C121.5,415.4,121.5,416.8,121.4,418.7z"/>
					<path class="st18" d="M130,420.4c0.5-1.9,0.9-3.1,1.5-6.7c0.6-3.5,2.6-10.6,3.6-14.4c0.3-0.6,1.4-4.2,1.4-4.2
						c0.9,0.2,0,3.6-0.4,5.2c-0.4,1.6-0.9,3.3-1.4,5.6c-1.3,4.5-1.3,11.2-2.1,13.8C131.8,422.3,129.5,422.3,130,420.4z"/>
					<g>
						<g>
							<path class="st17" d="M130.8,420.7c-0.1,0-0.1,0-0.2-0.1c0,0-4.5-2.6-9.6-1.9c-0.3,0-0.5-0.1-0.6-0.4
								c-0.1-0.2,0.1-0.4,0.3-0.5c5.5-0.7,10.1,2,10.3,2.1c0.2,0.1,0.3,0.4,0.2,0.6C131.2,420.7,131,420.8,130.8,420.7z"/>
						</g>
						<g>
							<path class="st17" d="M132,416.6c-0.1,0-0.1,0-0.2-0.1c0,0-5.1-2.7-10.7-2.2c-0.3,0-0.5-0.1-0.5-0.4c0-0.2,0.1-0.4,0.4-0.5
								c6-0.6,11.1,2.2,11.4,2.3c0.2,0.1,0.3,0.4,0.2,0.6C132.4,416.6,132.2,416.7,132,416.6z"/>
						</g>
						<g>
							<path class="st17" d="M121.6,410.5c-0.2,0-0.3-0.2-0.4-0.3c-0.1-0.2,0.1-0.4,0.3-0.5c5.7-1.1,11.1,2.1,11.3,2.2
								c0.2,0.1,0.3,0.4,0.2,0.6c-0.1,0.2-0.4,0.2-0.6,0.1c-0.1,0-5.3-3.1-10.6-2.1C121.7,410.5,121.6,410.5,121.6,410.5z"/>
						</g>
						<g>
							<path class="st17" d="M122,406.7c-0.2,0-0.3-0.2-0.4-0.3c-0.1-0.2,0.1-0.4,0.3-0.5c6.2-1.3,11.4,2,11.6,2.2
								c0.2,0.1,0.3,0.4,0.1,0.6c-0.1,0.2-0.4,0.2-0.6,0.1c0,0-5-3.2-10.8-2C122.2,406.7,122.1,406.7,122,406.7z"/>
						</g>
						<g>
							<path class="st17" d="M122.6,402.6c-0.2,0-0.3-0.1-0.4-0.3c-0.1-0.2,0-0.4,0.3-0.5c5.9-1.3,11.4,2.2,11.6,2.3
								c0.2,0.1,0.3,0.4,0.1,0.6c-0.1,0.2-0.4,0.2-0.6,0.1c-0.1,0-5.4-3.4-10.9-2.2C122.7,402.6,122.7,402.6,122.6,402.6z"/>
						</g>
					</g>
				</g>
				<g>
					<path class="st18" d="M130.4,240.4c-2.3,10.6-3.7,17-4.3,44.4c-0.5,25.8-1,34.1-1.2,37.4c-0.1,3.3-2.8,10.5-3.3,26.3
						c-0.6,16.1,1.2,33.3,1.2,33.3s1.8,2.8,7.9,3.3c5.7,0.5,9.1-2,9.1-2s7.6-30.6,9.7-40.2c2.1-9.7,7.9-41.7,7.9-41.7l2.3,25.7
						c0,0-1.6,8.9,0.4,23.5c1.9,14,5.4,27.7,5.4,27.7s2.4,2,9,1.6c4.8-0.3,8.6-1.8,8.6-1.8s2.3-41.8,2.8-57.7
						c0.5-17.4-0.6-55.8-2.9-80H130.4z"/>
					<path class="st17" d="M162.5,270.6l-5,30.6l2.3,25.7l-0.1-26.1l4.5-25.1c3.8-0.9,12.6-5.5,15-12.1
						C173.2,269.9,162.5,270.6,162.5,270.6z M144.6,252.7c0.7-2.6,1.4-5.1,2.2-7.7c-1.4,2.3-2.5,4.8-3.5,7.3
						c-0.9,2.5-1.7,5.1-2.3,7.8c-0.6,2.6-1.1,5.3-1.5,7.9c-0.4,2.7-0.6,5.4-0.5,8.1c0.6-2.6,1.2-5.2,1.8-7.8
						c0.6-2.6,1.2-5.2,1.8-7.8C143.2,257.9,143.9,255.3,144.6,252.7z M140.7,250.8c0.9-1.6,1.7-3.1,2.5-4.8
						c-1.4,1.2-2.6,2.6-3.6,4.1c-1.1,1.5-2.1,3-3,4.6c-0.9,1.6-1.6,3.3-2.2,5c-0.6,1.7-1.1,3.5-1.2,5.4l2.5-4.8
						c0.8-1.6,1.7-3.2,2.5-4.7C139,253.9,139.8,252.4,140.7,250.8z M137.5,353.1c-1.5,8.3-2.9,16.6-4.2,24.9
						c1.9-8.2,3.7-16.4,5.5-24.7c1.7-8.3,3.4-16.5,5-24.8c1.5-8.3,2.5-16.7,3.4-25.1c0.8-8.4,1.4-16.8,1.9-25.2
						c-1.2,8.4-2.2,16.7-3.3,25.1c-1.1,8.3-2.2,16.7-3.7,24.9C140.5,336.5,139,344.8,137.5,353.1z M178.4,311
						c0.1,3.9,0.3,7.2,0.3,11c-0.1,3.8-0.3,7.1-0.4,11.1c-0.1,3-0.3,7.9-0.3,10.8c-0.1,7.8,0,14.7,0,22.2c0.6-7.3,1-14.7,1.3-22
						c0.3-7.3,1-14.7,1.1-22c0.1-7.3-0.6-14.7-1-22c-0.4-7.3-1-14.6-1.9-21.8c0.3,6.9,0.4,15.1,0.6,21.7
						C178.2,304.3,178.3,307.2,178.4,311z"/>
				</g>
			</g>
			<g id="Top_7_">
				<g>
					<path class="st22" d="M126.8,256.1c1.4-10.6,2.5-19.5,2.1-23.5c-0.9-8.4-1.4-10-2.1-14.7c-1.5-10.3,3.2-21.9,5.6-24
						c0,0,12.5-2.7,14.9-3.1c7-1.2,10.5-0.7,12.8-0.5c1.1,0.1,11.9,1.9,11.9,1.9s3.2,3.5,5.7,7.5c2.8,4.5,5,7.9,5.6,18.4
						c0.7,12.5,0.9,29.1,1.4,36.9C174.9,266.8,139.2,266.3,126.8,256.1z"/>
				</g>
				<g>
					<g id="Head_00000060023321011925285740000012460859322252908679_">
						<path class="st18" d="M170.4,168.8c0.2-0.3,0.7-1.2,1.1-1.4c5.2-5.2,3.5-11.2,1.6-14.8c-4.2-8.1-13.6-9.8-19.4-9.5
							c-8.9,0.5-14.7,3.7-18.6,8.4c-4.1,5-4.5,11.9-4,19.6c0.4,6.2,0.5,13.3,1.1,20.3c2.1,0,3.1-0.1,5.4-0.3
							c-0.2-1.9-0.4-6.1-0.4-6.1s0.9,5,1.1,6c8.5-0.5,15.1-1.2,21.7-2.3c0-1.2,0-3.4,0-4.6c0.3,1.2,0.8,4.9,0.8,4.9
							s8.6-1.2,11.5-2.4c-0.8-3.6-1.4-9.1-1.5-9.9c-0.3-2.1-0.5-3.7-0.6-5.2C170,170.5,169.9,169.6,170.4,168.8z"/>
						<g id="XMLID_00000026878342550995358650000017564451873763548556_">
							<g id="XMLID_00000145052885953090735210000008494342149905840063_">
								<path id="XMLID_00000170965492758465838820000003249051364111680440_" class="st14" d="M142.9,179.8c-1.8,0.8-3.8,0-5.2-1.5
									c-2.6-2.9-2.9-6-1.9-8c0.8-1.7,3.3-2.8,5.1-1.9c1.5,0.7,1.7,1.5,2.2,2.9c0.2,0.6,0.7,1,1.4,0.7c0.7-0.3,1-1.1,1.1-1.8
									c0.2-1,0.2-1.3,0.1-2.3c0-0.2,0-0.5,0.1-0.7c0.1-0.2,0.5-0.3,0.7-0.4c1.6-1,2-1.7,2.7-3.5c0,1.2-0.2,2.4-0.6,3.5
									c2.5-0.7,4.7-2.2,6.5-4.1c1.8-1.9,3.2-4.1,4.3-6.4c0.7-1.4,1.3-2.9,1.4-4.5c4.1,1.7,8,5.2,8.5,9.8c0.1,1.2,0.6,2.4,0.9,3.9
									c2.4,10.6,0.6,15-1.7,17.7c-1.4,1.5-3.6,2.7-7.1,3.2l-0.1,4.7c0,0,3.4,7.7,4.2,15.9c0,0-2.5-2.5-12.5-9
									c-6.6-4.4-10-5.8-10-5.8l1.4-14.9C144.7,177.5,144.5,179.1,142.9,179.8z"/>
							</g>
							<path class="st23" d="M160.1,177.2c0,0.6-0.5,1.1-1.1,1.1s-1.1-0.5-1.1-1.1c0-0.6,0.5-1.1,1.1-1.1S160.1,176.5,160.1,177.2z"
								/>
							<g>
								<g id="XMLID_00000029044110166119076170000008474497786611050394_">
									<path id="XMLID_00000044900411996651314560000007948232242465477530_" class="st17" d="M167.9,161.5l-3.7-0.7
										c0.2-1,1.1-1.7,2.2-1.5C167.4,159.5,168.1,160.5,167.9,161.5z"/>
								</g>
								<g id="XMLID_00000023278123424725781410000003686291678523313060_">
									<path id="XMLID_00000021080891269216202800000006488555410568884153_" class="st17" d="M155.1,161.7l-3.4,2.3
										c-0.7-0.9-0.5-2.2,0.5-2.8C153.1,160.5,154.4,160.7,155.1,161.7z"/>
								</g>
								<path class="st17" d="M153.5,166.9c0.1,0.8,0.9,1.4,1.7,1.3c0.8-0.1,1.4-0.9,1.3-1.7c-0.1-0.8-0.9-1.4-1.7-1.3
									C154,165.2,153.4,166,153.5,166.9z"/>
								<path class="st17" d="M164.6,165.3c0.1,0.8,0.9,1.4,1.7,1.3c0.8-0.1,1.4-0.9,1.3-1.7c-0.1-0.8-0.9-1.4-1.7-1.3
									C165.1,163.7,164.5,164.5,164.6,165.3z"/>
								<g id="XMLID_00000137117142040665961840000009173267642244180891_">
									<polygon id="XMLID_00000165195239591893972510000002416582117888311987_" class="st15" points="159.5,163.9 161.1,173.3 
										166.1,171 									"/>
								</g>
								<g id="XMLID_00000166649009735587912880000018377126510263724936_">
									<path id="XMLID_00000064330473198710342070000016946508415921491350_" class="st15" d="M161.6,186.5
										c-2.7,0.2-5.9,0.2-9.3-1c-2.7-1-5.1-4.2-6.1-6.4c0.2,2.3,1.2,5.6,4.6,7.5c4.9,2.8,10.8,2,10.8,2L161.6,186.5z"/>
								</g>
							</g>
						</g>
					</g>
				</g>
				<g id="Hand_1_">
					<path class="st14" d="M132.4,194c-6.7,1.1-8.9,3.2-11.6,10.4c-2.7,7-8.8,22.6-7,33.1c1.1,6.4,17.3-9.7,17.3-9.7l5.4-16.8
						C136.5,211,137.2,196.5,132.4,194z"/>
					<path class="st15" d="M136.9,199c1.6,4.7,1.9,10.9,1.9,10.9l-7.8,17.9c0,0-2.3,2.3-5.3,4.8l-11-5.7c0.2-2.7,6.4-10.7,10.3-14.8
						C128,209.1,133.9,202.2,136.9,199z"/>
					<g>
						<g>
							<path class="st14" d="M134.2,202.8c1.4-2,2.9-4.1,3.6-7.1c0.7-3,3.1-5.8,3.9-6.9c0.8-1.1,2.5-2.8,3.9-4.4
								c1.3-1.6,1.7-2,3.6-2.4c2.6-0.4,4.7-0.9,5.7-0.5c1,0.3,1,1,0.1,1.9c-0.9,0.9-2.8,1.1-3.4,1.3c-0.6,0.2-1.9,0.7-1.9,0.7
								l-2.4,3.6c0,0,4.1,0.8,4.9,1.2c0.8,0.4,1.5,2.5,1.1,3.7c0,0,1.5,1,0.9,2.5c0,0,0.9,1.2,0.3,2.2c-0.6,1-1.9,2.3-2.5,2.7
								c-0.5,0.4-2.5,0.5-2.5,0.5s-1.7,2.6-3.1,3.6c-1.4,1-2.3,1-3.9,3.2L134.2,202.8z"/>
							<path class="st15" d="M149.3,189.4c1-0.4,1.2-1.1,2.1-0.7c0.9,0.3,0.6,1.4,0.6,1.4L149.3,189.4z"/>
							<path class="st15" d="M153.5,194c0,0-0.8-0.7-2-1.3c-0.7-0.3-2.1-0.8-2.1-0.8s1.6,0.1,2.9,0.7c1.2,0.5,1.3,0.7,1.3,0.7
								C153.6,193.5,153.6,193.7,153.5,194L153.5,194z"/>
							<path class="st15" d="M153.6,195.4c0.4,0.2,0.7,0.3,0.9,0.5c0,0.2-0.1,0.5-0.2,0.7c-0.5-0.8-2.6-1.6-2.6-1.6
								S152.8,195,153.6,195.4z"/>
							<path class="st15" d="M149.4,202.4c0.4-0.9,1.4-2.6,2-3.2c0.6-0.7,1.8-0.6,2-0.2c0.3,0.4-1.1,0.3-1.5,0.5
								C151.6,199.6,150.1,201.3,149.4,202.4z"/>
							<path class="st15" d="M146.3,188.9c0,0,0.8-1.1,2.1-2.8c1.3-1.7,1.3-1.4,2.6-1.7c1.2-0.2,3.8-0.7,4.5-1.5
								c-0.1,0.1-0.2,0.3-0.4,0.4c-0.9,0.9-2.8,1.1-3.4,1.3c-0.6,0.2-1.9,0.7-1.9,0.7l-2.5,3.7L146.3,188.9z"/>
						</g>
						<path class="st14" d="M134.2,202.8c-4.4,5.3-16.3,18.1-19,23.2c-1.9,3.5-2.4,11.7-0.4,14.7c1.9,3,7.5,1.7,12-2.2
							c3.9-3.4,7.1-11.6,9.9-17.4c2.8-5.8,6.2-12.4,6.2-12.4L134.2,202.8z"/>
					</g>
					<path class="st23" d="M134.2,202.8c1-1.4,2-2.7,2.7-4.3c0.4-0.8,0.7-1.5,0.9-2.4c0.2-0.8,0.5-1.6,0.8-2.4
						c0.7-1.5,1.7-2.9,2.7-4.2c1-1.4,2.1-2.6,3.3-3.8c0.6-0.6,1.1-1.3,1.7-1.9c0.5-0.6,1.1-1.2,1.9-1.5c0.8-0.2,1.6-0.3,2.5-0.5
						c0.8-0.1,1.7-0.3,2.5-0.4c0.8-0.1,1.7-0.2,2.3,0.3c0.3,0.2,0.2,0.6,0,1c-0.2,0.3-0.5,0.6-0.9,0.8c-0.7,0.4-1.5,0.6-2.3,0.8
						c-0.8,0.2-1.6,0.5-2.4,0.9l0,0l0,0l-2.4,3.6l-0.1,0.1l0.2,0c1.5,0.3,3,0.6,4.4,1c0.8,0.1,1.1,0.9,1.4,1.6
						c0.2,0.7,0.4,1.5,0.2,2.2l0,0.1l0.1,0c0.4,0.3,0.7,0.6,0.9,1.1c0.1,0.2,0.1,0.4,0.1,0.7c0,0.2-0.1,0.5-0.1,0.7l0,0l0,0
						c0.4,0.5,0.7,1.3,0.4,1.9c-0.3,0.6-0.8,1.1-1.3,1.7c-0.2,0.3-0.5,0.5-0.7,0.8c-0.3,0.2-0.5,0.5-0.8,0.6
						c-0.7,0.2-1.4,0.3-2.1,0.3l0,0l0,0c-0.5,0.7-0.9,1.3-1.5,2c-0.5,0.6-1.1,1.2-1.7,1.7c-0.7,0.5-1.4,0.8-2.1,1.3
						c-0.7,0.5-1.2,1.1-1.7,1.8c0.5-0.7,1-1.3,1.7-1.8c0.7-0.5,1.4-0.8,2.1-1.3c0.7-0.5,1.2-1.1,1.8-1.7c0.5-0.6,1-1.3,1.5-1.9
						c0.7-0.1,1.4-0.1,2.1-0.3c0.4-0.1,0.6-0.4,0.9-0.6c0.3-0.2,0.5-0.5,0.8-0.8c0.5-0.5,1-1.1,1.3-1.7c0.3-0.7,0-1.5-0.4-2.1
						c0.1-0.2,0.1-0.5,0.1-0.7c0-0.3-0.1-0.5-0.2-0.7c-0.2-0.4-0.5-0.8-0.9-1.1c0.2-0.8,0-1.5-0.2-2.2c-0.1-0.4-0.3-0.7-0.5-1
						c-0.1-0.2-0.3-0.3-0.4-0.4c-0.2-0.1-0.4-0.2-0.5-0.2c-1.4-0.4-2.8-0.7-4.3-1l2.3-3.4c0.8-0.3,1.5-0.7,2.3-0.8
						c0.8-0.2,1.7-0.4,2.4-0.8c0.4-0.2,0.7-0.6,0.9-0.9c0.1-0.2,0.2-0.4,0.3-0.6c0-0.2-0.1-0.5-0.3-0.7c-0.4-0.3-0.8-0.4-1.3-0.4
						c-0.4,0-0.9,0-1.3,0.1c-0.8,0.1-1.7,0.2-2.5,0.4c-0.8,0.2-1.7,0.2-2.5,0.5c-0.8,0.3-1.5,0.9-2,1.5c-0.5,0.6-1.1,1.3-1.6,1.9
						c-1.1,1.2-2.3,2.4-3.3,3.8c-1,1.3-2,2.7-2.7,4.3c-0.4,0.8-0.6,1.6-0.8,2.4c-0.2,0.8-0.5,1.6-0.9,2.4
						C136.2,200,135.2,201.4,134.2,202.8z"/>
				</g>
			</g>
		</g>
	</g>
</g>
</svg>
