<svg xmlns="http://www.w3.org/2000/svg" xmlns:xlink="http://www.w3.org/1999/xlink" viewBox="0 0 3710 3710"><defs><style>.cls-1{isolation:isolate;}.cls-2{fill:#fff;}.cls-3{fill:#f4f7fa;}.cls-4,.cls-5{fill:#d8dee8;}.cls-10,.cls-13,.cls-44,.cls-45,.cls-49,.cls-5,.cls-69,.cls-7{mix-blend-mode:multiply;}.cls-10,.cls-13,.cls-44,.cls-45,.cls-49,.cls-5,.cls-50,.cls-51,.cls-69,.cls-7{opacity:0.3;}.cls-6,.cls-7,.cls-70{fill:#7497ad;}.cls-8{fill:#9da2a3;}.cls-9{fill:url(#linear-gradient);}.cls-10{fill:url(#linear-gradient-2);}.cls-11{fill:#809093;}.cls-12{fill:url(#linear-gradient-3);}.cls-13{fill:url(#linear-gradient-4);}.cls-14{fill:url(#linear-gradient-5);}.cls-15{fill:url(#linear-gradient-6);}.cls-16{fill:url(#linear-gradient-7);}.cls-17{fill:url(#linear-gradient-8);}.cls-18{fill:url(#linear-gradient-9);}.cls-19{fill:url(#linear-gradient-10);}.cls-20{fill:url(#linear-gradient-11);}.cls-21{fill:url(#linear-gradient-12);}.cls-22{fill:url(#linear-gradient-13);}.cls-23{fill:url(#linear-gradient-14);}.cls-24{fill:url(#linear-gradient-15);}.cls-25{fill:url(#linear-gradient-16);}.cls-26{fill:url(#linear-gradient-17);}.cls-27{fill:url(#linear-gradient-18);}.cls-28{fill:url(#linear-gradient-19);}.cls-29{fill:url(#linear-gradient-20);}.cls-30{fill:url(#linear-gradient-21);}.cls-31{fill:url(#linear-gradient-22);}.cls-32{fill:url(#linear-gradient-23);}.cls-33{fill:#1f73b2;}.cls-34{fill:url(#linear-gradient-24);}.cls-35{fill:url(#linear-gradient-25);}.cls-36{fill:url(#linear-gradient-26);}.cls-37{fill:url(#linear-gradient-27);}.cls-38{fill:url(#linear-gradient-28);}.cls-39{fill:url(#linear-gradient-29);}.cls-40{fill:url(#linear-gradient-30);}.cls-41{fill:url(#linear-gradient-31);}.cls-42{fill:url(#linear-gradient-32);}.cls-43{fill:url(#linear-gradient-33);}.cls-44{fill:url(#linear-gradient-34);}.cls-45{fill:url(#linear-gradient-35);}.cls-46{fill:url(#linear-gradient-36);}.cls-47{fill:url(#linear-gradient-37);}.cls-48{fill:url(#linear-gradient-38);}.cls-49{fill:url(#linear-gradient-39);}.cls-50,.cls-51,.cls-70{mix-blend-mode:soft-light;}.cls-50{fill:url(#linear-gradient-40);}.cls-51{fill:url(#linear-gradient-41);}.cls-52{fill:url(#linear-gradient-42);}.cls-53{fill:url(#linear-gradient-43);}.cls-54{fill:url(#linear-gradient-44);}.cls-55{fill:url(#linear-gradient-45);}.cls-56{fill:url(#linear-gradient-46);}.cls-57{fill:url(#linear-gradient-47);}.cls-58{fill:url(#linear-gradient-48);}.cls-59{fill:url(#linear-gradient-49);}.cls-60{fill:url(#linear-gradient-50);}.cls-61{fill:url(#linear-gradient-51);}.cls-62{fill:url(#linear-gradient-52);}.cls-63{fill:url(#linear-gradient-53);}.cls-64{fill:url(#linear-gradient-54);}.cls-65{fill:url(#linear-gradient-55);}.cls-66{fill:url(#linear-gradient-56);}.cls-67{fill:url(#linear-gradient-57);}.cls-68{fill:url(#linear-gradient-58);}.cls-70{opacity:0.5;}</style><linearGradient id="linear-gradient" x1="5104.85" y1="1051.41" x2="4894.31" y2="1426.44" gradientTransform="matrix(-1, 0, 0, 1, 6042.86, 0)" gradientUnits="userSpaceOnUse"><stop offset="0" stop-color="#fff"/><stop offset="1" stop-color="#ebeff2"/></linearGradient><linearGradient id="linear-gradient-2" x1="5091.83" y1="1115.36" x2="4346.95" y2="2442.17" gradientTransform="matrix(-1, 0, 0, 1, 6042.86, 0)" gradientUnits="userSpaceOnUse"><stop offset="0" stop-color="#aa80f9"/><stop offset="1" stop-color="#6165d7"/></linearGradient><linearGradient id="linear-gradient-3" x1="4376.92" y1="1219.83" x2="4170.93" y2="1586.75" xlink:href="#linear-gradient"/><linearGradient id="linear-gradient-4" x1="4359.14" y1="1280.16" x2="3631.15" y2="2576.89" xlink:href="#linear-gradient-2"/><linearGradient id="linear-gradient-5" x1="2895.84" y1="2610.65" x2="3112.46" y2="2610.65" gradientUnits="userSpaceOnUse"><stop offset="0" stop-color="#311944"/><stop offset="1" stop-color="#893976"/></linearGradient><linearGradient id="linear-gradient-6" x1="-2302.27" y1="2757.09" x2="-2131.88" y2="2757.09" gradientTransform="translate(5146.3)" gradientUnits="userSpaceOnUse"><stop offset="0" stop-color="#444b8c"/><stop offset="1" stop-color="#3e4177"/></linearGradient><linearGradient id="linear-gradient-7" x1="-1992.69" y1="2464.96" x2="-2235.16" y2="2940.31" gradientTransform="translate(5146.3)" gradientUnits="userSpaceOnUse"><stop offset="0" stop-color="#ebeff2"/><stop offset="0.99" stop-color="#b7c0ce"/></linearGradient><linearGradient id="linear-gradient-8" x1="2004.55" y1="1593.89" x2="2033.82" y2="3970.82" gradientUnits="userSpaceOnUse"><stop offset="0" stop-color="#fcb148"/><stop offset="0.05" stop-color="#fdba46"/><stop offset="0.14" stop-color="#ffc244"/><stop offset="0.32" stop-color="#ffc444"/><stop offset="0.48" stop-color="#fdb946"/><stop offset="0.78" stop-color="#f99c4d"/><stop offset="0.87" stop-color="#f8924f"/><stop offset="1" stop-color="#f8924f"/></linearGradient><linearGradient id="linear-gradient-9" x1="2338.16" y1="2825.14" x2="2554.78" y2="2825.14" xlink:href="#linear-gradient-5"/><linearGradient id="linear-gradient-10" x1="2686.34" y1="1585.74" x2="2715.59" y2="3960.62" xlink:href="#linear-gradient-8"/><linearGradient id="linear-gradient-11" x1="-2947.13" y1="2981.26" x2="-2695.32" y2="2981.26" xlink:href="#linear-gradient-6"/><linearGradient id="linear-gradient-12" x1="-2489.62" y1="2549.54" x2="-2847.95" y2="3252.03" xlink:href="#linear-gradient-7"/><linearGradient id="linear-gradient-13" x1="-3993.42" y1="2934.53" x2="-3718.4" y2="2934.53" xlink:href="#linear-gradient-6"/><linearGradient id="linear-gradient-14" x1="-3493.74" y1="2463.01" x2="-3885.1" y2="3230.26" xlink:href="#linear-gradient-7"/><linearGradient id="linear-gradient-15" x1="1819.86" y1="2609.15" x2="1072.92" y2="2886.81" xlink:href="#linear-gradient-8"/><linearGradient id="linear-gradient-16" x1="1184.92" y1="2732.51" x2="1337.73" y2="2732.51" gradientTransform="matrix(1, 0, 0, 1, 0, 0)" xlink:href="#linear-gradient-6"/><linearGradient id="linear-gradient-17" x1="1286.97" y1="2585.09" x2="2483.83" y2="2585.09" xlink:href="#linear-gradient-8"/><linearGradient id="linear-gradient-18" x1="1507.66" y1="1826.09" x2="2522.71" y2="1826.09" gradientTransform="matrix(1, 0, 0, 1, 0, 0)" xlink:href="#linear-gradient-6"/><linearGradient id="linear-gradient-19" x1="1750.37" y1="1826.09" x2="2237.8" y2="1826.09" gradientTransform="matrix(1, 0, 0, 1, 0, 0)" xlink:href="#linear-gradient"/><linearGradient id="linear-gradient-20" x1="1570.6" y1="1838.67" x2="1632.51" y2="1838.67" gradientUnits="userSpaceOnUse"><stop offset="0" stop-color="#ff9085"/><stop offset="1" stop-color="#fb6fbb"/></linearGradient><linearGradient id="linear-gradient-21" x1="1656.4" y1="1838.67" x2="1718.31" y2="1838.67" xlink:href="#linear-gradient-8"/><linearGradient id="linear-gradient-22" x1="10658.5" y1="1838.67" x2="10720.41" y2="1838.67" gradientTransform="matrix(-1, 0, 0, 1, 13074.88, 0)" xlink:href="#linear-gradient-20"/><linearGradient id="linear-gradient-23" x1="10744.29" y1="1838.67" x2="10806.2" y2="1838.67" gradientTransform="matrix(-1, 0, 0, 1, 13074.88, 0)" xlink:href="#linear-gradient-8"/><linearGradient id="linear-gradient-24" x1="1834.82" y1="2488.66" x2="2483.83" y2="2488.66" xlink:href="#linear-gradient-8"/><linearGradient id="linear-gradient-25" x1="1893.98" y1="2823.46" x2="2539.87" y2="2823.46" xlink:href="#linear-gradient-8"/><linearGradient id="linear-gradient-26" x1="1488.03" y1="3449.47" x2="1662.45" y2="2379.7" xlink:href="#linear-gradient-8"/><linearGradient id="linear-gradient-27" x1="1907.94" y1="2793.88" x2="2184.83" y2="2793.88" xlink:href="#linear-gradient-8"/><linearGradient id="linear-gradient-28" x1="1949.29" y1="2732.51" x2="2118.53" y2="2732.51" gradientTransform="translate(2527.9 -637.9) rotate(45)" xlink:href="#linear-gradient-6"/><linearGradient id="linear-gradient-29" x1="1688.67" y1="1855.12" x2="1596.16" y2="2545.12" xlink:href="#linear-gradient-8"/><linearGradient id="linear-gradient-30" x1="1559.49" y1="2582.34" x2="1532.08" y2="3216.62" xlink:href="#linear-gradient-8"/><linearGradient id="linear-gradient-31" x1="1562.02" y1="2585.5" x2="1534.61" y2="3219.79" xlink:href="#linear-gradient-8"/><linearGradient id="linear-gradient-32" x1="1564.55" y1="2585.24" x2="1537.14" y2="3219.52" xlink:href="#linear-gradient-8"/><linearGradient id="linear-gradient-33" x1="1567.08" y1="2584.97" x2="1539.68" y2="3219.26" xlink:href="#linear-gradient-8"/><linearGradient id="linear-gradient-34" x1="2522.71" y1="2441.83" x2="2956.95" y2="2441.83" xlink:href="#linear-gradient-8"/><linearGradient id="linear-gradient-35" x1="3035.77" y1="2668.13" x2="3161.96" y2="2668.13" xlink:href="#linear-gradient-8"/><linearGradient id="linear-gradient-36" x1="2533" y1="2457.06" x2="3176.84" y2="2457.06" gradientTransform="matrix(1, 0, 0, 1, 0, 0)" xlink:href="#linear-gradient-6"/><linearGradient id="linear-gradient-37" x1="2473.88" y1="2922.65" x2="2140.17" y2="3046.69" gradientTransform="matrix(1, 0, 0, 1, 0, 0)" xlink:href="#linear-gradient-6"/><linearGradient id="linear-gradient-38" x1="3469.07" y1="2362.65" x2="1003.86" y2="3279.04" gradientTransform="matrix(1, 0, 0, 1, 0, 0)" xlink:href="#linear-gradient-6"/><linearGradient id="linear-gradient-39" x1="3525.45" y1="2265.9" x2="1014.35" y2="3199.34" gradientTransform="matrix(1, 0, 0, 1, 0, 0)" xlink:href="#linear-gradient-6"/><linearGradient id="linear-gradient-40" x1="1540.98" y1="2070.68" x2="1773.8" y2="2070.68" gradientTransform="matrix(1, 0, 0, 1, 0, 0)" xlink:href="#linear-gradient"/><linearGradient id="linear-gradient-41" x1="1976.92" y1="2062.78" x2="2231.39" y2="2062.78" gradientTransform="matrix(1, 0, 0, 1, 0, 0)" xlink:href="#linear-gradient"/><linearGradient id="linear-gradient-42" x1="1479.35" y1="2134.43" x2="1396.52" y2="2243.08" gradientTransform="matrix(1, 0, 0, 1, 0, 0)" xlink:href="#linear-gradient-6"/><linearGradient id="linear-gradient-43" x1="1362.49" y1="2208.83" x2="1465.46" y2="2208.83" gradientTransform="matrix(1, 0, 0, 1, 0, 0)" xlink:href="#linear-gradient-6"/><linearGradient id="linear-gradient-44" x1="1444.87" y1="2184.8" x2="1530.68" y2="2184.8" gradientTransform="matrix(1, 0, 0, 1, 0, 0)" xlink:href="#linear-gradient-6"/><linearGradient id="linear-gradient-45" x1="1444.87" y1="2229.42" x2="1530.68" y2="2229.42" gradientTransform="matrix(1, 0, 0, 1, 0, 0)" xlink:href="#linear-gradient-6"/><linearGradient id="linear-gradient-46" x1="2617.28" y1="2163.6" x2="2752.43" y2="2269.37" gradientTransform="matrix(1, 0, 0, 1, 0, 0)" xlink:href="#linear-gradient-6"/><linearGradient id="linear-gradient-47" x1="2577.63" y1="2191.66" x2="2708.06" y2="2191.66" gradientTransform="matrix(1, 0, 0, 1, 0, 0)" xlink:href="#linear-gradient-6"/><linearGradient id="linear-gradient-48" x1="2529.57" y1="2171.07" x2="2635.98" y2="2171.07" gradientTransform="matrix(1, 0, 0, 1, 0, 0)" xlink:href="#linear-gradient-6"/><linearGradient id="linear-gradient-49" x1="2529.57" y1="2219.13" x2="2635.98" y2="2219.13" gradientTransform="matrix(1, 0, 0, 1, 0, 0)" xlink:href="#linear-gradient-6"/><linearGradient id="linear-gradient-50" x1="1788.87" y1="1824" x2="1818.39" y2="1824" gradientTransform="matrix(1, 0, 0, 1, 0, 0)" xlink:href="#linear-gradient-6"/><linearGradient id="linear-gradient-51" x1="1824.59" y1="1824" x2="1859.1" y2="1824" gradientTransform="matrix(1, 0, 0, 1, 0, 0)" xlink:href="#linear-gradient-6"/><linearGradient id="linear-gradient-52" x1="1867.03" y1="1824.01" x2="1904.14" y2="1824.01" gradientTransform="matrix(1, 0, 0, 1, 0, 0)" xlink:href="#linear-gradient-6"/><linearGradient id="linear-gradient-53" x1="1913.56" y1="1823.97" x2="1956.68" y2="1823.97" gradientTransform="matrix(1, 0, 0, 1, 0, 0)" xlink:href="#linear-gradient-6"/><linearGradient id="linear-gradient-54" x1="1964.05" y1="1823.97" x2="2007.18" y2="1823.97" gradientTransform="matrix(1, 0, 0, 1, 0, 0)" xlink:href="#linear-gradient-6"/><linearGradient id="linear-gradient-55" x1="2016.56" y1="1824.01" x2="2044.54" y2="1824.01" gradientTransform="matrix(1, 0, 0, 1, 0, 0)" xlink:href="#linear-gradient-6"/><linearGradient id="linear-gradient-56" x1="2068.89" y1="1824.01" x2="2102.47" y2="1824.01" gradientTransform="matrix(1, 0, 0, 1, 0, 0)" xlink:href="#linear-gradient-6"/><linearGradient id="linear-gradient-57" x1="2111.2" y1="1824.32" x2="2148.38" y2="1824.32" gradientTransform="matrix(1, 0, 0, 1, 0, 0)" xlink:href="#linear-gradient-6"/><linearGradient id="linear-gradient-58" x1="2156.68" y1="1824" x2="2186.2" y2="1824" gradientTransform="matrix(1, 0, 0, 1, 0, 0)" xlink:href="#linear-gradient-6"/></defs><g class="cls-1"><g id="Background"><rect class="cls-2" width="3710" height="3710"/></g><g id="Illustration"><path class="cls-3" d="M3213.8,1652.1C3137.9,1155.3,2826.8,545,2212,481.2c0,0-466.7-56.8-926.8,29.3-273.1,51-512.5,203-664,421.5s-202.1,484.9-140.7,738.9c39.9,164.9,66.8,335.7,59.4,505.2-12.8,295-5.4,570.4,280.9,746.3,255.6,157.1,577.4,295.7,884.3,320,208.6,16.4,442.5-10.2,643.5-64.5C3373.2,2901.1,3289.7,2148.9,3213.8,1652.1Z"/><path class="cls-4" d="M2615.3,1736.2c-41,137.2-232.7,849.3-242.6,789.8,0,0-63,5.7-80.5-129.7-1.7-13.6-3-28.8-3.8-45.5-7.9-182,3.2-872.9,72.7-771.8s62.4,167,74.2,55.2,27.1-220.7,89.4-165.5l10.7,9.6C2594.4,1532.6,2654,1607,2615.3,1736.2Z"/><path class="cls-5" d="M2615.3,1736.2c-41,137.2-232.7,849.3-242.6,789.8,0,0-63,5.7-80.5-129.7,7.7-91.2,79.7-180.1,107.8-219.7,42.1-59.5,61.9-69.4,34.7-184.9s-7.5-169.5,69.3-335.6c34.7-74.9,38.1-134.7,31.4-177.8C2594.4,1532.6,2654,1607,2615.3,1736.2Z"/><path class="cls-6" d="M2937.1,2125.7c-117.5,124.7-441,366.5-539.5,389.1-22.1,5.1-32.8-.9-27.4-21.7,0,0,95.3-971.2,368.1-999.3,36.6-3.8,87.8-1.5,120.4,17.3a108.8,108.8,0,0,1,15.3,10.6c73.1,60.8,27.2,193-5,264-12,26.4-31,48.1-44.8,73.5-11.7,21.5-15.6,50.2,15.4,47.6,28.4-2.3,46.9-35.8,72.5-45.1,29.1-10.5,51.9,3.7,70.7,39.3C3022.4,1976,2993.6,2065.8,2937.1,2125.7Z"/><path class="cls-7" d="M2937.1,2125.7c-117.5,124.7-441,366.5-539.5,389.1,12.7-30.2,27.6-63.8,45-100.9,103.3-220.4,300.3-175.8,224.9-337.6s-64.9-321.5,80.9-398.1c86.3-45.3,115.8-110.7,125.6-156.5,73.1,60.8,27.2,193-5,264-12,26.4-31,48.1-44.8,73.5-11.7,21.5-15.6,50.2,15.4,47.6,28.4-2.3,46.9-35.8,72.5-45.1,29.1-10.5,51.9,3.7,70.7,39.3C3022.4,1976,2993.6,2065.8,2937.1,2125.7Z"/><path class="cls-8" d="M808.4,1487.2c31,25.6,58.2,35.4,81.1,37.8,97.2,10.2,137.1-113.1,238.3-96,110.1,18.7,133.6,176.5,222.6,170.3,56.6-4,69.6-68.1,135-89,28.1-9,57.1-7.1,86.1,2.8,170.7,213.8,248.8,338.1,288.2,413.2,12.4,23.7,28.2,56.3,58.2,108.9,86,151.2,117.2,163.1,110.6,192.6-20.4,91.3-345.7,110.9-597.1,69.7-137.3-22.5-213.4-35-299.3-92.2-130.7-87.1-166.1-199.5-262.7-199.5-72.3,0-124.9,64-150.5,90.9-159.2,167.6-84.8,467-97.8,467.6-16,.8-53-212.3-42-471.2,10.5-244.1,56-350.7,81-401.2C706.9,1597.3,765.3,1529.9,808.4,1487.2Z"/><path class="cls-9" d="M1485.4,1510.3c-65.4,20.9-78.4,85-135,89-89,6.2-112.5-151.6-222.6-170.3-101.2-17.1-141.1,106.2-238.3,96-22.9-2.4-50.1-12.2-81.1-37.8,68.5-122.7,152.8-272.7,246.7-452,13.2-25.3,44.2-84.9,95.7-93.8,95.9-16.6,184.7,151.8,224.8,226.5,74.6,139.1,140,252.2,195.9,345.2C1542.5,1503.2,1513.5,1501.3,1485.4,1510.3Z"/><path class="cls-10" d="M1251.4,1948.8c61.6-116-43.5-232-79.8-344.4-18.1-54.4-18.1-116,10.9-163.1,90.1-150.2,127.9-337.7,39.3-478,68.1,43.1,126.4,153.3,156.7,209.8,74.6,139.1,140.1,252.1,195.9,345.2,170.7,213.8,248.7,338.1,288.2,413.2,12.4,23.7,28.2,56.3,58.2,108.9,86,151.2,117.2,163.1,110.6,192.6-20.4,91.3-345.7,110.9-597.1,69.7-137.3-22.5-213.4-35-299.3-92.2a533.8,533.8,0,0,1-56.5-43.6C1148.9,2106.1,1207.5,2031.8,1251.4,1948.8Z"/><path class="cls-11" d="M1533.6,1644.4c30.7,24.9,57.6,34.5,80.3,36.8,96.3,9.9,135.8-110.1,236-93.4,108.9,18.2,132.2,171.7,220.3,165.7,56.1-3.9,69-66.2,133.7-86.6,27.9-8.8,56.6-6.9,85.2,2.7,169.1,208,246.4,329,285.4,402.1,12.3,23.1,27.9,54.7,57.6,106,85.2,147.1,116.1,158.7,109.6,187.4-20.2,88.8-342.3,107.9-591.2,67.8-136-21.9-211.4-34-296.4-89.7C1724.7,2258.4,1689.7,2149,1594,2149c-71.5,0-123.7,62.3-149,88.5-157.6,163.1-83-344.8-58.3-393.9C1433.1,1751.5,1490.9,1686,1533.6,1644.4Z"/><path class="cls-12" d="M2203.9,1666.9c-64.7,20.4-77.6,82.7-133.7,86.6-88.1,6-111.4-147.5-220.3-165.7-100.2-16.7-139.7,103.3-236,93.4-22.7-2.3-49.6-11.9-80.3-36.8,67.9-119.4,151.3-265.4,244.2-439.9,13.1-24.6,43.9-82.5,94.8-91.2,95-16.2,182.9,147.7,222.6,220.4,73.8,135.3,138.7,245.4,193.9,335.9C2260.5,1660,2231.8,1658.1,2203.9,1666.9Z"/><path class="cls-13" d="M1972.2,2093.5c61-112.8-43.1-225.7-79-335.1-17.9-52.9-17.9-112.8,10.8-158.7,89.2-146.1,126.7-328.6,38.9-465.1,67.5,41.9,125.2,149.1,155.2,204.2,73.8,135.3,138.6,245.3,193.9,335.8,169.1,208.1,246.3,329.1,285.4,402.2,12.3,23,27.9,54.7,57.6,105.9,85.2,147.2,116.1,158.7,109.5,187.4-20.1,88.8-342.2,107.9-591.1,67.9-136-21.9-211.4-34.1-296.4-89.8a531.7,531.7,0,0,1-56-42.4A732,732,0,0,0,1972.2,2093.5Z"/><path class="cls-4" d="M3146.8,2348.6c-97.7-63.4-238.4-48.4-355.1-57.9-120.8-9.8-256.4-25-348.4-93.4-226.3-168.5-432.8-174.6-870.1-180.4s-328.5-208.4-867.4-214.7c-62.3-.7-145.6,26.2-185.5,64.1-91.7,87.3-55.1,245.5-33.9,347,35.2,168.4,109,334.5,190.4,492a336.4,336.4,0,0,0,28.9,46.1c79.1,105.6,211.1,138.8,375.5,101.8,233.7-52.6,436.2-165.6,680.5-194.7,359.8-42.8,721.1,87.8,1081.7,91.6,167.1,1.8,314.7-35.6,367.2-173.1C3239.4,2501.7,3227.2,2400.6,3146.8,2348.6Z"/><path class="cls-14" d="M2895.8,2479.2s113.8-55.5,162.6,0,63.2,236.9,48.7,286l-59.4,1.6Z"/><path class="cls-15" d="M2907,2591.3h0c-6.1.9-11.7,4.3-17.2,9.1s-11.7,8.4-11.7,14.2v.2c-20.5,30.4-34,86.7-34.1,149.7-.1,83.9,23.8,151.7,55.3,159.6h-.1c2.2.5,28.6,14.1,111.7.7,2.2-51.1,3.5-340.3,3.5-340.3S2948,2579.6,2907,2591.3Z"/><path class="cls-16" d="M3073.1,2748.4c0,96-31.1,175.5-68.8,177.5s-66.3-71.7-66.2-164.4,29.5-171.7,66.4-176.9S3073.1,2652.5,3073.1,2748.4Z"/><path class="cls-2" d="M3043.6,2750.6c0,68.1-20.7,124.7-46,126.4s-44.8-51-44.7-117.6,20-122.9,44.9-126.1S3043.6,2682.5,3043.6,2750.6Z"/><path class="cls-17" d="M2522.7,1928v987.9h-1016V1928a163.4,163.4,0,0,1,1.2-22.2c11.5-87.9,93.6-156.9,193.3-156.9h627.9c99.8,0,181.4,69,192.9,156.9C2522.9,1912.8,2522.7,1920.8,2522.7,1928Z"/><path class="cls-18" d="M2338.2,2693.7s113.8-55.6,162.5,0,63.3,236.9,48.7,286l-59.4,1.6Z"/><path class="cls-19" d="M3180.8,2099.5c-6.1,137.9-4.4,387-18.8,534.9-6.4,65.5-16,111.1-30.8,118.6l-27.6,10.5c-3.2-89.7-30.4-162.3-67.8-190.7-12.9-9.8-26.9-14.3-41.6-12.6-13.1,1.6-25.7,8.1-37.2,18.7-40.4,36.9-68.8,122.9-68.9,220,0,16.3.8,32.2,2.3,47.5-104.2,40.6-226.7,88.5-338.5,132.3l-2.5,1c.6-4.9,1.1-9.8,1.5-14.9,1.2-13.7,1.8-27.8,1.8-42.1,0-39.6-4.7-76.6-13-109.2-21.4-83.9-67-138.6-119.1-132.9-71,7.7-127.7,124.7-127.9,261.6,0,47.6,6.8,91.8,18.7,129.1.1.5.3,1,.4,1.4l-95,37.3.5-3.7,66.2-569,90.9-781.8,711.9,219.3C3144.7,1992.7,3183.2,2043.5,3180.8,2099.5Z"/><path class="cls-20" d="M2292.3,2736.2h-.1c-9,1.3-17.2,6.3-25.4,13.5s-17.3,12.4-17.3,21v.2c-30.3,45-50.2,128.2-50.3,221.3-.2,124,35.1,224.3,81.7,235.8h-.1c3.1.7,42.1,20.9,165,1,3.3-75.5,5.2-502.9,5.2-502.9S2352.8,2719,2292.3,2736.2Z"/><path class="cls-21" d="M2537.7,2968.4c0,141.8-46,259.4-101.6,262.4s-98-106-97.9-243,43.6-253.8,98.1-261.5S2537.7,2826.7,2537.7,2968.4Z"/><path class="cls-2" d="M2494.1,2971.6c0,100.7-30.6,184.4-67.9,186.8s-66.3-75.3-66.2-173.7,29.6-181.6,66.3-186.4S2494.1,2871.1,2494.1,2971.6Z"/><path class="cls-22" d="M1254.6,2666.9h-.1c-9.8,1.4-18.8,6.9-27.7,14.7s-19,13.6-19,23v.2c-33,49.1-54.8,140-54.9,241.7-.2,135.4,38.4,244.9,89.2,257.6h-.1c3.4.7,46,22.8,180.3,1.1,3.5-82.5,5.6-549.2,5.6-549.2S1320.6,2648.1,1254.6,2666.9Z"/><path class="cls-23" d="M1522.6,2920.5c0,154.9-50.2,283.3-111,286.5s-107-115.7-106.9-265.3,47.6-277.2,107.1-285.6S1522.6,2765.7,1522.6,2920.5Z"/><path class="cls-2" d="M1475,2924c0,110-33.4,201.4-74.2,204s-72.3-82.3-72.3-189.7,32.3-198.4,72.5-203.6S1475,2814.2,1475,2924Z"/><path class="cls-24" d="M1287.9,2593.3c-65.7,0-121.1,53.2-121.1,118.9v286.1h202.6v-405Z"/><ellipse class="cls-25" cx="1261.3" cy="2732.5" rx="76.4" ry="84.6"/><ellipse class="cls-2" cx="1261.3" cy="2732.5" rx="61.6" ry="68.2"/><path class="cls-26" d="M2471.3,2437c-4.4-36-43.1-65.1-92.4-70.3a120.9,120.9,0,0,0-12.1-.8l-701.1-8.7c-61.7-.7-121.4,15.4-166.9,45l-160.9,104.2a140.3,140.3,0,0,0-19.1,14.4c-19.9,18.5-31.8,41.2-31.8,64.8V2813h620.9l456.7-215.3,119.2-56Z"/><path class="cls-27" d="M2522.7,1903.3h-1015c11.5-85.8,93.8-154.4,193.5-154.4h627.9C2428.9,1748.9,2511.2,1817.5,2522.7,1903.3Z"/><path class="cls-28" d="M2223.8,1776.3H1759.7c-6.4,0-9.3,3.9-9.3,9.8v81.6c0,5.9,2.9,8.2,9.3,8.2h464.1c6.5,0,14-2.3,14-8.2v-81.6C2237.8,1780.2,2230.3,1776.3,2223.8,1776.3Z"/><ellipse class="cls-29" cx="1601.6" cy="1838.7" rx="31" ry="28.2"/><ellipse class="cls-30" cx="1687.4" cy="1838.7" rx="31" ry="28.2"/><ellipse class="cls-31" cx="2385.4" cy="1838.7" rx="31" ry="28.2"/><ellipse class="cls-32" cx="2299.6" cy="1838.7" rx="31" ry="28.2"/><path class="cls-33" d="M1949.5,1951.4v405H1577.6c-20,0-36.6-16.9-36.6-39V1991.7c0-22,16.6-40.3,36.6-40.3Z"/><path class="cls-33" d="M2454.1,1991.7v325.7c0,22.1-19.1,39-42.4,39H1976.9v-405h434.8C2435,1951.4,2454.1,1969.7,2454.1,1991.7Z"/><path class="cls-34" d="M2483.8,2541.8l-119.2,56.3-458.8,12.5-71-89.5,544.1-154.4c49.3,5.2,88,34.3,92.4,70.3Z"/><path class="cls-35" d="M2539.9,2653.7v159.8c-24.1-83.9-67.1-138.6-119.3-132.9-71,7.7-127.7,124.7-127.8,261.6-.1,47.6,6.7,91.8,18.6,129.1l-94.1,35-57.8,21.5L1894,2586.5l389.5-49.2,139.2-17.6a81.5,81.5,0,0,1,71.9,27.8C2516,2572.6,2539.9,2610.2,2539.9,2653.7Z"/><path class="cls-36" d="M1834.8,2521.2H1319.3c-20,20.6-32.3,40.8-32.3,64.4v347.1l624.7,20.7V2598.2A76.8,76.8,0,0,0,1834.8,2521.2Z"/><path class="cls-37" d="M2176.8,2718c-2-72.6-61.2-130.8-133.8-131.3l-129-.7-6.1,415.8h276.9Z"/><circle class="cls-38" cx="2033.9" cy="2732.5" r="84.6" transform="translate(-1336.5 2238.5) rotate(-45)"/><circle class="cls-2" cx="2033.9" cy="2732.5" r="68.2" transform="translate(-1336.5 2238.5) rotate(-45)"/><path class="cls-39" d="M1711,2648.2H1410.7c-16.1,0-27.6,10.8-27.6,27v257.9h357V2675.2C1740.1,2659,1727.2,2648.2,1711,2648.2Z"/><rect class="cls-40" x="1396.8" y="2679.1" width="315.8" height="27.46" rx="13.6"/><rect class="cls-41" x="1396.8" y="2740.9" width="315.8" height="27.46" rx="13.6"/><rect class="cls-42" x="1396.8" y="2799.2" width="315.8" height="27.46" rx="13.6"/><rect class="cls-43" x="1396.8" y="2857.6" width="315.8" height="27.46" rx="13.6"/><path class="cls-44" d="M2957,2578.9c-40.4,36.9-68.8,122.9-68.9,220,0,16.3.8,32.2,2.3,47.5-104.2,40.6-226.7,88.5-338.5,132.3l-1-13.9-11.2-151.3-17-908.5s15.7,93.6,122.3,129.5,101.4,281.8,128.7,426.7C2796.1,2580,2855.9,2586.3,2957,2578.9Z"/><path class="cls-45" d="M3162,2634.4c-6.4,65.5-16,111.1-30.8,118.6l-27.6,10.5c-3.2-89.7-30.4-162.3-67.8-190.7C3089.8,2571.1,3131.3,2599.1,3162,2634.4Z"/><path class="cls-33" d="M2745.8,2040.9c0-22-7.8-41.1-20.1-43.1l-128.8-20.7c-14.4-2.3-26.1,15.5-26.1,39.7v304.4c0,24.3,11.9,43.3,26.3,42.6l128.8-6.8c12.2-.6,19.9-18.8,19.9-40.7Z"/><path class="cls-33" d="M2914,2063.8c0-19.7-6.5-36.8-16.5-38.4l-103.3-16.6c-11.4-1.8-20.9,14.1-20.9,35.7v271c0,21.6,9.6,38.6,21.1,38l103.5-5.4c9.9-.5,16.1-16.9,16.1-36.6Z"/><path class="cls-33" d="M3054.8,2082.9c0-17.9-6.9-33.4-15-34.7l-86.9-13.6c-9.3-1.5-18.3,13.2-18.3,32.7v243.5c0,19.4,8.9,34.8,18.2,34.3l85.1-4.4c8.2-.5,16.9-15.4,16.9-33.3Z"/><path class="cls-33" d="M3168,2098.5c0-16.4-5.6-30.6-12.4-31.7l-68.8-11.3c-7.7-1.2-11.4,12.2-11.4,29.9v221.5c0,17.7,3.1,31.8,10.8,31.4l69.9-3.7c6.8-.4,11.9-13.9,11.9-30.3Z"/><polygon class="cls-46" points="3175.8 2440.2 2533 2501.7 2533 2474.3 3176.8 2412.5 3175.8 2440.2"/><path class="cls-47" d="M2279,2937.7V3052a37.2,37.2,0,0,1-15.9,30.1c-12.4,8.7-30.2,21.1-44.5,30.7-12.3,8.3-22.3,14.7-24.4,15-4.4.9-4.9-90.7-4.9-148.3-.1-22.4-3-39.6.4-44.3v-1.3l44.8-23.3a29.8,29.8,0,0,1,29.6,1.1,30.4,30.4,0,0,1,14,19.6A27.4,27.4,0,0,1,2279,2937.7Z"/><path class="cls-48" d="M2227.5,2978.2v109a39.2,39.2,0,0,1-9.2,25.6c-6,7.2-14.4,13.9-24.2,16.4-4.2,1.1-8.6,3-13.2,3H1155.3c-25.9,0-46.8-20.9-46.8-45v-109a44,44,0,0,1,6.3-22.7,48,48,0,0,1,40.5-22.4H2180.9c2.7,0,5.3.9,7.8,1.3a46.9,46.9,0,0,1,35.1,26A44.3,44.3,0,0,1,2227.5,2978.2Z"/><path class="cls-49" d="M2277.7,2931.3l-53.8,29.5c-15.1,8.1-28.6,15.4-35.2,18.7a32,32,0,0,1-3.9,1.7c-5.8,2-1076.3-3-1076.3-3l6.3-22.7a48,48,0,0,1,40.5-22.4H2180.9c2.7,0,5.4,1.6,8.8,2.1v-1.3l44.8-23.3a29.9,29.9,0,0,1,43.2,20.7Z"/><path class="cls-50" d="M1667.9,2105.6c-47.2,25.1-92.6,54.9-126.9,84.4V1991.7c0-22,16.6-40.3,36.6-40.3h196C1776.2,1996,1759.1,2057.3,1667.9,2105.6Z"/><path class="cls-51" d="M2231.4,1951.4c-7.7,37.7-34.8,82.6-103.7,119.1-57.6,30.5-106.2,68.2-150.8,103.7V1951.4Z"/><path class="cls-52" d="M1454.9,2092.1H1390c-11.2,0-20.6,11.1-20.6,24.8v184.6c0,13.6,9.4,24,20.6,24h64.9c11.1,0,20.9-10.4,20.9-24V2116.9C1475.8,2103.2,1466,2092.1,1454.9,2092.1Z"/><path class="cls-53" d="M1447.1,2092.1h-64.9c-11.2,0-19.7,11.1-19.7,24.8v184.6c0,13.6,8.5,24,19.7,24h64.9c11.1,0,18.4-10.4,18.4-24V2116.9C1465.5,2103.2,1458.2,2092.1,1447.1,2092.1Z"/><rect class="cls-54" x="1444.9" y="2177.9" width="85.8" height="13.73" rx="5.8"/><rect class="cls-55" x="1444.9" y="2222.6" width="85.8" height="13.73" rx="5.8"/><rect class="cls-56" x="2587.9" y="2075" width="130.4" height="233.42" rx="24.7"/><rect class="cls-57" x="2577.6" y="2075" width="130.4" height="233.42" rx="24.7"/><path class="cls-58" d="M2636,2171.1a6.8,6.8,0,0,1-6.9,6.8h-92.7a6.7,6.7,0,0,1-6.8-6.8h0a6.8,6.8,0,0,1,6.8-6.9h92.7a6.9,6.9,0,0,1,6.9,6.9Z"/><path class="cls-59" d="M2636,2219.1a6.9,6.9,0,0,1-6.9,6.9h-92.7a6.8,6.8,0,0,1-6.8-6.9h0a6.7,6.7,0,0,1,6.8-6.8h92.7a6.8,6.8,0,0,1,6.9,6.8Z"/><path class="cls-60" d="M1818.4,1834.1a11.6,11.6,0,0,1-4.4,9.6q-4.5,3.6-12.3,3.6a29,29,0,0,1-12.8-2.7v-9a42.6,42.6,0,0,0,7.7,2.9,21.2,21.2,0,0,0,5.8.8,8.4,8.4,0,0,0,4.9-1.2,4.2,4.2,0,0,0,1.7-3.6,4,4,0,0,0-.8-2.3,7.2,7.2,0,0,0-2.2-2,41.8,41.8,0,0,0-5.8-3.1,28.2,28.2,0,0,1-6.3-3.7,17,17,0,0,1-3.3-4.2,12.5,12.5,0,0,1-1.2-5.6,11.6,11.6,0,0,1,4.1-9.4c2.7-2.3,6.4-3.5,11.2-3.5a25.4,25.4,0,0,1,6.8.9,44.5,44.5,0,0,1,6.7,2.3l-3.1,7.5a44.1,44.1,0,0,0-6-2.1,19.5,19.5,0,0,0-4.7-.6,6,6,0,0,0-4.2,1.3,4.2,4.2,0,0,0-1.4,3.3,4,4,0,0,0,.6,2.2,6.2,6.2,0,0,0,1.8,1.8,54.2,54.2,0,0,0,6.1,3.2c4.3,2,7.2,4.1,8.7,6.1A11.6,11.6,0,0,1,1818.4,1834.1Z"/><path class="cls-61" d="M1845.8,1808.7a9.9,9.9,0,0,0-8.4,4.1c-1.9,2.7-2.9,6.5-2.9,11.3,0,10.1,3.8,15.2,11.3,15.2a35.8,35.8,0,0,0,11.6-2.4v8.1a33.1,33.1,0,0,1-12.5,2.3c-6.5,0-11.6-2-15.1-6s-5.2-9.7-5.2-17.2a27,27,0,0,1,2.6-12.4,18,18,0,0,1,7.3-8.1,22.1,22.1,0,0,1,11.3-2.9,30.9,30.9,0,0,1,13.3,3.2l-3.1,7.8-5.1-2.1A15.2,15.2,0,0,0,1845.8,1808.7Z"/><path class="cls-62" d="M1904.1,1846.7h-9.5v-19.6h-18v19.6H1867v-45.3h9.6v17.7h18v-17.7h9.5Z"/><path class="cls-63" d="M1956.7,1824c0,7.4-1.9,13.2-5.6,17.2s-9,6.1-16,6.1-12.2-2-16-6.1-5.5-9.8-5.5-17.3,1.8-13.3,5.5-17.3,9.1-5.9,16.1-5.9,12.3,2,16,6S1956.7,1816.4,1956.7,1824Zm-33.1,0c0,5,1,8.8,2.9,11.4s4.8,3.8,8.6,3.8c7.7,0,11.5-5.1,11.5-15.2s-3.8-15.4-11.4-15.4q-5.7,0-8.7,3.9C1924.6,1815.1,1923.6,1818.9,1923.6,1824Z"/><path class="cls-64" d="M2007.2,1824c0,7.4-1.9,13.2-5.6,17.2s-9,6.1-16,6.1-12.3-2-16-6.1-5.5-9.8-5.5-17.3,1.8-13.3,5.5-17.3,9.1-5.9,16.1-5.9,12.3,2,15.9,6S2007.2,1816.4,2007.2,1824Zm-33.1,0c0,5,1,8.8,2.9,11.4s4.8,3.8,8.6,3.8c7.7,0,11.5-5.1,11.5-15.2s-3.8-15.4-11.4-15.4q-5.7,0-8.7,3.9C1975.1,1815.1,1974.1,1818.9,1974.1,1824Z"/><path class="cls-65" d="M2016.6,1846.7v-45.3h9.6v37.3h18.3v8Z"/><path class="cls-66" d="M2068.9,1801.4H2083c6.4,0,11.1.9,14,2.7s4.3,4.7,4.3,8.7a10.9,10.9,0,0,1-1.9,6.7,7.5,7.5,0,0,1-5,3.1v.3a10.8,10.8,0,0,1,6.2,3.6,12.3,12.3,0,0,1,1.9,7,11.5,11.5,0,0,1-4.5,9.7c-3,2.3-7,3.5-12.2,3.5h-16.9Zm9.6,17.9h5.6c2.6,0,4.5-.4,5.6-1.2a4.4,4.4,0,0,0,1.8-4,4.1,4.1,0,0,0-1.9-3.7c-1.3-.8-3.3-1.2-6.1-1.2h-5Zm0,7.6v11.8h6.2c2.7,0,4.6-.5,5.9-1.5a5.4,5.4,0,0,0,1.9-4.6q0-5.7-8.1-5.7Z"/><path class="cls-67" d="M2148.4,1801.4v29.3a17,17,0,0,1-2.3,8.8,14.8,14.8,0,0,1-6.5,5.8,23.5,23.5,0,0,1-10,2c-5.8,0-10.3-1.5-13.6-4.5s-4.8-7.1-4.8-12.2v-29.2h9.6v27.7c0,3.5.7,6,2.1,7.7s3.7,2.4,7,2.4,5.4-.8,6.8-2.4,2.1-4.3,2.1-7.8v-27.6Z"/><path class="cls-68" d="M2186.2,1834.1a11.6,11.6,0,0,1-4.4,9.6c-3,2.4-7,3.6-12.3,3.6a29,29,0,0,1-12.8-2.7v-9a42.6,42.6,0,0,0,7.7,2.9,21.9,21.9,0,0,0,5.9.8,8.1,8.1,0,0,0,4.8-1.2,4.2,4.2,0,0,0,1.7-3.6,4,4,0,0,0-.8-2.3,8.1,8.1,0,0,0-2.1-2,53.3,53.3,0,0,0-5.9-3.1,25.1,25.1,0,0,1-6.2-3.7,15.3,15.3,0,0,1-3.4-4.2,12.5,12.5,0,0,1-1.2-5.6,11.6,11.6,0,0,1,4.1-9.4c2.7-2.3,6.5-3.5,11.2-3.5a25.4,25.4,0,0,1,6.8.9,41,41,0,0,1,6.7,2.3l-3.1,7.5a44.1,44.1,0,0,0-6-2.1,18.9,18.9,0,0,0-4.7-.6,5.6,5.6,0,0,0-4.1,1.3,4.4,4.4,0,0,0-.9,5.5,5.5,5.5,0,0,0,1.9,1.8,42.4,42.4,0,0,0,6,3.2c4.3,2,7.2,4.1,8.7,6.1A11.6,11.6,0,0,1,2186.2,1834.1Z"/><g class="cls-69"><path class="cls-6" d="M836.7,2158.4c-12.2,7.2-24.8,13.6-37.4,20,13-4.3,67.9-24.5,68.8,4.9a28.1,28.1,0,0,1-.1,3c-2.6,21.1-40.1,20.8-54.7,20.7-17.9,0-35.4.3-53.1-.8l-6-.4-7.1-.6-8.8-1.1-1.4-.8-6.7,1-6.4.8c-5.7.6-11.4,1.1-17,1.4a231.5,231.5,0,0,1-58.9-4.6c-13.7-2.9-27.5-7.5-38.7-16.1s-28.4-31.7-17.1-44.8a15.1,15.1,0,0,1,2.6-2.4c14.5-10.9,40.2,10.9,51.3,18.7,2.7,1.9,13.8,12.1,17.6,10.8s-.9-5.4-2.5-7.4c-12.1-14.7-29.6-24-41.5-38.9-10.2-12.8-20.8-40.1-5.7-53.7a14.6,14.6,0,0,1,5.1-3.1c18-6.5,38.4,30.9,44.5,41.6s12.3,25.3,20.2,36.7c3.2,4.5,7.4,10.1,10.9,3.4s1-21.5-.4-29.4c-2.5-13.5-7.2-26.3-12.3-38.9-8.3-20.5-19-44.9,1.8-61.7,5.3-4.3,12.6-10.4,20.5-10.4h0c16-3.4,34.1-2.1,41.4,13.4,5.7,12.1,2.7,27.4.1,40-3.2,15.4-7.8,30.7-9.3,46.3-.8,8.8-1.8,22.1,4.5,29.4,4.2,5,8.7,3.6,11.4-1.9,4.5-8.7,3.2-21.1,3.5-30.5.3-13.4.9-27.2,6.3-39.6s26.5-31.7,43.1-27a19.9,19.9,0,0,1,9.3,5.8c17,18.1-14.9,57.5-23.9,72.6-6,10.2-14.5,22.2-16.5,34.2-1.2,7.1,1.8,7.9,7.2,3.9,9.5-7,16.6-18.3,23.9-27.3,9.4-11.7,19.3-23.7,31.7-32.3s35.7-14,44-.4a23.3,23.3,0,0,1,2.9,10.5C885.2,2128.5,855.2,2147.4,836.7,2158.4Z"/><path class="cls-70" d="M805.2,2036.4l-4.6,5.1c-26,27.4-26.7,44.5-37.6,89.7-7.1,29.2-12.8,57.6-15.9,74l-8.8-1.1-1.4-.8-6.7,1c1-10,.1-26.6-14.5-37.5-21.9-16.4-12.3-50.7-6.8-71.2s0-33.2-11.7-54.4c-6.4-11.8,0-24.6,7-34.9h0c16-3.4,34.1-2.1,41.4,13.4,5.7,12.1,2.7,27.4.1,40-3.2,15.4-7.8,30.7-9.3,46.3-.8,8.8-1.8,22.1,4.5,29.4,4.2,5,8.7,3.6,11.4-1.9,4.5-8.7,3.2-21.1,3.5-30.5.3-13.4.9-27.2,6.3-39.6S788.6,2031.7,805.2,2036.4Z"/><path class="cls-70" d="M836.7,2158.4c-12.2,7.2-24.8,13.6-37.4,20,13-4.3,67.9-24.5,68.8,4.9a28.1,28.1,0,0,1-.1,3c-6,.6-12.3,0-17.3-3.2-13.4-8.8-14.6,3-27.5,7.2s-35.2-1.6-47.2,7.1a68.7,68.7,0,0,1-15.8,8.8l-6-.4c2.3-7.4,10-28.1,27.3-36.9,21.2-11,32.8-14.4,39.7-37,6-19.8,30.3-38,59.7-39a23.3,23.3,0,0,1,2.9,10.5C885.2,2128.5,855.2,2147.4,836.7,2158.4Z"/><path class="cls-70" d="M723.8,2205.1c-5.7.6-11.4,1.1-17,1.4-.9-4.1,5.5-9.4-12.2-13.2-29-6.1-45.6,5.4-56.8-22-8.4-20.7-29.1-34.1-45.7-30.3a15.1,15.1,0,0,1,2.6-2.4c14.5-10.9,40.2,10.9,51.3,18.7,2.7,1.9,13.8,12.1,17.6,10.8s-.9-5.4-2.5-7.4c-12.1-14.7-29.6-24-41.5-38.9-10.2-12.8-20.8-40.1-5.7-53.7a14.6,14.6,0,0,1,5.1-3.1c-.8,13,1.2,34.5,19.3,47.2,27.3,19,31.9,34.9,32.9,45.2S714.8,2174.8,723.8,2205.1Z"/></g><g class="cls-69"><path class="cls-6" d="M1105.2,2462.3c-11.7,7-23.8,13.1-35.9,19.3,12.4-4.1,65.2-23.6,66.1,4.7a27.1,27.1,0,0,1-.1,2.9c-2.5,20.3-38.5,19.9-52.6,19.9-17.2,0-34.1.3-51-.8l-5.9-.4-6.7-.6-8.5-1-1.3-.7-6.5.9-6.2.7c-5.5.7-10.9,1.1-16.3,1.3a214.9,214.9,0,0,1-56.7-4.4c-13.2-2.7-26.4-7.2-37.2-15.4s-27.3-30.5-16.4-43.1a13.9,13.9,0,0,1,2.5-2.3c13.9-10.5,38.7,10.5,49.3,18,2.6,1.8,13.3,11.6,16.9,10.4s-.8-5.2-2.4-7.1c-11.5-14.2-28.4-23.1-39.8-37.5-9.8-12.3-20.1-38.5-5.6-51.5a14.2,14.2,0,0,1,5-3.1c17.2-6.2,36.9,29.8,42.7,40s11.9,24.3,19.5,35.3c3,4.3,7.1,9.7,10.5,3.3s1-20.7-.5-28.3c-2.4-12.9-6.9-25.3-11.8-37.4-7.9-19.7-18.2-41.9,1.8-58.1,5-4.1,12.1-8.6,19.7-8.6h0c15.3-6.9,32.7-3.3,39.8,11.5,5.5,11.7,2.6,25.8.1,37.9-3.1,14.8-7.5,29.1-8.9,44.2-.8,8.5-1.8,21.1,4.3,28.1,4,4.8,8.3,3.3,11-1.9,4.3-8.4,3-20.3,3.3-29.4.3-12.8.9-26.1,6-38.1s25.6-30.5,41.5-26a19.4,19.4,0,0,1,9,5.6c16.3,17.4-14.4,55.3-23,69.8-5.8,9.8-14,21.4-15.9,32.9-1.2,6.8,1.8,7.6,6.9,3.8,9.1-6.8,16-17.6,23-26.3,9.1-11.3,18.5-22.8,30.5-31.1s34.3-13.4,42.2-.4a22.3,22.3,0,0,1,2.9,10.1C1151.8,2433.6,1122.9,2451.8,1105.2,2462.3Z"/><path class="cls-70" d="M1074.9,2345c-1.3,1.6-2.8,3.2-4.4,4.9-25,26.4-25.7,42.8-36.2,86.3-6.8,28.1-12.3,55.3-15.2,71.1l-8.5-1-1.3-.7-6.5.9c1-9.6,0-25.6-13.9-36.1-21.1-15.8-11.9-48.7-6.6-68.5s0-30.6-11.2-51c-6.2-11.3,0-25.4,6.7-32.2h0c15.3-6.9,32.7-3.3,39.8,11.5,5.5,11.7,2.6,25.8.1,37.9-3.1,14.8-7.5,29.1-8.9,44.2-.8,8.5-1.8,21.1,4.3,28.1,4,4.8,8.3,3.3,11-1.9,4.3-8.4,3-20.3,3.3-29.4.3-12.8.9-26.1,6-38.1S1059,2340.5,1074.9,2345Z"/><path class="cls-70" d="M1105.2,2462.3c-11.7,7-23.8,13.1-35.9,19.3,12.4-4.1,65.2-23.6,66.1,4.7a27.1,27.1,0,0,1-.1,2.9c-5.8.5-11.8,0-16.6-3.1-12.9-8.4-14.1,2.9-26.5,6.9s-33.8-1.5-45.4,6.9a70.4,70.4,0,0,1-15.1,8.4l-5.9-.4c2.2-7.1,9.7-27,26.3-35.5,20.4-10.5,31.6-13.8,38.2-35.6,5.7-19,29.1-36.4,57.3-37.5a22.3,22.3,0,0,1,2.9,10.1C1151.8,2433.6,1122.9,2451.8,1105.2,2462.3Z"/><path class="cls-70" d="M996.6,2507.2c-5.5.7-10.9,1.1-16.3,1.3-.9-3.8,5.3-8.9-11.8-12.6-27.9-5.9-43.8,5.2-54.5-21.2-8.1-19.8-28.1-32.8-44-29.1a13.9,13.9,0,0,1,2.5-2.3c13.9-10.5,38.7,10.5,49.3,18,2.6,1.8,13.3,11.6,16.9,10.4s-.8-5.2-2.4-7.1c-11.5-14.2-28.4-23.1-39.8-37.5-9.8-12.3-20.1-38.5-5.6-51.5a14.2,14.2,0,0,1,5-3.1c-.8,12.5,1.1,33.2,18.6,45.4,26.1,18.3,30.6,33.6,31.6,43.5S988,2478.1,996.6,2507.2Z"/></g><path class="cls-2" d="M2152.4,748.2c-35.3-11.7-72.9-16.5-109.9-19-41.5-2.8-80.5-15.9-114.4-40.3-29.4-21.1-57.5-62.2-98.2-57.4-55,6.3-112.6,60.5-144,103.7-24.4,33.5-125,24.4-166.2,47.2s-18.3,50.3,97.6,39.7c63.6-5.9,128.1-.1,191.9-1.4,68.4-1.4,136.8-5.4,205.2-4.2,52.3.9,104.4,1.2,155.6-9.8C2223.7,795.2,2184.7,758.9,2152.4,748.2Z"/></g></g></svg>