<?xml version="1.0" encoding="utf-8"?>
<!-- Generator: Adobe Illustrator 26.0.1, SVG Export Plug-In . SVG Version: 6.00 Build 0)  -->
<svg version="1.1" xmlns="http://www.w3.org/2000/svg" xmlns:xlink="http://www.w3.org/1999/xlink" x="0px" y="0px"
	 viewBox="0 0 3710 3710" style="enable-background:new 0 0 3710 3710;" xml:space="preserve">
<style type="text/css">
	.st0{fill:#FFFFFF;}
	.st1{fill:#F4F7FA;}
	.st2{clip-path:url(#SVGID_00000178918809204609927800000001913092983141994641_);}
	.st3{fill:#BEB8F2;}
	.st4{fill:#BFC8D6;}
	.st5{fill:#D8DEE8;}
	.st6{fill:url(#SVGID_00000150068485187608836170000009995606061236543157_);}
	.st7{fill:url(#SVGID_00000126313617529172499110000008406428136041031811_);}
	.st8{opacity:0.3;fill:url(#SVGID_00000091715768160250793270000010838666704867195279_);}
	.st9{fill:url(#SVGID_00000139976542596973289440000003688899270629308587_);}
	.st10{fill:url(#SVGID_00000006704636500492878310000006018986544356767642_);}
	.st11{fill:url(#SVGID_00000039102492539631763230000009115381706585169588_);}
	.st12{opacity:0.54;}
	.st13{fill:url(#SVGID_00000176736219590478189580000014773641621203787416_);}
	.st14{fill:url(#SVGID_00000014606250153826507080000007289159681675339137_);}
	.st15{fill:url(#SVGID_00000084501108315243786170000005343763451578263477_);}
	.st16{clip-path:url(#SVGID_00000062884644562680074020000009110254621711378831_);}
	.st17{clip-path:url(#SVGID_00000049204249000816690410000006890605666507121823_);}
	.st18{fill:#FCFDFE;}
	.st19{fill:url(#SVGID_00000151523178594624304450000006514785016929846955_);}
	.st20{opacity:0.3;fill:url(#SVGID_00000166672154522001111940000016690994587598946203_);}
	.st21{fill:url(#SVGID_00000072252856825640317380000010901080040134960027_);}
	.st22{fill:url(#SVGID_00000014613134107675861790000017387780129536919701_);}
	.st23{fill:url(#SVGID_00000179621001940528829650000005092817129336524418_);}
	.st24{fill:url(#SVGID_00000171681134851323535100000012708138825982900142_);}
	.st25{fill:url(#SVGID_00000162346445104551005140000006561923960951555479_);}
	.st26{fill:url(#SVGID_00000112620728998502519300000006651976284085854619_);}
	.st27{fill:url(#SVGID_00000165930458417620595520000015681703459054749098_);}
	.st28{fill:url(#SVGID_00000014629302676753877660000000845809738162518920_);}
	.st29{fill:url(#SVGID_00000034076424391119805650000004826282541769147825_);}
</style>
<g id="Background">
	<g>
		<g>
			<rect class="st0" width="3710" height="3710"/>
		</g>
	</g>
</g>
<g id="Illustration">
	<g>
		<path class="st1" d="M1642.9,455.2c-383.3,6.4-976.4,144.6-1147.1,499.5c-59.6,124-55.6,306.3-47.5,670.8
			c2.4,107.1,6.3,263.3,33.9,457.1c57.4,402.5,96.5,676.6,244.4,836.1c370.5,399.8,1709,388.3,2280.6-331.5
			c311.8-392.7,359.8-951.2,74.7-1412.8C2768,666.2,2156.1,446.7,1642.9,455.2z"/>
		<g>
			<g>
				<g>
					<defs>
						<path id="SVGID_1_" d="M1913.9,3179.2c58.8-65.9,116.4-133.3,172.6-202.1c1.9,0.1-92.3-169.2-222-191
							c-254-39.9-268.1-254.2-304.6-357.7c-46.9-149.6-164.3-256-278-164.1c-128.1,99.3-315.7-96.8-443.2-311.1
							c-55.7-109.9-230.9-153.6-337.3-108.2c-110.4,44.1-152.1,177.2-33.1,389.7c128.2,254,384.2,258.2,525.9,321
							c139.3,61.5,76,258.1,254.8,266.3c153.9,11.5,312.4-20.1,353.8,121C1642.3,3083.7,1718.8,3161.9,1913.9,3179.2z"/>
					</defs>
					
						<linearGradient id="SVGID_00000055667656717750512100000012063101133983018140_" gradientUnits="userSpaceOnUse" x1="1370.5" y1="2107.9153" x2="1092.4673" y2="2898.114">
						<stop  offset="0" style="stop-color:#AA80F9"/>
						<stop  offset="0.9964" style="stop-color:#6165D7"/>
					</linearGradient>
					
						<use xlink:href="#SVGID_1_"  style="overflow:visible;fill:url(#SVGID_00000055667656717750512100000012063101133983018140_);"/>
					<clipPath id="SVGID_00000073690143661634981600000002739004252186493832_">
						<use xlink:href="#SVGID_1_"  style="overflow:visible;"/>
					</clipPath>
					<g style="clip-path:url(#SVGID_00000073690143661634981600000002739004252186493832_);">
						<path class="st3" d="M2013.3,3110.9c-1-1.4-308.8-266.2-656.4-484c-53.6-37.4-108.9-74.2-162.3-109.8
							c-297.7-198.1-578.9-385.1-708-746.4l-4.8,1.9c129.6,362.9,411.5,550.5,710,749c53.4,35.5,108.7,72.3,162.4,109.8
							c349.5,219,653.5,481.2,655.2,482.9L2013.3,3110.9z"/>
						<path class="st3" d="M920.1,2332.4l0.8-5.3c-140.4-24.1-324-71.6-422.7-97.1c-79.8-20.7-80-20.5-81.8-18.5l1.9,1.8l0.5,2.6
							c3.4-0.1,36.4,8.4,78.2,19.3C595.8,2260.7,779.5,2308.3,920.1,2332.4z"/>
						<path class="st3" d="M807.9,2231.8c-60.1-111-71-207.9-69.6-269.7c1.5-67.3,17.9-111.3,21.1-115.2l-1.5-1.4l-0.3-3.4
							c-1.5,0.1-2.4,1.4-3.6,3.7c-16.4,32.5-56.3,193.5,49.4,388.6L807.9,2231.8z"/>
						<path class="st3" d="M1574,2778.4l3.6-3.8c-173.2-177.7-186-467.7-183.4-584.2c0.1-6.3,0.2-8.3,0-9.2l-5.1,0.8l2.5-0.4
							l-2.5,0.4c0.1,0.7,0,4.2-0.1,8.3c-1.9,84,4.7,165.2,19.4,241.4C1436.7,2578,1492.4,2694.7,1574,2778.4z"/>
						<path class="st3" d="M1114.4,2770.8l-1.7-1.9l0.9,2.5l-2.9-0.9l0-3.2c0,0,0,0,0,0c2.5-2.6,178.1-133.1,361.1-65.3l-1.7,5.1
							C1288.8,2639.8,1116,2769.4,1114.4,2770.8z M1112.7,2768.8l-0.9-2.5L1112.7,2768.8z"/>
						<path class="st3" d="M1962.3,3068.3c-32-38.7-70.5-118.1-72.1-276.6c-0.1-9-0.1-9-1.1-10l-3.5,3.9l1.8-2l-2.5,0.6
							c0.1,0.6,0.1,3.8,0.2,7.4c1.6,160.1,40.8,240.7,73.4,280L1962.3,3068.3z"/>
						<path class="st3" d="M1883.8,3010.7l3-4.4c-74.4-54.6-209.5-27.2-283.4-6c-2.3,0.7-3.9,1.1-4.4,1.2l1,5.3
							c0.6-0.1,2.2-0.6,4.8-1.3C1677.8,2984.6,1811.2,2957.4,1883.8,3010.7z"/>
					</g>
				</g>
			</g>
		</g>
		<g>
			<path class="st4" d="M2852.7,1770.7l12.5-27.6c4.7-10.3,1.9-22.7-6.2-27.7l-32.4-19.9c8.8-24.9,14.9-51.1,18-78.3l36.2-2.5
				c9.3-0.7,16.8-10.4,16.8-21.8v-30.2c0-11.4-7.5-20.1-16.8-19.6l-35.2,2c-2.4-27.4-8-53.6-16.3-77.9l29.8-22.1
				c1-0.7,1.8-1.5,2.6-2.4l3.8,9.9l48.9-60.1l-63.8-5.4c-2.8-3.6-6.6-5.8-10.6-6.3c-3.6-0.4-7.3,0.5-10.6,2.9l-29.4,21.4
				c-13.7-22-30-41.6-48.5-58.2l2.2-4.6l44.9,9.2l5.7-74.4l-68.3-11.3c-7.9-3-16.7,0.8-21,9.7l-17,35c-21.8-10.8-3.7-22.3-28.5-25.6
				l25.9-38.2c0-11.9-75.9-19.8-86.2-19.8h-27.5c-10.4,0-18.8,9.8-18.8,21.8v40.9c-25.6,3.9-50.4,12.1-73.6,23.9l46.9-34.4
				c0,0-82.6-15.6-92-9.4l-25.1,16.6c-9.5,6.3-12.8,20-7.3,30.7l19,36.8c-20.8,18.5-29.7,29.2-45.4,53.7l-44.2-10
				c-9.8-6-22.3-1.9-27.9,9.1l-15.1,29.5c-5.7,11.1-2.3,25,7.5,30.9l35.6,21.3c-9.9,27.4-16.5,56.6-19.4,86.9l-42.7,2.4
				c-11.5,0.7-20.8,11.5-20.8,24.2v33.7c0,11.5,7.7,20.5,17.7,21.4l48.5,7.8c4,25.2,10.8,49.2,19.9,71.5l-38.7,28.1
				c-9.9,7.2-13.3,21.4-7.5,31.8l15.1,27.5c5.7,10.3,95.6,16.6,95.6,16.6l-28.6-40.1c15.6,21,33.8,39.2,54,54l-22.5,46.5
				c-5.5,11.3-2.2,24.7,7.3,29.7l25.1,13.4c1.6,0.8,3.3,1.4,4.9,1.7l-0.1,0.5l78.4,9.7l7.7-59.2c9.1,1.4,18.4,2.3,27.8,2.5v50.6
				c0,9,4.7,16.1,11.4,18.6l-0.3,1.5l77.7,9.7l1.6-96c14.2-5.4,27.9-12.1,41-19.9l20.7,40.1c2.6,5,6.8,7.9,11.4,8.7l75.1,10.2
				l-25.7-70.8l-10.4,3.2l-17.1-33.5c18-17.9,34-38.3,47.6-60.6l33.5,20.1C2837.5,1785.5,2848,1781.1,2852.7,1770.7z M2595.5,1744.7
				c-73.5,6.5-134.4-57.9-134.4-144.2c0-86.2,61-158.4,134.4-161.1c71.7-2.6,128.5,62.1,128.5,144.6
				C2724,1666.5,2667.2,1738.3,2595.5,1744.7z M2909.4,1579.1l50.9-24.1l-50.9-6.2V1579.1z M2847,1784.6l58.2,7.8l8.5-19.8
				l-48.2-29.3L2847,1784.6z"/>
			<path class="st5" d="M2955.7,1554.2l-35,2c-2.4-27.3-8-53.4-16.2-77.7l29.6-22c8.1-6,10.9-18.7,6.2-28.4l-12.4-25.9
				c-4.7-9.8-15.1-12.9-23.3-6.9l-29.2,21.3c-13.6-21.9-29.9-41.4-48.3-58l16.8-35.2c4.8-10.1,2-22.9-6.4-28.6l-22.4-15.3
				c-8.5-5.8-19.3-2.2-24.2,7.9l-16.9,34.9c-21.7-10.8-45.1-18.2-69.8-21.4v-40.3c0-11.9-8.2-21.5-18.4-21.5l-27.3,0
				c-10.3,0-18.7,9.8-18.7,21.8v40.7c-25.5,3.9-50.1,12.1-73.2,23.9l-18.2-35.9c-5.4-10.5-17.3-14.1-26.6-7.9l-25,16.6
				c-9.4,6.3-12.7,20-7.2,30.6l18.9,36.7c-20.7,18.5-39.2,40.3-54.8,64.7l-34.2-21.1c-9.7-6-22.1-1.9-27.8,9.1l-15,29.4
				c-5.7,11.1-2.3,24.9,7.5,30.8l35.4,21.3c-9.8,27.3-16.4,56.4-19.3,86.6l-42.5,2.5c-11.4,0.7-20.7,11.4-20.7,24.1v33.6
				c0,12.6,9.3,22.2,20.7,21.4l43.6-3.1c3.7,29.1,10.9,56.6,21.3,82l-38.5,28.1c-9.8,7.2-13.2,21.4-7.5,31.7l15,27.5
				c5.6,10.3,18.1,12.7,27.8,5.5l38.9-29c15.5,20.9,33.6,39,53.7,53.9l-22.4,46.4c-5.5,11.3-2.2,24.6,7.2,29.6l25,13.4
				c9.3,5,21.2-0.1,26.6-11.3l22.2-46.6c21.9,7.9,45.2,12.4,69.2,13.1v50.5c0,12,8.4,20.7,18.7,19.4l27.3-3.5
				c10.2-1.3,18.4-12,18.4-23.9v-49.9c23.3-6.1,45.5-15.6,66.1-28l20.6,39.9c4.9,9.5,15.8,11.7,24.2,4.8l22.4-18.1
				c8.4-6.8,11.2-20,6.4-29.4l-20-39.3c17.9-17.8,33.8-38.2,47.3-60.4l33.3,20c8.2,4.9,18.6,0.5,23.3-9.9l12.4-27.5
				c4.7-10.3,1.9-22.7-6.2-27.6l-32.2-19.8c8.7-24.8,14.8-51,17.9-78.1l36-2.5c9.3-0.7,16.8-10.4,16.8-21.7v-30.1
				C2972.5,1562.4,2965,1553.6,2955.7,1554.2z M2672.1,1755.5c-73.1,6.6-133.7-57.7-133.7-143.7c0-86,60.6-158,133.7-160.7
				c71.3-2.6,127.8,61.9,127.8,144.1C2799.9,1677.4,2743.4,1749.1,2672.1,1755.5z"/>
		</g>
		<g>
			<path class="st4" d="M2205.9,1398.8l16.7-36.9c6.3-13.8,2.6-30.4-8.3-37.1l-43.3-26.6c11.7-33.3,20-68.4,24.1-104.8l48.4-3.4
				c12.5-0.9,22.5-13.9,22.5-29.1v-40.4c0-15.2-10.1-27-22.5-26.2l-47.1,2.7c-3.2-36.7-10.7-71.6-21.9-104.3l39.8-29.5
				c1.3-0.9,2.4-2,3.5-3.2l5.1,13.3l65.4-80.5l-85.4-7.3c-3.7-4.9-8.8-7.8-14.1-8.4c-4.8-0.6-9.7,0.7-14.2,3.9l-39.3,28.6
				c-18.3-29.4-40.2-55.6-64.9-77.8l3-6.2l60.1,12.3l7.6-99.6l-91.3-15.1c-10.5-4-22.4,1.1-28.2,13l-22.7,46.8
				c-29.2-14.5-5-29.8-38.1-34.2l34.7-51.1c0-15.9-101.6-26.5-115.3-26.5h-36.7c-13.9,0-25.2,13.1-25.2,29.2V755
				c-34.3,5.2-67.4,16.2-98.5,32l62.7-46.1c0,0-110.5-20.9-123.1-12.6l-33.6,22.2c-12.7,8.4-17.1,26.8-9.7,41l25.4,49.2
				c-27.8,24.8-39.7,39.1-60.7,71.8l-59.1-13.3c-13-8-29.8-2.6-37.4,12.2l-20.2,39.4c-7.6,14.9-3.1,33.4,10.1,41.3l47.6,28.6
				c-13.2,36.7-22.1,75.7-26,116.2l-57.1,3.3c-15.4,0.9-27.9,15.4-27.9,32.3v45.1c0,15.4,10.3,27.4,23.7,28.7l64.9,10.4
				c5.4,33.8,14.4,65.8,26.6,95.6l-51.8,37.6c-13.2,9.6-17.7,28.7-10.1,42.6l20.2,36.8c7.6,13.8,127.9,22.2,127.9,22.2l-38.2-53.6
				c20.9,28.1,45.2,52.4,72.2,72.3l-30.2,62.2c-7.4,15.2-3,33,9.7,39.8l33.6,17.9c2.1,1.1,4.4,1.8,6.6,2.2l-0.1,0.6l104.9,12.9
				l10.3-79.2c12.2,1.9,24.6,3,37.2,3.4v67.7c0,12,6.3,21.6,15.3,24.9l-0.5,2l103.9,13l2.1-128.4c19-7.2,37.4-16.2,54.9-26.7
				l27.7,53.6c3.4,6.7,9,10.6,15.2,11.6l100.4,13.6l-34.4-94.7l-13.9,4.3l-22.9-44.9c24.1-23.9,45.5-51.2,63.7-81l44.8,26.9
				C2185.6,1418.6,2199.6,1412.7,2205.9,1398.8z M1861.7,1364.1c-98.3,8.8-179.9-77.5-179.9-192.9c0-115.4,81.6-211.9,179.9-215.5
				c95.9-3.5,171.9,83.1,171.9,193.4C2033.7,1259.4,1957.6,1355.5,1861.7,1364.1z M2281.7,1142.5l68-32.2l-68-8.3V1142.5z
				 M2198.2,1417.4l77.8,10.5l11.4-26.5l-64.5-39.2L2198.2,1417.4z"/>
			<path class="st5" d="M2343.7,1109.1l-46.8,2.7c-3.2-36.6-10.7-71.4-21.7-104l39.6-29.5c10.8-8.1,14.5-25.1,8.3-38.1l-16.6-34.6
				c-6.3-13.1-20.2-17.2-31.2-9.2l-39.1,28.5c-18.2-29.3-39.9-55.4-64.6-77.6l22.5-47.2c6.5-13.5,2.6-30.7-8.6-38.3l-30-20.4
				c-11.3-7.7-25.9-3-32.4,10.6l-22.6,46.7c-29-14.4-60.3-24.3-93.4-28.7v-53.9c0-15.9-11-28.8-24.7-28.8l-36.5,0
				c-13.8,0-25.1,13-25.1,29.1v54.5c-34.1,5.2-67,16.1-97.9,31.9l-24.4-48c-7.2-14.1-23.1-18.8-35.6-10.6l-33.4,22.2
				c-12.6,8.4-17,26.7-9.7,40.9l25.3,49.1c-27.7,24.7-52.4,53.9-73.4,86.5L1626,915c-13-8-29.6-2.6-37.2,12.2l-20.1,39.3
				c-7.6,14.8-3.1,33.3,10,41.2l47.4,28.4c-13.1,36.6-22,75.5-25.9,115.9l-56.8,3.3c-15.3,0.9-27.7,15.3-27.7,32.2v45
				c0,16.9,12.4,29.8,27.7,28.7l58.3-4.1c4.9,39,14.6,75.8,28.5,109.7l-51.5,37.5c-13.1,9.6-17.6,28.6-10,42.5l20.1,36.7
				c7.5,13.8,24.2,17.1,37.2,7.4l52-38.7c20.8,28,45,52.2,71.8,72l-30,62c-7.3,15.1-3,32.9,9.7,39.7l33.4,17.9
				c12.5,6.7,28.4-0.1,35.6-15.1l29.7-62.3c29.4,10.6,60.4,16.6,92.6,17.5v67.5c0,16.1,11.2,27.7,25.1,25.9l36.5-4.7
				c13.6-1.7,24.7-16.1,24.7-32V1574c31.2-8.1,60.8-20.9,88.4-37.5l27.5,53.4c6.6,12.8,21.1,15.6,32.4,6.5l30-24.3
				c11.2-9.1,15-26.7,8.6-39.4l-26.7-52.6c23.9-23.8,45.2-51.1,63.3-80.8l44.6,26.8c10.9,6.6,24.9,0.6,31.2-13.2l16.6-36.8
				c6.2-13.8,2.5-30.3-8.3-37l-43.1-26.5c11.7-33.2,19.8-68.2,24-104.5l48.1-3.4c12.4-0.9,22.4-13.9,22.4-29v-40.3
				C2366.1,1120.1,2356.1,1108.4,2343.7,1109.1z M1964.2,1378.4c-97.8,8.8-178.8-77.2-178.8-192.3c0-115.1,81.1-211.3,178.8-215
				c95.4-3.5,170.9,82.8,170.9,192.8S2059.6,1369.9,1964.2,1378.4z"/>
		</g>
		<g>
			
				<linearGradient id="SVGID_00000127764346323195910360000007035171381141710524_" gradientUnits="userSpaceOnUse" x1="3907.896" y1="2648.7896" x2="58.548" y2="1567.4023">
				<stop  offset="0" style="stop-color:#311944"/>
				<stop  offset="1" style="stop-color:#893976"/>
			</linearGradient>
			<path style="fill:url(#SVGID_00000127764346323195910360000007035171381141710524_);" d="M2337.1,1987.6
				c1,466.2-246.8,846.6-688.1,859.1c-6.8,0.2-119.4,0-126.3,0c-450.8,1.1-817.1-381.8-818.1-855.1c-1-473.4,363.6-858,814.4-859.1
				c10.5,0,109.5,1,119.9,1.3C2075.2,1150.1,2336.1,1525.3,2337.1,1987.6z"/>
			
				<linearGradient id="SVGID_00000059277160991307858360000013096835357307903416_" gradientUnits="userSpaceOnUse" x1="2010.7407" y1="1490.5815" x2="378.0967" y2="3943.3826">
				<stop  offset="0" style="stop-color:#FFC444"/>
				<stop  offset="0.9964" style="stop-color:#F36F56"/>
			</linearGradient>
			
				<ellipse style="fill:url(#SVGID_00000059277160991307858360000013096835357307903416_);" cx="1673.5" cy="1997.3" rx="816.3" ry="857.1"/>
			
				<linearGradient id="SVGID_00000082347134593570670660000006291186663922332071_" gradientUnits="userSpaceOnUse" x1="2089.124" y1="1416.0115" x2="1598.6381" y2="2101.9265">
				<stop  offset="0" style="stop-color:#FFC444"/>
				<stop  offset="0.9964" style="stop-color:#F36F56"/>
			</linearGradient>
			
				<ellipse style="opacity:0.3;fill:url(#SVGID_00000082347134593570670660000006291186663922332071_);" cx="1673.5" cy="1997.3" rx="795.7" ry="835.5"/>
			
				<linearGradient id="SVGID_00000153686487968587947950000017451986795223953044_" gradientUnits="userSpaceOnUse" x1="1163.0481" y1="631.6614" x2="1902.2102" y2="2609.2083">
				<stop  offset="0" style="stop-color:#FFC444"/>
				<stop  offset="0.9964" style="stop-color:#F36F56"/>
			</linearGradient>
			
				<ellipse style="fill:url(#SVGID_00000153686487968587947950000017451986795223953044_);" cx="1673.5" cy="1997.3" rx="771.7" ry="810.3"/>
			
				<linearGradient id="SVGID_00000113342028012930472610000002304149049286097838_" gradientUnits="userSpaceOnUse" x1="717.7488" y1="4528.7256" x2="2189.6492" y2="561.6035">
				<stop  offset="3.597120e-03" style="stop-color:#EBEFF2"/>
				<stop  offset="1" style="stop-color:#FFFFFF"/>
			</linearGradient>
			
				<ellipse style="fill:url(#SVGID_00000113342028012930472610000002304149049286097838_);" cx="1657" cy="1997.3" rx="755.2" ry="793"/>
			<g>
				
					<linearGradient id="SVGID_00000101100246707940982080000005118025756314473151_" gradientUnits="userSpaceOnUse" x1="2201.9473" y1="1406.558" x2="1326.3893" y2="3167.625">
					<stop  offset="0" style="stop-color:#FFC444"/>
					<stop  offset="0.9964" style="stop-color:#F36F56"/>
				</linearGradient>
				<path style="fill:url(#SVGID_00000101100246707940982080000005118025756314473151_);" d="M1736.7,1974.6l575.2,223.1
					c18.7-63,28.8-130,28.8-199.5c0-357.9-267.6-650.1-604.1-668.1V1974.6z"/>
			</g>
			<g class="st12">
				<path class="st5" d="M1467.4,1979.3c-59.7-193.4,156.2-333,122.2-558.4c-15-99.5-73.5-181-145.4-246.4
					c-339.9,104.3-587.8,434.3-586.9,824.8c1,473.4,367.3,856.2,818.1,855.1c110.5-0.3,215.9-23.6,311.9-65.7
					c-13.9-273.6-97.8-428.1-187.1-521.2C1662.7,2124,1512.9,2126.8,1467.4,1979.3z"/>
			</g>
			
				<linearGradient id="SVGID_00000167385505153650438780000014284342589315306677_" gradientUnits="userSpaceOnUse" x1="1239.8418" y1="1236.001" x2="2180.2429" y2="2989.092">
				<stop  offset="0" style="stop-color:#FF9085"/>
				<stop  offset="1" style="stop-color:#FB6FBB"/>
			</linearGradient>
			
				<ellipse style="fill:url(#SVGID_00000167385505153650438780000014284342589315306677_);" cx="1654.9" cy="2009.7" rx="48" ry="50.4"/>
			
				<linearGradient id="SVGID_00000160902689339340020540000012960780017842313860_" gradientUnits="userSpaceOnUse" x1="1323.1531" y1="1191.3102" x2="2263.5547" y2="2944.4023">
				<stop  offset="0" style="stop-color:#FF9085"/>
				<stop  offset="1" style="stop-color:#FB6FBB"/>
			</linearGradient>
			<path style="fill:url(#SVGID_00000160902689339340020540000012960780017842313860_);" d="M1654.9,1607.9
				c-16.8,0-30.3,14.3-30.3,31.9v339.9c0,17.6,13.6,31.9,30.3,31.9c16.8,0,30.3-14.3,30.3-31.9v-339.9
				C1685.2,1622.1,1671.6,1607.9,1654.9,1607.9z"/>
			
				<linearGradient id="SVGID_00000157269110390149700780000014658856599941152184_" gradientUnits="userSpaceOnUse" x1="343.664" y1="1.4498" x2="2491.783" y2="4005.9629">
				<stop  offset="0" style="stop-color:#FF9085"/>
				<stop  offset="1" style="stop-color:#FB6FBB"/>
			</linearGradient>
			<path style="fill:url(#SVGID_00000157269110390149700780000014658856599941152184_);" d="M1662.7,2004.9l-543.6-159.8
				c-9.6-2.9-20.1,2.4-23.5,11.9c-3.4,9.5,1.6,19.5,11.2,22.5l543.6,159.8c9.6,2.9,20.1-2.4,23.5-11.9
				C1677.3,2017.9,1672.3,2007.8,1662.7,2004.9z"/>
		</g>
		<g>
			<defs>
				<rect id="SVGID_00000048486694127973207720000014394869206952347825_" x="356.8" y="2117.1" width="1630.9" height="1053.8"/>
			</defs>
			<clipPath id="SVGID_00000041263402774310457460000015157872045614647191_">
				<use xlink:href="#SVGID_00000048486694127973207720000014394869206952347825_"  style="overflow:visible;"/>
			</clipPath>
			<g style="clip-path:url(#SVGID_00000041263402774310457460000015157872045614647191_);">
				<g>
					<g>
						<defs>
							<path id="SVGID_00000110445448802379223410000015516413222883955096_" d="M1935,3169.9c11.5-13.1,24.9-51.6,24.2-63
								c-4.3-76.4-2.9-220-59.9-277.4c-9.7-9.8-64.4,21.3-79.3,17.5c-39.7,11.4-52.8,17.8-95.8,10
								c-127.1-22.8-115.1-286.4-319.2-195.7c-149.5,66.5-212.9,194-360.5,0.9c-147.5-193-583.6-397.6-664-101.5
								c-46.1,169.9,202,226.1,245.7,390.1c41.5,155.9,166.1,204.7,338.6,168.4c172.5-36.3,155,67.9,212.2,200.4
								c68.8,159.2,278.5,13.5,369.6-62C1620,3196.8,1847.8,3091.4,1935,3169.9z"/>
						</defs>
						
							<linearGradient id="SVGID_00000061442992428948522670000001149469509725069244_" gradientUnits="userSpaceOnUse" x1="1095.1288" y1="2359.189" x2="1413.6765" y2="4395.6245">
							<stop  offset="3.597120e-03" style="stop-color:#E38DDD"/>
							<stop  offset="1" style="stop-color:#9571F6"/>
						</linearGradient>
						
							<use xlink:href="#SVGID_00000110445448802379223410000015516413222883955096_"  style="overflow:visible;fill:url(#SVGID_00000061442992428948522670000001149469509725069244_);"/>
						<clipPath id="SVGID_00000015325501546647533970000006763460275936827036_">
							<use xlink:href="#SVGID_00000110445448802379223410000015516413222883955096_"  style="overflow:visible;"/>
						</clipPath>
						<g style="clip-path:url(#SVGID_00000015325501546647533970000006763460275936827036_);">
							<g>
								<path class="st18" d="M1932.3,2974.8l-1-3.6c-548.7,150.9-1127.4-40.1-1548.1-510.9l-2.8,2.5
									c199.4,223.1,443.8,389.5,706.7,481.1C1363.6,3040.1,1655.8,3050.8,1932.3,2974.8z"/>
								<path class="st18" d="M1198,3389.1c78.9-134.1,263.7-298.6,411.9-366.5l-1.5-3.4c-148.8,68.2-334.3,233.3-413.6,368
									L1198,3389.1z"/>
								<path class="st18" d="M1824.2,3003.2l0-3.7c-84.7-1.1-165.7-44.9-240.6-130.4c-54.9-62.6-105.4-145.8-150-247.1l-3.4,1.5
									c44.8,101.7,95.4,185.1,150.6,248C1656.5,2957.9,1738.4,3002.1,1824.2,3003.2z"/>
								<path class="st18" d="M1050.3,2929.4l0.2-3.7c-159.6-10.2-303.8,76.4-396.7,150.9l2.3,2.9
									C748.5,3005.4,891.9,2919.3,1050.3,2929.4z"/>
								<path class="st18" d="M724.2,2763l2.6-2.6c-128.5-126.3-155.6-313.5-160.2-413.9l-3.7,0.2
									C567.5,2447.5,594.7,2635.8,724.2,2763z"/>
							</g>
						</g>
					</g>
				</g>
			</g>
		</g>
		<g>
			<g>
				
					<linearGradient id="SVGID_00000085212491246916279530000010124323841013248936_" gradientUnits="userSpaceOnUse" x1="3185.8538" y1="3252.9238" x2="2780.8672" y2="1882.6652">
					<stop  offset="0" style="stop-color:#311944"/>
					<stop  offset="1" style="stop-color:#893976"/>
				</linearGradient>
				<path style="fill:url(#SVGID_00000085212491246916279530000010124323841013248936_);" d="M3108.7,1873.5l-67.7-456.9
					l-151.3,15.2c-12.8-2.4-37,10.9-42.8,24.3L2648.3,1919c-6.2,14.4,3.3,30.8,17.6,30.7l56.7-2.4v1079.1c0,19.2,14,33,31.1,30.8
					l136,30.2c16.3-2.1,168.6-84.1,168.6-102.7V1903.2l34.4-0.2C3105.7,1902.9,3114.3,1887.1,3108.7,1873.5z"/>
				
					<linearGradient id="SVGID_00000179629900263570598800000004478728317048651653_" gradientUnits="userSpaceOnUse" x1="2848.5161" y1="2890.5222" x2="2795.3379" y2="2467.406">
					<stop  offset="0" style="stop-color:#311944"/>
					<stop  offset="1" style="stop-color:#893976"/>
				</linearGradient>
				<path style="opacity:0.3;fill:url(#SVGID_00000179629900263570598800000004478728317048651653_);" d="M2872.7,1942.5l-150.1,4.9
					v1079.1c0,19.2,14,33,31.1,30.8l136,30.2c6.7-0.9,36.5-15.3,69.3-33.3L2872.7,1942.5z"/>
				
					<linearGradient id="SVGID_00000165224921686220996490000011203359377830121630_" gradientUnits="userSpaceOnUse" x1="3029.7717" y1="2120.6497" x2="2879.28" y2="4892.2334">
					<stop  offset="0" style="stop-color:#FF9085"/>
					<stop  offset="1" style="stop-color:#FB6FBB"/>
				</linearGradient>
				<path style="fill:url(#SVGID_00000165224921686220996490000011203359377830121630_);" d="M3255.1,1910.8l-196.6-482.6
					c-6.6-16.3-26.6-17.3-33.2-1.6l-206.9,485.6c-6.1,14.3,3.3,30.7,17.4,30.6l36.9-0.2v1116.2c0,19.1,13.8,32.9,30.8,30.7
					l272.8-35.3c16-2.1,28.9-18.7,28.9-37.2V1940.4l34.1-0.2C3252.2,1940.1,3260.7,1924.4,3255.1,1910.8z"/>
			</g>
			<g>
				
					<linearGradient id="SVGID_00000072252413265412018210000011050511777281835967_" gradientUnits="userSpaceOnUse" x1="2760.7642" y1="3417.7439" x2="2355.9639" y2="2048.1152">
					<stop  offset="0" style="stop-color:#311944"/>
					<stop  offset="1" style="stop-color:#893976"/>
				</linearGradient>
				<path style="fill:url(#SVGID_00000072252413265412018210000011050511777281835967_);" d="M2453.7,3146.8l-142.1-33
					c-17.9,2.3-32.4-11.4-32.4-30.5v-881.5c0-19.1,14.5-35.1,32.4-35.6l304.7-9c16.7-0.5,158.4,7.5,158.4,7.5l-128.2,872.9
					C2646.5,3056.1,2453.7,3146.8,2453.7,3146.8z"/>
				
					<linearGradient id="SVGID_00000108999329607879859130000007927009529455719590_" gradientUnits="userSpaceOnUse" x1="2644.7449" y1="2098.9312" x2="2494.3945" y2="4867.9087">
					<stop  offset="0" style="stop-color:#FF9085"/>
					<stop  offset="1" style="stop-color:#FB6FBB"/>
				</linearGradient>
				<path style="fill:url(#SVGID_00000108999329607879859130000007927009529455719590_);" d="M2767.4,3107l-301.7,39
					c-17.7,2.3-32.1-11.3-32.1-30.3v-907.3c0-19,14.4-34.9,32.1-35.4l301.7-9c16.6-0.5,30,14,30,32.3V3070
					C2797.3,3088.3,2783.9,3104.9,2767.4,3107z"/>
			</g>
			<g>
				
					<linearGradient id="SVGID_00000150072789895598796190000017712000624150449309_" gradientUnits="userSpaceOnUse" x1="2295.8772" y1="3597.1438" x2="1888.0061" y2="2217.1252">
					<stop  offset="0" style="stop-color:#311944"/>
					<stop  offset="1" style="stop-color:#893976"/>
				</linearGradient>
				<path style="fill:url(#SVGID_00000150072789895598796190000017712000624150449309_);" d="M1977.6,3208.6l-149.8-33
					c-19.7,2.5-35.7-11.7-35.7-31.8l4.5-617.6c0-20.1,16-37.3,35.7-38.5l334.7-20c18.4-1.1,172.3,20.1,172.3,20.1l-143.6,605.8
					C2195.8,3112.9,1996.2,3206.2,1977.6,3208.6z"/>
				
					<linearGradient id="SVGID_00000181079690391788886440000017679652953312113795_" gradientUnits="userSpaceOnUse" x1="2192.2424" y1="2073.1763" x2="2041.985" y2="4840.4438">
					<stop  offset="0" style="stop-color:#FF9085"/>
					<stop  offset="1" style="stop-color:#FB6FBB"/>
				</linearGradient>
				<path style="fill:url(#SVGID_00000181079690391788886440000017679652953312113795_);" d="M2318,3165.1l-331.5,42.9
					c-19.5,2.5-35.3-11.6-35.3-31.6v-637.3c0-20,15.9-37.1,35.3-38.3l331.5-20c18.2-1.1,32.9,13.6,32.9,32.8v612.6
					C2350.9,3145.3,2336.2,3162.8,2318,3165.1z"/>
			</g>
			<g>
				
					<linearGradient id="SVGID_00000083810112995522224780000012933178605674978193_" gradientUnits="userSpaceOnUse" x1="1765.5548" y1="3788.2417" x2="1360.7399" y2="2418.5635">
					<stop  offset="0" style="stop-color:#311944"/>
					<stop  offset="1" style="stop-color:#893976"/>
				</linearGradient>
				<path style="fill:url(#SVGID_00000083810112995522224780000012933178605674978193_);" d="M1434.2,3271.6l-140.2-27.9
					c-21.8,2.8-39.5-12.1-39.5-33.2v-320.9c0-21.1,17.7-39.8,39.5-41.8l369.6-33.3c20.2-1.8,160.3,14.6,160.3,14.6l-123.7,326.1
					C1700.2,3175.4,1454.7,3269,1434.2,3271.6z"/>
				
					<linearGradient id="SVGID_00000080187744986101934510000001778535337993310140_" gradientUnits="userSpaceOnUse" x1="1693.7955" y1="2045.9102" x2="1543.7585" y2="4809.1196">
					<stop  offset="0" style="stop-color:#FF9085"/>
					<stop  offset="1" style="stop-color:#FB6FBB"/>
				</linearGradient>
				<path style="fill:url(#SVGID_00000080187744986101934510000001778535337993310140_);" d="M1823.9,3229l-366,47.3
					c-21.6,2.8-39.1-12-39.1-33V2904c0-21,17.5-39.6,39.1-41.6l366-33.3c20-1.8,36.2,13,36.2,33.2v325.6
					C1860.1,3208,1844,3226.5,1823.9,3229z"/>
			</g>
			
				<linearGradient id="SVGID_00000178201415438948911870000011330313787788704950_" gradientUnits="userSpaceOnUse" x1="1291.5333" y1="4224.9639" x2="789.9894" y2="2528.0068">
				<stop  offset="0" style="stop-color:#311944"/>
				<stop  offset="1" style="stop-color:#893976"/>
			</linearGradient>
			<path style="fill:url(#SVGID_00000178201415438948911870000011330313787788704950_);" d="M1112.3,3006.4l-410.2,42.4
				c-17.5,1.8-32.6,12.8-39.7,27.2c-2.7,5.5-4.2,11.5-4.2,17.6v176.4c0,22.3,18.8,40.5,43.9,49.4l145,28.8
				c22.8-2.9,305.8-103.6,305.8-124.9l68-81.8l68.8-116.5C1289.6,3024.9,1134.7,3004.1,1112.3,3006.4z"/>
			
				<linearGradient id="SVGID_00000114781764059274000640000001064062497978156449_" gradientUnits="userSpaceOnUse" x1="1136.7882" y1="2015.8185" x2="986.9996" y2="4774.4531">
				<stop  offset="0" style="stop-color:#FF9085"/>
				<stop  offset="1" style="stop-color:#FB6FBB"/>
			</linearGradient>
			<path style="fill:url(#SVGID_00000114781764059274000640000001064062497978156449_);" d="M1278.1,3299.6l-406.1,52.5
				c-24,3.1-43.5-12.3-43.5-34.5v-204.6c0-22.1,19.5-42.1,43.5-44.6l406.1-42.4c22.2-2.3,40.1,13,40.1,34.2v195.8
				C1318.2,3277.3,1300.2,3296.8,1278.1,3299.6z"/>
		</g>
	</g>
</g>
</svg>
