<?xml version="1.0" encoding="utf-8"?>
<!-- Generator: Adobe Illustrator 26.0.1, SVG Export Plug-In . SVG Version: 6.00 Build 0)  -->
<svg version="1.1" id="_x3C_Layer_x3E_" xmlns="http://www.w3.org/2000/svg" xmlns:xlink="http://www.w3.org/1999/xlink" x="0px"
	 y="0px" viewBox="0 0 2760 1840" style="enable-background:new 0 0 2760 1840;" xml:space="preserve">
<style type="text/css">
	.st0{fill:#FFFFFF;}
	.st1{fill:#FCECDB;}
	.st2{fill:#A8D29F;}
	.st3{fill:#AFCDFB;}
	.st4{fill:#599DAD;}
	.st5{fill:#6BB7BF;}
	.st6{fill:#86D1CD;}
	.st7{fill:#EFCBAB;}
	.st8{fill:#FFEBDC;}
	.st9{fill:#EFCDAF;}
	.st10{fill:#9ABCEF;}
	.st11{fill:#E9F3FE;}
	.st12{fill:#D8E8FD;}
	.st13{fill:#BBD5FC;}
	.st14{fill:#D2E4FD;}
	.st15{fill:#FFB27D;}
	.st16{fill:#E58638;}
	.st17{fill:#C65447;}
	.st18{fill:#233862;}
	.st19{fill:#2B478B;}
	.st20{fill:#EE9849;}
	.st21{fill:#ED985F;}
	.st22{fill:#2C3A64;}
	.st23{fill:#1C468A;}
</style>
<rect class="st0" width="2760" height="1840"/>
<g>
	<g>
		<path class="st1" d="M2177.1,1659.1c0,0,169.7,40.2,253.3-142.1c108.4-236.6-43.7-461.4-306.2-477.5
			c-378.5-23.3-168.8-627.7-766.1-463.7c-168,46.1-533.3-191.9-748.3,211.4c-36.6,68.6-145.9,65.2-291.5,182.2
			c-256.9,206.4-164.4,692,52,694.2C586.7,1665.7,2177.1,1659.1,2177.1,1659.1z"/>
		<path class="st2" d="M408.1,1662.6c0,0,7.9-51.7,108.6-65.6c100.7-13.9,194.3-125.4,360.3-109.2c166,16.2,303.8,117.8,492.8,86.6
			c189-31.1,307.3,8.5,349.7,39.8c42.4,31.3,217.8-7.3,230.8,50L408.1,1662.6z"/>
		<path class="st3" d="M822,430.6c0,0-113.6-5.6-53.4,340.8c0,0,40.6,117.6-10.6,193.3h753.6V430.6H822z"/>
		<g>
			<g>
				<path class="st4" d="M899.4,1331c0,0-52.6-61.4-3.2-100.4c0,0,36.1-21.8,65.5-20.1c0,0-41.7,69.9-28.2,76.9
					c13.5,7,40.8-81.3,40.8-81.3s82.1-8,108.5,4.7c0,0-70.2,57.4-55.4,60.9c14.8,3.4,90.6-53,90.6-53s76.4,13,72.4,59.6
					s-30.4,61-42,59.8c-11.6-1.2-79.3-27.1-80.8-17.6c-1.5,9.5,39.3,40.5,67.8,41.9c0,0-53.9,59.4-89.7,42.3
					c-35.8-17.2-38.9-44.3-61.2-54.5c-22.3-10.2-41.4-10.2-32.2,0.2s49.6,20.5,62.4,43.1c12.8,22.6,24.2,37.8-12.8,32.2
					c-37.1-5.6-97.3-32.7-99.9-63.7C899.4,1331,899.4,1331,899.4,1331z"/>
				<g>
					<path class="st4" d="M1152.8,1279.6c0,0-207.6-8-253.4,51.4c0,0-10.1,30.4-41.3,58l-4.9,13.3c0,0,36-37.9,48.8-40.2
						C902,1362,881.9,1288.5,1152.8,1279.6z"/>
					<path class="st4" d="M858,1389c0,0-44.6,33-47.7,91.8l8.1,0.7c0,0,14.2-60.9,40-84.7C884.1,1373.1,858,1389,858,1389z"/>
				</g>
			</g>
			<g>
				<path class="st5" d="M715.3,1253.8c0,0,83.7-46.9,44.7-110.5c0,0-31.3-39.1-64.8-49.1c0,0,17.9,94.9,0,97.1
					c-17.9,2.2-12.3-107.2-12.3-107.2s-88.2-42.4-122.8-39.1c0,0,54.7,92.7,36.8,90.4c-17.9-2.2-79.3-96-79.3-96
					s-90.4-16.7-105,36.9s8.9,80.4,22.3,83.8c13.4,3.3,99.4,2.2,97.1,13.4c-2.2,11.2-60.3,29-92.7,19c0,0,35.7,88.2,82.6,83.7
					c46.9-4.5,61.4-33.5,90.5-35.7c29-2.2,50.2,5.6,35.7,13.4s-63.6,2.6-87.1,22.5c-23.4,19.9-42.4,32.2,1.1,41.2
					c43.5,8.9,121.7,3.4,137.3-30.1S715.3,1253.8,715.3,1253.8z"/>
				<g>
					<path class="st5" d="M454,1093c0,0,234.5,75.9,261.3,160.8c0,0-1.1,38,22.3,81.5v16.8c0,0-24.6-56.9-38-64.8
						C699.7,1287.3,752.1,1213.6,454,1093z"/>
					<path class="st5" d="M737.6,1335.3c0,0,36.2,54.9,15.5,121.8l-9.3-2.5c0,0,9-73.6-9.9-110.7
						C715.1,1306.8,737.6,1335.3,737.6,1335.3z"/>
				</g>
			</g>
			<g>
				<path class="st6" d="M848.5,1189.1c0,0-110.4-61.8-58.9-145.7c0,0,41.2-51.5,85.4-64.8c0,0-23.6,125.1,0,128.1
					c23.6,2.9,16.2-141.3,16.2-141.3s116.3-55.9,161.9-51.5c0,0-72.1,122.2-48.6,119.2s104.5-126.6,104.5-126.6
					s119.2-22.1,138.4,48.6c19.1,70.7-11.8,106-29.4,110.4s-131,2.9-128.1,17.7c2.9,14.7,79.5,38.3,122.2,25
					c0,0-47.1,116.3-108.9,110.4c-61.8-5.9-81-44.2-119.2-47.1c-38.3-2.9-66.2,7.4-47.1,17.7c19.1,10.3,83.9,3.4,114.8,29.7
					c30.9,26.3,55.9,42.5-1.5,54.2c-57.4,11.8-160.4,4.4-181.1-39.7C848.5,1189.1,848.5,1189.1,848.5,1189.1z"/>
				<g>
					<path class="st5" d="M1193,977.1c0,0-309.1,100.1-344.4,212c0,0,1.5,50-29.4,107.5v22.1c0,0,32.4-75.1,50-85.4
						C869.1,1233.2,799.9,1136.1,1193,977.1z"/>
					<path class="st5" d="M819.1,1296.5c0,0-47.7,72.4-20.5,160.5l12.3-3.3c0,0-11.9-97.1,13-145.9
						C848.8,1259.1,819.1,1296.5,819.1,1296.5z"/>
				</g>
			</g>
			<path class="st7" d="M844.8,1648.1c119.4,0,216.3-96.8,216.3-216.3H628.6C628.6,1551.3,725.4,1648.1,844.8,1648.1z"/>
			<path class="st8" d="M898,1646.5c-8.8,1.1-17.8,1.7-26.9,1.7c-119.4,0-216.2-96.8-216.2-216.3h53.7
				C708.6,1542.2,791.3,1633.2,898,1646.5z"/>
			<path class="st7" d="M1064,1659.1H625.6l0,0c0-14.7,11.9-26.7,26.7-26.7h385.1C1052.1,1632.4,1064,1644.4,1064,1659.1
				L1064,1659.1z"/>
			<rect x="621.4" y="1431.9" class="st9" width="444.5" height="6.6"/>
		</g>
		<g>
			<path class="st4" d="M1627.3,609.6c0,0-37.9-71.5,18.9-98.7c0,0,40-13.4,68.3-5.2c0,0-56,59.1-44.4,68.8
				c11.6,9.7,57.7-70.3,57.7-70.3s81.9,10.3,104.8,28.4c0,0-81.1,40.6-67.4,47.2c13.7,6.6,100-31.8,100-31.8s71.7,29.5,57.5,74.1
				c-14.2,44.6-43.1,52.9-54.1,49.1s-71.4-43.8-74.9-34.9c-3.5,8.9,29.4,48.1,57,55.8c0,0-65.6,46.1-96.8,21.6
				c-31.2-24.6-28.2-51.8-47.7-66.6c-19.5-14.8-38.1-19-31.4-6.8c6.7,12.2,43.9,30.9,51.4,55.7c7.5,24.8,15.3,42.2-19.6,28.6
				c-34.9-13.6-87.7-53.2-83.5-84.1C1627.3,609.6,1627.3,609.6,1627.3,609.6z"/>
			<g>
				<path class="st4" d="M1885.8,615.1c0,0-200.8-53.4-258.5-5.5c0,0-16.6,27.4-53.1,47.5l-7.7,11.9c0,0,43.4-29.1,56.5-28.5
					C1623.1,640.5,1619.6,564.3,1885.8,615.1z"/>
				<path class="st4" d="M1574.3,657.2c0,0-50.7,22.4-66.6,79.1l7.7,2.5c0,0,27.2-56.3,57.6-73.9
					C1603.2,647.3,1574.3,657.2,1574.3,657.2z"/>
			</g>
		</g>
		<g>
			<path class="st6" d="M1377.9,480.7c0,0-112.2-58.5-63.2-143.9c0,0,39.7-52.7,83.4-67.3c0,0-19.8,125.8,3.8,128
				c23.6,2.2,12-141.7,12-141.7s114.6-59.4,160.3-56.3c0,0-68.5,124.3-45,120.6c23.5-3.6,100.7-129.6,100.7-129.6
				s118.5-25.6,139.7,44.4c21.2,70.1-8.6,106.3-26.1,111.2c-17.5,4.9-130.9,6.8-127.5,21.5c3.4,14.6,80.6,35.9,122.9,21.4
				c0,0-43.6,117.6-105.6,113.6c-62-4-82.2-41.7-120.6-43.5c-38.3-1.8-66,9.3-46.6,19.1s84,0.9,115.6,26.2
				c31.7,25.3,57.2,40.8,0.1,54.3c-57,13.5-160.2,9.2-182.2-34.3C1377.9,480.7,1377.9,480.7,1377.9,480.7z"/>
			<g>
				<path class="st5" d="M1715.9,258.6c0,0-306,109.3-338,222.1c0,0,3,50-26.2,108.3l0.7,22.1c0,0,30.1-76,47.5-86.8
					C1399.8,524.2,1327.8,429.2,1715.9,258.6z"/>
				<path class="st5" d="M1351.7,589c0,0-45.5,73.8-15.7,161l12.2-3.7c0,0-14.8-96.7,8.7-146.2C1380.3,550.6,1351.7,589,1351.7,589z
					"/>
			</g>
		</g>
		<rect x="869.7" y="635.6" class="st10" width="786.8" height="1026.1"/>
		<rect x="895.5" y="635.6" class="st11" width="773.6" height="1026.1"/>
		<path class="st2" d="M2214.5,1659.1h-155.9c-8.4-7.1,5.8-23.2,20.5-24.3c6.4-0.5,14.5,0.9,23.8,2.8
			c2.1-28.5,14.4-156.6,60.6-151.4c51.9,5.8,0,56.4-14.7,86.4c-10.9,22.2-22.3,54.1-27.6,69.1c4.2,0.9,8.6,1.8,13,2.6
			c6.9-21.1,32.5-92.2,65-88c38.2,4.8,22.9,33.3-4.2,50.2c-19.9,12.4-44.3,30.1-55.9,38.7c9.8,1.6,20.1,2.7,30.5,2.4
			C2196.4,1647,2209.4,1654.9,2214.5,1659.1z"/>
		<path class="st11" d="M1669,635.6C1669,635.6,1669,635.6,1669,635.6l-773.6,0c4.3-58.5-2.2-101-12.5-131.5
			c-19.8-58.7-54-73.5-54-73.5h729.5c62.3,0,110.5,37.5,123.7,87.3c0.5,1.9,0.9,3.7,1.3,5.6C1696,580.5,1669.5,634.5,1669,635.6z"/>
		<path class="st12" d="M1669,635.6C1669,635.6,1669,635.6,1669,635.6l-773.6,0c4.3-58.5-2.2-101-12.5-131.5
			c79.1,14.5,274.8,45.3,484.4,40.1c135.6-3.4,242.7-12.4,316.1-20.7C1696,580.5,1669.5,634.5,1669,635.6z"/>
		<g>
			<path class="st13" d="M1464.7,872.2h-410.2c-4.2,0-7.7-3.4-7.7-7.7v-3.9c0-4.2,3.4-7.7,7.7-7.7h410.2c4.2,0,7.7,3.4,7.7,7.7v3.9
				C1472.3,868.7,1468.9,872.2,1464.7,872.2z"/>
			<path class="st13" d="M1305.9,904.5h-253.1c-3.3,0-6-2.7-6-6v-7.2c0-3.3,2.7-6,6-6h253.1c3.3,0,6,2.7,6,6v7.2
				C1312,901.8,1309.2,904.5,1305.9,904.5z"/>
			<g>
				<path class="st13" d="M1007.3,901.4v-39.3h-5.2c-3.1,0-4.7-1.3-4.7-3.9c0-1.9,1.2-3.2,3.7-4c1.3-0.4,3.3-0.7,6-0.9
					c2.8-0.2,5-0.3,6.6-0.3c1.6,0,2.6,0.3,3.1,1c0.4,0.7,0.6,2.3,0.6,5v42.5h5.3c3.5,0,5.2,1.5,5.2,4.5c0,3.1-1.7,4.7-5.2,4.7h-21.5
					c-1.5,0-2.8-0.4-3.8-1.2c-1-0.8-1.5-2-1.5-3.4c0-3,1.8-4.6,5.3-4.6H1007.3z"/>
			</g>
		</g>
		<g>
			<path class="st14" d="M1464.7,1074.8h-410.2c-4.2,0-7.7-3.4-7.7-7.7v-3.9c0-4.2,3.4-7.7,7.7-7.7h410.2c4.2,0,7.7,3.4,7.7,7.7v3.9
				C1472.3,1071.4,1468.9,1074.8,1464.7,1074.8z"/>
			<path class="st14" d="M1305.9,1107.2h-253.1c-3.3,0-6-2.7-6-6v-7.2c0-3.3,2.7-6,6-6h253.1c3.3,0,6,2.7,6,6v7.2
				C1312,1104.5,1309.2,1107.2,1305.9,1107.2z"/>
			<g>
				<path class="st14" d="M1028.8,1103.3c0,2.6-1.8,3.9-5.5,3.9h-22.8c-3.3,0-4.9-1.3-4.9-4c0-0.8,0.4-1.8,1.3-2.9
					c1.3-1.5,3.2-3.7,5.7-6.7c3.8-4.8,7-8.9,9.5-12.4c0.9-1.2,2.1-2.9,3.8-5.3c1.3-2.4,2-4.4,2-6c0-1.8-0.6-3.3-1.7-4.5
					c-1.2-1.2-2.6-1.8-4.4-1.8c-1.8,0-3.3,0.6-4.6,1.7c-0.9,0.7-1.6,2.1-2.1,4.2c-0.6,2.6-1.1,4.2-1.3,4.6c-0.7,1.5-1.8,2.2-3.4,2.2
					c-1.4,0-2.5-0.5-3.3-1.5c-0.7-0.9-1.1-2-1.1-3.5c0-1.6,0.3-3.3,0.8-4.9c1.1-3.6,3.1-6.3,5.9-8.2c2.7-1.8,6-2.7,9.8-2.7
					c4.2,0,7.7,1.3,10.6,3.8c2.9,2.7,4.4,6.1,4.4,10.3c0,3.1-1,6.3-3.1,9.6c-1.2,1.8-3.5,5-7.2,9.6c-1.9,2.4-4.8,5.8-8.8,10.3h15
					C1027,1099.2,1028.8,1100.6,1028.8,1103.3z"/>
			</g>
		</g>
		<g>
			<path class="st14" d="M1464.7,1243.9h-410.2c-4.2,0-7.7-3.4-7.7-7.7v-3.9c0-4.2,3.4-7.7,7.7-7.7h410.2c4.2,0,7.7,3.4,7.7,7.7v3.9
				C1472.3,1240.4,1468.9,1243.9,1464.7,1243.9z"/>
			<path class="st14" d="M1305.9,1276.2h-253.1c-3.3,0-6-2.7-6-6v-7.2c0-3.3,2.7-6,6-6h253.1c3.3,0,6,2.7,6,6v7.2
				C1312,1273.5,1309.2,1276.2,1305.9,1276.2z"/>
			<g>
				<path class="st14" d="M1028.8,1260.1c0,4.9-1.7,8.9-5.2,11.9c-3.3,2.8-7.4,4.3-12.4,4.3c-3.9,0-7.2-0.9-9.9-2.8
					c-4.4-2.9-6.5-6.5-6.5-10.6c0-1.2,0.4-2.2,1.1-3.1c0.8-0.9,1.7-1.3,2.9-1.3c1.2,0,2.4,0.8,3.5,2.5c1.8,2.7,2.8,4.3,3.1,4.5
					c1.6,1.7,3.6,2.5,6,2.5c3.3,0,5.7-1.2,7.1-3.7c0.7-1.2,1-2.8,1-4.7c0-4.6-2.7-7.2-8.2-7.7c-3.1-0.3-4.6-1.6-4.6-3.9
					c0-1.7,0.9-2.9,2.7-3.6c3.3-1.2,5-1.9,5.1-1.9c1.8-1.2,2.7-3.2,2.7-6.2c0-1.8-0.5-3.1-1.6-4.2c-1-1-2.4-1.5-4.2-1.5
					c-2.2,0-3.9,0.5-5.1,1.6c-1,0.9-1.9,2.4-2.6,4.6c-0.6,1.7-1.7,2.5-3.3,2.5c-1.1,0-2.1-0.5-2.8-1.5c-0.7-1-1.1-2.1-1.1-3.3
					c0-1.5,0.4-2.9,1.2-4.4c1.3-2.5,3.4-4.4,6.1-5.8c2.5-1.3,5.3-1.9,8.2-1.9c4,0,7.4,1.2,10,3.7c2.7,2.4,4,5.6,4,9.6
					c0,4.8-2,8.6-6,11.4C1025.9,1249.4,1028.8,1253.8,1028.8,1260.1z"/>
			</g>
		</g>
		<g>
			<path class="st13" d="M1416.9,703.7h-255.6c-4.4,0-8-3.6-8-8v-6.4c0-4.4,3.6-8,8-8h255.6c4.4,0,8,3.6,8,8v6.4
				C1424.9,700.1,1421.3,703.7,1416.9,703.7z"/>
			<path class="st13" d="M1483.5,738.2h-388.8c-5.4,0-9.8-4.4-9.8-9.8v-2.8c0-5.4,4.4-9.8,9.8-9.8h388.8c5.4,0,9.8,4.4,9.8,9.8v2.8
				C1493.3,733.8,1488.9,738.2,1483.5,738.2z"/>
		</g>
		<g>
			<path class="st15" d="M1770.9,1173.5c0,0-2.8,27-5.8,32.1c-3,5.1-16,21.4-21.5,24.6c-5.5,3.2,3.4-21.5,2.2-26.3
				c-1.1-4.8-4.5,8.8-7,9.1s-1.8-11.9-1.9-16.3c-0.1-4.4,11.8-15.4,16-24.9C1757.2,1162.3,1770.9,1173.5,1770.9,1173.5z"/>
			<path class="st15" d="M1439.4,924.7l-6.2-11.7c0,0,3.1-20.8-23-34c0,0-9.5-3.9-14.9,3.9c-5,7.2,9.5,5.9,8.7,18.1
				c-0.8,12.3,5,19.5,13.2,23.5l6.7,7.8L1439.4,924.7z"/>
			<path class="st16" d="M1686.3,896.7c0,0-22.4,110.1-145.9,146.1c-38.5,11.2-126.1-115.6-126.1-115.6s3.1-11.7,22.4-9
				c0,0,85.2,56.4,96,62.6c9.5,5.4,72.1-69.9,100.7-82.1C1661.9,886.5,1686.3,896.7,1686.3,896.7z"/>
			<g>
				
					<rect x="1410.1" y="825.7" transform="matrix(-0.6796 -0.7336 0.7336 -0.6796 1739.5054 2527.103)" class="st17" width="23.1" height="116"/>
				<polygon class="st15" points="1359.3,941.4 1387,931.5 1371.3,914.6 				"/>
				<path class="st15" d="M1471.5,832.2l5,5.3c3,3.3,2.8,8.4-0.4,11.5l-3.9,3.6l-15.7-16.9l4.3-4
					C1463.8,828.9,1468.6,829.1,1471.5,832.2z"/>
			</g>
			<g>
				<path class="st18" d="M1833.7,1588.8c0,0,15.3,14,12.3,23.9c-3,9.9-16.8,16.5-18.7,28.7c-1.9,12.1-9.3,18.8-16.1,18.8
					c-6.7,0-32.1,0-32.1,0s-4.9-8.5,7-11.1c12-2.6,16.5-16.8,15.7-30.1c-0.7-13.2,1.1-30.9,1.1-30.9l25.4-5.9L1833.7,1588.8z"/>
				<path class="st18" d="M1645.8,1624.9c0,0,2.7,31.8-4,35.1l-86-0.2c0,0,0-9.9,13.8-12.1c13.8-2.2,38.1-10.3,42.2-28.3
					C1615.9,1601.4,1645.8,1624.9,1645.8,1624.9z"/>
				<path class="st19" d="M1573.1,1175.7c0,0,4.5,55.7,9.9,122.8c7.2,91,16,202.8,16.8,224c1.5,36.8,7.5,95.6,7.5,95.6
					s14.2,14,42.6,8.1c0,0,25.3-84,32.5-172.9c0.1-1.5,0.2-2.9,0.3-4.4c6.7-90.5,17.2-281,17.2-281L1573.1,1175.7z"/>
				<path class="st18" d="M1573.1,1175.7c0,0,4.5,55.7,9.9,122.8l99.4,154.9c0.1-1.5,0.2-2.9,0.3-4.4c6.7-90.5,17.2-281,17.2-281
					L1573.1,1175.7z"/>
				<path class="st19" d="M1593.9,1182.3c0,0,81.8,201.9,135.6,296.8c53.8,94.9,70.6,121.4,70.6,121.4s30.8-12.1,33.6-20.4
					c0,0-20.6-183.2-56.6-227.8c-20.4-25.2-44.3-100.9-45.4-127.4c-1.1-26.5-7.3-78.9-7.3-78.9L1593.9,1182.3z"/>
			</g>
			<path class="st15" d="M1701.5,871.2c0,0-55.3,26.7-87.2,16.8c0,0,7.9-9.9,21.6-17.3c-1.1-6.4-2-12-2.5-16.7
				c-1.3-10.9-1.3-17-1.3-17l21.4-16.8l20.2-16.1C1672,849.3,1701.5,871.2,1701.5,871.2z"/>
			<path class="st20" d="M1730.7,1156.2c0.1,3.4-7.1,7.2-10.3,8.7c-23.7,10.4-45.8,17.6-70.8,20.1c-29.6,3-64.5-3.6-76.6-3.4
				c-1.2,0-2.3-0.5-3.3-1.3c-0.9-0.6-1.5-36.2-0.9-81.1c0-1.8,0-3.6,0.1-5.4v-0.6c0.2-17.5,0.9-35.9,1.7-54.3
				c1.7-40.4,4.9-79.3,10.3-100.8c6.5-25.4,21.2-42.2,34.6-54.4l11-9.7c11,2.2,22.7,1.6,34.4-4.1c12.8-6.2,26.5-12.8,28.7-11.1
				c16.7,12.2,28,39.6,34,74.7c3.4,20.2,5.2,42.8,5,66.5c0,8.7-0.2,17.6-0.7,26.5c-2.9,47.8,0,89.4,1.7,113.5
				C1730.2,1146.9,1730.5,1152.4,1730.7,1156.2z"/>
			<path class="st16" d="M1729.7,1154c-193.8-0.4-35.7-210.3-35.7-210.3l31.4-10.2c2.5,21.6,3.7,45.7,3.6,71
				c0,9.3-0.2,18.8-0.5,28.3C1726.3,1083.9,1728.4,1128.3,1729.7,1154z"/>
			<path class="st21" d="M1674,821.4c0,0-14,25.5-40.6,32.6c-1.3-10.9-1.3-17-1.3-17l21.4-16.8L1674,821.4z"/>
			<path class="st15" d="M1622.3,836.2c0,0,52.8,8.6,57.8-23.8c5-32.5,15.1-53.2-18.4-60.1c-33.5-6.9-42,4.5-46.3,15
				S1608.7,833.1,1622.3,836.2z"/>
			<path class="st22" d="M1699.2,748.4c0.5-0.5,1.6-1,4-1.1c0,0-2-1.2-4.6-1.3c-0.5-3.4-2.3-9.5-8.2-10.9c0,0,3.2,1.7,3.6,5.3
				c-6.8-7-21.4-12.1-61.9-8.9c-53.3,4.2-35.7,38.3-28.8,42.4c6.9,4.1,24.3-7.1,37.1-6.1c12.9,1,15.3,19.6,19.7,22.2
				c4.4,2.5,2.6-2,8.6-4.6c5.9-2.7,6.5,7.1,4.8,13.5c-1.7,6.4,6.4,14.8,6.4,14.8s0,0,8.2-8.8c8.2-8.8,15.9-46.2,12.2-54.2
				C1699.9,749.9,1699.6,749.1,1699.2,748.4z"/>
			<path class="st20" d="M1689.6,858.6c0,0,33.4,15.8,49.4,40.1c24.8,37.7,53.6,175.2,54.2,187.9c0.5,12.7-21,102.6-21,102.6
				s-21.9-1.4-27.5-12.5c0,0,4.4-92.3,1.6-98.3c-2.8-5.9-91.1-123.9-81.2-149C1675.1,904.3,1689.6,858.6,1689.6,858.6z"/>
			<path class="st15" d="M1433.1,912.4c0,0,1.8-7.2-3.2-10.4c-5-3.2-9.6-12-11.7-10.8c-4.3,2.5,2.4,10.1,1.1,19.7
				C1419,914.2,1426.8,923,1433.1,912.4z"/>
		</g>
		<path class="st2" d="M621.4,1591.9c0,0-78.5-200.9-133.5-168.9C432.9,1455,621.4,1591.9,621.4,1591.9z"/>
		<path class="st2" d="M582.6,1591.9c0,0-103.7-89.6-151-72.9C384.3,1535.6,582.6,1591.9,582.6,1591.9z"/>
		<path class="st2" d="M1680.2,1620.9c0,0,23.9-83.1,51.9-73.3C1760.2,1557.4,1680.2,1620.9,1680.2,1620.9z"/>
		<path class="st2" d="M1702,1616.3c0,0,61-40,74.4-27.7C1789.8,1601.1,1702,1616.3,1702,1616.3z"/>
		<path class="st14" d="M1493.6,1438.5H1018c-3.2,0-5.8-2.6-5.8-5.8l0,0c0-3.2,2.6-5.8,5.8-5.8h475.7c3.2,0,5.8,2.6,5.8,5.8l0,0
			C1499.4,1435.9,1496.8,1438.5,1493.6,1438.5z"/>
		<path class="st14" d="M1493.6,1461.7H1018c-3.2,0-5.8-2.6-5.8-5.8l0,0c0-3.2,2.6-5.8,5.8-5.8h475.7c3.2,0,5.8,2.6,5.8,5.8l0,0
			C1499.4,1459.1,1496.8,1461.7,1493.6,1461.7z"/>
		<path class="st14" d="M1493.6,1487.3H1018c-3.2,0-5.8-2.6-5.8-5.8l0,0c0-3.2,2.6-5.8,5.8-5.8h475.7c3.2,0,5.8,2.6,5.8,5.8l0,0
			C1499.4,1484.7,1496.8,1487.3,1493.6,1487.3z"/>
		<path class="st14" d="M1431.2,1513h-413.6c-3,0-5.4-2.4-5.4-5.4v-0.8c0-3,2.4-5.4,5.4-5.4h413.6c3,0,5.4,2.4,5.4,5.4v0.8
			C1436.6,1510.6,1434.2,1513,1431.2,1513z"/>
		<path class="st23" d="M2499,1664.2H140.1c-1.3,0-2.3-1-2.3-2.3v-0.4c0-1.3,1-2.3,2.3-2.3H2499c1.3,0,2.3,1,2.3,2.3v0.4
			C2501.3,1663.1,2500.2,1664.2,2499,1664.2z"/>
	</g>
</g>
</svg>
