<?xml version="1.0" encoding="utf-8"?>
<!-- Generator: Adobe Illustrator 26.0.1, SVG Export Plug-In . SVG Version: 6.00 Build 0)  -->
<svg version="1.1" id="BACKGROUND" xmlns="http://www.w3.org/2000/svg" xmlns:xlink="http://www.w3.org/1999/xlink" x="0px" y="0px"
	 viewBox="0 0 750 500" style="enable-background:new 0 0 750 500;" xml:space="preserve">
<style type="text/css">
	.st0{clip-path:url(#SVGID_00000152239162349141017110000002467323052774246318_);fill:#ECB83E;}
	.st1{clip-path:url(#SVGID_00000152239162349141017110000002467323052774246318_);}
	.st2{fill:none;stroke:#2D2D2D;stroke-width:0.1668;stroke-miterlimit:10;}
	.st3{fill:none;stroke:#2C2C2C;stroke-width:0.1662;stroke-miterlimit:10;}
	.st4{fill:none;stroke:#2B2B2B;stroke-width:0.1656;stroke-miterlimit:10;}
	.st5{fill:none;stroke:#2A2A2A;stroke-width:0.165;stroke-miterlimit:10;}
	.st6{fill:none;stroke:#292929;stroke-width:0.1644;stroke-miterlimit:10;}
	.st7{fill:none;stroke:#282828;stroke-width:0.1638;stroke-miterlimit:10;}
	.st8{fill:none;stroke:#272727;stroke-width:0.1632;stroke-miterlimit:10;}
	.st9{fill:none;stroke:#262626;stroke-width:0.1625;stroke-miterlimit:10;}
	.st10{fill:none;stroke:#252525;stroke-width:0.1619;stroke-miterlimit:10;}
	.st11{fill:none;stroke:#242424;stroke-width:0.1613;stroke-miterlimit:10;}
	.st12{fill:none;stroke:#232323;stroke-width:0.1607;stroke-miterlimit:10;}
	.st13{fill:none;stroke:#222222;stroke-width:0.1601;stroke-miterlimit:10;}
	.st14{fill:none;stroke:#212121;stroke-width:0.1595;stroke-miterlimit:10;}
	.st15{fill:none;stroke:#202020;stroke-width:0.1589;stroke-miterlimit:10;}
	.st16{fill:none;stroke:#1F1F1F;stroke-width:0.1583;stroke-miterlimit:10;}
	.st17{fill:none;stroke:#1E1E1E;stroke-width:0.1577;stroke-miterlimit:10;}
	.st18{fill:none;stroke:#1D1D1D;stroke-width:0.1571;stroke-miterlimit:10;}
	.st19{fill:none;stroke:#1C1C1C;stroke-width:0.1565;stroke-miterlimit:10;}
	.st20{fill:none;stroke:#1B1B1B;stroke-width:0.1559;stroke-miterlimit:10;}
	.st21{fill:none;stroke:#1A1A1A;stroke-width:0.1553;stroke-miterlimit:10;}
	.st22{fill:none;stroke:#191919;stroke-width:0.1547;stroke-miterlimit:10;}
	.st23{fill:none;stroke:#181818;stroke-width:0.1541;stroke-miterlimit:10;}
	.st24{fill:none;stroke:#171717;stroke-width:0.1534;stroke-miterlimit:10;}
	.st25{fill:none;stroke:#161616;stroke-width:0.1528;stroke-miterlimit:10;}
	.st26{fill:none;stroke:#161616;stroke-width:0.1522;stroke-miterlimit:10;}
	.st27{fill:none;stroke:#151515;stroke-width:0.1516;stroke-miterlimit:10;}
	.st28{fill:none;stroke:#141414;stroke-width:0.151;stroke-miterlimit:10;}
	.st29{fill:none;stroke:#131313;stroke-width:0.1504;stroke-miterlimit:10;}
	.st30{fill:none;stroke:#121212;stroke-width:0.1498;stroke-miterlimit:10;}
	.st31{fill:none;stroke:#111111;stroke-width:0.1492;stroke-miterlimit:10;}
	.st32{fill:none;stroke:#101010;stroke-width:0.1486;stroke-miterlimit:10;}
	.st33{fill:none;stroke:#0F0F0F;stroke-width:0.148;stroke-miterlimit:10;}
	.st34{fill:none;stroke:#0E0E0E;stroke-width:0.1474;stroke-miterlimit:10;}
	.st35{fill:none;stroke:#0D0D0D;stroke-width:0.1468;stroke-miterlimit:10;}
	.st36{fill:none;stroke:#0C0C0C;stroke-width:0.1462;stroke-miterlimit:10;}
	.st37{fill:none;stroke:#0B0B0B;stroke-width:0.1456;stroke-miterlimit:10;}
	.st38{fill:none;stroke:#0A0A0A;stroke-width:0.145;stroke-miterlimit:10;}
	.st39{fill:none;stroke:#090909;stroke-width:0.1443;stroke-miterlimit:10;}
	.st40{fill:none;stroke:#080808;stroke-width:0.1437;stroke-miterlimit:10;}
	.st41{fill:none;stroke:#070707;stroke-width:0.1431;stroke-miterlimit:10;}
	.st42{fill:none;stroke:#060606;stroke-width:0.1425;stroke-miterlimit:10;}
	.st43{fill:none;stroke:#050505;stroke-width:0.1419;stroke-miterlimit:10;}
	.st44{fill:none;stroke:#040404;stroke-width:0.1413;stroke-miterlimit:10;}
	.st45{fill:none;stroke:#030303;stroke-width:0.1407;stroke-miterlimit:10;}
	.st46{fill:none;stroke:#020202;stroke-width:0.1401;stroke-miterlimit:10;}
	.st47{fill:none;stroke:#010101;stroke-width:0.1395;stroke-miterlimit:10;}
	.st48{fill:none;stroke:#000000;stroke-width:0.1389;stroke-miterlimit:10;}
	.st49{fill:none;stroke:#2D2D2D;stroke-width:0.2394;stroke-miterlimit:10;}
	.st50{fill:#FFC248;}
	.st51{fill:#ECB83E;}
	.st52{fill:#353535;}
	.st53{fill:none;stroke:#353535;stroke-width:0.5;stroke-miterlimit:10;}
	.st54{clip-path:url(#SVGID_00000152239162349141017110000002467323052774246318_);fill:#353535;}
</style>
<g>
	<defs>
		<rect id="SVGID_1_" width="750" height="500"/>
	</defs>
	<clipPath id="SVGID_00000071536299327787948540000012765097439623337112_">
		<use xlink:href="#SVGID_1_"  style="overflow:visible;"/>
	</clipPath>
	<path style="clip-path:url(#SVGID_00000071536299327787948540000012765097439623337112_);fill:#ECB83E;" d="M-126.7,157.6
		c0,0,0.7-49,84-6.6C73.9,210.4,98.7,1.2,198.6,79.5c99.9,78.3,97.9-121.1,174.3-46.3s53.2-183.3,132.1-128.3l-657.5-108.7
		L-126.7,157.6z"/>
	<g style="clip-path:url(#SVGID_00000071536299327787948540000012765097439623337112_);">
		<path class="st2" d="M-97.6,93.1c0,0,7.9-215.6,129-104.3s77.4-89.3,150.1-1.7c72.6,87.6,117.2-119,292.9-57.3"/>
		<path class="st3" d="M-97.5,94.7c0,0,9.2-213,129.6-102.5s78.8-90.1,152.5-3.2c73.8,86.9,117.9-119.6,289.8-59.1"/>
		<path class="st4" d="M-97.4,96.2c0,0,10.4-210.4,130.3-100.7s80.1-90.9,155-4.7c74.9,86.1,118.6-120.1,286.7-61"/>
		<path class="st5" d="M-97.3,97.8c0,0,11.7-207.9,131-98.9S115-92.7,191.1-7.3c76,85.4,119.4-120.6,283.6-62.8"/>
		<path class="st6" d="M-97.3,99.4c0,0,13-205.3,131.6-97.1s82.7-92.4,159.9-7.8c77.1,84.6,120.1-121.1,280.5-64.7"/>
		<path class="st7" d="M-97.2,101c0,0,14.3-202.7,132.3-95.3s84.1-93.2,162.4-9.3c78.3,83.9,120.8-121.6,277.4-66.5"/>
		<path class="st8" d="M-97.1,102.6c0,0,15.6-200.1,133-93.5s85.4-94,164.8-10.8C280.1,81.4,322.2-123.8,475-70.1"/>
		<path class="st9" d="M-97,104.1c0,0,16.8-197.5,133.6-91.6s86.7-94.7,167.3-12.3c80.5,82.4,122.3-122.6,271.2-70.2"/>
		<path class="st10" d="M-96.9,105.7c0,0,18.1-194.9,134.3-89.8S125.4-79.6,207.1,2c81.7,81.6,123-123.1,268.1-72.1"/>
		<path class="st11" d="M-96.9,107.3c0,0,19.4-192.3,135-88S127.5-77,210.3,3.9C293.1,84.8,334-119.7,475.3-70"/>
		<path class="st12" d="M-96.8,108.9c0,0,20.7-189.7,135.6-86.2s90.7-97,174.6-16.9C297.4,85.9,337.9-118.4,475.4-70"/>
		<path class="st13" d="M-96.7,110.4c0,0,22-187.2,136.3-84.4s92.1-97.8,177.1-18.4C301.7,87,341.8-117,475.5-70"/>
		<path class="st14" d="M-96.6,112c0,0,23.2-184.6,137-82.6s93.4-98.6,179.6-19.9C306.1,88.2,345.8-115.7,475.6-70"/>
		<path class="st15" d="M-96.5,113.6c0,0,24.5-182,137.6-80.8s94.7-99.3,182-21.4C310.4,89.3,349.7-114.3,475.7-70"/>
		<path class="st16" d="M-96.5,115.2c0,0,25.8-179.4,138.3-79s96.1-100.1,184.5-22.9C314.7,90.4,353.6-112.9,475.8-70"/>
		<path class="st17" d="M-96.4,116.7c0,0,27.1-176.8,139-77.2S140-61.3,229.5,15.1c89.5,76.4,128-126.7,246.4-85"/>
		<path class="st18" d="M-96.3,118.3c0,0,28.4-174.2,139.6-75.4S142-58.7,232.7,17C323.4,92.6,361.5-110.2,476-69.9"/>
		<path class="st19" d="M-96.2,119.9c0,0,29.6-171.6,140.3-73.6s100-102.4,191.8-27.5c91.8,74.9,129.5-127.7,240.2-88.8"/>
		<path class="st20" d="M-96.1,121.5c0,0,30.9-169,141-71.8s101.4-103.2,194.3-29c92.9,74.2,130.2-128.2,237.1-90.6"/>
		<path class="st21" d="M-96,123c0,0,32.2-166.5,141.6-70S148.3-50.8,242.3,22.6c94.1,73.4,130.9-128.7,234-92.5"/>
		<path class="st22" d="M-96,124.6c0,0,33.5-163.9,142.3-68.2s104-104.7,199.2-32c95.2,72.7,131.6-129.2,230.9-94.3"/>
		<path class="st23" d="M-95.9,126.2c0,0,34.8-161.3,142.9-66.3S152.4-45.6,248.7,26.3c96.3,71.9,132.4-129.7,227.8-96.2"/>
		<path class="st24" d="M-95.8,127.8c0,0,36-158.7,143.6-64.5S154.5-43,251.9,28.2c97.4,71.2,133.1-130.3,224.7-98"/>
		<path class="st25" d="M-95.7,129.4c0,0,37.3-156.1,144.3-62.7s108-107,206.6-36.6c98.6,70.4,133.8-130.8,221.6-99.9"/>
		<path class="st26" d="M-95.6,130.9c0,0,38.6-153.5,144.9-60.9S158.7-37.8,258.3,31.9C358,101.6,392.9-99.4,476.9-69.8"/>
		<path class="st27" d="M-95.6,132.5c0,0,39.9-150.9,145.6-59.1S160.7-35.2,261.6,33.8C362.4,102.7,396.8-98,477-69.8"/>
		<path class="st28" d="M-95.5,134.1c0,0,41.2-148.3,146.3-57.3s112-109.3,214-41.1c102,68.2,136-132.3,212.4-105.4"/>
		<path class="st29" d="M-95.4,135.7c0,0,42.4-145.8,146.9-55.5S164.9-29.9,268,37.5C371,105,404.7-95.3,477.2-69.8"/>
		<path class="st30" d="M-95.3,137.2c0,0,43.7-143.2,147.6-53.7S167-27.3,271.2,39.4C375.4,106.1,408.6-93.9,477.3-69.7"/>
		<path class="st31" d="M-95.2,138.8c0,0,45-140.6,148.3-51.9S169-24.7,274.4,41.3c105.3,65.9,138.1-133.8,203.1-111"/>
		<path class="st32" d="M-95.2,140.4c0,0,46.3-138,148.9-50.1S171.1-22.1,277.6,43.1C384,108.3,416.4-91.2,477.5-69.7"/>
		<path class="st33" d="M-95.1,142c0,0,47.6-135.4,149.6-48.3S173.2-19.5,280.8,45C388.4,109.4,420.4-89.8,477.6-69.7"/>
		<path class="st34" d="M-95,143.5c0,0,48.8-132.8,150.3-46.5S175.3-16.8,284,46.9C392.7,110.6,424.3-88.5,477.8-69.7"/>
		<path class="st35" d="M-94.9,145.1c0,0,50.1-130.2,150.9-44.7S177.3-14.2,287.2,48.7c109.8,63,141-135.9,190.7-118.4"/>
		<path class="st36" d="M-94.8,146.7c0,0,51.4-127.6,151.6-42.9S179.4-11.6,290.4,50.6C401.4,112.8,432.1-85.8,478-69.6"/>
		<path class="st37" d="M-94.8,148.3c0,0,52.7-125.1,152.3-41.1S181.5-9,293.6,52.5C405.7,113.9,436.1-84.4,478.1-69.6"/>
		<path class="st38" d="M-94.7,149.8c0,0,54-122.5,152.9-39.2s125.3-117,238.5-56.3C410,115.1,440-83,478.2-69.6"/>
		<path class="st39" d="M-94.6,151.4c0,0,55.2-119.9,153.6-37.4S185.6-3.8,300,56.2c114.4,60,143.9-137.9,178.3-125.8"/>
		<path class="st40" d="M-94.5,153c0,0,56.5-117.3,154.3-35.6s128-118.5,243.5-59.3C418.7,117.3,447.8-80.3,478.4-69.6"/>
		<path class="st41" d="M-94.4,154.6c0,0,57.8-114.7,154.9-33.8S189.8,1.5,306.4,59.9C423,118.4,451.8-79,478.5-69.6"/>
		<path class="st42" d="M-94.4,156.1c0,0,59.1-112.1,155.6-32s130.6-120,248.4-62.3c117.7,57.7,146.1-139.4,169-131.4"/>
		<path class="st43" d="M-94.3,157.7c0,0,60.4-109.5,156.3-30.2s132-120.8,250.8-63.8c118.9,57,146.8-139.9,165.9-133.2"/>
		<path class="st44" d="M-94.2,159.3c0,0,61.6-106.9,156.9-28.4S196,9.3,316,65.5C436,121.8,463.5-74.9,478.8-69.5"/>
		<path class="st45" d="M-94.1,160.9c0,0,62.9-104.4,157.6-26.6S198.1,11.9,319.2,67.4c121.1,55.5,148.3-141,159.7-136.9"/>
		<path class="st46" d="M-94,162.5c0,0,64.2-101.8,158.3-24.8s136-123.1,258.2-68.4C444.7,124,471.4-72.2,479-69.5"/>
		<path class="st47" d="M-94,164c0,0,65.5-99.2,158.9-23S202.3,17.2,325.6,71.1c123.4,54,149.7-142,153.5-140.6"/>
		<path class="st48" d="M-93.9,165.6c0,0,66.8-96.6,159.6-21.2S204.3,19.8,328.8,73C453.3,126.3,479.3-69.5,479.3-69.5"/>
	</g>
	<path style="clip-path:url(#SVGID_00000071536299327787948540000012765097439623337112_);fill:#ECB83E;" d="M146.5,534.5
		c0,0,56.4-76.5,100.9-51c62.2,35.6,109.3-118.3,208.9-68.4C555.9,464.9,610.5,287,632,380.1c21.5,93.1,49.7-100.6,139.4-19.9
		l-27.9,243L146.5,534.5z"/>
	<g style="clip-path:url(#SVGID_00000071536299327787948540000012765097439623337112_);">
		<path class="st49" d="M323,569.8c0,0-57.2-133,63.1-125.1c120.3,7.9,38.1-187.1,191.1-96.1c153,91.1,73.7-81.2,184.6,9.7"/>
		<path class="st49" d="M324,570.8c0,0-55.8-133.6,63.9-124.7s39.4-185.4,190.2-93.6c150.8,92,74.3-82.6,184.1,8.6"/>
		<path class="st49" d="M325.1,571.9c0,0-54.4-134.1,64.6-124.3c119.1,9.7,40.8-183.7,189.3-91.1c148.6,93,75-84,183.6,7.4"/>
		<path class="st49" d="M326.1,572.9c0,0-53-134.6,65.4-124c118.5,10.6,42.1-182,188.4-88.7c146.4,93.9,75.6-85.4,183.2,6.3"/>
		<path class="st49" d="M327.2,573.9c0,0-51.6-135.1,66.2-123.6c117.8,11.5,43.4-180.3,187.5-86.2c144.3,94.9,76.2-86.8,182.7,5.1"
			/>
		<path class="st49" d="M328.2,574.9c0,0-50.2-135.6,67-123.2c117.2,12.4,44.8-178.6,186.6-83.7c142.1,95.8,76.9-88.2,182.2,4"/>
		<path class="st49" d="M329.3,575.9c0,0-48.8-136.1,67.7-122.8c116.6,13.3,46.3-177.2,185.7-81.3c140.1,96.5,77.5-89.6,181.7,2.8"
			/>
		<path class="st49" d="M330.3,576.9c0,0-47.5-136.6,68.5-122.4c116,14.2,47.7-175.6,184.8-78.8c138,97.4,78.2-91,181.2,1.6"/>
		<path class="st49" d="M331.3,577.9c0,0-46.1-137.2,69.3-122s49-173.9,183.9-76.3c135.8,98.3,78.8-92.4,180.7,0.5"/>
		<path class="st49" d="M332.4,579c0,0-44.7-137.7,70.1-121.6c114.7,16,50.4-172.3,183-73.9c133.7,99.2,79.5-93.8,180.2-0.7"/>
		<path class="st49" d="M333.4,580c0,0-43.3-138.2,70.8-121.2s51.8-170.6,182.1-71.4c131.6,100.1,80.1-95.2,179.7-1.8"/>
		<path class="st49" d="M334.5,581c0,0-41.9-138.7,71.6-120.8c113.5,17.9,53.1-168.9,181.2-69c129.4,101,80.8-96.6,179.2-3"/>
		<path class="st49" d="M335.5,582c0,0-40.5-139.2,72.4-120.5s54.5-167.3,180.3-66.5c127.3,102,81.4-98,178.7-4.1"/>
		<path class="st49" d="M336.6,583c0,0-39.1-139.7,73.2-120.1c112.2,19.7,55.9-165.6,179.4-64c125.1,102.9,82-99.4,178.2-5.3"/>
		<path class="st49" d="M337.6,584c0,0-37.7-140.2,73.9-119.7s57.2-163.9,178.5-61.6c123,103.8,82.7-100.8,177.7-6.4"/>
		<path class="st49" d="M338.7,585c0,0-36.3-140.7,74.7-119.3c111,21.5,58.6-162.2,177.6-59.1c120.9,104.7,83.3-102.2,177.2-7.6"/>
		<path class="st49" d="M339.7,586.1c0,0-34.9-141.3,75.5-118.9c110.4,22.4,59.9-160.6,176.7-56.6c118.7,105.7,84-103.7,176.7-8.7"
			/>
		<path class="st49" d="M340.8,587.1c0,0-33.5-141.8,76.3-118.5c109.8,23.3,61.3-158.9,175.8-54.2c116.6,106.6,84.6-105.1,176.3-9.9
			"/>
		<path class="st49" d="M341.8,588.1c0,0-32.1-142.3,77-118.1c109.1,24.2,62.7-157.2,174.9-51.7c114.4,107.5,85.3-106.5,175.8-11"/>
		<path class="st49" d="M342.9,589.1c0,0-30.7-142.8,77.8-117.7c108.5,25.1,64-155.5,174-49.2C707,530.6,680.6,314.3,770,410"/>
		<path class="st49" d="M343.9,590.1c0,0-29.3-143.3,78.6-117.3c107.9,26,65.4-153.8,173.1-46.8c110.1,109.4,86.6-109.3,174.8-13.3"
			/>
		<path class="st49" d="M345,591.1c0,0-27.9-143.8,79.3-117c107.3,26.9,66.7-152.1,172.2-44.3c108,110.4,87.2-110.7,174.3-14.5"/>
		<path class="st49" d="M346,592.2c0,0-26.5-144.3,80.1-116.6c106.6,27.8,68.1-150.4,171.3-41.8c105.8,111.3,87.8-112.1,173.8-15.6"
			/>
		<path class="st49" d="M347.1,593.2c0,0-25.1-144.9,80.9-116.2c106,28.7,69.4-148.7,170.4-39.4c103.7,112.2,88.5-113.5,173.3-16.8"
			/>
		<path class="st49" d="M348.1,594.2c0,0-23.7-145.4,81.7-115.8c105.4,29.6,70.8-147,169.5-36.9c101.5,113.2,89.1-114.9,172.8-17.9"
			/>
		<path class="st49" d="M349.2,595.2c0,0-22.3-145.9,82.4-115.4c104.8,30.5,72.1-145.3,168.6-34.4C699.6,559.5,690,329,772.6,426.3"
			/>
		<path class="st49" d="M350.2,596.2c0,0-20.9-146.4,83.2-115s73.5-143.6,167.7-32C698.4,564.3,691.6,331.5,773,429"/>
		<path class="st49" d="M351.3,597.2c0,0-19.5-146.9,84-114.6s74.8-141.9,166.8-29.5c95,116.1,91.1-119.1,171.3-21.4"/>
		<path class="st49" d="M352.3,598.2c0,0-18.1-147.4,84.8-114.2C540,517.2,513.2,343.8,603,457c92.9,117,91.7-120.5,170.8-22.5"/>
		<path class="st49" d="M353.4,599.3c0,0-16.7-147.9,85.5-113.8c102.3,34.1,77.5-138.5,165-24.6c90.7,118,92.4-121.9,170.3-23.7"/>
		<path class="st49" d="M354.4,600.3c0,0-15.4-148.4,86.3-113.5s78.8-136.8,164.1-22.1c88.5,119,93-123.3,169.8-24.8"/>
		<path class="st49" d="M355.5,601.3c0,0-14-149,87.1-113.1c101,35.9,80.1-135.1,163.2-19.7c86.3,119.9,93.7-124.7,169.4-26"/>
		<path class="st49" d="M356.5,602.3c0,0-12.6-149.5,87.9-112.7c100.4,36.8,81.5-133.3,162.3-17.2c84.2,120.9,94.3-126.1,168.9-27.1
			"/>
		<path class="st49" d="M357.6,603.3c0,0-11.2-150,88.6-112.3c99.8,37.7,82.8-131.6,161.4-14.7c82,121.9,94.9-127.6,168.4-28.3"/>
		<path class="st49" d="M358.6,604.3c0,0-9.8-150.5,89.4-111.9s84.1-129.9,160.5-12.3c79.8,122.8,95.6-129,167.9-29.5"/>
		<path class="st49" d="M359.7,605.3c0,0-8.4-151,90.2-111.5c98.6,39.5,85.4-128.2,159.6-9.8c77.6,123.8,96.2-130.4,167.4-30.6"/>
		<path class="st49" d="M360.7,606.4c0,0-7-151.5,91-111.1c97.9,40.4,86.7-126.5,158.7-7.3c75.4,124.8,96.9-131.8,166.9-31.8"/>
		<path class="st49" d="M361.8,607.4c0,0-5.6-152,91.7-110.7c97.3,41.3,88.1-124.7,157.8-4.9c73.2,125.8,97.5-133.2,166.4-32.9"/>
		<path class="st49" d="M362.8,608.4c0,0-4.2-152.6,92.5-110.3c96.7,42.2,89.4-123,156.9-2.4c71,126.8,98.2-134.6,165.9-34.1"/>
		<path class="st49" d="M363.9,609.4c0,0-2.8-153.1,93.3-110c96.1,43.1,90.7-121.3,156,0.1c68.8,127.7,98.8-136,165.4-35.2"/>
		<path class="st49" d="M364.9,610.4c0,0-1.4-153.6,94-109.6s92-119.6,155.1,2.5C680.7,632.1,713.6,366,779,467"/>
		<path class="st49" d="M366,611.4c0,0,0-154.1,94.8-109.2c94.8,44.9,93.3-117.8,154.2,5c64.4,129.7,100.1-138.8,164.4-37.5"/>
		<path class="st49" d="M367,612.5c0,0,1.4-154.6,95.6-108.8c94.2,45.8,94.6-116.1,153.3,7.5c62.2,130.7,100.7-140.2,163.9-38.7"/>
		<path class="st49" d="M368.1,613.5c0,0,2.8-155.1,96.4-108.4c93.6,46.7,95.8-114.4,152.4,9.9c60,131.7,101.4-141.6,163.4-39.8"/>
		<path class="st49" d="M369.1,614.5c0,0,4.2-155.6,97.1-108c93,47.6,97.1-112.6,151.6,12.4c57.7,132.6,102-143,162.9-41"/>
		<path class="st49" d="M370.2,615.5c0,0,5.6-156.1,97.9-107.6c92.3,48.5,98.4-110.9,150.7,14.9c55.5,133.6,102.7-144.4,162.5-42.1"
			/>
		<path class="st49" d="M371.2,616.5c0,0,7-156.7,98.7-107.2c91.7,49.4,99.7-109.2,149.8,17.3c53.3,134.6,103.3-145.8,162-43.3"/>
		<path class="st49" d="M372.3,617.5c0,0,8.4-157.2,99.5-106.8c91.1,50.3,101-107.5,148.9,19.8c51,135.6,104-147.2,161.5-44.4"/>
		<path class="st49" d="M373.3,618.5c0,0,9.8-157.7,100.2-106.5c90.5,51.2,102-105.7,148,22.2c48.6,136.6,104.6-148.6,161-45.6"/>
		<path class="st49" d="M374.4,619.6c0,0,11.2-158.2,101-106.1c89.8,52.1,103.3-104,147.1,24.7c46.4,137.6,105.3-150,160.5-46.7"/>
		<path class="st49" d="M375.4,620.6c0,0,12.6-158.7,101.8-105.7c89.2,53,104.7-102.3,146.2,27.2c44.2,138.5,105.9-151.5,160-47.9"
			/>
		<path class="st49" d="M376.5,621.6c0,0,14-159.2,102.6-105.3c88.6,53.9,106-100.6,145.3,29.6c42,139.5,106.5-152.9,159.5-49"/>
	</g>
	<g style="clip-path:url(#SVGID_00000071536299327787948540000012765097439623337112_);">
		<circle class="st50" cx="615" cy="-23.3" r="2"/>
		<circle class="st50" cx="615" cy="-7.8" r="2"/>
		<circle class="st50" cx="615" cy="7.8" r="2"/>
		<circle class="st50" cx="615" cy="23.3" r="2"/>
	</g>
	<g style="clip-path:url(#SVGID_00000071536299327787948540000012765097439623337112_);">
		<circle class="st51" cx="163.4" cy="-13.3" r="2"/>
		<circle class="st51" cx="163.4" cy="2.2" r="2"/>
		<circle class="st51" cx="163.4" cy="17.8" r="2"/>
		<circle class="st51" cx="163.4" cy="33.3" r="2"/>
	</g>
	<g style="clip-path:url(#SVGID_00000071536299327787948540000012765097439623337112_);">
		<circle class="st50" cx="658.4" cy="467" r="2"/>
		<circle class="st50" cx="658.4" cy="482.5" r="2"/>
		<circle class="st50" cx="658.4" cy="498" r="2"/>
		<circle class="st50" cx="658.4" cy="513.5" r="2"/>
	</g>
	<g style="clip-path:url(#SVGID_00000071536299327787948540000012765097439623337112_);">
		<circle class="st51" cx="38.6" cy="377.7" r="2"/>
		<circle class="st51" cx="38.6" cy="393.3" r="2"/>
		<circle class="st51" cx="38.6" cy="408.8" r="2"/>
		<circle class="st51" cx="38.6" cy="424.3" r="2"/>
	</g>
	<g style="clip-path:url(#SVGID_00000071536299327787948540000012765097439623337112_);">
		<g>
			<circle class="st52" cx="-12" cy="43" r="2"/>
			<circle class="st52" cx="3.5" cy="43" r="2"/>
			<circle class="st52" cx="19.1" cy="43" r="2"/>
			<circle class="st52" cx="34.6" cy="43" r="2"/>
		</g>
	</g>
	<g style="clip-path:url(#SVGID_00000071536299327787948540000012765097439623337112_);">
		<g>
			<circle class="st52" cx="716.1" cy="387.1" r="2"/>
			<circle class="st52" cx="731.6" cy="387.1" r="2"/>
			<circle class="st52" cx="747.1" cy="387.1" r="2"/>
			<circle class="st52" cx="762.7" cy="387.1" r="2"/>
		</g>
	</g>
	<g style="clip-path:url(#SVGID_00000071536299327787948540000012765097439623337112_);">
		<g>
			<path class="st52" d="M240.3,110.1c1.1,0,2,0.9,2,2s-0.9,2-2,2c-1.1,0-2-0.9-2-2S239.2,110.1,240.3,110.1z"/>
			<circle class="st52" cx="255.8" cy="112.1" r="2"/>
			<circle class="st52" cx="271.4" cy="112.1" r="2"/>
			<circle class="st52" cx="286.9" cy="112.1" r="2"/>
		</g>
	</g>
	<g style="clip-path:url(#SVGID_00000071536299327787948540000012765097439623337112_);">
		<g>
			<circle class="st52" cx="721.8" cy="15.5" r="2"/>
			<circle class="st52" cx="737.4" cy="15.5" r="2"/>
			<circle class="st52" cx="752.9" cy="15.5" r="2"/>
			<path class="st52" d="M768.4,13.5c1.1,0,2,0.9,2,2c0,1.1-0.9,2-2,2c-1.1,0-2-0.9-2-2C766.4,14.4,767.3,13.5,768.4,13.5z"/>
		</g>
	</g>
	<g style="clip-path:url(#SVGID_00000071536299327787948540000012765097439623337112_);">
		<g>
			<circle class="st52" cx="-37.3" cy="305.1" r="2"/>
			<circle class="st52" cx="-21.7" cy="305.1" r="2"/>
			<circle class="st52" cx="-6.2" cy="305.1" r="2"/>
			<path class="st52" d="M9.3,303c1.1,0,2,0.9,2,2s-0.9,2-2,2c-1.1,0-2-0.9-2-2S8.2,303,9.3,303z"/>
		</g>
	</g>
	<g style="clip-path:url(#SVGID_00000071536299327787948540000012765097439623337112_);">
		<g>
			<circle class="st52" cx="-17.7" cy="484.5" r="2"/>
			<circle class="st52" cx="-2.2" cy="484.5" r="2"/>
			<circle class="st52" cx="13.3" cy="484.5" r="2"/>
			<circle class="st52" cx="28.8" cy="484.5" r="2"/>
		</g>
	</g>
	<g style="clip-path:url(#SVGID_00000071536299327787948540000012765097439623337112_);">
		<g>
			<circle class="st52" cx="282.8" cy="469" r="2"/>
			<circle class="st52" cx="298.3" cy="469" r="2"/>
			<circle class="st52" cx="313.8" cy="469" r="2"/>
			<circle class="st52" cx="329.4" cy="469" r="2"/>
		</g>
	</g>
	<g style="clip-path:url(#SVGID_00000071536299327787948540000012765097439623337112_);">
		<circle class="st50" cx="723.8" cy="147.8" r="2"/>
		<circle class="st50" cx="723.8" cy="163.4" r="2"/>
		<circle class="st50" cx="723.8" cy="178.9" r="2"/>
		<circle class="st50" cx="723.8" cy="194.4" r="2"/>
	</g>
	<g style="clip-path:url(#SVGID_00000071536299327787948540000012765097439623337112_);">
		<line class="st53" x1="481.4" y1="19.8" x2="495.3" y2="19.8"/>
		<line class="st53" x1="488.4" y1="26.7" x2="488.4" y2="12.8"/>
	</g>
	<g style="clip-path:url(#SVGID_00000071536299327787948540000012765097439623337112_);">
		<line class="st53" x1="136.4" y1="465" x2="150.3" y2="465"/>
		<line class="st53" x1="143.4" y1="471.9" x2="143.4" y2="458"/>
	</g>
	<g style="clip-path:url(#SVGID_00000071536299327787948540000012765097439623337112_);">
		<line class="st53" x1="635.5" y1="443.1" x2="649.4" y2="443.1"/>
		<line class="st53" x1="642.4" y1="450" x2="642.4" y2="436.1"/>
	</g>
	<g style="clip-path:url(#SVGID_00000071536299327787948540000012765097439623337112_);">
		<line class="st53" x1="136.4" y1="35.3" x2="150.3" y2="35.3"/>
		<line class="st53" x1="143.4" y1="42.2" x2="143.4" y2="28.4"/>
	</g>
	<g style="clip-path:url(#SVGID_00000071536299327787948540000012765097439623337112_);">
		<line class="st53" x1="690.4" y1="289.6" x2="704.3" y2="289.6"/>
		<line class="st53" x1="697.4" y1="296.5" x2="697.4" y2="282.6"/>
	</g>
	<g style="clip-path:url(#SVGID_00000071536299327787948540000012765097439623337112_);">
		<line class="st53" x1="27.7" y1="180.9" x2="41.5" y2="180.9"/>
		<line class="st53" x1="34.6" y1="187.8" x2="34.6" y2="174"/>
	</g>
	<polygon style="clip-path:url(#SVGID_00000071536299327787948540000012765097439623337112_);fill:#353535;" points="27.2,265.5 
		22,274.5 32.4,274.5 	"/>
	<polygon style="clip-path:url(#SVGID_00000071536299327787948540000012765097439623337112_);fill:#353535;" points="750,308.5 
		744.8,317.5 755.2,317.5 	"/>
	<polygon style="clip-path:url(#SVGID_00000071536299327787948540000012765097439623337112_);fill:#353535;" points="-6,82.1 
		3,87.3 3,76.9 	"/>
	<polygon style="clip-path:url(#SVGID_00000071536299327787948540000012765097439623337112_);fill:#353535;" points="696.4,459.5 
		687.4,454.3 687.4,464.7 	"/>
	<polygon style="clip-path:url(#SVGID_00000071536299327787948540000012765097439623337112_);fill:#353535;" points="658.2,63.6 
		667.2,68.8 667.2,58.4 	"/>
	<polygon style="clip-path:url(#SVGID_00000071536299327787948540000012765097439623337112_);fill:#353535;" points="222.8,3 
		231.8,8.2 231.8,-2.2 	"/>
	<polygon style="clip-path:url(#SVGID_00000071536299327787948540000012765097439623337112_);fill:#353535;" points="311.8,504.5 
		317,495.5 306.6,495.5 	"/>
	<polygon style="clip-path:url(#SVGID_00000071536299327787948540000012765097439623337112_);fill:#353535;" points="81.8,498.5 
		72.8,493.3 72.8,503.7 	"/>
</g>
</svg>
