<svg xmlns="http://www.w3.org/2000/svg" xmlns:xlink="http://www.w3.org/1999/xlink" width="1920.001" height="560.058" viewBox="0 0 1920.001 560.058"><defs><style>.a{fill:url(#a);}.b{fill:#e5b851;}.c{fill:#ede5e8;}.d{fill:#fff;}.e{fill:#dcb458;}.f{fill:#8993b0;}.g{fill:#f5f8ff;}.h{fill:#eab087;}</style><linearGradient id="a" y1="0.521" x2="1" y2="0.5" gradientUnits="objectBoundingBox"><stop offset="0" stop-color="#162b7b"/><stop offset="1" stop-color="#0b163e"/></linearGradient></defs><g transform="translate(0 -7723.943)"><path class="a" d="M135.915,670H-1542.714V305.767a90.245,90.245,0,0,0-90.144-90.142A90.244,90.244,0,0,0-1723,305.767V670h-61.086V110h1920V670Zm-1679.72,0h-17.351V305.767a71.782,71.782,0,0,0-71.7-71.7,71.781,71.781,0,0,0-71.7,71.7V670h-17.352V305.767a89.151,89.151,0,0,1,89.051-89.05,89.153,89.153,0,0,1,89.053,89.05V670Zm-18.444,0h-17.35V305.768a53.319,53.319,0,0,0-53.259-53.257,53.318,53.318,0,0,0-53.257,53.257V670h-17.35V305.767a70.688,70.688,0,0,1,70.607-70.608,70.688,70.688,0,0,1,70.609,70.608V670Zm-18.442,0h-104.333V305.768a52.225,52.225,0,0,1,52.166-52.167,52.226,52.226,0,0,1,52.168,52.167V670Z" transform="translate(1784.086 7614)"/><g transform="translate(1394.525 8138.142)"><g transform="translate(0)"><g transform="translate(0 67.384)"><path class="b" d="M46.613,168.2a1.559,1.559,0,0,1-1.126-.475,1.382,1.382,0,0,1-.349-.508,1.589,1.589,0,0,1-.127-.6,1.557,1.557,0,0,1,.476-1.126,1.574,1.574,0,0,1,1.426-.428,2.348,2.348,0,0,1,.3.079,1.6,1.6,0,0,1,.269.159,1.318,1.318,0,0,1,.237.19,1.548,1.548,0,0,1,.459,1.126,1.572,1.572,0,0,1-.11.6,1.625,1.625,0,0,1-.349.508,3.05,3.05,0,0,1-.237.206c-.079.047-.174.094-.269.142a2.045,2.045,0,0,1-.3.1A1.944,1.944,0,0,1,46.613,168.2Z" transform="translate(-45.011 -165.032)"/></g><g transform="translate(0.529)"><path class="b" d="M46.77,180a1.6,1.6,0,0,1-1.379-1.774h0a1.588,1.588,0,0,1,1.775-1.379h0a1.587,1.587,0,0,1,1.379,1.775h0a1.613,1.613,0,0,1-1.569,1.395h0C46.913,180.012,46.833,180,46.77,180Zm132.591-1.489h0a1.588,1.588,0,0,1,1.379-1.775h0a1.58,1.58,0,0,1,1.758,1.379h0a1.587,1.587,0,0,1-1.362,1.775h0c-.08,0-.143.016-.206.016h0A1.576,1.576,0,0,1,179.361,178.506ZM48.148,171.628a1.6,1.6,0,0,1-1.141-1.934h0a1.6,1.6,0,0,1,1.934-1.14h0a1.59,1.59,0,0,1,1.141,1.932h0a1.589,1.589,0,0,1-1.538,1.189h0A1.726,1.726,0,0,1,48.148,171.628Zm129.659-1.251a1.562,1.562,0,0,1,1.141-1.918h0a1.564,1.564,0,0,1,1.917,1.126h0a1.575,1.575,0,0,1-1.141,1.932h0a1.49,1.49,0,0,1-.379.049h0A1.575,1.575,0,0,1,177.807,170.377ZM50.588,163.5a1.586,1.586,0,0,1-.9-2.061h0a1.6,1.6,0,0,1,2.06-.888h0a1.578,1.578,0,0,1,.888,2.061h0a1.578,1.578,0,0,1-1.475,1h0A1.472,1.472,0,0,1,50.588,163.5Zm124.651-.983a1.578,1.578,0,0,1,.888-2.061h0a1.58,1.58,0,0,1,2.044.887h0a1.575,1.575,0,0,1-.872,2.061h0a1.549,1.549,0,0,1-.586.11h0A1.575,1.575,0,0,1,175.24,162.517ZM54.013,155.751a1.59,1.59,0,0,1-.619-2.155h0a1.585,1.585,0,0,1,2.155-.618h0a1.564,1.564,0,0,1,.618,2.138h0a1.549,1.549,0,0,1-1.393.825h0A1.647,1.647,0,0,1,54.013,155.751Zm117.695-.714v.016a1.567,1.567,0,0,1,.616-2.155h0a1.577,1.577,0,0,1,2.157.618h0a1.6,1.6,0,0,1-.619,2.155h0a1.692,1.692,0,0,1-.777.19h0A1.575,1.575,0,0,1,171.707,155.037ZM58.4,148.492a1.578,1.578,0,0,1-.349-2.218h0a1.559,1.559,0,0,1,2.2-.349h0a1.578,1.578,0,0,1,.349,2.218h0a1.608,1.608,0,0,1-1.284.649h0A1.628,1.628,0,0,1,58.4,148.492Zm108.851-.428a1.559,1.559,0,0,1,.349-2.2h0a1.571,1.571,0,0,1,2.2.332h.016a1.605,1.605,0,0,1-.349,2.22h0a1.6,1.6,0,0,1-.934.3h0A1.564,1.564,0,0,1,167.253,148.065ZM63.647,141.836a1.6,1.6,0,0,1-.063-2.25h0a1.579,1.579,0,0,1,2.234-.063h0a1.579,1.579,0,0,1,.063,2.234h0a1.557,1.557,0,0,1-1.157.506h0A1.575,1.575,0,0,1,63.647,141.836Zm98.313-.126a1.6,1.6,0,0,1,.08-2.251h0a1.579,1.579,0,0,1,2.234.064h0a1.6,1.6,0,0,1-.063,2.25h0a1.614,1.614,0,0,1-1.094.428h0A1.667,1.667,0,0,1,161.96,141.71Zm-92.276-5.831a1.58,1.58,0,0,1,.207-2.218h0a1.567,1.567,0,0,1,2.233.2h0a1.588,1.588,0,0,1-.2,2.236h0a1.631,1.631,0,0,1-1.015.365h0A1.615,1.615,0,0,1,69.684,135.879Zm86.239.157h0a1.6,1.6,0,0,1-.206-2.234h0a1.6,1.6,0,0,1,2.234-.206h0a1.6,1.6,0,0,1,.206,2.235h0a1.571,1.571,0,0,1-1.22.569h0A1.572,1.572,0,0,1,155.923,136.036Zm-79.5-5.293a1.592,1.592,0,0,1,.492-2.2h0a1.6,1.6,0,0,1,2.185.491h0a1.584,1.584,0,0,1-.491,2.187h0a1.523,1.523,0,0,1-.84.255h0A1.57,1.57,0,0,1,76.419,130.743Zm72.816.429h0a1.571,1.571,0,0,1-.491-2.187h0a1.6,1.6,0,0,1,2.187-.492h0a1.607,1.607,0,0,1,.491,2.188h0a1.606,1.606,0,0,1-1.347.744h0A1.491,1.491,0,0,1,149.235,131.172ZM83.74,126.465a1.583,1.583,0,0,1,.761-2.107h0a1.591,1.591,0,0,1,2.107.759h0a1.588,1.588,0,0,1-.759,2.108h0a1.48,1.48,0,0,1-.667.159h0A1.575,1.575,0,0,1,83.74,126.465Zm58.237.729a1.58,1.58,0,0,1-.761-2.108h0a1.581,1.581,0,0,1,2.108-.761h0a1.588,1.588,0,0,1,.759,2.108h0a1.582,1.582,0,0,1-1.442.9h0A1.686,1.686,0,0,1,141.978,127.194Zm-50.441-4.025a1.613,1.613,0,0,1,1.014-2.014h.016a1.59,1.59,0,0,1,2,1.031h0a1.589,1.589,0,0,1-1.03,2h0a1.677,1.677,0,0,1-.491.079h0A1.6,1.6,0,0,1,91.537,123.169Zm42.739.983h0a1.6,1.6,0,0,1-1.014-2h0a1.6,1.6,0,0,1,2-1.03h0v.017h0a1.57,1.57,0,0,1,1.014,1.981h0a1.587,1.587,0,0,1-1.5,1.108h0A1.784,1.784,0,0,1,134.276,124.152Zm-34.578-3.3A1.594,1.594,0,0,1,100.967,119h0a1.6,1.6,0,0,1,1.854,1.267h0a1.6,1.6,0,0,1-1.267,1.854h0a1.644,1.644,0,0,1-.3.031h0A1.59,1.59,0,0,1,99.7,120.855Zm26.56,1.251a1.592,1.592,0,0,1-1.267-1.854h0a1.585,1.585,0,0,1,1.854-1.269h0a1.6,1.6,0,0,1,1.267,1.855h0a1.577,1.577,0,0,1-1.553,1.283h0A1.823,1.823,0,0,1,126.258,122.107Zm-18.177-2.5a1.585,1.585,0,0,1,1.49-1.681h0a1.591,1.591,0,0,1,1.679,1.49h0a1.6,1.6,0,0,1-1.489,1.679h-.1A1.583,1.583,0,0,1,108.081,119.6Zm9.967,1.473a1.571,1.571,0,0,1-1.489-1.679h0a1.569,1.569,0,0,1,1.679-1.475h0a1.561,1.561,0,0,1,1.475,1.681h0a1.564,1.564,0,0,1-1.569,1.473h-.1Z" transform="translate(-45.381 -117.919)"/></g><g transform="translate(135.031 67.382)"><path class="b" d="M141.006,168.2a1.563,1.563,0,0,1-.6-.127,1.448,1.448,0,0,1-.522-.348,1.605,1.605,0,0,1-.461-1.11,1.643,1.643,0,0,1,.461-1.126,1.928,1.928,0,0,1,.522-.349,1.583,1.583,0,0,1,2.187,1.475,1.6,1.6,0,0,1-.459,1.11,1.325,1.325,0,0,1-.522.348A1.564,1.564,0,0,1,141.006,168.2Z" transform="translate(-139.421 -165.031)"/></g></g><g transform="translate(19.984 19.845)"><g transform="translate(0 47.537)"><path class="b" d="M60.568,168.2a2.168,2.168,0,0,1-.318-.031,1.852,1.852,0,0,1-.285-.1,1.555,1.555,0,0,1-.285-.142,3.059,3.059,0,0,1-.239-.206.707.707,0,0,1-.189-.239,1.429,1.429,0,0,1-.159-.269,1.577,1.577,0,0,1-.08-.3.972.972,0,0,1-.031-.3,1.574,1.574,0,0,1,.459-1.126,1.553,1.553,0,0,1,2.234,0,1.381,1.381,0,0,1,.349.508,1.7,1.7,0,0,1,.127.618,1.625,1.625,0,0,1-1.585,1.585Z" transform="translate(-58.983 -165.031)"/></g><g transform="translate(0.707)"><path class="b" d="M60.8,174.215a1.594,1.594,0,0,1-1.3-1.838h0a1.592,1.592,0,0,1,1.838-1.284h0a1.566,1.566,0,0,1,1.283,1.839h0a1.566,1.566,0,0,1-1.553,1.3h0A1.422,1.422,0,0,1,60.8,174.215Zm92.34-1.362a1.6,1.6,0,0,1,1.283-1.839h0a1.588,1.588,0,0,1,1.838,1.284h0a1.576,1.576,0,0,1-1.283,1.838h0a1.785,1.785,0,0,1-.27.031h0A1.592,1.592,0,0,1,153.139,172.854Zm-90.47-6.719a1.581,1.581,0,0,1-.951-2.028h0a1.592,1.592,0,0,1,2.028-.951h0A1.6,1.6,0,0,1,64.7,165.2h0a1.6,1.6,0,0,1-1.49,1.046h0A1.322,1.322,0,0,1,62.669,166.135Zm88.393-1.014h0a1.589,1.589,0,0,1,.951-2.03h0a1.582,1.582,0,0,1,2.028.951h0a1.581,1.581,0,0,1-.951,2.028h0a1.589,1.589,0,0,1-.539.1h0A1.58,1.58,0,0,1,151.062,165.12Zm-85.145-6.609a1.561,1.561,0,0,1-.571-2.155h0a1.58,1.58,0,0,1,2.155-.586h0a1.6,1.6,0,0,1,.586,2.171h0a1.613,1.613,0,0,1-1.379.792h0A1.615,1.615,0,0,1,65.917,158.511Zm81.754-.634a1.561,1.561,0,0,1,.571-2.155h0a1.582,1.582,0,0,1,2.171.571h0a1.583,1.583,0,0,1-.586,2.155h0a1.432,1.432,0,0,1-.792.222h0A1.568,1.568,0,0,1,147.671,157.878ZM70.45,151.57a1.564,1.564,0,0,1-.192-2.218h0a1.569,1.569,0,0,1,2.22-.206h0a1.586,1.586,0,0,1,.206,2.234h0a1.571,1.571,0,0,1-1.22.572h0A1.548,1.548,0,0,1,70.45,151.57Zm72.61-.237a1.582,1.582,0,0,1,.19-2.234h0a1.585,1.585,0,0,1,2.234.19h0a1.6,1.6,0,0,1-.19,2.234h0a1.569,1.569,0,0,1-1.014.365h0A1.6,1.6,0,0,1,143.06,151.333Zm-66.953-5.815a1.566,1.566,0,0,1,.206-2.218H76.3a1.581,1.581,0,0,1,2.234.19h0a1.585,1.585,0,0,1-.19,2.234h0a1.657,1.657,0,0,1-1.013.365h0A1.571,1.571,0,0,1,76.106,145.517Zm61.279.159a1.585,1.585,0,0,1-.19-2.234h0a1.582,1.582,0,0,1,2.235-.19h0a1.58,1.58,0,0,1,.189,2.234h0a1.6,1.6,0,0,1-1.22.555h0A1.572,1.572,0,0,1,137.386,145.676ZM82.73,140.541a1.6,1.6,0,0,1,.572-2.171h0a1.6,1.6,0,0,1,2.17.586h0a1.6,1.6,0,0,1-.571,2.171h0a1.592,1.592,0,0,1-.792.206h0A1.579,1.579,0,0,1,82.73,140.541Zm48.1.539a1.563,1.563,0,0,1-.569-2.155h0a1.564,1.564,0,0,1,2.154-.586h0a1.586,1.586,0,0,1,.586,2.155h0a1.578,1.578,0,0,1-1.379.808h0A1.62,1.62,0,0,1,130.825,141.081Zm-40.709-4.3a1.573,1.573,0,0,1,.951-2.028h0a1.557,1.557,0,0,1,2.027.935h0a1.58,1.58,0,0,1-.95,2.028h0a1.623,1.623,0,0,1-.539.094h0A1.588,1.588,0,0,1,90.116,136.786Zm33.452.92a1.581,1.581,0,0,1-.951-2.028h0a1.581,1.581,0,0,1,2.028-.951h0a1.58,1.58,0,0,1,.951,2.028h0a1.58,1.58,0,0,1-1.489,1.046h0A1.617,1.617,0,0,1,123.568,137.705Zm-25.53-3.328a1.588,1.588,0,0,1,1.3-1.838h0a1.557,1.557,0,0,1,1.822,1.283h0a1.58,1.58,0,0,1-1.283,1.838h0a1.429,1.429,0,0,1-.27.017h0A1.6,1.6,0,0,1,98.038,134.377Zm17.8,1.269a1.587,1.587,0,0,1-1.284-1.839h0a1.568,1.568,0,0,1,1.822-1.283h0a1.585,1.585,0,0,1,1.3,1.838h0a1.6,1.6,0,0,1-1.569,1.3h0A1.8,1.8,0,0,1,115.835,135.646Zm-7.987-.682a1.59,1.59,0,0,1-1.585-1.585h0a1.59,1.59,0,0,1,1.585-1.585h0a1.593,1.593,0,0,1,1.6,1.585h0a1.59,1.59,0,0,1-1.585,1.585h-.016Z" transform="translate(-59.478 -131.794)"/></g><g transform="translate(95.081 47.537)"><path class="b" d="M127.046,168.2a1.705,1.705,0,0,1-.618-.127,1.4,1.4,0,0,1-.508-.348,1.62,1.62,0,0,1-.348-.508,1.547,1.547,0,0,1-.112-.6,1.1,1.1,0,0,1,.031-.318,2.122,2.122,0,0,1,.08-.3,2.219,2.219,0,0,1,.159-.27,1.292,1.292,0,0,1,.189-.237,1.57,1.57,0,0,1,2.251,0l.189.237a2.257,2.257,0,0,1,.144.27c.031.094.063.206.094.3a2.19,2.19,0,0,1,.031.318,1.587,1.587,0,0,1-.126.6,1.579,1.579,0,0,1-1.459.983Z" transform="translate(-125.461 -165.031)"/></g></g><g transform="translate(39.459 39.604)"><g transform="translate(0 27.777)"><path class="b" d="M74.185,168.2a1.594,1.594,0,0,1-1.585-1.585,1.584,1.584,0,0,1,2.187-1.475,1.7,1.7,0,0,1,.522.349,1.637,1.637,0,0,1,.461,1.126,1.77,1.77,0,0,1-.033.3.93.93,0,0,1-.094.3.855.855,0,0,1-.143.269,1.5,1.5,0,0,1-.19.239A1.611,1.611,0,0,1,74.185,168.2Z" transform="translate(-72.6 -165.031)"/></g><g transform="translate(1.136)"><path class="b" d="M74.524,168.573a1.567,1.567,0,0,1-1.061-1.965h0a1.587,1.587,0,0,1,1.965-1.077h0a1.585,1.585,0,0,1,1.061,1.965h0a1.56,1.56,0,0,1-1.522,1.14h0A1.514,1.514,0,0,1,74.524,168.573Zm52.787-1.094h0a1.564,1.564,0,0,1,1.061-1.964h0a1.564,1.564,0,0,1,1.965,1.061h0a1.567,1.567,0,0,1-1.063,1.965h0a1.544,1.544,0,0,1-.443.079h0A1.591,1.591,0,0,1,127.31,167.479Zm-49.87-6.353a1.574,1.574,0,0,1-.475-2.188h0a1.573,1.573,0,0,1,2.185-.475h0a1.573,1.573,0,0,1,.476,2.187h0a1.564,1.564,0,0,1-1.332.729h0A1.552,1.552,0,0,1,77.44,161.126Zm46.732-.492a1.583,1.583,0,0,1,.459-2.187h0a1.6,1.6,0,0,1,2.2.459h-.017a1.583,1.583,0,0,1-.459,2.2h0a1.577,1.577,0,0,1-.855.255h0A1.565,1.565,0,0,1,124.172,160.634ZM82.337,154.8a1.569,1.569,0,0,1,.157-2.235h0a1.572,1.572,0,0,1,2.235.159h0a1.6,1.6,0,0,1-.159,2.234h0a1.631,1.631,0,0,1-1.046.38h0A1.526,1.526,0,0,1,82.337,154.8Zm36.891.142h0a1.569,1.569,0,0,1-.159-2.234h0a1.584,1.584,0,0,1,2.235-.159h0a1.6,1.6,0,0,1,.157,2.236h0a1.576,1.576,0,0,1-1.2.538h0A1.587,1.587,0,0,1,119.228,154.944ZM88.8,150.1A1.577,1.577,0,0,1,89.579,148h0a1.6,1.6,0,0,1,2.108.778h0a1.589,1.589,0,0,1-.792,2.107h0a1.561,1.561,0,0,1-.651.143h0A1.571,1.571,0,0,1,88.8,150.1Zm24.087.777h0a1.582,1.582,0,0,1-.792-2.091h0a1.587,1.587,0,0,1,2.108-.792h0a1.586,1.586,0,0,1,.775,2.107h0a1.579,1.579,0,0,1-1.44.918h0A1.56,1.56,0,0,1,112.889,150.872Zm-16.56-3.456a1.577,1.577,0,0,1,1.347-1.791h0a1.588,1.588,0,0,1,1.791,1.347h0a1.587,1.587,0,0,1-1.347,1.791h0c-.08,0-.143.017-.222.017h0A1.587,1.587,0,0,1,96.329,147.417Zm9.334,1.347h0a1.593,1.593,0,0,1-1.347-1.806h0a1.571,1.571,0,0,1,1.791-1.332h0v-.014h0a1.592,1.592,0,0,1,1.347,1.8h0a1.587,1.587,0,0,1-1.569,1.364h0C105.806,148.781,105.726,148.764,105.663,148.764Z" transform="translate(-73.394 -145.609)"/></g><g transform="translate(56.129 27.8)"><path class="b" d="M113.429,168.2a1.642,1.642,0,0,1-1.126-.459,1.706,1.706,0,0,1-.206-.255c-.047-.079-.094-.174-.142-.269a1.579,1.579,0,0,1-.079-.3.933.933,0,0,1-.033-.3,1.6,1.6,0,0,1,.459-1.126,1.64,1.64,0,0,1,2.235,0,1.617,1.617,0,0,1,.475,1.126,1.928,1.928,0,0,1-.031.3c-.031.112-.063.206-.094.3-.049.094-.1.19-.143.269a1.7,1.7,0,0,1-.206.255,1.743,1.743,0,0,1-.237.19,1.466,1.466,0,0,1-.27.142,1.061,1.061,0,0,1-.3.1A1.981,1.981,0,0,1,113.429,168.2Z" transform="translate(-111.844 -165.046)"/></g></g><g transform="translate(95.859 75.301)"><g transform="translate(135.031)"><path class="b" d="M208.028,173.745a1.584,1.584,0,0,1-1.126-.475.711.711,0,0,1-.19-.239,1.432,1.432,0,0,1-.159-.269,1.821,1.821,0,0,1-.08-.3,1.021,1.021,0,0,1-.03-.3,1.139,1.139,0,0,1,.03-.318c.017-.094.049-.19.08-.3a2.22,2.22,0,0,1,.159-.27,1.26,1.26,0,0,1,.19-.237,1.555,1.555,0,0,1,2.234,0,2.548,2.548,0,0,1,.206.237,2.245,2.245,0,0,1,.143.27c.047.11.063.206.094.3a1.994,1.994,0,0,1,.033.318,1.789,1.789,0,0,1-.033.3,1.693,1.693,0,0,1-.094.3,1.456,1.456,0,0,1-.143.269.994.994,0,0,1-.206.239A1.552,1.552,0,0,1,208.028,173.745Z" transform="translate(-206.443 -170.567)"/></g><g transform="translate(0.542 8.473)"><path class="b" d="M176.682,238.577a1.579,1.579,0,0,1-1.473-1.681h0a1.578,1.578,0,0,1,1.663-1.489h0a1.591,1.591,0,0,1,1.49,1.679h0a1.583,1.583,0,0,1-1.585,1.49h-.1Zm6.988-1.49a1.594,1.594,0,0,1,1.49-1.679h0a1.577,1.577,0,0,1,1.679,1.473h0a1.593,1.593,0,0,1-1.489,1.681h0c-.031,0-.063.016-.1.016h0A1.6,1.6,0,0,1,183.67,237.086Zm-15.593.412v.016h0a1.6,1.6,0,0,1-1.267-1.854h0a1.594,1.594,0,0,1,1.854-1.269h0a1.577,1.577,0,0,1,1.267,1.855h0a1.575,1.575,0,0,1-1.552,1.283h0A2.191,2.191,0,0,1,168.078,237.5Zm24.024-1.267a1.59,1.59,0,0,1,1.267-1.854h0a1.574,1.574,0,0,1,1.854,1.251h0a1.584,1.584,0,0,1-1.267,1.854h.016a2.167,2.167,0,0,1-.3.031h0A1.608,1.608,0,0,1,192.1,236.231Zm-32.423-.871a1.584,1.584,0,0,1-1.03-2h0a1.594,1.594,0,0,1,2-1.014h0a1.575,1.575,0,0,1,1.014,2h0a1.579,1.579,0,0,1-1.506,1.094h0A1.666,1.666,0,0,1,159.679,235.36Zm40.678-1.047a1.585,1.585,0,0,1,1.031-2h0a1.587,1.587,0,0,1,2,1.014h0a1.591,1.591,0,0,1-1.031,2h0a1.667,1.667,0,0,1-.475.079h0A1.6,1.6,0,0,1,200.357,234.313Zm-48.76-2.14a1.593,1.593,0,0,1-.761-2.107h0a1.581,1.581,0,0,1,2.108-.761h0a1.575,1.575,0,0,1,.761,2.108h0a1.582,1.582,0,0,1-1.426.9h0A1.688,1.688,0,0,1,151.6,232.173Zm56.715-.807a1.6,1.6,0,0,1,.761-2.108h0a1.589,1.589,0,0,1,2.108.761h0a1.573,1.573,0,0,1-.761,2.107h0a1.412,1.412,0,0,1-.667.159h0A1.6,1.6,0,0,1,208.312,231.367Zm-64.322-3.377a1.6,1.6,0,0,1-.491-2.187h0a1.591,1.591,0,0,1,2.187-.491h0a1.576,1.576,0,0,1,.491,2.187h0a1.58,1.58,0,0,1-1.33.745h0A1.54,1.54,0,0,1,143.991,227.99Zm71.833-.538a1.59,1.59,0,0,1,.492-2.187h0a1.573,1.573,0,0,1,2.187.491h0a1.578,1.578,0,0,1-.492,2.187h0a1.623,1.623,0,0,1-.84.255h0A1.611,1.611,0,0,1,215.824,227.452Zm-78.853-4.564a1.579,1.579,0,0,1-.206-2.218h0a1.584,1.584,0,0,1,2.234-.222h0a1.6,1.6,0,0,1,.206,2.234h0a1.57,1.57,0,0,1-1.22.571h0A1.567,1.567,0,0,1,136.971,222.888Zm85.826-.255A1.57,1.57,0,0,1,223,220.4h0a1.587,1.587,0,0,1,2.236.206h0a1.6,1.6,0,0,1-.206,2.234h0a1.653,1.653,0,0,1-1.016.365h0A1.565,1.565,0,0,1,222.8,222.634Zm-92.149-5.672a1.579,1.579,0,0,1,.063-2.234h0a1.6,1.6,0,0,1,2.251.063h0a1.579,1.579,0,0,1-.064,2.234h0a1.608,1.608,0,0,1-1.093.428h0A1.574,1.574,0,0,1,130.648,216.961Zm98.456.016a1.6,1.6,0,0,1-.064-2.25h0a1.577,1.577,0,0,1,2.235-.063h0a1.577,1.577,0,0,1,.063,2.233h0a1.551,1.551,0,0,1-1.14.508h0A1.592,1.592,0,0,1,229.1,216.977Zm-103.987-6.688a1.58,1.58,0,0,1,.349-2.218h0a1.588,1.588,0,0,1,2.2.349h0a1.578,1.578,0,0,1-.349,2.218h0a1.519,1.519,0,0,1-.918.3h0A1.566,1.566,0,0,1,125.117,210.289Zm109.549.286a1.581,1.581,0,0,1-.349-2.218h0a1.561,1.561,0,0,1,2.2-.349h0a1.561,1.561,0,0,1,.348,2.2h0a1.579,1.579,0,0,1-1.283.665h0A1.632,1.632,0,0,1,234.666,210.575Zm-114.208-7.59h0a1.575,1.575,0,0,1,.618-2.155h0a1.589,1.589,0,0,1,2.155.618h0a1.6,1.6,0,0,1-.634,2.155h0a1.638,1.638,0,0,1-.761.19h0A1.56,1.56,0,0,1,120.459,202.985Zm118.915.538a1.585,1.585,0,0,1-.618-2.154h0a1.584,1.584,0,0,1,2.154-.619h0a1.583,1.583,0,0,1,.619,2.157h0a1.569,1.569,0,0,1-1.4.807h0A1.681,1.681,0,0,1,239.373,203.523ZM116.75,195.14a1.575,1.575,0,0,1,.887-2.06h0a1.6,1.6,0,0,1,2.061.887h0a1.592,1.592,0,0,1-.888,2.061h0a1.6,1.6,0,0,1-.586.11h0A1.551,1.551,0,0,1,116.75,195.14Zm126.425.792a1.565,1.565,0,0,1-.887-2.044v-.016a1.592,1.592,0,0,1,2.06-.888h0a1.6,1.6,0,0,1,.888,2.061h0a1.608,1.608,0,0,1-1.475,1h0A1.47,1.47,0,0,1,243.175,195.932ZM114.057,186.9a1.584,1.584,0,0,1,1.14-1.934h0a1.574,1.574,0,0,1,1.918,1.141h0a1.58,1.58,0,0,1-1.126,1.932h0a1.73,1.73,0,0,1-.4.049h0A1.575,1.575,0,0,1,114.057,186.9Zm131.924,1.03a1.574,1.574,0,0,1-1.141-1.918h0a1.6,1.6,0,0,1,1.934-1.156h0a1.609,1.609,0,0,1,1.14,1.932h0a1.6,1.6,0,0,1-1.536,1.189h0A1.7,1.7,0,0,1,245.981,187.93Zm-133.556-9.556a1.581,1.581,0,0,1,1.377-1.759h0a1.583,1.583,0,0,1,1.759,1.363h0a1.576,1.576,0,0,1-1.363,1.775h0a.975.975,0,0,1-.206.016h0A1.587,1.587,0,0,1,112.425,178.374Zm135.331,1.267a1.58,1.58,0,0,1-1.379-1.758h0a1.588,1.588,0,0,1,1.775-1.379h0a1.581,1.581,0,0,1,1.379,1.758h0a1.6,1.6,0,0,1-1.569,1.395h0A.9.9,0,0,1,247.756,179.641Z" transform="translate(-112.412 -176.492)"/></g><g transform="translate(0 0.004)"><path class="b" d="M113.618,173.744a1.612,1.612,0,0,1-1.126-.475,1.641,1.641,0,0,1-.459-1.11,1.734,1.734,0,0,1,.126-.618,1.581,1.581,0,0,1,.333-.508,1.625,1.625,0,0,1,1.728-.349,1.832,1.832,0,0,1,.522.349,1.581,1.581,0,0,1,.333.508,1.452,1.452,0,0,1,.127.618,1.339,1.339,0,0,1-.127.6,1.581,1.581,0,0,1-.333.508,1.335,1.335,0,0,1-.522.348A1.567,1.567,0,0,1,113.618,173.744Z" transform="translate(-112.033 -170.57)"/></g></g><g transform="translate(115.635 75.308)"><g transform="translate(95.477)"><path class="b" d="M194.2,173.743a1.562,1.562,0,0,1-.6-.127,1.556,1.556,0,0,1-.857-2.06,1.493,1.493,0,0,1,.333-.523,2.386,2.386,0,0,1,.523-.349,1.651,1.651,0,0,1,.918-.079,1.879,1.879,0,0,1,.285.079,2.724,2.724,0,0,1,.287.159,1.312,1.312,0,0,1,.236.19,1.454,1.454,0,0,1,.333.523,1.563,1.563,0,0,1,.127.6,1.6,1.6,0,0,1-.461,1.11,3.04,3.04,0,0,1-.236.206,1.191,1.191,0,0,1-.287.142.955.955,0,0,1-.285.1A2.169,2.169,0,0,1,194.2,173.743Z" transform="translate(-192.615 -170.573)"/></g><g transform="translate(0.734 8.294)"><path class="b" d="M173.417,217.393A1.579,1.579,0,0,1,175,215.809h0a1.589,1.589,0,0,1,1.585,1.585h0A1.59,1.59,0,0,1,175,218.978h0A1.57,1.57,0,0,1,173.417,217.393Zm-6.973.855a1.586,1.586,0,0,1-1.3-1.838h0a1.583,1.583,0,0,1,1.838-1.284h0a1.576,1.576,0,0,1,1.283,1.839h0a1.591,1.591,0,0,1-1.553,1.314h0A1.413,1.413,0,0,1,166.444,218.249Zm15.277-1.3A1.59,1.59,0,0,1,183,215.112h0a1.6,1.6,0,0,1,1.839,1.283h0a1.577,1.577,0,0,1-1.283,1.838h0a1.766,1.766,0,0,1-.287.031h0A1.577,1.577,0,0,1,181.721,216.949Zm-23.581-.918a1.575,1.575,0,0,1-.951-2.028h0a1.59,1.59,0,0,1,2.03-.951h0a1.6,1.6,0,0,1,.95,2.028h0a1.579,1.579,0,0,1-1.489,1.046h0A1.562,1.562,0,0,1,158.14,216.03Zm31.695-.967a1.572,1.572,0,0,1,.935-2.028h0a1.574,1.574,0,0,1,2.027.951h0a1.572,1.572,0,0,1-.934,2.028h0a1.72,1.72,0,0,1-.555.094h0A1.56,1.56,0,0,1,189.835,215.063ZM150.344,212.4a1.579,1.579,0,0,1-.586-2.155h0a1.588,1.588,0,0,1,2.171-.586h0a1.582,1.582,0,0,1,.571,2.171h0a1.568,1.568,0,0,1-1.363.792h0A1.481,1.481,0,0,1,150.344,212.4Zm47.128-.6a1.6,1.6,0,0,1,.586-2.171h0a1.581,1.581,0,0,1,2.171.571h0a1.6,1.6,0,0,1-.586,2.171h0a1.615,1.615,0,0,1-.792.206h0A1.6,1.6,0,0,1,197.472,211.8Zm-54.181-4.311h.017a1.585,1.585,0,0,1-.206-2.234h0a1.586,1.586,0,0,1,2.234-.206h0a1.583,1.583,0,0,1,.19,2.234h0a1.539,1.539,0,0,1-1.2.571h0A1.675,1.675,0,0,1,143.291,207.489Zm61.154-.253a1.586,1.586,0,0,1,.19-2.236h0a1.587,1.587,0,0,1,2.236.207h0a1.566,1.566,0,0,1-.19,2.218h0a1.59,1.59,0,0,1-1.016.379h0A1.569,1.569,0,0,1,204.445,207.236ZM137.223,201.4h0a1.552,1.552,0,0,1,.19-2.22h0a1.57,1.57,0,0,1,2.234.19h0a1.587,1.587,0,0,1-.206,2.236h0a1.591,1.591,0,0,1-1.014.363h0A1.565,1.565,0,0,1,137.223,201.4Zm73.292.142a1.6,1.6,0,0,1-.19-2.234h0a1.6,1.6,0,0,1,2.234-.19h0a1.586,1.586,0,0,1,.19,2.234h0a1.561,1.561,0,0,1-1.206.571h0A1.586,1.586,0,0,1,210.515,201.546Zm-78.237-7.163a1.583,1.583,0,0,1,.571-2.171h0a1.6,1.6,0,0,1,2.171.586h0a1.583,1.583,0,0,1-.586,2.155h0a1.571,1.571,0,0,1-.792.222h0A1.571,1.571,0,0,1,132.278,194.383Zm83.244.508a1.582,1.582,0,0,1-.586-2.155h0a1.6,1.6,0,0,1,2.171-.586h0a1.6,1.6,0,0,1,.586,2.171h0a1.617,1.617,0,0,1-1.379.792h0A1.615,1.615,0,0,1,215.522,194.891ZM128.634,186.6a1.572,1.572,0,0,1,.935-2.028h0a1.587,1.587,0,0,1,2.028.935h0a1.591,1.591,0,0,1-.935,2.044h0a1.714,1.714,0,0,1-.555.094h0A1.56,1.56,0,0,1,128.634,186.6Zm90.66.872a1.582,1.582,0,0,1-.951-2.03h0a1.582,1.582,0,0,1,2.028-.951h0a1.587,1.587,0,0,1,.951,2.03h0a1.58,1.58,0,0,1-1.489,1.046h0A1.61,1.61,0,0,1,219.294,187.475ZM126.4,178.3h0a1.557,1.557,0,0,1,1.283-1.822h0a1.58,1.58,0,0,1,1.838,1.283h-.016a1.558,1.558,0,0,1-1.283,1.824h0a1.4,1.4,0,0,1-.269.031h0A1.566,1.566,0,0,1,126.4,178.3Zm95.3,1.221a1.6,1.6,0,0,1-1.283-1.839h0a1.582,1.582,0,0,1,1.838-1.283h0a1.568,1.568,0,0,1,1.283,1.822h0a1.565,1.565,0,0,1-1.552,1.314h0A1.916,1.916,0,0,1,221.7,179.52Z" transform="translate(-126.373 -176.372)"/></g><path class="b" d="M127.445,173.743a2.169,2.169,0,0,1-.318-.031,2.014,2.014,0,0,1-.285-.1,2.4,2.4,0,0,1-.285-.142l-.239-.192a1.665,1.665,0,0,1-.459-1.124,1.642,1.642,0,0,1,.459-1.126,1.325,1.325,0,0,1,.239-.19,2.836,2.836,0,0,1,.285-.159,1.925,1.925,0,0,1,.285-.079,1.655,1.655,0,0,1,.92.079,1.935,1.935,0,0,1,.523.349,1.642,1.642,0,0,1,.459,1.126,1.665,1.665,0,0,1-.459,1.124,1.815,1.815,0,0,1-.523.333A1.562,1.562,0,0,1,127.445,173.743Z" transform="translate(-125.86 -170.573)"/></g><g transform="translate(191.176 18.26)"><g transform="translate(0 47.539)"><path class="b" d="M180.261,167.095a2.111,2.111,0,0,1-.315-.031,2,2,0,0,1-.3-.1,1.467,1.467,0,0,1-.27-.142,1.562,1.562,0,0,1-.237-.206,1.587,1.587,0,0,1,0-2.235.932.932,0,0,1,.237-.19,1.615,1.615,0,0,1,.27-.159,2.284,2.284,0,0,1,.3-.079,1.571,1.571,0,0,1,1.425.428,3,3,0,0,1,.206.237,2.48,2.48,0,0,1,.144.27c.046.112.062.206.094.3a2.41,2.41,0,0,1,.03.318,1.623,1.623,0,0,1-1.585,1.585Z" transform="translate(-178.676 -163.924)"/></g><g transform="translate(0.708)"><path class="b" d="M180.477,173.107a1.6,1.6,0,0,1-1.284-1.838h0a1.594,1.594,0,0,1,1.838-1.284h0a1.577,1.577,0,0,1,1.284,1.839h0a1.566,1.566,0,0,1-1.553,1.3h0A1.583,1.583,0,0,1,180.477,173.107Zm92.356-1.362a1.59,1.59,0,0,1,1.283-1.839h0a1.6,1.6,0,0,1,1.838,1.284h0v.016h0a1.57,1.57,0,0,1-1.284,1.822h0a1.747,1.747,0,0,1-.269.031h0A1.58,1.58,0,0,1,272.833,171.746Zm-90.487-6.719a1.588,1.588,0,0,1-.935-2.028h0a1.587,1.587,0,0,1,2.03-.951h0a1.6,1.6,0,0,1,.95,2.044h0a1.586,1.586,0,0,1-1.489,1.03h0A1.713,1.713,0,0,1,182.346,165.027Zm88.41-1a1.593,1.593,0,0,1,.934-2.045h0a1.6,1.6,0,0,1,2.044.951h0a1.579,1.579,0,0,1-.95,2.028h0a1.588,1.588,0,0,1-.538.1h0A1.588,1.588,0,0,1,270.756,164.028ZM185.612,157.4a1.576,1.576,0,0,1-.586-2.154h0a1.6,1.6,0,0,1,2.171-.588h0a1.583,1.583,0,0,1,.569,2.171h0a1.565,1.565,0,0,1-1.362.792h0A1.428,1.428,0,0,1,185.612,157.4Zm81.738-.634h.016a1.56,1.56,0,0,1,.569-2.155h0a1.563,1.563,0,0,1,2.155.571h.016a1.6,1.6,0,0,1-.586,2.171h0a1.588,1.588,0,0,1-.792.206h0A1.611,1.611,0,0,1,267.349,156.77Zm-77.207-6.307a1.567,1.567,0,0,1-.206-2.218h0a1.589,1.589,0,0,1,2.236-.206h0a1.586,1.586,0,0,1,.206,2.234h-.016a1.538,1.538,0,0,1-1.2.572h0A1.525,1.525,0,0,1,190.143,150.462Zm72.611-.237a1.582,1.582,0,0,1,.19-2.234h0a1.585,1.585,0,0,1,2.234.19h0a1.6,1.6,0,0,1-.19,2.234h0a1.6,1.6,0,0,1-1.031.38h0A1.589,1.589,0,0,1,262.754,150.225ZM195.8,144.409a1.565,1.565,0,0,1,.19-2.218h0a1.569,1.569,0,0,1,2.234.19h0a1.6,1.6,0,0,1-.19,2.234h0a1.671,1.671,0,0,1-1.03.365h0A1.562,1.562,0,0,1,195.8,144.409Zm61.279.159h0a1.586,1.586,0,0,1-.206-2.234h0a1.583,1.583,0,0,1,2.234-.19h0a1.582,1.582,0,0,1,.206,2.234h0a1.6,1.6,0,0,1-1.22.555h0A1.54,1.54,0,0,1,257.08,144.568Zm-54.656-5.135a1.583,1.583,0,0,1,.571-2.171h0a1.6,1.6,0,0,1,2.171.586h0A1.58,1.58,0,0,1,204.58,140h0a1.432,1.432,0,0,1-.792.222h0A1.574,1.574,0,0,1,202.424,139.433Zm48.1.539h0a1.583,1.583,0,0,1-.586-2.155h0a1.588,1.588,0,0,1,2.171-.586h0a1.6,1.6,0,0,1,.571,2.171h0a1.572,1.572,0,0,1-1.363.792h0A1.619,1.619,0,0,1,250.52,139.973Zm-40.711-4.3a1.58,1.58,0,0,1,.935-2.028h0v-.016h0a1.6,1.6,0,0,1,2.044.951h0a1.581,1.581,0,0,1-.95,2.028h0a1.311,1.311,0,0,1-.539.094h0A1.591,1.591,0,0,1,209.809,135.678Zm33.454.92a1.581,1.581,0,0,1-.953-2.028h0a1.582,1.582,0,0,1,2.03-.951h0a1.58,1.58,0,0,1,.951,2.028h0a1.581,1.581,0,0,1-1.49,1.046h0A1.608,1.608,0,0,1,243.262,136.6Zm-25.53-3.344a1.581,1.581,0,0,1,1.284-1.822h0a1.562,1.562,0,0,1,1.836,1.284h0a1.589,1.589,0,0,1-1.283,1.836h0a1.5,1.5,0,0,1-.269.017h0A1.6,1.6,0,0,1,217.732,133.253Zm17.8,1.284h0a1.567,1.567,0,0,1-1.284-1.839h0a1.569,1.569,0,0,1,1.824-1.283h0a1.563,1.563,0,0,1,1.283,1.838h0a1.566,1.566,0,0,1-1.553,1.3h0A1.683,1.683,0,0,1,235.529,134.538Zm-9.571-2.267a1.59,1.59,0,0,1,1.585-1.585h0a1.579,1.579,0,0,1,1.585,1.585h0a1.58,1.58,0,0,1-1.585,1.585h0A1.59,1.59,0,0,1,225.958,132.271Z" transform="translate(-179.171 -130.686)"/></g><g transform="translate(95.067 47.56)"><path class="b" d="M246.729,167.089a1.623,1.623,0,0,1-1.585-1.585,1.733,1.733,0,0,1,.126-.618,1.381,1.381,0,0,1,.349-.508,1.6,1.6,0,0,1,2.585.508,1.708,1.708,0,0,1,.109.618,1.532,1.532,0,0,1-.459,1.11A1.556,1.556,0,0,1,246.729,167.089Z" transform="translate(-245.144 -163.939)"/></g></g><g transform="translate(210.652 38.02)"><g transform="translate(0 27.8)"><path class="b" d="M193.878,167.089a1.613,1.613,0,0,1-1.124-.475.946.946,0,0,1-.19-.239,1.6,1.6,0,0,1-.159-.269,1.821,1.821,0,0,1-.079-.3.932.932,0,0,1-.033-.3,1.711,1.711,0,0,1,.112-.618,1.6,1.6,0,0,1,.349-.508,1.638,1.638,0,0,1,2.234,0,1.377,1.377,0,0,1,.348.508,1.675,1.675,0,0,1,.127.618,1.623,1.623,0,0,1-1.585,1.585Z" transform="translate(-192.293 -163.939)"/></g><g transform="translate(1.128)"><path class="b" d="M194.221,167.465a1.59,1.59,0,0,1-1.078-1.965h0a1.594,1.594,0,0,1,1.965-1.077h0a1.58,1.58,0,0,1,1.077,1.965h0a1.584,1.584,0,0,1-1.52,1.14h0A1.44,1.44,0,0,1,194.221,167.465Zm52.771-1.094a1.585,1.585,0,0,1,1.077-1.964h0a1.565,1.565,0,0,1,1.965,1.061h0v.016h0a1.58,1.58,0,0,1-1.063,1.965h0a2.3,2.3,0,0,1-.459.063h0A1.6,1.6,0,0,1,246.991,166.371Zm-49.855-6.353a1.573,1.573,0,0,1-.475-2.188h0a1.571,1.571,0,0,1,2.187-.475h0a1.588,1.588,0,0,1,.475,2.187h0a1.564,1.564,0,0,1-1.332.729h0A1.509,1.509,0,0,1,197.137,160.018Zm46.715-.492a1.571,1.571,0,0,1,.476-2.187h0a1.583,1.583,0,0,1,2.187.459h0a1.587,1.587,0,0,1-.475,2.2h0a1.5,1.5,0,0,1-.855.255h0A1.628,1.628,0,0,1,243.852,159.526Zm-41.835-5.831a1.6,1.6,0,0,1,.159-2.236h0a1.589,1.589,0,0,1,2.25.159h0a1.585,1.585,0,0,1-.173,2.235h0a1.6,1.6,0,0,1-1.031.379h0A1.585,1.585,0,0,1,202.017,153.695Zm36.892.142a1.6,1.6,0,0,1-.159-2.234h0a1.585,1.585,0,0,1,2.234-.159h0a1.568,1.568,0,0,1,.159,2.236h0a1.523,1.523,0,0,1-1.189.538h0A1.628,1.628,0,0,1,238.909,153.836Zm-30.41-4.849a1.55,1.55,0,0,1,.777-2.092h0a1.577,1.577,0,0,1,2.091.778h0a1.593,1.593,0,0,1-.775,2.107h0a1.7,1.7,0,0,1-.665.143h0A1.55,1.55,0,0,1,208.5,148.988Zm24.087.777a1.569,1.569,0,0,1-.792-2.091h0a1.582,1.582,0,0,1,2.108-.792h0a1.588,1.588,0,0,1,.775,2.107h0a1.6,1.6,0,0,1-1.44.918h0A1.56,1.56,0,0,1,232.586,149.764Zm-16.56-3.456a1.577,1.577,0,0,1,1.346-1.791h0a1.587,1.587,0,0,1,1.791,1.347h0a1.585,1.585,0,0,1-1.346,1.791h0c-.08,0-.159.017-.222.017h0A1.587,1.587,0,0,1,216.026,146.309Zm9.332,1.347a1.591,1.591,0,0,1-1.346-1.806h0a1.571,1.571,0,0,1,1.791-1.332h0a1.591,1.591,0,0,1,1.346,1.791h0a1.6,1.6,0,0,1-1.568,1.364h0C225.5,147.673,225.423,147.656,225.359,147.656Z" transform="translate(-193.082 -144.501)"/></g><g transform="translate(56.115 27.8)"><path class="b" d="M233.112,167.089a1.594,1.594,0,0,1-1.585-1.585,1.642,1.642,0,0,1,.459-1.126,1.658,1.658,0,0,1,2.25,0,1.569,1.569,0,0,1,.461,1.126,1.533,1.533,0,0,1-.461,1.11A1.583,1.583,0,0,1,233.112,167.089Z" transform="translate(-231.527 -163.939)"/></g></g><g transform="translate(286.829 73.743)"><g transform="translate(95.477)"><path class="b" d="M313.894,172.629a1.594,1.594,0,0,1-1.585-1.585,1.613,1.613,0,0,1,.459-1.126,1.585,1.585,0,0,1,2.71,1.126,1.6,1.6,0,0,1-1.585,1.585Z" transform="translate(-312.309 -169.479)"/></g><g transform="translate(0.722 8.275)"><path class="b" d="M293.1,216.285a1.589,1.589,0,0,1,1.585-1.585h0a1.6,1.6,0,0,1,1.6,1.585h0a1.594,1.594,0,0,1-1.6,1.585h0A1.579,1.579,0,0,1,293.1,216.285Zm-6.971.855h.016a1.58,1.58,0,0,1-1.3-1.822h0a1.578,1.578,0,0,1,1.838-1.3h0a1.576,1.576,0,0,1,1.284,1.839h0a1.592,1.592,0,0,1-1.553,1.316h0A1.755,1.755,0,0,1,286.126,217.141Zm15.291-1.3A1.592,1.592,0,0,1,302.7,214h0a1.605,1.605,0,0,1,1.839,1.283h0a1.589,1.589,0,0,1-1.284,1.838h0a1.749,1.749,0,0,1-.285.031h0A1.6,1.6,0,0,1,301.417,215.841Zm-23.6-.918a1.585,1.585,0,0,1-.95-2.028h0a1.611,1.611,0,0,1,2.044-.951h0a1.59,1.59,0,0,1,.934,2.044h0a1.572,1.572,0,0,1-1.489,1.03h0A1.7,1.7,0,0,1,277.822,214.922Zm31.693-.967a1.582,1.582,0,0,1,.951-2.028h0a1.581,1.581,0,0,1,2.028.951h0a1.592,1.592,0,0,1-.934,2.028h0a1.714,1.714,0,0,1-.555.094h0A1.583,1.583,0,0,1,309.515,213.955Zm-39.474-2.662h0a1.565,1.565,0,0,1-.586-2.155h0a1.6,1.6,0,0,1,2.171-.586h0a1.6,1.6,0,0,1,.571,2.171h0a1.576,1.576,0,0,1-1.379.792h0A1.422,1.422,0,0,1,270.042,211.294Zm47.128-.6a1.586,1.586,0,0,1,.586-2.171h0a1.565,1.565,0,0,1,2.155.571h0a1.584,1.584,0,0,1-.571,2.171h0a1.631,1.631,0,0,1-.792.222h0A1.6,1.6,0,0,1,317.17,210.692Zm-54.181-4.311a1.584,1.584,0,0,1-.189-2.234h0a1.582,1.582,0,0,1,2.233-.206h0a1.6,1.6,0,0,1,.19,2.234h0a1.565,1.565,0,0,1-1.219.571h0A1.665,1.665,0,0,1,262.989,206.381Zm61.154-.253a1.586,1.586,0,0,1,.189-2.236h0a1.588,1.588,0,0,1,2.235.207h0a1.577,1.577,0,0,1-.19,2.218h0a1.6,1.6,0,0,1-1.03.379h0A1.558,1.558,0,0,1,324.143,206.128ZM256.9,200.312a1.585,1.585,0,0,1,.2-2.235h0a1.552,1.552,0,0,1,2.22.19h0a1.586,1.586,0,0,1-.19,2.236h0a1.591,1.591,0,0,1-1.014.363h0A1.632,1.632,0,0,1,256.9,200.312Zm73.308.126a1.581,1.581,0,0,1-.19-2.234h0a1.594,1.594,0,0,1,2.233-.19h0a1.6,1.6,0,0,1,.19,2.234h0a1.563,1.563,0,0,1-1.219.571h0A1.577,1.577,0,0,1,330.213,200.438Zm-78.252-7.163a1.577,1.577,0,0,1,.586-2.154h0a1.564,1.564,0,0,1,2.155.569h.016a1.583,1.583,0,0,1-.586,2.155h0a1.468,1.468,0,0,1-.792.222h0A1.594,1.594,0,0,1,251.96,193.275Zm83.258.508a1.582,1.582,0,0,1-.586-2.155h0a1.6,1.6,0,0,1,2.171-.586h0a1.581,1.581,0,0,1,.572,2.171h0a1.573,1.573,0,0,1-1.364.792h0A1.468,1.468,0,0,1,335.219,193.783Zm-86.9-8.288h0a1.582,1.582,0,0,1,.953-2.028h0a1.585,1.585,0,0,1,2.027.935h0a1.6,1.6,0,0,1-.934,2.044h0a1.707,1.707,0,0,1-.555.094h0A1.6,1.6,0,0,1,248.315,185.495Zm90.676.872a1.583,1.583,0,0,1-.95-2.03h0a1.582,1.582,0,0,1,2.028-.951h0a1.6,1.6,0,0,1,.951,2.045h0a1.589,1.589,0,0,1-1.489,1.03h0A1.624,1.624,0,0,1,338.99,186.367Zm-92.91-9.175a1.607,1.607,0,0,1,1.284-1.839h0a1.59,1.59,0,0,1,1.839,1.284v.014a1.56,1.56,0,0,1-1.286,1.824h0a1.771,1.771,0,0,1-.269.031h0A1.6,1.6,0,0,1,246.08,177.192Zm95.32,1.22a1.6,1.6,0,0,1-1.283-1.839h0a1.582,1.582,0,0,1,1.836-1.283h0a1.575,1.575,0,0,1,1.284,1.838h0a1.582,1.582,0,0,1-1.569,1.3h0A1.8,1.8,0,0,1,341.4,178.412Z" transform="translate(-246.059 -175.264)"/></g><path class="b" d="M247.139,172.629a1.589,1.589,0,0,1-1.126-.475,1.532,1.532,0,0,1-.459-1.11,1.568,1.568,0,0,1,.459-1.126,1.638,1.638,0,0,1,2.234,0,1.59,1.59,0,0,1,.476,1.126,1.625,1.625,0,0,1-1.585,1.585Z" transform="translate(-245.554 -169.479)"/></g><g transform="translate(135.317 75.305)"><g transform="translate(56.113)"><path class="b" d="M180.439,173.744a1.944,1.944,0,0,1-.3-.031.932.932,0,0,1-.3-.1.882.882,0,0,1-.269-.142,1.061,1.061,0,0,1-.239-.206,1.417,1.417,0,0,1-.349-.508,1.587,1.587,0,0,1-.126-.6,1.562,1.562,0,0,1,.475-1.126.729.729,0,0,1,.239-.19,1.6,1.6,0,0,1,.269-.159,1.693,1.693,0,0,1,.3-.079,1.366,1.366,0,0,1,.618,0,1.506,1.506,0,0,1,.285.079,1.836,1.836,0,0,1,.286.159,1.312,1.312,0,0,1,.236.19,1.637,1.637,0,0,1,.461,1.126,1.6,1.6,0,0,1-.461,1.11,3.037,3.037,0,0,1-.236.206.989.989,0,0,1-.286.142.837.837,0,0,1-.285.1A2.169,2.169,0,0,1,180.439,173.744Z" transform="translate(-178.854 -170.57)"/></g><g transform="translate(1.136 7.914)"><path class="b" d="M164.714,199.126a1.583,1.583,0,0,1-1.347-1.789h0a1.584,1.584,0,0,1,1.791-1.347h0a1.576,1.576,0,0,1,1.347,1.791h0a1.586,1.586,0,0,1-1.569,1.363h0C164.872,199.143,164.792,199.126,164.714,199.126Zm6.639-1.346a1.567,1.567,0,0,1,1.347-1.791h0a1.575,1.575,0,0,1,1.791,1.33h0a1.591,1.591,0,0,1-1.347,1.806h0c-.079,0-.143.017-.222.017h0A1.586,1.586,0,0,1,171.353,197.78Zm-14.737-1.031a1.577,1.577,0,0,1-.777-2.091h0a1.584,1.584,0,0,1,2.092-.792h0a1.6,1.6,0,0,1,.792,2.108h0a1.578,1.578,0,0,1-1.443.918h0A1.438,1.438,0,0,1,156.615,196.749Zm22.534-.792a1.564,1.564,0,0,1,.777-2.091h0a1.577,1.577,0,0,1,2.092.777h0a1.594,1.594,0,0,1-.777,2.107h0a1.6,1.6,0,0,1-.651.143h0A1.572,1.572,0,0,1,179.149,195.956ZM149.531,192.2a1.584,1.584,0,0,1-.174-2.233h0a1.6,1.6,0,0,1,2.251-.176h0a1.619,1.619,0,0,1,.159,2.251h0a1.638,1.638,0,0,1-1.2.539h0A1.565,1.565,0,0,1,149.531,192.2Zm36.559-.173a1.617,1.617,0,0,1,.159-2.25h.016a1.587,1.587,0,0,1,2.236.173h0a1.587,1.587,0,0,1-.176,2.236h.016a1.633,1.633,0,0,1-1.044.379h0A1.637,1.637,0,0,1,186.09,192.027ZM144,185.83a1.58,1.58,0,0,1,.459-2.185h0a1.588,1.588,0,0,1,2.2.475h0a1.589,1.589,0,0,1-.475,2.187h0a1.58,1.58,0,0,1-.857.253h0A1.56,1.56,0,0,1,144,185.83Zm47.666.445a1.567,1.567,0,0,1-.475-2.187h0a1.588,1.588,0,0,1,2.187-.476h0a1.591,1.591,0,0,1,.475,2.2h0a1.587,1.587,0,0,1-1.33.712h0A1.542,1.542,0,0,1,191.668,186.275Zm-51.185-8.114a1.573,1.573,0,0,1,1.063-1.965h0a1.6,1.6,0,0,1,1.979,1.078h0a1.594,1.594,0,0,1-1.077,1.965h0a2.329,2.329,0,0,1-.445.063h0A1.561,1.561,0,0,1,140.483,178.161Zm54.926,1.046a1.576,1.576,0,0,1-1.08-1.965h0a1.59,1.59,0,0,1,1.967-1.077h0a1.6,1.6,0,0,1,1.077,1.965h0a1.589,1.589,0,0,1-1.522,1.141h0A1.366,1.366,0,0,1,195.41,179.207Z" transform="translate(-140.415 -176.103)"/></g><g transform="translate(0 0.023)"><path class="b" d="M141.206,173.737a1.589,1.589,0,0,1-1.126-.475,1.538,1.538,0,0,1-.459-1.11,1.71,1.71,0,0,1,.11-.618,1.6,1.6,0,0,1,2.585-.508,1.4,1.4,0,0,1,.348.508,1.736,1.736,0,0,1,.127.618,1.623,1.623,0,0,1-1.585,1.585Z" transform="translate(-139.621 -170.586)"/></g></g></g><path class="c" d="M-24.243,650.341V440.064c0-28.52-27.023-51.724-60.24-51.724s-60.24,23.2-60.24,51.724V650.341Z" transform="translate(482.778 7633.66)"/><circle class="b" cx="18.959" cy="18.959" r="18.959" transform="translate(267.939 8160.437)"/><g transform="translate(1585.763 7775.608)"><rect class="d" width="3.485" height="3.485" transform="translate(0)"/><rect class="d" width="3.485" height="3.485" transform="translate(0 21.068)"/><rect class="d" width="3.485" height="3.485" transform="translate(0 42.137)"/><rect class="d" width="3.485" height="3.485" transform="translate(19.075)"/><rect class="d" width="3.485" height="3.485" transform="translate(19.075 21.068)"/><rect class="d" width="3.485" height="3.485" transform="translate(19.075 42.137)"/><rect class="d" width="3.485" height="3.485" transform="translate(38.15)"/><rect class="d" width="3.485" height="3.485" transform="translate(38.15 21.068)"/><rect class="d" width="3.485" height="3.485" transform="translate(38.15 42.137)"/><rect class="d" width="3.485" height="3.485" transform="translate(57.226)"/><rect class="d" width="3.485" height="3.485" transform="translate(57.226 21.068)"/><rect class="d" width="3.485" height="3.485" transform="translate(57.226 42.137)"/><rect class="d" width="3.485" height="3.485" transform="translate(76.301)"/><rect class="d" width="3.485" height="3.485" transform="translate(76.301 21.068)"/><rect class="d" width="3.485" height="3.485" transform="translate(76.301 42.137)"/><rect class="d" width="3.485" height="3.485" transform="translate(95.376)"/><rect class="d" width="3.485" height="3.485" transform="translate(95.376 21.068)"/><rect class="d" width="3.485" height="3.485" transform="translate(95.376 42.137)"/><rect class="d" width="3.485" height="3.485" transform="translate(114.452)"/><rect class="d" width="3.485" height="3.485" transform="translate(114.452 21.068)"/><rect class="d" width="3.485" height="3.485" transform="translate(114.452 42.137)"/><rect class="d" width="3.485" height="3.485" transform="translate(133.527)"/><rect class="d" width="3.485" height="3.485" transform="translate(133.527 21.068)"/><rect class="d" width="3.485" height="3.485" transform="translate(133.527 42.137)"/><rect class="d" width="3.485" height="3.485" transform="translate(152.602)"/><rect class="d" width="3.485" height="3.485" transform="translate(152.602 21.068)"/><rect class="d" width="3.485" height="3.485" transform="translate(152.602 42.137)"/><rect class="d" width="3.485" height="3.485" transform="translate(171.677)"/><rect class="d" width="3.485" height="3.485" transform="translate(171.677 21.068)"/><rect class="d" width="3.485" height="3.485" transform="translate(171.677 42.137)"/><rect class="d" width="3.485" height="3.485" transform="translate(190.753)"/><rect class="d" width="3.485" height="3.485" transform="translate(190.753 21.068)"/><rect class="d" width="3.485" height="3.485" transform="translate(190.753 42.137)"/></g><g transform="translate(282.504 7726.106)"><path class="e" d="M-74.076,294.661a3.7,3.7,0,0,1-3.7,3.7,3.7,3.7,0,0,1-3.7-3.7,3.7,3.7,0,0,1,3.7-3.7A3.7,3.7,0,0,1-74.076,294.661Z" transform="translate(81.483 -290.958)"/><path class="e" d="M-40.3,294.661a3.7,3.7,0,0,1-3.7,3.7,3.7,3.7,0,0,1-3.7-3.7,3.7,3.7,0,0,1,3.7-3.7A3.7,3.7,0,0,1-40.3,294.661Z" transform="translate(96.014 -290.958)"/><path class="e" d="M-6.53,294.661a3.7,3.7,0,0,1-3.7,3.7,3.7,3.7,0,0,1-3.7-3.7,3.7,3.7,0,0,1,3.7-3.7A3.7,3.7,0,0,1-6.53,294.661Z" transform="translate(110.545 -290.958)"/><path class="e" d="M27.243,294.661a3.7,3.7,0,1,1-3.7-3.7A3.7,3.7,0,0,1,27.243,294.661Z" transform="translate(125.076 -290.958)"/><path class="e" d="M-74.076,328.14a3.705,3.705,0,0,1-3.7,3.7,3.7,3.7,0,0,1-3.7-3.7,3.7,3.7,0,0,1,3.7-3.7A3.7,3.7,0,0,1-74.076,328.14Z" transform="translate(81.483 -276.553)"/><path class="e" d="M-40.3,328.14a3.705,3.705,0,0,1-3.7,3.7,3.7,3.7,0,0,1-3.7-3.7,3.7,3.7,0,0,1,3.7-3.7A3.7,3.7,0,0,1-40.3,328.14Z" transform="translate(96.014 -276.553)"/><path class="e" d="M-6.53,328.14a3.7,3.7,0,0,1-3.7,3.7,3.705,3.705,0,0,1-3.7-3.7,3.7,3.7,0,0,1,3.7-3.7A3.7,3.7,0,0,1-6.53,328.14Z" transform="translate(110.545 -276.553)"/><path class="e" d="M27.243,328.14a3.7,3.7,0,1,1-3.7-3.7A3.7,3.7,0,0,1,27.243,328.14Z" transform="translate(125.076 -276.553)"/><path class="e" d="M-74.076,361.619a3.705,3.705,0,0,1-3.7,3.7,3.7,3.7,0,0,1-3.7-3.7,3.7,3.7,0,0,1,3.7-3.7A3.7,3.7,0,0,1-74.076,361.619Z" transform="translate(81.483 -262.149)"/><path class="e" d="M-40.3,361.619a3.705,3.705,0,0,1-3.7,3.7,3.7,3.7,0,0,1-3.7-3.7,3.7,3.7,0,0,1,3.7-3.7A3.7,3.7,0,0,1-40.3,361.619Z" transform="translate(96.014 -262.149)"/><path class="e" d="M-6.53,361.619a3.7,3.7,0,0,1-3.7,3.7,3.705,3.705,0,0,1-3.7-3.7,3.7,3.7,0,0,1,3.7-3.7A3.7,3.7,0,0,1-6.53,361.619Z" transform="translate(110.545 -262.149)"/><path class="e" d="M27.243,361.619a3.7,3.7,0,1,1-3.7-3.7A3.7,3.7,0,0,1,27.243,361.619Z" transform="translate(125.076 -262.149)"/><path class="e" d="M-74.076,395.1a3.7,3.7,0,0,1-3.7,3.7,3.7,3.7,0,0,1-3.7-3.7,3.7,3.7,0,0,1,3.7-3.7A3.705,3.705,0,0,1-74.076,395.1Z" transform="translate(81.483 -247.744)"/><path class="e" d="M-40.3,395.1a3.7,3.7,0,0,1-3.7,3.7,3.7,3.7,0,0,1-3.7-3.7,3.7,3.7,0,0,1,3.7-3.7A3.705,3.705,0,0,1-40.3,395.1Z" transform="translate(96.014 -247.744)"/><path class="e" d="M-6.53,395.1a3.7,3.7,0,0,1-3.7,3.7,3.7,3.7,0,0,1-3.7-3.7,3.705,3.705,0,0,1,3.7-3.7A3.7,3.7,0,0,1-6.53,395.1Z" transform="translate(110.545 -247.744)"/><path class="e" d="M27.243,395.1a3.7,3.7,0,1,1-3.7-3.7A3.7,3.7,0,0,1,27.243,395.1Z" transform="translate(125.076 -247.744)"/></g><g transform="translate(531.938 7723.943)"><g transform="translate(0 0)"><path class="c" d="M432.093,331.3a90.634,90.634,0,0,1-90.531-90.531V-18.226h1.19V240.767a89.341,89.341,0,0,0,178.682,0V-18.226h1.19V240.767A90.634,90.634,0,0,1,432.093,331.3Z" transform="translate(-341.562 18.226)"/></g><g transform="translate(13.113 0)"><path class="c" d="M428.149,318.184a77.506,77.506,0,0,1-77.419-77.417V-18.226h1.19V240.767a76.228,76.228,0,0,0,152.456,0V-18.226h1.19V240.767A77.5,77.5,0,0,1,428.149,318.184Z" transform="translate(-350.73 18.226)"/></g><g transform="translate(26.227 0)"><path class="c" d="M424.2,305.07a64.376,64.376,0,0,1-64.3-64.3V-18.226h1.19V240.767a63.114,63.114,0,0,0,126.228,0V-18.226h1.19V240.767A64.375,64.375,0,0,1,424.2,305.07Z" transform="translate(-359.899 18.226)"/></g><g transform="translate(39.341 0)"><path class="c" d="M420.258,291.956a51.248,51.248,0,0,1-51.19-51.189V-18.226h1.19V240.767a50,50,0,0,0,100,0V-18.226h1.19V240.767A51.246,51.246,0,0,1,420.258,291.956Z" transform="translate(-369.068 18.226)"/></g></g><g transform="translate(2489.646 7480.037)"><path class="f" d="M708.364,186.817H252.906A101.581,101.581,0,0,1,151.441,85.352h1.127A100.452,100.452,0,0,0,252.906,185.69H708.364Z" transform="translate(-1417.441 160.648)"/></g><g transform="translate(1575.021 7848.651)"><path class="g" d="M531.487,552.469c-85.66,0-155.349-69.689-155.349-155.349s69.689-155.349,155.349-155.349S686.836,311.46,686.836,397.12,617.147,552.469,531.487,552.469Zm0-309.319c-84.9,0-153.97,69.072-153.97,153.97s69.072,153.969,153.97,153.969S685.456,482.017,685.456,397.12,616.384,243.15,531.487,243.15Z" transform="translate(-376.138 -241.771)"/></g><path class="d" d="M-161.57,388.5l8.7-8.7a1.585,1.585,0,0,0,0-2.244,1.586,1.586,0,0,0-2.243,0l-8.7,8.7-8.7-8.7a1.587,1.587,0,0,0-2.244,0,1.587,1.587,0,0,0,0,2.244l8.7,8.7-8.7,8.7a1.587,1.587,0,0,0,0,2.244,1.587,1.587,0,0,0,2.244,0l8.7-8.7,8.7,8.7a1.586,1.586,0,0,0,2.243,0,1.585,1.585,0,0,0,0-2.244Z" transform="translate(1785.655 7652.74)"/><path class="h" d="M-169.556,163.258a9.1,9.1,0,0,1-9.1,9.1,9.1,9.1,0,0,1-9.1-9.1,9.1,9.1,0,0,1,9.1-9.1A9.1,9.1,0,0,1-169.556,163.258Z" transform="translate(1898.265 7784.104)"/></g></svg>