<svg xmlns="http://www.w3.org/2000/svg" viewBox="0 0 131.7 110.7"><defs><style>.cls-1{fill:#fff;}.cls-2{fill:#fdfce6;}</style></defs><g id="Layer_2" data-name="Layer 2"><g id="Layer_1-2" data-name="Layer 1"><path class="cls-1" d="M10.9,28.7v2.1L8.5,32c-1,.9-1.6,2.4-1.6,4.6v2.5h0v61.4h0v9.8l-.2.2A6.9,6.9,0,0,1,0,103.6V34.2H0V19H1.5a9.3,9.3,0,0,1,1,1,13.3,13.3,0,0,1,2.4,3.6,10.7,10.7,0,0,0,2.9,3.6A6,6,0,0,0,10.9,28.7Z"/><path class="cls-2" d="M90.6,93.6h0Z"/><path class="cls-2" d="M131.5,30.2c-.4,6.2-1.2,12.3-4,18a24.9,24.9,0,0,1-13.4,12.5c-.4.1-1.5-.2-1.2,1h3.7l4.2-.9c-3.3,9.7-7.8,17.9-18.1,21.6h3.7a27.3,27.3,0,0,0,3.8-.4c-1.5,7.6-5.9,13.1-11.6,17.8l-2.4,1.9c-1.6,1.8-3.5,3.1-6.1,2.1-.1-.1,0-.3,0-.3h-.4c-1.2-.9-.8-2.2-.7-3.2.7-16.8,5.5-32.1,15.5-45.7,3.8-5.2,8.1-10,11.7-15.3l1.4-2.3c-2.7,4.5-6.4,8.5-9.9,12.5C97.8,61,91,74.2,88.4,89.3a92.1,92.1,0,0,0-1.5,16.5c-.3.8.1,1.8-.2,2.6a10.3,10.3,0,0,1-.1,1.7c-.2,1.4-.5-.3-.8-.1s-.1-.6-.2-.9a4.3,4.3,0,0,1-.5-1.6c0-3.7-1.8-6.6-3.7-9.6S78,89.7,77.8,84.6A27.1,27.1,0,0,0,83,90.1c-.7-2.2-1.3-3.9-1.9-5.6-.1-.2-.1-.5-.2-.7a22.4,22.4,0,0,1-1.6-8v-4c.4-8.8,3.9-16.4,9-23.4a42.3,42.3,0,0,1,4.4-5.1c-.7,4-1.5,7.9.4,12.1a41.7,41.7,0,0,1,14.3-26.1c.5-.6.9-1.2,1.4-1.7l.5.3c-.2,1.9-.3,3.8-.5,5.8,2.3-1,3.5-3.2,4.9-4.9A89.4,89.4,0,0,0,129.3,1.3c.2-.5.3-1,.9-1.3.5,4.7,1.1,9.3,1.3,14S131.8,24.8,131.5,30.2Z"/><path class="cls-1" d="M65.1,58.8l-1.3,2A7.3,7.3,0,0,0,58,58.2a6.9,6.9,0,0,0-6.4,3.7H64.5l-.7-1.1,1.3-1.7,4.1-5.6h0L72,49.6V82.7c0,4.2-.9,7.6-2.7,9.9s-5,3.9-9,3.9-6.8-1.2-8.8-3.8-2.9-5.7-2.9-10H33.7c0,7.3-1.1,13.2-3.4,17.7a17.4,17.4,0,0,1-8.1,8,20.2,20.2,0,0,1-9,2V108c3,0,5.8-1.9,8.5-5.6s5.1-10.6,5.1-18.1V64.1c0-2.3-.5-3.8-1.6-4.6l-2.4-1.3v-2a5.6,5.6,0,0,0,3.1-1.6A9.1,9.1,0,0,0,28.8,51a13.5,13.5,0,0,1,2.4-3.5,11.3,11.3,0,0,1,1.1-1.1h1.4V75.8H55.6v6.9a8.2,8.2,0,0,0,1.3,5,4,4,0,0,0,6.8,0,8.2,8.2,0,0,0,1.4-5V68.8H44.3V62.9a25.6,25.6,0,0,1,.7-6.4l2.7,2,3.6,2.7.4.3-.4-.4-4-4-2-2,.6-1.7a16.6,16.6,0,0,1,2.5-4.5l.2.3,3.6,7.3h0l1.4,2.9-1.3-3.3L49.4,48h-.1A17,17,0,0,1,51.2,46,28.8,28.8,0,0,1,57,42.4l-1.4.7.2.8.9,6.4,1.1,7.8-.4-8.4-.3-6V42.3l1.4-.6,6.6-3a12.5,12.5,0,0,0,2.2-1.6l-2.4,8.7-.2.6L61.1,58.7l4-12,.2-.5,3.9-12H72V47.8l-3,4.7Z"/><path class="cls-1" d="M67.3,21.3a2.5,2.5,0,0,0-.9,1.9,2.5,2.5,0,0,0,.9,2,2.4,2.4,0,0,0,1.9.8,2.4,2.4,0,0,0,2-.8,2.8,2.8,0,0,0,.8-2,2.7,2.7,0,0,0-.8-1.9,2.5,2.5,0,0,0-2-.9A2.5,2.5,0,0,0,67.3,21.3Zm-.1,6.5a2.8,2.8,0,0,0-.9,2,2.7,2.7,0,0,0,.9,2,2.7,2.7,0,0,0,1.9.8,2.8,2.8,0,0,0,2-.8,3,3,0,0,0,.8-2,3.2,3.2,0,0,0-.8-2,2.8,2.8,0,0,0-2-.8A2.7,2.7,0,0,0,67.2,27.8Z"/></g></g></svg>